<svg width="44" height="44" viewBox="0 0 44 44" fill="none" xmlns="http://www.w3.org/2000/svg">
<path d="M20.2848 28.5811C20.1481 28.7178 19.969 28.7862 19.7899 28.7862C19.6107 28.7862 19.4316 28.7178 19.2949 28.5811C19.0214 28.3076 19.0214 27.8646 19.2949 27.5911L19.4395 27.4465C19.348 27.4265 19.2544 27.4141 19.1585 27.4141C18.8102 27.4141 18.4824 27.5494 18.2362 27.7955L17.2374 28.7944C16.7291 29.3027 16.7288 30.1293 17.2367 30.6375C17.4828 30.8844 17.8103 31.0201 18.1586 31.0204C18.5066 31.0204 18.8348 30.8847 19.0809 30.6386L20.0801 29.6397C20.4061 29.3139 20.5204 28.8575 20.4285 28.4375L20.2848 28.5811Z" fill="white"/>
<path d="M29.9702 33.4319C29.8787 33.5484 29.7836 33.6624 29.6868 33.776C29.5216 33.9725 29.3491 34.1652 29.1661 34.3523C29.1404 34.3785 29.1189 34.4073 29.0929 34.4333C29.0679 34.4583 29.0403 34.4789 29.0152 34.5036C28.8268 34.6882 28.6315 34.8629 28.4318 35.0306C28.3163 35.129 28.2001 35.2253 28.0815 35.3181L29.4997 36.7366L31.3876 34.849L29.9702 33.4319Z" fill="white"/>
<path d="M24.3727 22.2002C24.0244 22.2002 23.6965 22.3356 23.4504 22.5817L22.4516 23.5802C22.1258 23.9062 22.0115 24.3628 22.1035 24.7829L22.2468 24.6395C22.5203 24.366 22.9633 24.366 23.2368 24.6395C23.5102 24.913 23.5102 25.356 23.2368 25.6295L23.0923 25.7739C23.1837 25.794 23.2771 25.8064 23.3728 25.8065C23.7208 25.8065 24.049 25.6708 24.2954 25.4247L25.2943 24.4262C25.8026 23.9182 25.8029 23.091 25.2949 22.5827C25.0488 22.3359 24.7214 22.2002 24.3727 22.2002Z" fill="white"/>
<path d="M33.2074 35.3357C33.1493 35.2776 33.082 35.269 33.0471 35.269C33.0119 35.269 32.9446 35.2776 32.8868 35.3354L29.9867 38.2351C29.8985 38.3237 29.8981 38.4679 29.9867 38.5565L33.7646 42.3344C34.6527 43.2218 36.0973 43.2218 36.9854 42.3344C37.8731 41.4463 37.8731 40.0014 36.9854 39.1133L33.2074 35.3357Z" fill="white"/>
<path d="M29.2806 31.9729C29.3012 31.9402 29.3353 31.9215 29.3605 31.8931C30.3809 30.3361 30.931 28.5167 30.9293 26.6109C30.9272 24.0301 29.9205 21.6031 28.0945 19.777C26.2117 17.8945 23.7388 16.9531 21.2657 16.9531C18.7925 16.9531 16.3197 17.8945 14.4369 19.777C12.6111 21.6031 11.6041 24.0301 11.6021 26.6109C11.6 29.1925 12.6036 31.6188 14.4283 33.4435C17.7165 36.7311 22.8023 37.1505 26.5507 34.7026C26.5765 34.6804 26.5927 34.6495 26.6219 34.631C27.1541 34.2943 27.6378 33.906 28.1006 33.4432C28.56 32.9834 28.9569 32.4888 29.2806 31.9729ZM26.2841 25.4162L25.2853 26.4147C24.7742 26.9254 24.0954 27.2067 23.3734 27.2067C23.3731 27.2067 23.3727 27.2067 23.3724 27.2067C22.8913 27.2065 22.4349 27.0712 22.0293 26.8369L21.4921 27.3741C22.086 28.4075 21.9522 29.7484 21.0701 30.6302L20.071 31.629C19.5603 32.1394 18.8814 32.4207 18.1594 32.4207C17.4365 32.4204 16.7569 32.1387 16.2462 31.6273C15.193 30.5731 15.1934 28.8581 16.2476 27.8046L17.2464 26.8058C17.7571 26.2951 18.436 26.0141 19.1583 26.0141H19.1593C19.6402 26.0141 20.0969 26.1493 20.5026 26.3837L21.0396 25.8467C20.4456 24.8133 20.5794 23.4721 21.4615 22.5903L22.4604 21.5918C22.9711 21.0811 23.65 20.8001 24.3723 20.8001C24.3726 20.8001 24.3729 20.8001 24.3733 20.8001C25.0956 20.8005 25.7748 21.0818 26.2855 21.5928C27.3387 22.6474 27.338 24.3627 26.2841 25.4162Z" fill="white"/>
<path d="M40.921 1H3.08347C1.93457 1 1 1.93047 1 3.0739V6.84808H42.9949V3.0739C42.9949 1.93047 42.0644 1 40.921 1ZM4.52669 4.67129C4.14008 4.67129 3.77944 4.31065 3.77944 3.92404C3.77944 3.53743 4.14008 3.17679 4.52669 3.17679C4.9133 3.17679 5.27394 3.53743 5.27394 3.92404C5.27394 4.31065 4.9133 4.67129 4.52669 4.67129ZM8.05851 4.67129C7.6719 4.67129 7.31126 4.31065 7.31126 3.92404C7.31126 3.53743 7.6719 3.17679 8.05851 3.17679C8.44512 3.17679 8.80576 3.53743 8.80576 3.92404C8.80576 4.31065 8.44512 4.67129 8.05851 4.67129ZM11.5903 4.67129C11.2037 4.67129 10.8431 4.31065 10.8431 3.92404C10.8431 3.53743 11.2037 3.17679 11.5903 3.17679C11.9769 3.17679 12.3376 3.53743 12.3376 3.92404C12.3376 4.31065 11.9769 4.67129 11.5903 4.67129ZM39.5249 4.62411H25.5976C25.211 4.62411 24.8975 4.31065 24.8975 3.92404C24.8975 3.53743 25.211 3.22397 25.5976 3.22397H39.5249C39.9115 3.22397 40.225 3.53743 40.225 3.92404C40.225 4.31065 39.9115 4.62411 39.5249 4.62411Z" fill="white"/>
<path d="M1 25.2671C1 26.416 1.93457 27.3506 3.08347 27.3506H10.2373C10.2213 27.1043 10.2016 26.8586 10.2018 26.6095C10.2042 23.655 11.3565 20.877 13.4468 18.787C17.758 14.4758 24.7731 14.4758 29.0843 18.787C31.4303 21.1327 32.4916 24.2765 32.2893 27.3506H40.921C42.0644 27.3506 42.9949 26.416 42.9949 25.2671V8.24829H1V25.2671Z" fill="white"/>
</svg>
