<svg width="44" height="44" viewBox="0 0 44 44" fill="none" xmlns="http://www.w3.org/2000/svg">
<path d="M39.2978 6.54747C39.2978 3.48497 36.795 1 33.7325 1H16.3201C14.8328 1 13.4327 1.57753 12.3826 2.62749L5.62781 9.38246C4.57764 10.4325 4 11.815 4 13.3026V37.435C4 40.4975 6.50281 43 9.56531 43H33.7325C36.795 43 39.2978 40.4975 39.2978 37.435V6.54747ZM11.4025 21.6076L16.2885 15.6774C16.8131 15.0434 17.7018 14.8588 18.4332 15.2314L23.8541 17.9956L26.2988 15.1387L25.2675 15.1929C24.2335 15.2356 23.4781 14.5016 23.4269 13.5369C23.3773 12.5722 24.119 11.7484 25.0829 11.698L30.1859 11.4306C31.0674 11.3798 31.9686 12.2242 32.0218 13.0677C32.0449 13.4335 32.3052 18.3706 32.2931 18.1913C32.3445 19.1924 31.5471 20.0327 30.5431 20.0327C29.6185 20.0327 28.8461 19.3081 28.7965 18.3742L28.7589 17.6473L25.6161 21.3196C25.0897 21.934 24.213 22.1075 23.4918 21.74L18.0948 18.9877L14.1027 23.8327C13.4913 24.5772 12.3886 24.6864 11.64 24.0711C10.8932 23.4558 10.7872 22.3535 11.4025 21.6076ZM30.5448 32.5639H12.7526C11.7853 32.5639 11.0026 31.7803 11.0026 30.8139C11.0026 29.8474 11.7853 29.0639 12.7526 29.0639H30.5448C31.5121 29.0639 32.2948 29.8474 32.2948 30.8139C32.2948 31.7803 31.5121 32.5639 30.5448 32.5639Z" fill="white"/>
</svg>
