<svg width="44" height="44" viewBox="0 0 44 44" fill="none" xmlns="http://www.w3.org/2000/svg">
<path d="M31.6934 12.5229C28.7198 12.521 26.3117 10.141 26.3117 7.20871V1H11.1592C8.86214 1 7 2.83749 7 5.104V38.896C7 39.985 7.43678 41.0278 8.21869 41.7975C8.99866 42.569 10.0555 43 11.1592 43H33.8408C34.9445 43 36.0013 42.569 36.7813 41.7975C37.5632 41.0278 38 39.985 38 38.896V12.5229H31.6934ZM20.4718 16.725C20.4718 16.1594 20.9379 15.6995 21.5111 15.6995H22.3593C23.5663 15.6591 24.7363 16.1036 25.604 16.9309C26.4717 17.7583 26.9631 18.8973 26.9631 20.0883C26.9631 21.2793 26.4717 22.4203 25.604 23.2477C24.7363 24.075 23.5663 24.5194 22.3593 24.479H21.5111C20.9379 24.479 20.4718 24.0192 20.4718 23.4516V16.725ZM13.1399 20.5886V16.725C13.1399 16.1594 13.6059 15.6995 14.1792 15.6995H16.135C16.952 15.6668 17.7476 15.9631 18.3364 16.5211C18.9273 17.0791 19.2607 17.8506 19.2607 18.6568C19.2607 19.4649 18.9273 20.2364 18.3364 20.7944C17.7476 21.3524 16.952 21.6487 16.135 21.616H15.2205V23.4535V23.4516C15.2205 24.0191 14.7544 24.479 14.1792 24.479C13.606 24.479 13.1399 24.0191 13.1399 23.4516L13.1399 20.5886ZM13.6605 27.5307H16.4314C17.0066 27.5307 17.4707 27.9905 17.4707 28.5581C17.4707 29.1238 17.0066 29.5836 16.4314 29.5836H13.6605C13.0853 29.5836 12.6193 29.1238 12.6193 28.5581C12.6193 27.9906 13.0853 27.5307 13.6605 27.5307ZM25.6758 37.8242H13.6605C13.0853 37.8242 12.6193 37.3643 12.6193 36.7968C12.6193 36.2311 13.0853 35.7713 13.6605 35.7713H25.6758C26.251 35.7713 26.717 36.2311 26.717 36.7968C26.717 37.3643 26.251 37.8242 25.6758 37.8242ZM31.344 37.8242H29.316C28.7408 37.8242 28.2767 37.3643 28.2767 36.7968C28.2767 36.2311 28.7408 35.7713 29.316 35.7713H31.3381C31.9133 35.7713 32.3793 36.2311 32.3793 36.7968C32.3793 37.3643 31.9133 37.8242 31.3381 37.8242H31.344ZM31.344 33.7202L13.66 33.7183C13.0848 33.7183 12.6188 33.2603 12.6188 32.6928C12.6188 32.1252 13.0848 31.6673 13.66 31.6673H31.338C31.9132 31.6673 32.3792 32.1252 32.3792 32.6928C32.3792 33.2603 31.9132 33.7183 31.338 33.7183L31.344 33.7202ZM31.344 29.6162L20.0655 29.6143C19.4903 29.6143 19.0262 29.1544 19.0262 28.5888C19.0262 28.0212 19.4903 27.5613 20.0655 27.5613H31.338C31.9132 27.5613 32.3792 28.0212 32.3792 28.5888C32.3792 29.1544 31.9132 29.6143 31.338 29.6143L31.344 29.6162ZM31.8646 19.0976V19.0957C32.4379 19.0957 32.9039 19.5555 32.9039 20.1231C32.9039 20.6888 32.4379 21.1486 31.8646 21.1486H30.059V23.4825C30.059 24.0501 29.5949 24.5099 29.0197 24.5099C28.4445 24.5099 27.9804 24.0501 27.9804 23.4825V16.7251C27.9804 16.1594 28.4445 15.6996 29.0197 15.6996H31.8588C32.434 15.6996 32.898 16.1594 32.898 16.7251C32.898 17.2927 32.434 17.7525 31.8588 17.7525H30.059V19.0667L31.8646 19.0976ZM28.3899 7.20871V1.42114L37.3851 10.4719H31.6934C29.8683 10.4681 28.3899 9.00768 28.3899 7.20871ZM22.552 22.4204V17.7565C23.7823 17.8565 24.73 18.8705 24.73 20.0884C24.73 21.3083 23.7824 22.3223 22.552 22.4204ZM15.22 19.5632V17.7526H16.1345C16.39 17.7334 16.6415 17.82 16.8287 17.9912C17.0178 18.1644 17.1231 18.4049 17.1231 18.6569C17.1231 18.9109 17.0178 19.1514 16.8287 19.3227C16.6415 19.4959 16.3899 19.5824 16.1345 19.5632L15.22 19.5632Z" fill="white"/>
</svg>
