<svg width="44" height="44" viewBox="0 0 44 44" fill="none" xmlns="http://www.w3.org/2000/svg">
<path fill-rule="evenodd" clip-rule="evenodd" d="M39.1413 42.1218C37.9893 43.2927 36.1236 43.2927 34.9698 42.1218L24.9865 31.9577C26.6518 30.8541 28.0704 29.4063 29.1544 27.7108L39.1414 37.8785C40.2862 39.0532 40.2861 40.9471 39.1413 42.1218ZM8.22732 21.058V21.9249C8.88202 24.9116 10.9177 27.3923 13.6904 28.5779V20.3589H8.92338C8.54236 20.3607 8.23446 20.672 8.22732 21.058ZM19.0478 7.79835H20.8795V28.5777C23.6432 27.3903 25.6736 24.9189 26.3334 21.9397V7.79835H28.1652C28.3351 7.80382 28.4925 7.70547 28.5676 7.54885C28.641 7.39223 28.6177 7.20466 28.5086 7.07173L24.2817 1.34238C24.1171 1.12566 23.8631 1 23.5948 1C23.3265 1 23.0725 1.12566 22.9079 1.34238L18.6953 7.07173C18.5951 7.20649 18.5808 7.38861 18.6577 7.53794C18.7239 7.69638 18.8778 7.80018 19.0478 7.79835ZM14.5472 14.7916L14.5454 28.8947C16.3252 29.4556 18.2303 29.4556 20.0103 28.8947V14.0648H15.2469C15.0591 14.0666 14.8802 14.1431 14.7479 14.2797C14.6173 14.4163 14.544 14.6002 14.5457 14.7914L14.5472 14.7916ZM30.5747 19.8636L30.5729 19.8654C30.5783 16.5382 29.3745 13.3258 27.1939 10.8488V16.1301C28.2994 19.1678 28.0024 22.5499 26.3854 25.3379C24.7684 28.1261 22.0047 30.0257 18.8598 30.5082C15.7133 30.9927 12.522 30.0074 10.1696 27.8275C7.81738 25.6475 6.5545 22.5042 6.72979 19.2715C6.90688 16.0371 8.50606 13.0577 11.0801 11.1565C13.656 9.25519 16.9348 8.63783 20.0098 9.47189V8.67606H19.0474C18.5573 8.67606 18.1083 8.39378 17.8883 7.94759C17.67 7.50141 17.7148 6.96779 18.0081 6.56899L18.1584 6.35955C17.8686 6.34134 17.5753 6.33224 17.2783 6.33224L17.2801 6.33042C13.7579 6.33042 10.3791 7.75457 7.88884 10.2896C5.39884 12.8265 4 16.2647 4 19.8508C4 23.437 5.39884 26.8748 7.88884 29.412C10.3788 31.9471 13.7577 33.3712 17.2801 33.3712C20.8022 33.3712 24.1793 31.9471 26.6695 29.412C29.1613 26.8751 30.5601 23.437 30.5601 19.8508L30.5747 19.8636Z" fill="white"/>
</svg>
