<svg width="44" height="44" viewBox="0 0 44 44" fill="none" xmlns="http://www.w3.org/2000/svg">
<path d="M24.365 33.1488H37.4928C38.0173 33.1488 38.4968 32.9323 38.844 32.5865C39.1899 32.2406 39.4064 31.7612 39.4064 31.2366V2.91213C39.4064 2.3876 39.1899 1.90812 38.844 1.56231C38.4982 1.21649 38.0187 1 37.4928 1H21.6596C21.1351 1 20.6556 1.21649 20.3083 1.56231C19.9625 1.90812 19.746 2.3876 19.746 2.91213V10.1349V31.2366C19.746 31.7612 19.9625 32.2406 20.3083 32.5865C20.6541 32.9323 21.1336 33.1488 21.6596 33.1488H24.365ZM31.3801 29.6296C31.7811 29.6296 32.1066 29.9551 32.1066 30.3561C32.1066 30.7571 31.7811 31.0826 31.3801 31.0826H27.7737C27.3727 31.0826 27.0473 30.7571 27.0473 30.3561C27.0473 29.9551 27.3727 29.6296 27.7737 29.6296H31.3801ZM18.2945 10.8512H5.91213C5.3876 10.8512 4.90812 11.0677 4.56231 11.4135C4.21649 11.7594 4 12.2388 4 12.7634V41.0879C4 41.6124 4.21649 42.0919 4.56231 42.4377C4.90812 42.7835 5.38905 43 5.91213 43H21.7453C22.2698 43 22.7493 42.7835 23.0951 42.4377C23.4409 42.0919 23.6574 41.6109 23.6574 41.0879V34.6003H21.6596C20.734 34.6003 19.8898 34.2211 19.281 33.6123C18.6722 33.0035 18.293 32.1607 18.293 31.2352V10.8498L18.2945 10.8512ZM12.0248 40.9353C11.6238 40.9353 11.2983 40.6098 11.2983 40.2088C11.2983 39.8078 11.6238 39.4823 12.0248 39.4823H15.6311C16.0322 39.4823 16.3576 39.8078 16.3576 40.2088C16.3576 40.6098 16.0322 40.9353 15.6311 40.9353H12.0248Z" fill="white"/>
</svg>
