<svg width="44" height="44" viewBox="0 0 44 44" fill="none" xmlns="http://www.w3.org/2000/svg">
<path d="M15.4758 9.87458L16.5043 8.31611C16.6923 8.03089 17.0104 7.85954 17.3511 7.85954H42.9995V4.75579C42.9995 3.23633 41.7673 2 40.2527 2H3.74417C2.23112 2 1 3.23633 1 4.75579V9.87458H15.4758ZM12.2003 4.91606C12.7621 4.91606 13.2183 5.37422 13.2183 5.93571C13.2183 6.4972 12.7621 6.95799 12.2003 6.95799C11.6386 6.95799 11.185 6.49983 11.185 5.93571C11.185 5.37158 11.6412 4.91606 12.2003 4.91606ZM9.0178 4.91606C9.57692 4.91606 10.0358 5.37422 10.0358 5.93571C10.0358 6.4972 9.57745 6.95799 9.0178 6.95799C8.45815 6.95799 8.00245 6.49983 8.00245 5.93571C8.00245 5.37158 8.45867 4.91606 9.0178 4.91606ZM5.83525 4.91606C6.39437 4.91606 6.8506 5.37422 6.8506 5.93571C6.8506 6.4972 6.39437 6.95799 5.83525 6.95799C5.27612 6.95799 4.8199 6.49983 4.8199 5.93571C4.8199 5.37158 5.27612 4.91606 5.83525 4.91606ZM20.0827 31.3383C16.1378 30.2759 13.7879 26.1889 14.8432 22.2279C15.3524 20.3204 16.5804 18.7198 18.3014 17.7217C20.0223 16.7237 22.0163 16.4554 23.9152 16.9668C25.5679 17.4117 26.9849 18.3924 27.9782 19.761L25.1201 22.7604L22.6715 20.5893C22.2625 20.2266 21.6414 20.2529 21.2645 20.6489L16.6345 25.5109C16.2465 25.9185 16.2612 26.5643 16.6665 26.9534C16.8634 27.1427 17.1165 27.2365 17.3684 27.2365C17.6362 27.2365 17.9034 27.1311 18.1029 26.9212L22.0583 22.7678L24.5069 24.9389C24.9158 25.3016 25.5364 25.2752 25.9134 24.8793L28.9799 21.6611C29.4823 23.0715 29.549 24.5988 29.1542 26.0766C28.6449 27.9852 27.4169 29.5858 25.696 30.5833C23.975 31.5808 21.9816 31.8486 20.0822 31.3378L20.0827 31.3383ZM43 9.90041V35.6747C43 37.1941 41.7678 38.4305 40.2532 38.4305H34.3895L30.8363 32.252C30.5554 31.7638 29.9343 31.5966 29.4482 31.8787L28.0727 32.6764L27.566 31.7943C29.3096 30.5216 30.5559 28.7111 31.1171 26.6059C31.7078 24.3948 31.4904 22.095 30.5118 20.0542L32.2422 18.2379V18.3655C32.2422 18.9291 32.6974 19.3857 33.2581 19.3857C33.8188 19.3857 34.274 18.9286 34.274 18.3655V15.6946C34.274 15.131 33.8188 14.6744 33.2581 14.6744H30.5984C30.0372 14.6744 29.5826 15.1315 29.5826 15.6946C29.5826 16.2576 30.0377 16.7147 30.5984 16.7147H30.8804L29.4014 18.2669C28.1504 16.6731 26.4289 15.5306 24.4412 14.9955C22.0173 14.3433 19.4763 14.6839 17.285 15.9545C15.0941 17.2251 13.5297 19.2654 12.8802 21.6996C11.5352 26.7478 14.5298 31.9557 19.5561 33.309C20.3609 33.5257 21.1789 33.6328 21.9926 33.6328C23.2983 33.6328 24.5924 33.356 25.8057 32.814L26.3123 33.696L25.0739 34.4141C24.8402 34.5496 24.6701 34.7721 24.6003 35.0336C24.5305 35.2951 24.5672 35.5735 24.7022 35.8081L26.21 38.4299H3.74417C2.23112 38.4299 1 37.1936 1 35.6742V11.9155H16.0218C16.3625 11.9155 16.6807 11.7441 16.8687 11.4589L17.8971 9.90041H43ZM30.1748 41.2442L26.9702 35.672L29.5841 34.1563L32.7882 39.7274C33.204 40.4524 32.9562 41.3803 32.2338 41.7984C31.8884 41.9992 31.4831 42.0525 31.0925 41.947C30.7013 41.8421 30.3753 41.5922 30.1748 41.2442Z" fill="white"/>
</svg>
