<svg width="42" height="40" viewBox="0 0 42 40" fill="none" xmlns="http://www.w3.org/2000/svg">
<path d="M10.6894 39.7883C10.6697 39.7883 10.6434 39.7883 10.6172 39.7949H10.6894C10.7616 39.7949 10.8206 39.7949 10.8928 39.7883H10.6894Z" fill="white"/>
<path d="M41.415 26.4207L37.7465 39.7885H19.0039L22.1277 26.4207H41.415Z" fill="white"/>
<path d="M20.9143 25.6923L17.6002 39.7884H13.3544C13.7547 39.2503 13.991 38.5743 13.991 37.8459C13.991 36.0281 12.5078 34.5515 10.6834 34.5515H6.07015V29.0587C6.07015 28.6846 5.76827 28.3827 5.40075 28.3827C5.02668 28.3827 4.72479 28.6846 4.72479 29.0587V35.2277C4.72479 35.5952 5.02667 35.9036 5.40075 35.9036H10.6903C11.7665 35.9036 12.6393 36.7699 12.6393 37.8461C12.6393 38.8502 11.8715 39.6836 10.8937 39.7886H10.6903C10.6706 39.7886 10.6443 39.7886 10.6181 39.7952H2.36251C1.05656 39.7952 0 38.7321 0 37.4327V28.9671C0 25.0756 3.16312 21.9124 7.05477 21.9124H17.089C19.1759 21.9124 20.8888 23.5989 20.915 25.6924L20.9143 25.6923Z" fill="white"/>
<path d="M15.7388 15.1986C15.7388 17.5086 13.8553 19.3986 11.5388 19.3986C9.22221 19.3986 7.33203 17.5151 7.33203 15.1986C7.33203 12.882 9.21549 10.9985 11.5388 10.9985C13.8553 10.9985 15.7388 12.8754 15.7388 15.1986Z" fill="white"/>
<path d="M41.0683 0H25.2855C24.767 0 24.347 0.420002 24.347 0.938452V11.8585C24.347 13.0004 23.8942 14.1095 23.087 14.9035L22.457 15.5335H41.0682C41.5801 15.5335 42.0001 15.1135 42.0001 14.6016V0.938536C42.0001 0.420086 41.5802 0 41.0683 0ZM28.9408 11.9831C28.9408 12.3506 28.6389 12.659 28.2648 12.659C27.8973 12.659 27.5954 12.3506 27.5954 11.9831V3.557C27.5954 3.18949 27.8973 2.88105 28.2648 2.88105C28.6389 2.88105 28.9408 3.18949 28.9408 3.557V11.9831ZM33.9153 11.9831C33.9153 12.3506 33.6068 12.659 33.2393 12.659C32.8653 12.659 32.5634 12.3506 32.5634 11.9831V7.37607C32.5634 7.00857 32.8652 6.70012 33.2393 6.70012C33.6068 6.70012 33.9153 7.00856 33.9153 7.37607V11.9831ZM38.8831 11.9831C38.8831 12.3506 38.5812 12.659 38.2071 12.659C37.8396 12.659 37.5312 12.3506 37.5312 11.9831V9.12836C37.5312 8.76086 37.8396 8.45241 38.2071 8.45241C38.5812 8.45241 38.8831 8.76085 38.8831 9.12836V11.9831Z" fill="white"/>
</svg>
