<svg width="36" height="42" viewBox="0 0 36 42" fill="none" xmlns="http://www.w3.org/2000/svg">
<path fill-rule="evenodd" clip-rule="evenodd" d="M8.84508 19.2083L6.55294 16.9161C6.0295 17.047 5.49413 17.1323 4.95876 17.1759C4.64944 18.0543 4.42141 18.9624 4.28065 19.8844C4.24694 20.0946 4.08832 20.2612 3.88012 20.3028L1.43728 20.8064C1.36987 21.6947 1.36987 22.587 1.43728 23.4773L3.88012 23.9789C4.08832 24.0206 4.24695 24.1891 4.28065 24.3973C4.44523 25.4799 4.72877 26.5408 5.12734 27.5599C5.20466 27.7582 5.15113 27.9823 4.9925 28.1231L3.12665 29.7807C3.51132 30.5837 3.95745 31.3571 4.46109 32.0927L6.82861 31.3055C7.03085 31.2381 7.25095 31.3035 7.38382 31.4701C8.06792 32.3227 8.84516 33.0999 9.69977 33.784C9.86434 33.9169 9.92977 34.139 9.86236 34.3393L9.07714 36.7068C9.81078 37.2104 10.5841 37.6566 11.3871 38.0432L13.0448 36.1754C13.1856 36.0167 13.4116 35.9632 13.6079 36.0405C14.6271 36.4391 15.6899 36.7227 16.7705 36.8872C16.9807 36.9209 17.1473 37.0795 17.1889 37.2877L17.6926 39.7306C18.5809 39.8 19.4731 39.8 20.3634 39.7306L20.8651 37.2877C20.9067 37.0795 21.0752 36.9209 21.2834 36.8872C22.2055 36.7464 23.1136 36.5204 23.992 36.2091C24.0356 35.6737 24.1228 35.1403 24.2517 34.6149L21.9576 32.3208C19.2887 33.0901 16.3222 32.8145 13.7288 31.3175C9.42609 28.833 7.52434 23.7767 8.84508 19.2083ZM15.4023 25.7655L9.67602 20.0392C8.7798 24.0208 10.5167 28.2939 14.2365 30.441C16.4038 31.6922 18.1081 32.1935 20.3744 31.6839L15.4023 25.7655ZM12.945 8.83017C12.9014 9.36554 12.8161 9.90091 12.6852 10.4244L14.9794 12.7185C17.6482 11.9511 20.6148 12.2247 23.2081 13.7218C24.4633 14.4475 25.5142 15.3914 26.343 16.4799C26.5115 16.702 26.4679 17.0192 26.2458 17.1897C26.0218 17.3583 25.7045 17.3147 25.536 17.0926C24.7884 16.1091 23.8367 15.2545 22.7006 14.5982C20.5333 13.347 18.0786 13.0417 15.8124 13.5493L27.2614 25.0003C27.5548 23.6976 27.5648 22.3612 27.3169 21.0802C27.2653 20.8066 27.4438 20.5409 27.7194 20.4873C27.993 20.4358 28.2587 20.6142 28.3123 20.8879C28.6256 22.5059 28.5641 24.1992 28.0942 25.8311L30.3843 28.1232C30.9098 27.9943 31.4431 27.9071 31.9785 27.8635C32.2898 26.985 32.5159 26.0769 32.6566 25.1549C32.6903 24.9467 32.849 24.7782 33.0572 24.7366L35.5 24.2349C35.5694 23.3446 35.5694 22.4523 35.5 21.564L33.0572 21.0604C32.849 21.0188 32.6903 20.8522 32.6566 20.642C32.4921 19.5614 32.2085 18.4986 31.8099 17.4794C31.7326 17.2831 31.7862 17.0571 31.9448 16.9163L33.8126 15.2586C33.426 14.4556 32.9798 13.6823 32.4762 12.9486L30.1087 13.7338C29.9084 13.8013 29.6863 13.7358 29.5535 13.5712C28.8694 12.7166 28.0921 11.9394 27.2395 11.2553C27.0729 11.1225 27.0075 10.9024 27.0749 10.7001L27.8621 8.33257C27.1265 7.82894 26.3532 7.3828 25.5501 6.99813L23.8925 8.86399C23.7517 9.02261 23.5277 9.07615 23.3294 8.99882C22.3102 8.60027 21.2494 8.3167 20.1667 8.15214C19.9585 8.11843 19.79 7.9598 19.7484 7.75161L19.2467 5.30876C18.3564 5.24135 17.4642 5.24135 16.5758 5.30876L16.0722 7.75161C16.0306 7.95981 15.864 8.11843 15.6538 8.15214C14.7318 8.29292 13.8233 8.52087 12.945 8.83017Z" fill="white"/>
<path fill-rule="evenodd" clip-rule="evenodd" d="M2.06947 4.38753C3.81797 4.7506 6.92978 5.61347 8.65777 7.32371C9.80501 8.46237 10.461 9.58516 10.5874 10.6643C11.2113 10.7878 11.7836 11.096 12.2515 11.5568L33.1309 32.2534C33.762 32.8848 34.114 33.7172 34.1217 34.6118C34.1234 35.5074 33.7774 36.3505 33.146 36.9816C31.8501 38.29 29.7266 38.2995 28.4189 37.0034L7.54614 16.3058C7.07825 15.845 6.76956 15.2771 6.63523 14.6539C5.564 14.5347 4.4361 13.8951 3.28012 12.7443C0.842058 10.334 0.0802746 5.1424 0.0517171 4.92302C0.0335982 4.81056 0.0485557 4.69276 0.0865576 4.59162C0.661528 4.49691 1.86958 4.32245 2.10203 4.38228L2.06947 4.38753ZM10.0359 16.8888L8.48546 15.3536C8.25098 15.1198 8.08287 14.8347 7.99309 14.5302C8.54923 14.3591 9.05994 14.0325 9.52736 13.5636C9.98816 13.0957 10.3115 12.5752 10.4798 12.0187C10.7856 12.1052 11.0711 12.2764 11.3056 12.5101L12.856 14.0453L10.0359 16.8888Z" fill="white"/>
</svg>
