<svg width="36" height="42" viewBox="0 0 36 42" fill="none" xmlns="http://www.w3.org/2000/svg">
<path d="M20.2906 32.501L17.9952 28.5358L15.7094 32.4816C15.6513 32.5985 15.5448 32.6764 15.4189 32.7056L10.954 33.6799L13.9855 37.0898C14.0726 37.1775 14.1211 37.3041 14.1017 37.4308L13.6465 42L17.8305 40.1489C17.937 40.1002 18.063 40.1002 18.1695 40.1489L22.3535 42L21.8983 37.4308C21.8886 37.3139 21.9177 37.1969 22.0048 37.0995L25.046 33.6701L20.5811 32.6959C20.4649 32.6862 20.3584 32.6082 20.2906 32.501ZM32.6005 35.7648L31.632 34.0891L30.6731 35.7453C30.615 35.8525 30.5085 35.9402 30.3826 35.9694L28.4939 36.3786L29.7627 37.8107C29.8499 37.8984 29.8886 38.0251 29.8789 38.1517L29.6852 40.0807L31.4479 39.3013C31.5545 39.2526 31.6804 39.2526 31.7966 39.3013L33.5593 40.0807L33.3656 38.1517C33.3559 38.0348 33.3947 37.9179 33.4722 37.8205L34.7603 36.3688L32.8717 35.9596C32.7651 35.9499 32.6683 35.872 32.6005 35.7648ZM5.32688 35.7648L4.35835 34.0891L3.39952 35.7453C3.3414 35.8525 3.24455 35.9402 3.10896 35.9694L1.22034 36.3786L2.49879 37.8107C2.58596 37.8984 2.63438 38.0251 2.61501 38.1517L2.42131 40.0807L4.18402 39.3013C4.29056 39.2526 4.41646 39.2526 4.53269 39.3013L6.2954 40.0807L6.10169 38.1517C6.09201 38.0348 6.13075 37.9179 6.20823 37.8205L7.49637 36.3688L5.60775 35.9596C5.49153 35.9499 5.39467 35.872 5.32688 35.7648ZM21.1913 20.3814L25.54 15.4029L18.6538 16.7961C17.0266 17.1176 15.4576 17.4196 15.0605 18.92C14.615 20.6054 15.6029 22.3201 17.2688 22.7683C18.9153 23.2164 20.0484 21.6868 21.1913 20.3814ZM31.1186 5.70912L28.4165 8.42728C28.0194 8.82672 27.4092 8.22269 27.816 7.82324L30.5182 5.10508C27.3705 2.04593 23.1186 0.126653 18.4213 0.00974237V4.05289C18.4213 4.61795 17.5593 4.61795 17.5593 4.05289V0C12.862 0.107168 8.61017 2.02644 5.46247 5.09534L8.1937 7.84273C8.5908 8.24217 7.99032 8.85595 7.59322 8.44676L4.87167 5.70912C1.89831 8.89492 0.0581114 13.1621 0 17.8678H3.4092C3.97094 17.8678 3.97094 18.7349 3.4092 18.7349H0C0.125908 22.4468 1.36562 25.9736 3.54479 28.9061C4.16465 29.7537 5.38499 29.8511 6.13075 29.0912L7.31235 27.9026C7.91283 27.2985 7.99032 26.3633 7.49637 25.6715C3.81598 20.5177 4.37772 13.4154 8.86199 8.90466C13.908 3.82881 22.092 3.82881 27.138 8.90466C31.6223 13.4154 32.184 20.508 28.5036 25.6715C28.0097 26.3633 28.0872 27.2985 28.6877 27.9026L29.8692 29.0912C30.6247 29.8511 31.8353 29.7439 32.4552 28.9061C34.6247 25.9736 35.8644 22.4468 35.9903 18.7349H32.6586C32.0969 18.7349 32.0969 17.8678 32.6586 17.8678H36C35.9322 13.1621 34.092 8.89492 31.1186 5.70912ZM18.5956 20.6347C19.3898 20.1768 19.2349 18.9784 18.3438 18.7349C17.4625 18.501 16.7361 19.4558 17.1816 20.2547C17.4722 20.7516 18.1017 20.9269 18.5956 20.6347ZM19.9031 20.2352C19.4673 21.8622 17.2881 22.1545 16.4552 20.6931C15.6126 19.2317 16.9588 17.4781 18.5763 17.9067C19.5738 18.1795 20.1743 19.222 19.9031 20.2352Z" fill="white"/>
</svg>
