<svg width="42" height="42" viewBox="0 0 42 42" fill="none" xmlns="http://www.w3.org/2000/svg">
<path fill-rule="evenodd" clip-rule="evenodd" d="M8.7081 32.0729C9.04559 31.7354 9.59235 31.7354 9.92982 32.0729C10.2673 32.4103 10.2673 32.9571 9.92982 33.2945L1.55329 41.6706C1.2158 42.0081 0.669037 42.0081 0.331568 41.6706C-0.00592401 41.3331 -0.00592401 40.7864 0.331568 40.4489L8.7081 32.0729ZM15.9373 30.624L11.3789 26.0659L10.1954 27.2493L14.7538 31.8074L15.9373 30.624ZM31.7365 25.4675C29.4618 27.2516 26.8632 28.8737 23.9406 30.3293C24.1881 31.8749 24.0576 33.4723 23.5491 35.1236C23.2768 36.0101 22.8944 36.9078 22.4016 37.8212C26.7867 35.3508 27.8464 34.6422 30.8501 32.1381C31.3361 30.7298 31.6309 29.3776 31.7456 28.0615C31.8244 27.1863 31.8198 26.3224 31.7365 25.4675ZM37.6536 4.29202C38.2431 4.88145 38.9585 5.30218 39.7281 5.53389C40.3423 5.71837 40.9903 5.78586 41.636 5.72287C41.9105 3.89601 42.0297 1.99041 41.9937 0.00608729C39.989 -0.0299097 38.0609 0.0938279 36.2137 0.375053C36.162 1.00048 36.2295 1.62372 36.4095 2.21539C36.6412 2.98936 37.0618 3.70253 37.6536 4.29202ZM11.6669 18.0676C13.1226 15.1474 14.7426 12.5489 16.5268 10.2744C15.6785 10.1934 14.8214 10.1912 13.9483 10.2654C12.6321 10.3802 11.2799 10.6749 9.87147 11.1609C7.36727 14.1643 6.65633 15.2263 4.18813 19.6089C5.10158 19.1162 6.00155 18.7338 6.8858 18.4615C8.53277 17.9531 10.1257 17.8224 11.6669 18.0676ZM24.4238 12.1054C25.9358 10.5935 28.386 10.5935 29.8957 12.1054C31.4076 13.6172 31.4076 16.0673 29.8957 17.5792C28.3837 19.091 25.9335 19.091 24.4238 17.5792C22.9119 16.0673 22.9119 13.6172 24.4238 12.1054ZM36.4993 18.2047C32.6272 23.3973 26.7053 27.5864 18.7291 30.772L11.228 23.2713C11.759 21.944 12.317 20.6751 12.902 19.4602C12.9177 19.4309 12.9312 19.4017 12.9447 19.3724C14.6569 15.8425 16.6054 12.7962 18.7898 10.2315C18.8055 10.2135 18.8235 10.1955 18.8393 10.1753C20.376 8.3799 22.0297 6.82079 23.7982 5.50238C26.9728 3.13557 30.5343 1.53149 34.4786 0.694513C34.4674 1.38295 34.5641 2.0624 34.7599 2.71259C35.0749 3.7565 35.6418 4.72393 36.4338 5.51586C37.2258 6.30779 38.1933 6.87701 39.2372 7.18969C39.9077 7.39217 40.6119 7.48666 41.3252 7.47092C40.486 11.4351 38.8775 15.0145 36.4993 18.2047ZM11.5972 34.9614L6.03312 40.5252C5.69563 40.8627 5.69563 41.4094 6.03312 41.7469C6.37061 42.0844 6.91737 42.0844 7.25484 41.7469L12.819 36.1831C13.1564 35.8456 13.1564 35.2989 12.819 34.9614C12.4815 34.624 11.9347 34.624 11.5972 34.9614ZM5.81724 29.1818L0.253119 34.7456C-0.084373 35.083 -0.084373 35.6298 0.253119 35.9672C0.590611 36.3047 1.13737 36.3047 1.47484 35.9672L7.0412 30.4034C7.3787 30.0659 7.3787 29.5192 7.0412 29.1818C6.70147 28.8443 6.15471 28.8443 5.81724 29.1818Z" fill="white"/>
</svg>
