<svg width="72" height="72" viewBox="0 0 72 72" fill="none" xmlns="http://www.w3.org/2000/svg">
<path fill-rule="evenodd" clip-rule="evenodd" d="M16.1984 10H36.7578C38.0075 10.0031 39.2052 10.5024 40.0889 11.3886C40.9727 12.2749 41.4705 13.476 41.4736 14.7294V15.618C40.7161 15.6179 39.9591 15.6589 39.206 15.7408C38.4316 15.8239 37.7104 16.1753 37.1667 16.7345C36.623 17.2937 36.2908 18.0256 36.2273 18.804L35.9825 21.5633C35.9678 21.663 35.9276 21.7571 35.866 21.8365C35.8043 21.916 35.7232 21.9781 35.6306 22.017C35.538 22.0558 35.4369 22.0699 35.3372 22.0581C35.2375 22.0462 35.1425 22.0087 35.0615 21.9492L32.9514 20.1954C32.3508 19.6984 31.5965 19.4265 30.8179 19.4265C30.0393 19.4265 29.285 19.6984 28.6844 20.1954C27.5496 21.124 26.516 22.1704 25.6008 23.3171C25.1112 23.9252 24.8491 24.6858 24.8597 25.4673C24.8704 26.2488 25.1531 27.002 25.6591 27.5964L27.437 29.7068C27.4977 29.7877 27.5364 29.883 27.5493 29.9834C27.5622 30.0837 27.5489 30.1858 27.5108 30.2795C27.4726 30.3732 27.4108 30.4553 27.3314 30.5178C27.2521 30.5804 27.1579 30.6212 27.0581 30.6363L24.3242 30.8526C23.5486 30.9223 22.8215 31.2611 22.2682 31.8106C21.7149 32.3602 21.37 33.0861 21.2931 33.8633C21.1386 35.3226 21.1386 36.7943 21.2931 38.2536C21.3762 39.0312 21.7275 39.7552 22.2862 40.3006C22.845 40.846 23.5761 41.1786 24.3534 41.2409L27.0989 41.4748C27.2007 41.4875 27.2973 41.527 27.379 41.5892C27.4607 41.6514 27.5246 41.7341 27.5642 41.829C27.6038 41.9239 27.6178 42.0276 27.6047 42.1296C27.5915 42.2317 27.5518 42.3284 27.4895 42.4101L25.7407 44.5381C25.2462 45.1408 24.9758 45.8971 24.9758 46.6777C24.9758 47.4583 25.2462 48.2146 25.7407 48.8173C26.6651 49.9568 27.7086 50.9936 28.8535 51.9098C29.4598 52.4008 30.2182 52.6638 30.9975 52.6531C31.7767 52.6424 32.5277 52.3588 33.1204 51.8514L35.2247 50.0976C35.3054 50.0367 35.4004 49.9979 35.5005 49.985C35.6006 49.972 35.7023 49.9853 35.7957 50.0236C35.8892 50.0619 35.9711 50.1239 36.0334 50.2035C36.0958 50.283 36.1365 50.3775 36.1516 50.4776L36.408 53.2369C36.4773 54.0139 36.8143 54.7424 37.3611 55.2972C37.9079 55.8519 38.6303 56.1983 39.4042 56.2768C40.1037 56.3469 40.809 56.382 41.5144 56.382V57.2706C41.5113 58.524 41.0135 59.7251 40.1298 60.6114C39.246 61.4976 38.0484 61.9969 36.7986 62H16.1984C15.5774 61.9969 14.963 61.871 14.3906 61.6295C13.8181 61.388 13.2988 61.0355 12.8624 60.5924C12.426 60.1493 12.081 59.6242 11.8472 59.0472C11.6135 58.4701 11.4955 57.8525 11.5001 57.2297V14.7294C11.5017 13.4756 11.999 12.2735 12.8831 11.3869C13.7671 10.5003 14.9657 10.0015 16.2159 10H16.1984ZM47.0579 30.3849C45.9547 29.2792 44.5494 28.5264 43.0196 28.2216C41.4899 27.9167 39.9043 28.0737 38.4635 28.6725C37.0226 29.2713 35.7911 30.2851 34.9247 31.5857C34.0583 32.8863 33.5959 34.4154 33.5959 35.9795C33.5959 37.5437 34.0583 39.0728 34.9247 40.3734C35.7911 41.674 37.0226 42.6878 38.4635 43.2866C39.9043 43.8854 41.4899 44.0423 43.0196 43.7375C44.5494 43.4327 45.9547 42.6798 47.0579 41.5741C47.7907 40.8396 48.3721 39.9674 48.7687 39.0075C49.1654 38.0476 49.3695 37.0186 49.3695 35.9795C49.3695 34.9404 49.1654 33.9115 48.7687 32.9516C48.3721 31.9916 47.7907 31.1195 47.0579 30.3849ZM38.5065 37.7333C38.6279 37.855 38.6961 38.0201 38.6961 38.1922C38.6961 38.3644 38.6279 38.5294 38.5065 38.6511C38.3852 38.7729 38.2206 38.8412 38.0489 38.8412C37.8773 38.8412 37.7127 38.7729 37.5914 38.6511L35.3996 36.4414C35.2793 36.3179 35.2119 36.1522 35.2119 35.9795C35.2119 35.8069 35.2793 35.6411 35.3996 35.5177L37.6147 33.3021C37.6717 33.2292 37.7436 33.1693 37.8256 33.1266C37.9076 33.0839 37.9978 33.0593 38.0901 33.0545C38.1824 33.0497 38.2746 33.0647 38.3606 33.0986C38.4466 33.1326 38.5243 33.1846 38.5886 33.2511C38.6529 33.3177 38.7022 33.3973 38.7332 33.4846C38.7643 33.5719 38.7763 33.6648 38.7685 33.7572C38.7608 33.8495 38.7334 33.9391 38.6882 34.0199C38.643 34.1007 38.581 34.1709 38.5065 34.2257L36.7578 35.9795L38.5065 37.7333ZM43.5604 30.5837L40.5875 41.6911C40.5345 41.8465 40.4246 41.9759 40.2801 42.0533C40.1356 42.1306 39.9672 42.1501 39.8089 42.1078C39.6506 42.0655 39.5142 41.9646 39.4272 41.8254C39.3402 41.6862 39.3091 41.5191 39.3401 41.3578L42.313 30.2505C42.366 30.0951 42.4759 29.9656 42.6204 29.8883C42.7649 29.8109 42.9333 29.7914 43.0916 29.8337C43.2499 29.876 43.3863 29.9769 43.4733 30.1161C43.5603 30.2553 43.5914 30.4224 43.5604 30.5837ZM45.3091 38.657C45.2495 38.718 45.1782 38.7664 45.0997 38.7995C45.0211 38.8326 44.9368 38.8496 44.8516 38.8496C44.7663 38.8496 44.682 38.8326 44.6034 38.7995C44.5249 38.7664 44.4537 38.718 44.394 38.657C44.274 38.5346 44.2068 38.3698 44.2068 38.1981C44.2068 38.0264 44.274 37.8616 44.394 37.7392L46.1427 35.9854L44.394 34.2316C44.274 34.1091 44.2068 33.9443 44.2068 33.7727C44.2068 33.601 44.274 33.4362 44.394 33.3138C44.4537 33.2528 44.5249 33.2043 44.6034 33.1713C44.682 33.1382 44.7663 33.1212 44.8516 33.1212C44.9368 33.1212 45.0211 33.1382 45.0997 33.1713C45.1782 33.2043 45.2495 33.2528 45.3091 33.3138L47.5242 35.5294C47.6446 35.6528 47.7119 35.8186 47.7119 35.9912C47.7119 36.1639 47.6446 36.3296 47.5242 36.4531L45.3091 38.657ZM60.3192 33.8458C60.269 33.3682 60.0539 32.9233 59.7111 32.5881C59.3683 32.2529 58.9195 32.0484 58.4422 32.0101L55.6908 31.7763C55.3522 31.7485 55.0276 31.628 54.7527 31.4277C54.4777 31.2275 54.2629 30.9554 54.1318 30.641C54.0006 30.3266 53.9581 29.9822 54.009 29.6452C54.0598 29.3083 54.202 28.9919 54.4201 28.7305L56.1688 26.6026C56.4751 26.2331 56.6427 25.7677 56.6427 25.2872C56.6427 24.8067 56.4751 24.3414 56.1688 23.9719C55.3045 22.8957 54.3274 21.9157 53.2543 21.0489C52.8822 20.7482 52.4171 20.5871 51.9393 20.5935C51.4615 20.5999 51.0009 20.7734 50.637 21.084L48.5268 22.8728C48.2669 23.0921 47.952 23.2358 47.6163 23.2883C47.2807 23.3408 46.9371 23.3 46.6229 23.1705C46.3087 23.0409 46.0359 22.8276 45.8341 22.5535C45.6323 22.2795 45.5092 21.9552 45.4782 21.616L45.3091 18.8859C45.2691 18.4071 45.0627 17.9577 44.7261 17.6158C44.3895 17.274 43.944 17.0614 43.4671 17.0152C42.1108 16.8707 40.7431 16.8707 39.3867 17.0152C38.9106 17.0655 38.467 17.2812 38.1327 17.625C37.7984 17.9688 37.5946 18.4189 37.5564 18.8976L37.3232 21.6569C37.3059 22.0078 37.1899 22.3466 36.9885 22.6341C36.7871 22.9215 36.5085 23.1459 36.1852 23.2811C35.8619 23.4163 35.507 23.4568 35.1616 23.398C34.8162 23.3392 34.4945 23.1835 34.2338 22.9488L32.112 21.1951C31.7435 20.8879 31.2795 20.7198 30.8004 20.7198C30.3213 20.7198 29.8573 20.8879 29.4889 21.1951C28.4143 22.0602 27.437 23.0403 26.5743 24.118C26.2848 24.4938 26.1346 24.9588 26.1495 25.4335C26.1644 25.9081 26.3434 26.3627 26.6559 26.7195L28.4046 28.8357C28.621 29.095 28.7631 29.4083 28.8156 29.7423C28.8681 30.0763 28.8292 30.4183 28.7028 30.7317C28.5765 31.0452 28.3676 31.3183 28.0984 31.5218C27.8292 31.7254 27.5099 31.8517 27.1747 31.8874L24.4292 32.1446C23.9526 32.1865 23.5058 32.395 23.167 32.7338C22.8281 33.0725 22.6188 33.5199 22.5755 33.9977C22.4285 35.3578 22.4285 36.7299 22.5755 38.0899C22.6257 38.5675 22.8408 39.0124 23.1835 39.3476C23.5263 39.6828 23.9752 39.8873 24.4525 39.9256L27.2038 40.1594C27.542 40.1882 27.8658 40.3092 28.1403 40.5094C28.4148 40.7095 28.6294 40.9812 28.7609 41.295C28.8924 41.6087 28.9358 41.9526 28.8864 42.2893C28.8369 42.626 28.6965 42.9428 28.4804 43.2052L26.7317 45.3331C26.4254 45.7026 26.2578 46.168 26.2578 46.6485C26.2578 47.1289 26.4254 47.5943 26.7317 47.9638C27.596 49.04 28.5731 50.02 29.6462 50.8868C30.0183 51.1875 30.4834 51.3486 30.9612 51.3422C31.439 51.3358 31.8996 51.1623 32.2635 50.8517L34.3737 49.0628C34.6336 48.8436 34.9485 48.6999 35.2842 48.6474C35.6198 48.5949 35.9634 48.6357 36.2776 48.7652C36.5918 48.8947 36.8646 49.1081 37.0664 49.3822C37.2682 49.6562 37.3913 49.9805 37.4223 50.3197L37.6788 53.0732C37.7184 53.5453 37.9192 53.9892 38.2474 54.3301C38.5756 54.6709 39.0109 54.8877 39.48 54.9439C40.8363 55.0884 42.2041 55.0884 43.5604 54.9439C44.0366 54.8936 44.4802 54.6779 44.8144 54.3341C45.1487 53.9903 45.3526 53.5401 45.3907 53.0615L45.6239 50.3022C45.6516 49.9626 45.7718 49.6371 45.9714 49.3613C46.1711 49.0856 46.4425 48.8702 46.7559 48.7386C47.0694 48.6071 47.4128 48.5645 47.7488 48.6155C48.0848 48.6665 48.4003 48.8091 48.6609 49.0278L50.7827 50.7816C51.1512 51.0887 51.6152 51.2568 52.0943 51.2568C52.5734 51.2568 53.0374 51.0887 53.4058 50.7816C54.4802 49.9162 55.4575 48.9361 56.3204 47.8586C56.6202 47.4854 56.7808 47.019 56.7744 46.5398C56.7681 46.0606 56.5951 45.5987 56.2854 45.2337L54.5367 43.1175C54.3188 42.8565 54.1766 42.5406 54.1255 42.2041C54.0744 41.8676 54.1163 41.5235 54.2468 41.2093C54.3773 40.8952 54.5913 40.6229 54.8655 40.4223C55.1396 40.2217 55.4634 40.1004 55.8016 40.0717L58.5471 39.8145C59.0241 39.7732 59.4717 39.5659 59.8123 39.2285C60.153 38.8912 60.3653 38.445 60.4124 37.9672C60.5431 36.5956 60.5275 35.214 60.3658 33.8458H60.3192ZM41.4736 45.187C39.6578 45.187 37.8827 44.6469 36.3729 43.6352C34.8631 42.6235 33.6864 41.1855 32.9915 39.5031C32.2966 37.8206 32.1148 35.9693 32.4691 34.1833C32.8233 32.3972 33.6977 30.7566 34.9817 29.4689C36.2657 28.1812 37.9015 27.3043 39.6825 26.949C41.4634 26.5938 43.3094 26.7761 44.9869 27.473C46.6645 28.1699 48.0984 29.35 49.1072 30.8642C50.116 32.3783 50.6545 34.1585 50.6545 35.9795C50.6545 38.4215 49.6872 40.7634 47.9654 42.4902C46.2437 44.2169 43.9085 45.187 41.4736 45.187ZM29.0925 57.2998H24.6215C24.4499 57.2998 24.2853 57.3682 24.164 57.4899C24.0427 57.6116 23.9745 57.7766 23.9745 57.9487C23.9745 58.1208 24.0427 58.2859 24.164 58.4076C24.2853 58.5293 24.4499 58.5976 24.6215 58.5976H29.0925C29.2641 58.5976 29.4287 58.5293 29.55 58.4076C29.6713 58.2859 29.7395 58.1208 29.7395 57.9487C29.7395 57.7766 29.6713 57.6116 29.55 57.4899C29.4287 57.3682 29.2641 57.2998 29.0925 57.2998Z" fill="white"/>
</svg>
