<svg width="72" height="72" viewBox="0 0 72 72" fill="none" xmlns="http://www.w3.org/2000/svg">
<path d="M59.9932 56.0075V25.042C59.8768 25.042 59.7778 25.0536 59.6613 25.0536H12.0136V55.6348C12.0136 55.827 12.0078 56.0249 12.0078 56.2171C12.0136 57.2419 12.3979 58.2551 13.1549 58.9654C13.8769 59.6467 14.8086 59.9902 15.7984 59.9961C15.9964 59.9961 16.1944 59.9902 16.3924 59.9902H56.2783C56.3016 59.9902 56.3249 59.9961 56.354 59.9961C58.2697 59.932 59.7662 58.4822 59.9816 56.5956C60.0049 56.3976 59.9932 56.2054 59.9932 56.0075ZM47.2647 41.3166C45.8963 40.0938 44.528 38.8652 43.1654 37.6425C42.3037 36.868 41.4419 36.0994 40.5801 35.325C40.0968 34.8883 40.1725 34.1197 40.5801 33.6772C41.0227 33.1939 41.7738 33.2696 42.228 33.6772C42.5482 33.9625 42.8627 34.2478 43.1829 34.5331C44.5513 35.7559 45.9196 36.9787 47.2821 38.2073C48.1439 38.9817 49.0057 39.7503 49.8674 40.5247C50.3158 40.9265 50.3158 41.765 49.8674 42.1726C49.5472 42.4579 49.2328 42.7432 48.9125 43.0285C47.5442 44.2513 46.1758 45.4799 44.8133 46.7027C43.9515 47.4771 43.0897 48.2457 42.228 49.0202C41.7447 49.4569 41.0692 49.4685 40.5801 49.0202C40.1318 48.6126 40.126 47.7799 40.5801 47.3723C40.9004 47.087 41.2148 46.8017 41.5351 46.5164C42.9034 45.2936 44.2659 44.065 45.6343 42.8422C46.1875 42.3414 46.7464 41.8465 47.2996 41.3516C47.288 41.3341 47.2763 41.3283 47.2647 41.3166ZM22.1394 40.5247C22.4597 40.2394 22.7741 39.9541 23.0944 39.6688C24.4627 38.446 25.8311 37.2232 27.1936 35.9946C28.0554 35.2202 28.9171 34.4516 29.7789 33.6772C30.2622 33.2405 30.9376 33.2288 31.4267 33.6772C31.8751 34.0848 31.8809 34.9174 31.4267 35.325C31.1065 35.6103 30.7921 35.8956 30.4718 36.1751C29.1035 37.3979 27.7409 38.6265 26.3726 39.8493C25.8194 40.3442 25.2604 40.845 24.7073 41.3399L24.7422 41.369C26.1106 42.5918 27.4789 43.8204 28.8414 45.0432C29.7032 45.8176 30.565 46.5862 31.4267 47.3607C31.91 47.7974 31.8343 48.566 31.4267 49.0085C30.9842 49.4918 30.2331 49.4161 29.7789 49.0085C29.4586 48.7232 29.1442 48.4379 28.824 48.1584C27.4556 46.9356 26.0873 45.707 24.7247 44.4842C23.863 43.7098 23.0012 42.9412 22.1394 42.1668C21.6911 41.765 21.6911 40.9265 22.1394 40.5247Z" fill="white"/>
<path d="M56.2136 12.0049C55.6429 12.0049 55.084 12.0107 54.5133 12.0107H16.019C15.8676 12.0107 15.7162 11.9991 15.5648 12.0107C13.6375 12.133 12.1294 13.6411 12.0129 15.5684C11.9838 16.0051 12.0129 16.4477 12.0129 16.8844V22.713C12.1876 22.713 12.4205 22.7304 12.6243 22.7304H59.9925V17.5482C59.9925 16.9659 60.0042 16.3836 59.9984 15.8072C59.9925 13.6935 58.3214 12.0107 56.2136 12.0049ZM40.2417 18.5322H37.9126C37.2605 18.5322 36.7772 17.9965 36.7481 17.3677C36.7189 16.7388 37.3012 16.2031 37.9126 16.2031H40.2417C40.8939 16.2031 41.3772 16.7388 41.4063 17.3677C41.4354 17.9965 40.8531 18.5322 40.2417 18.5322ZM47.2465 18.5322H44.9174C44.2653 18.5322 43.782 17.9965 43.7528 17.3677C43.7237 16.7388 44.306 16.2031 44.9174 16.2031H47.2465C47.8987 16.2031 48.3819 16.7388 48.4111 17.3677C48.4402 17.9965 47.8521 18.5322 47.2465 18.5322ZM54.2455 18.5322H51.9164C51.2642 18.5322 50.7809 17.9965 50.7518 17.3677C50.7227 16.7388 51.305 16.2031 51.9164 16.2031H54.2455C54.8976 16.2031 55.3809 16.7388 55.41 17.3677C55.4391 17.9965 54.8569 18.5322 54.2455 18.5322Z" fill="white"/>
</svg>
