<svg width="72" height="72" viewBox="0 0 72 72" fill="none" xmlns="http://www.w3.org/2000/svg">
<path d="M23.6997 52.9068C23.6997 54.3308 21.5664 54.3308 21.5664 52.9068C21.5664 51.4855 23.6997 51.4855 23.6997 52.9068Z" fill="white"/>
<path d="M34.1021 52.9068C34.1021 54.3308 31.9688 54.3308 31.9688 52.9068C31.9688 51.4855 34.1021 51.4855 34.1021 52.9068Z" fill="white"/>
<path d="M24.8396 39.2478H31.0236L31.2342 36.0479H24.6289L24.8396 39.2478Z" fill="white"/>
<path d="M31.3777 33.9146L31.5937 30.6025H24.2734L24.4894 33.9146H31.3777Z" fill="white"/>
<path d="M25.1965 44.6929H30.6658L30.8844 41.3809H24.9805L25.1965 44.6929Z" fill="white"/>
<path d="M38.6863 30.6025H33.7316L33.5156 33.9146H38.1903L38.6863 30.6025Z" fill="white"/>
<path d="M37.066 41.3809H33.0207L32.8047 44.6929H36.57L37.066 41.3809Z" fill="white"/>
<path d="M22.3533 33.9146L22.1346 30.6025H16.1133L16.6093 33.9146H22.3533Z" fill="white"/>
<path d="M17.4123 39.2478H22.703L22.4923 36.0479H16.9297L17.4123 39.2478Z" fill="white"/>
<path d="M18.2265 44.6929H23.0585L22.8425 41.3809H17.7305L18.2265 44.6929Z" fill="white"/>
<path d="M47.3984 41.2207H60.6654V45.5514H47.3984V41.2207Z" fill="white"/>
<path d="M47.3984 30.6025H60.6654V34.9332H47.3984V30.6025Z" fill="white"/>
<path d="M4 56.8481C4 58.6188 5.44001 60.0588 7.21064 60.0588H64.7894C66.5601 60.0588 68 58.6187 68 56.8481V22.4404H4.00014L4 56.8481ZM45.2664 30.6031C45.2664 29.427 46.2237 28.4697 47.3998 28.4697H60.6639C61.84 28.4697 62.7973 29.427 62.7973 30.6031V34.9338C62.7973 36.1098 61.84 37.0671 60.6639 37.0671H47.3998C46.2237 37.0671 45.2664 36.1098 45.2664 34.9338V30.6031ZM45.2664 41.2219C45.2664 40.0459 46.2237 39.0886 47.3998 39.0886H60.6639C61.84 39.0886 62.7973 40.0459 62.7973 41.2219V45.5526C62.7973 46.7286 61.84 47.6859 60.6639 47.6859H47.3998C46.2237 47.6859 45.2664 46.7286 45.2664 45.5526V41.2219ZM46.3331 49.7074H61.7306C62.3199 49.7074 62.7973 50.1848 62.7973 50.7741C62.7973 51.3634 62.3199 51.8408 61.7306 51.8408H46.3331C45.7438 51.8408 45.2664 51.3634 45.2664 50.7741C45.2664 50.1848 45.7438 49.7074 46.3331 49.7074ZM46.3331 53.9741H61.7306C62.3199 53.9741 62.7973 54.4514 62.7973 55.0408C62.7973 55.6301 62.3199 56.1074 61.7306 56.1074H46.3331C45.7438 56.1074 45.2664 55.6301 45.2664 55.0408C45.2664 54.4514 45.7438 53.9741 46.3331 53.9741ZM10.2693 24.257H14.2399C14.7679 24.257 15.2159 24.6437 15.2959 25.1663L15.7919 28.473H39.9255C40.2348 28.473 40.5308 28.609 40.7335 28.8437C40.9362 29.0783 41.0268 29.3903 40.9788 29.697L38.5442 45.9185C38.4669 46.4412 38.0189 46.8278 37.4882 46.8278H18.5469L18.8429 48.8011C18.9229 49.3264 19.3656 49.7104 19.899 49.7104H37.5786C38.1679 49.7104 38.6453 50.1878 38.6453 50.7771C38.6453 51.3664 38.1679 51.8438 37.5786 51.8438H36.0346C36.1546 52.1798 36.232 52.5344 36.232 52.9104C36.232 54.6757 34.7973 56.1104 33.032 56.1104C31.2667 56.1104 29.832 54.6757 29.832 52.9104C29.832 52.5344 29.9093 52.1798 30.0293 51.8438H25.64C25.76 52.1798 25.8373 52.5344 25.8373 52.9104C25.8373 54.6757 24.4026 56.1104 22.6373 56.1104C20.872 56.1104 19.4373 54.6757 19.4373 52.9104C19.4373 52.5264 19.5173 52.1611 19.64 51.8197C18.1626 51.7024 16.9573 50.6091 16.7333 49.1184L13.3227 26.3932H10.2693C9.67999 26.3932 9.20265 25.9158 9.20265 25.3265C9.20265 24.7372 9.67999 24.2598 10.2693 24.2598L10.2693 24.257Z" fill="white"/>
<path d="M18.7757 11.9415H7.21064C5.43995 11.9415 4 13.3815 4 15.1521V20.3068H10.4133L18.7787 11.9414L18.7757 11.9415Z" fill="white"/>
<path d="M37.8707 36.0479H33.3747L33.1641 39.2478H37.3907L37.8707 36.0479Z" fill="white"/>
<path d="M19.9257 20.3068L28.291 11.9414H21.7951L13.4297 20.3068H19.9257Z" fill="white"/>
<path d="M64.7895 11.9414H31.3068L22.9414 20.3068H68V15.1521C68 13.3814 66.5601 11.9414 64.7895 11.9414ZM50.6481 18.2747H48.8107C48.2214 18.2747 47.7441 17.7974 47.7441 17.208C47.7441 16.6187 48.2214 16.1414 48.8107 16.1414H50.6481C51.2374 16.1414 51.7147 16.6187 51.7147 17.208C51.7147 17.7974 51.2374 18.2747 50.6481 18.2747ZM55.9067 18.2747H54.0694C53.48 18.2747 53.0027 17.7974 53.0027 17.208C53.0027 16.6187 53.48 16.1414 54.0694 16.1414H55.9067C56.496 16.1414 56.9734 16.6187 56.9734 17.208C56.9734 17.7974 56.496 18.2747 55.9067 18.2747ZM61.1653 18.2747H59.328C58.7387 18.2747 58.2613 17.7974 58.2613 17.208C58.2613 16.6187 58.7387 16.1414 59.328 16.1414H61.1653C61.7547 16.1414 62.232 16.6187 62.232 17.208C62.232 17.7974 61.7547 18.2747 61.1653 18.2747Z" fill="white"/>
</svg>
