<svg width="72" height="72" viewBox="0 0 72 72" fill="none" xmlns="http://www.w3.org/2000/svg">
<g clip-path="url(#clip0_1511_17418)">
<mask id="mask0_1511_17418" style="mask-type:luminance" maskUnits="userSpaceOnUse" x="9" y="9" width="54" height="54">
<path d="M62.875 9H9.125V63H62.875V9Z" fill="white"/>
</mask>
<g mask="url(#mask0_1511_17418)">
<path d="M62.875 35.3003C62.875 31.723 58.416 28.3328 51.5794 26.2304C53.157 19.23 52.4558 13.6605 49.3663 11.8774C48.6541 11.4591 47.8214 11.261 46.9121 11.261V13.7155C47.416 13.7155 47.8214 13.8146 48.1612 14.0017C49.6512 14.8603 50.2975 18.1293 49.7936 22.334C49.6731 23.3686 49.4758 24.4583 49.2348 25.57C47.0875 25.0417 44.7429 24.6344 42.2778 24.3703C40.7988 22.334 39.2649 20.4848 37.72 18.8668C41.2917 15.5317 44.6443 13.7045 46.9231 13.7045V11.25C43.9102 11.25 39.9661 13.4074 35.9781 17.1497C31.99 13.4294 28.046 11.294 25.0331 11.294V13.7486C27.301 13.7486 30.6644 15.5647 34.2361 18.8778C32.7022 20.4958 31.1684 22.334 29.7113 24.3703C27.2352 24.6344 24.8906 25.0417 22.7433 25.581C22.4913 24.4803 22.305 23.4127 22.1736 22.389C21.6586 18.1844 22.2941 14.9153 23.7731 14.0458C24.1018 13.8476 24.5291 13.7596 25.0331 13.7596V11.305C24.1128 11.305 23.2801 11.5032 22.557 11.9214C19.4784 13.7045 18.7882 19.263 20.3768 26.2414C13.5622 28.3548 9.125 31.734 9.125 35.3003C9.125 38.8773 13.5841 42.2676 20.4206 44.3698C18.843 51.3702 19.5441 56.9398 22.6337 58.723C23.3459 59.1413 24.1785 59.3392 25.0988 59.3392C28.1117 59.3392 32.0559 57.1819 36.0439 53.4395C40.0317 57.1599 43.9761 59.2951 46.9887 59.2951C47.9092 59.2951 48.7419 59.0971 49.4648 58.6789C52.5436 56.8958 53.2338 51.3373 51.6451 44.3587C58.4379 42.2566 62.875 38.8665 62.875 35.3003ZM48.6104 27.9585C48.2051 29.3784 47.7009 30.8423 47.1312 32.3062C46.6821 31.4257 46.2109 30.5451 45.696 29.6646C45.1921 28.784 44.6553 27.9255 44.1185 27.089C45.6741 27.3201 47.1751 27.6063 48.6104 27.9585ZM43.5924 39.681C42.738 41.1669 41.8614 42.5756 40.9522 43.8856C39.3197 44.0287 37.6654 44.1056 36 44.1056C34.3456 44.1056 32.6912 44.0287 31.0698 43.8966C30.1605 42.5866 29.273 41.189 28.4185 39.7139C27.5858 38.2721 26.8298 36.8082 26.1396 35.3331C26.8189 33.8582 27.5858 32.3834 28.4075 30.9414C29.2621 29.4555 30.1386 28.0466 31.0479 26.7367C32.6803 26.5937 34.3346 26.5166 36 26.5166C37.6544 26.5166 39.3088 26.5937 40.9302 26.7257C41.8395 28.0356 42.727 29.4334 43.5814 30.9084C44.4141 32.3503 45.1702 33.8141 45.8604 35.2892C45.1702 36.7641 44.4141 38.239 43.5924 39.681ZM47.1312 38.25C47.7229 39.7249 48.2268 41.1997 48.6431 42.6307C47.208 42.9829 45.696 43.2801 44.1292 43.5114C44.6661 42.6638 45.2031 41.7942 45.707 40.9028C46.2109 40.0221 46.6821 39.1306 47.1312 38.25ZM36.0219 49.9943C35.0029 48.9377 33.9841 47.7601 32.9761 46.4722C33.9622 46.5163 34.9702 46.5491 35.989 46.5491C37.019 46.5491 38.0378 46.5273 39.0349 46.4722C38.0488 47.7601 37.0298 48.9377 36.0219 49.9943ZM27.8707 43.5114C26.3149 43.2801 24.814 42.9939 23.3787 42.6418C23.7841 41.2218 24.2881 39.7579 24.8578 38.2941C25.307 39.1745 25.7781 40.0552 26.293 40.9356C26.8079 41.8162 27.3338 42.6749 27.8707 43.5114ZM35.9671 20.6059C36.9861 21.6626 38.0049 22.8403 39.0129 24.1281C38.0268 24.0841 37.019 24.0511 36 24.0511C34.9702 24.0511 33.9512 24.0731 32.9542 24.1281C33.9403 22.8403 34.9593 21.6626 35.9671 20.6059ZM27.8597 27.089C27.3229 27.9365 26.786 28.8061 26.282 29.6976C25.7781 30.5782 25.307 31.4587 24.8578 32.3393C24.2662 30.8644 23.7622 29.3894 23.3459 27.9585C24.7811 27.6173 26.293 27.3201 27.8597 27.089ZM17.9446 40.8697C14.0661 39.2076 11.5572 37.0282 11.5572 35.3003C11.5572 33.572 14.0661 31.3817 17.9446 29.7306C18.8868 29.3234 19.9166 28.9602 20.9794 28.6189C21.6038 30.7763 22.4255 33.0217 23.4444 35.3221C22.4365 37.6117 21.6258 39.8459 21.0122 41.9924C19.9276 41.6511 18.8977 41.2769 17.9446 40.8697ZM23.8389 56.5985C22.3489 55.7399 21.7025 52.4709 22.2064 48.2663C22.3269 47.2316 22.5242 46.1419 22.7652 45.0304C24.9126 45.5587 27.2571 45.9659 29.7222 46.2301C31.2013 48.2663 32.7351 50.1154 34.28 51.7336C30.7083 55.0685 27.3557 56.8958 25.0769 56.8958C24.5839 56.8847 24.1675 56.7857 23.8389 56.5985ZM49.8265 48.2112C50.3414 52.416 49.706 55.685 48.2268 56.5544C47.8982 56.7526 47.4709 56.8406 46.967 56.8406C44.699 56.8406 41.3356 55.0247 37.7639 51.7115C39.2978 50.0936 40.8317 48.2553 42.2887 46.219C44.7648 45.9549 47.1095 45.5476 49.2568 45.0083C49.5087 46.1201 49.706 47.1877 49.8265 48.2112ZM54.0445 40.8697C53.1024 41.2769 52.0724 41.6401 51.0097 41.9814C50.3853 39.8241 49.5636 37.5786 48.5446 35.2782C49.5526 32.9886 50.3633 30.7543 50.9768 28.6079C52.0614 28.9492 53.0914 29.3234 54.0555 29.7306C57.9338 31.3927 60.4428 33.572 60.4428 35.3003C60.4318 37.0282 57.9228 39.2186 54.0445 40.8697Z" fill="white"/>
<path d="M35.9834 40.3299C38.7486 40.3299 40.9902 38.0779 40.9902 35.2998C40.9902 32.5215 38.7486 30.2695 35.9834 30.2695C33.2182 30.2695 30.9766 32.5215 30.9766 35.2998C30.9766 38.0779 33.2182 40.3299 35.9834 40.3299Z" fill="white"/>
</g>
</g>
<defs>
<clipPath id="clip0_1511_17418">
<rect width="72" height="72" rx="4" fill="white"/>
</clipPath>
</defs>
</svg>
