<svg width="72" height="72" viewBox="0 0 72 72" fill="none" xmlns="http://www.w3.org/2000/svg">
<path d="M64.4223 27.2347C59.6114 22.4243 51.818 22.4243 46.9091 27.2347L27.2996 46.871C26.1014 48.0731 26.1014 50.0766 27.2996 51.2767C28.5079 52.4768 30.5082 52.4768 31.7084 51.2767L51.3139 31.6364C53.7124 29.2382 57.609 29.2382 60.0135 31.6364C62.4199 34.0486 62.4199 37.9494 60.0135 40.3616L40.708 59.6974C43.1025 62.0995 47.0112 62.0995 49.4056 59.6974L64.3142 44.7653C69.2111 39.8607 69.2111 32.0471 64.4183 27.2367L64.4223 27.2347ZM57.8191 33.7461C56.6189 32.546 54.6185 32.546 53.4203 33.7461L33.8028 53.4905C31.4044 55.8887 27.5077 55.8887 25.1033 53.4905C23.905 52.2804 21.9047 52.2804 20.7085 53.4905C19.4983 54.6906 19.4983 56.6941 20.7085 57.8922C25.5093 62.7026 33.3027 62.7026 38.2096 57.8922L57.8191 38.2559C59.0173 36.9497 59.0173 34.9462 57.8191 33.7461ZM51.3159 14.1078C46.5131 9.2974 38.7117 9.2974 33.8028 14.1078L14.1933 33.7441C12.9951 34.9442 12.9951 36.9477 14.1933 38.1498C15.4015 39.3599 17.4019 39.3599 18.6021 38.1498L38.3236 18.5095C40.722 16.1113 44.6467 16.1113 47.0452 18.5095C48.2534 19.7196 50.2537 19.7196 51.4399 18.5095C52.5661 17.2172 52.5661 15.3179 51.3679 14.1078H51.3159ZM44.7127 20.6192C43.5125 19.4191 41.5122 19.4191 40.314 20.6192L20.7085 40.3636C18.31 42.7618 14.4034 42.7618 11.9969 40.3636C9.6025 37.9614 9.6025 34.0506 11.9969 31.6384L31.3024 12.3026C28.9079 9.90045 25.0112 9.90045 22.6048 12.3026L7.60214 27.2347C2.79929 32.0451 2.79929 39.8587 7.60214 44.7633C12.403 49.5737 20.1964 49.5737 25.1033 44.7633L44.7127 25.127C45.911 23.8207 45.911 21.8172 44.7127 20.6172V20.6192Z" fill="white"/>
</svg>
