<svg width="72" height="72" viewBox="0 0 72 72" fill="none" xmlns="http://www.w3.org/2000/svg">
<path fill-rule="evenodd" clip-rule="evenodd" d="M7.94909 11.5006H64.0528C66.2228 11.5006 68 13.2854 68 15.4646V42.0144H4V15.4666C4 13.2848 5.77722 11.5 7.94967 11.5L7.94909 11.5006ZM54.8091 54.6677L56.8783 60.5H15.1209L17.1901 54.6677H54.8091ZM40.3699 38.2277H61.392C62.3737 38.2277 63.1692 37.4288 63.1692 36.4429C63.1692 35.4569 62.3737 34.658 61.392 34.658H40.3699C39.3882 34.658 38.5927 35.4569 38.5927 36.4429C38.5927 37.4288 39.3882 38.2277 40.3699 38.2277ZM40.3699 32.676H61.392C62.3737 32.676 63.1692 31.8771 63.1692 30.8912C63.1692 29.9053 62.3737 29.1064 61.392 29.1064L40.3699 29.1038C39.3882 29.1038 38.5927 29.9027 38.5927 30.8887C38.5927 31.8771 39.3882 32.676 40.3699 32.676ZM40.3699 17.0754C39.3882 17.0754 38.5927 17.8743 38.5927 18.8603V25.3374C38.5927 26.3233 39.3882 27.1222 40.3699 27.1222H61.392C62.3737 27.1222 63.1692 26.3233 63.1692 25.3374V18.8603C63.1692 17.8743 62.3737 17.0754 61.392 17.0754H40.3699ZM59.6146 20.6451H42.1473V23.5524H59.6146V20.6451ZM35.9317 26.3889L31.1488 21.5855C30.454 20.8878 29.3288 20.8878 28.634 21.5855C27.9392 22.2833 27.9392 23.4133 28.634 24.1111L32.1608 27.653L28.634 31.1949C27.9392 31.8926 27.9392 33.0227 28.634 33.7204C29.3288 34.4181 30.454 34.4181 31.1488 33.7204L35.9317 28.917C36.6265 28.2167 36.6265 27.0867 35.9317 26.3889ZM9.3488 28.9145L14.1317 33.7179C14.8265 34.4156 15.9517 34.4156 16.6465 33.7179C17.3413 33.0201 17.3413 31.8901 16.6465 31.1923L13.1197 27.6504L16.6465 24.1085C17.3413 23.4108 17.3413 22.2807 16.6465 21.583C15.9517 20.8853 14.8265 20.8853 14.1317 21.583L9.3488 26.3864C8.65655 27.0867 8.65655 28.2167 9.3488 28.9145ZM22.8342 20.0408L19.0179 34.3451C18.7637 35.2957 19.3276 36.274 20.2741 36.5293C21.2206 36.7847 22.1948 36.2184 22.449 35.2678L26.2653 20.9636C26.5196 20.013 25.9557 19.0346 25.0092 18.7818C24.0601 18.524 23.0859 19.0877 22.8342 20.0408ZM68 45.5875V47.1321C68 49.3113 66.2228 51.0962 64.0528 51.0962L7.94909 51.0987C5.77915 51.0987 4.00193 49.3139 4.00193 47.1346V45.59L68 45.5875Z" fill="white"/>
</svg>
