<svg width="72" height="72" viewBox="0 0 72 72" fill="none" xmlns="http://www.w3.org/2000/svg">
<path d="M43.3682 24.0201C43.3682 25.3282 43.577 27.302 40.4889 28.4204C39.5331 28.7667 38.8876 29.3902 38.8876 29.3902C38.8876 26.2779 39.3615 25.1515 40.6345 24.4849C41.6133 23.9719 43.3682 24.0201 43.3682 24.0201ZM31.7425 27.5881L28.305 40.9064L25.4458 30.0066C24.6737 26.795 23.3566 25.1344 20.5837 25.1344C17.8359 25.1344 16.5016 26.7588 15.7216 30.0066L12.8623 40.9064L9.42481 27.5881C8.86762 24.9055 6.27041 23.746 3.875 24.0472L10.4579 48.938C10.4579 48.938 12.6294 49.0946 13.7167 48.5404C15.1443 47.8126 15.823 47.2514 16.6874 43.8651C17.4574 40.8462 19.6098 31.9773 19.8116 31.3459C20.2895 29.846 20.925 29.9594 21.3577 31.3459C21.5555 31.9783 23.712 40.8462 24.482 43.8651C25.3454 47.2514 26.0251 47.8126 27.4527 48.5404C28.5389 49.0946 30.7115 48.938 30.7115 48.938L37.2943 24.0472C34.8427 23.739 32.2927 24.9437 31.7425 27.5881ZM43.3662 28.1111C43.3662 28.1111 42.9546 28.7476 42.0149 29.2727C41.4115 29.61 40.8323 29.8389 40.2108 30.1371C38.6908 30.866 38.8876 31.5376 38.8876 33.671V48.938C38.8876 48.938 40.5491 49.1478 41.6354 48.5936C43.0339 47.8808 43.3552 47.1931 43.3682 44.098V29.0117L43.3662 29.0127V28.1111ZM59.7747 36.5523L68.1275 24.1295C68.1275 24.1295 64.6027 23.5291 62.8568 25.1184C61.5216 26.3332 60.4062 28.085 57.4174 32.394C57.3703 32.4673 56.79 33.4521 56.1053 32.394C53.1647 28.1543 52.0092 26.3412 50.6659 25.1184C48.92 23.5291 45.3952 24.1295 45.3952 24.1295L53.748 36.5523L45.4183 48.937C45.4183 48.937 49.0897 49.4008 50.8346 47.8116C51.9881 46.7614 52.5995 45.7665 56.1063 40.7117C56.79 39.6555 57.3682 40.6344 57.4184 40.7117C60.37 44.9664 61.3569 46.5406 62.7534 47.8116C64.4993 49.4008 68.1064 48.937 68.1064 48.937L59.7747 36.5523Z" fill="white"/>
</svg>
