<svg width="72" height="72" viewBox="0 0 72 72" fill="none" xmlns="http://www.w3.org/2000/svg">
<g clip-path="url(#clip0_1511_17514)">
<path d="M32.6545 53.8678C32.4212 54.5766 32.1878 55.2854 31.9332 55.9942C31.5408 57.0944 31.1165 58.1841 30.7559 59.2949C30.5968 59.7921 30.3847 60.046 29.8331 59.9931C29.377 59.9508 28.9103 59.9508 28.4542 59.9931C28.03 60.0354 27.8284 59.8133 27.7012 59.4747C26.9056 57.2848 26.1314 55.0844 25.3358 52.8945C24.5828 50.7998 23.8085 48.7157 23.0448 46.6316C22.4614 45.0341 21.8886 43.4261 21.3053 41.8286C20.3613 39.2579 19.4067 36.6977 18.4627 34.1376C17.6672 31.9477 16.8929 29.7472 16.0974 27.5573C15.2594 25.2299 14.4109 22.913 13.5623 20.5962C13.4563 20.3 13.2654 20.1942 12.9578 20.1942C12.2683 20.2047 11.5789 20.2047 10.9001 20.1201C10.1258 20.0355 9.51057 19.4113 9.53178 18.6602C9.553 17.9196 10.2 17.2637 10.9743 17.2531C12.6714 17.232 14.3685 17.2214 16.0655 17.232C18.8551 17.2426 21.6341 17.0627 24.4237 16.9146C24.5828 16.904 24.7313 16.8617 24.8904 16.8406C25.4843 16.7982 26.0041 17.1897 26.0677 17.7398C26.1526 18.438 25.8025 18.9458 25.1343 19.0199C24.307 19.1151 23.4903 19.1786 22.6629 19.242C22.0159 19.2844 21.9523 19.3372 22.1432 19.9085C22.6099 21.3473 23.0872 22.7755 23.5751 24.2037C24.1797 26.0021 24.8055 27.79 25.3995 29.5779C26.0677 31.5562 26.7253 33.5451 27.3829 35.5234C27.9663 37.269 28.5603 39.0146 29.1437 40.7601C29.7483 42.5586 30.3528 44.3465 30.9574 46.1449C31.2014 46.8749 31.4453 47.5943 31.6999 48.3243C31.7529 48.4829 31.7741 48.7051 31.9969 48.7157C32.2302 48.7263 32.2408 48.4935 32.2939 48.3348C32.8136 46.7903 33.3333 45.2563 33.8319 43.7117C34.2986 42.2835 34.744 40.8448 35.2213 39.4166C35.7941 37.7133 36.3987 36.0101 36.9821 34.3068C37.3215 33.323 37.6397 32.3179 37.9791 31.3341C38.1806 30.7416 37.767 30.2867 37.6079 29.8001C37.1518 28.4142 36.6214 27.0389 36.1229 25.6636C35.5395 24.0767 34.9562 22.4793 34.3728 20.8924C34.2243 20.501 34.044 20.1201 33.9485 19.7075C33.8743 19.4007 33.7152 19.3267 33.4394 19.2949C32.559 19.2209 31.6893 19.1151 30.8089 19.0199C30.1619 18.9458 29.8437 18.5438 29.8861 17.8562C29.918 17.2637 30.2998 16.8723 30.915 16.904C32.9091 16.9887 34.8925 17.1156 36.8866 17.2002C37.9261 17.2426 38.9655 17.2637 40.0156 17.1685C40.9596 17.0839 41.9142 17.1474 42.8688 17.0416C43.781 16.9358 44.7038 16.9252 45.616 16.904C46.3372 16.8829 46.7297 17.2637 46.7509 17.9302C46.7721 18.5332 46.3796 18.967 45.722 19.0305C44.8098 19.1257 43.8977 19.2315 42.9855 19.3055C42.6461 19.3372 42.6355 19.4219 42.7415 19.7287C43.3461 21.5166 43.9083 23.3256 44.5129 25.1241C45.0856 26.8273 45.7432 28.4988 46.2736 30.2127C46.8039 31.9477 47.4191 33.6509 47.9813 35.3753C48.7556 37.7556 49.6041 40.1148 50.3996 42.4951C51.0466 44.4205 51.6618 46.3565 52.277 48.2925C52.3194 48.4089 52.3088 48.5358 52.4785 48.5464C52.6694 48.5676 52.7013 48.43 52.7437 48.2925C52.9346 47.6895 53.1361 47.0971 53.3271 46.4941C53.5286 45.8276 53.7089 45.1505 53.9104 44.484C54.1014 43.8704 54.3453 43.2674 54.5044 42.6432C54.9075 41.0563 55.459 39.5329 55.9894 37.9884C56.8061 35.6186 57.4849 33.2172 57.4637 30.6993C57.4425 28.3401 56.7955 26.1397 55.6499 24.0662C54.8332 22.5956 53.8362 21.2309 53.1361 19.6864C52.1603 17.5176 52.1391 15.0738 53.9847 13.2648C54.8226 12.4502 55.8303 12.0482 57.0288 12.0059C58.7365 11.9424 60.2002 12.3867 61.3246 13.7197C62.1519 14.7141 62.661 15.8778 62.8731 17.1474C63.2868 19.6652 63.1913 22.1936 62.9156 24.7221C62.6186 27.3986 61.7064 29.8953 60.8048 32.4131C60.0624 34.4867 59.3623 36.5813 58.6411 38.6654C57.941 40.6649 57.241 42.6644 56.5409 44.6639C56.5197 44.7168 56.5197 44.7696 56.5091 44.8225C56.1485 44.9707 56.1485 45.2669 56.2015 45.5842C56.1909 45.6477 56.1909 45.7112 56.1803 45.7747C55.8303 45.9334 55.8303 46.2296 55.8833 46.5364C55.8727 46.5998 55.8621 46.6633 55.8621 46.7162C55.4908 46.8749 55.5651 47.2134 55.5227 47.5097C55.5015 47.6049 55.4802 47.7001 55.4696 47.7953C55.162 47.9328 55.2575 48.229 55.2045 48.4618C55.1833 48.557 55.162 48.6522 55.1514 48.7474C54.9181 48.8638 54.8332 49.0436 54.9393 49.287C54.9287 49.3504 54.9287 49.4139 54.9181 49.4774C54.4726 49.5938 54.6423 49.9535 54.6105 50.2391C54.5999 50.3026 54.5999 50.366 54.5893 50.4189C54.1544 50.5459 54.3135 50.9056 54.2923 51.1912C54.2605 51.2653 54.2393 51.3393 54.2074 51.4134C53.8468 51.8366 53.6983 52.3338 53.6665 52.8733C53.2422 54.1957 52.8498 55.5393 52.3619 56.8405C52.0118 57.7821 51.7679 58.7659 51.2588 59.6546C51.1315 59.8873 51.0042 59.9508 50.7708 59.9508C50.2617 59.9508 49.742 59.9402 49.2329 59.9508C48.9147 59.9614 48.7237 59.8027 48.6177 59.5488C48.0343 58.1312 47.4191 56.7241 46.9312 55.2642C46.4009 53.6773 45.7645 52.1222 45.1917 50.5565C44.9265 49.8582 44.6932 49.1389 44.4386 48.4406C44.4068 48.1021 44.4916 47.7212 44.1098 47.4991C44.0356 47.2029 44.1522 46.8432 43.8022 46.6527C43.187 45.0024 42.5506 43.3626 41.946 41.7123C41.1611 39.5541 40.3974 37.3854 39.6231 35.2166C39.5701 35.0791 39.5595 34.8887 39.3368 34.9098C39.1352 34.9204 39.1458 35.0897 39.1034 35.2166C38.4352 37.2055 37.7776 39.1944 37.0987 41.1727C36.632 42.5269 36.1335 43.8598 35.6562 45.214C35.391 45.9757 35.1577 46.7374 34.9031 47.4991C34.4895 47.7424 34.5849 48.2079 34.447 48.557C34.2455 49.0754 33.991 49.5832 33.9591 50.1439C33.9485 50.1756 33.9485 50.2074 33.9379 50.2391C33.6515 50.4189 33.6834 50.7257 33.6409 51.0008C33.2591 51.223 33.3439 51.6038 33.3227 51.9423C32.9515 52.1645 33.0257 52.5454 33.0045 52.8945C32.6015 53.1484 32.6863 53.5292 32.6545 53.8678Z" fill="white"/>
<path d="M33.9375 50.1751C33.9693 49.6038 34.2239 49.096 34.4254 48.5882C34.5633 48.2285 34.4678 47.763 34.8815 47.5303C34.6906 48.4401 34.4678 49.3605 33.9375 50.1751Z" fill="white"/>
<path d="M53.6484 52.9052C53.6909 52.3657 53.8394 51.8579 54.1894 51.4453C54.2106 52.006 54.0091 52.4821 53.6484 52.9052Z" fill="white"/>
<path d="M33.3047 51.9738C33.3259 51.6247 33.2517 51.2544 33.6229 51.0322C33.6017 51.3708 33.6653 51.741 33.3047 51.9738Z" fill="white"/>
<path d="M32.9727 52.916C33.0045 52.5775 32.9196 52.1966 33.2909 51.9639C33.2802 52.3236 33.3439 52.6938 32.9727 52.916Z" fill="white"/>
<path d="M44.1016 47.5303C44.4834 47.7524 44.3986 48.1333 44.4304 48.4718C44.0591 48.2497 44.144 47.8688 44.1016 47.5303Z" fill="white"/>
<path d="M32.6523 53.8681C32.6842 53.5296 32.6099 53.1488 32.9812 52.916C32.9387 53.2651 33.013 53.6354 32.6523 53.8681Z" fill="white"/>
<path d="M54.6007 50.2715C54.622 49.9858 54.4629 49.6261 54.9083 49.5098C54.8341 49.7742 54.9083 50.1022 54.6007 50.2715Z" fill="white"/>
<path d="M54.2733 51.2235C54.2945 50.9378 54.1354 50.5781 54.5703 50.4512C54.5172 50.7262 54.5915 51.0542 54.2733 51.2235Z" fill="white"/>
<path d="M56.1933 45.6162C56.1403 45.2988 56.1403 45.0026 56.5009 44.8545C56.4266 45.119 56.5009 45.4469 56.1933 45.6162Z" fill="white"/>
<path d="M43.793 46.6738C44.1536 46.8643 44.0264 47.2345 44.1006 47.5202C43.7824 47.3192 43.793 47.0018 43.793 46.6738Z" fill="white"/>
<path d="M55.8732 46.5683C55.8202 46.251 55.8202 45.9653 56.1702 45.8066C56.149 46.0923 56.1066 46.3673 55.8732 46.5683Z" fill="white"/>
<path d="M55.5117 47.5415C55.5541 47.2453 55.4799 46.9067 55.8511 46.748C55.8299 47.0548 55.7875 47.3511 55.5117 47.5415Z" fill="white"/>
<path d="M33.6211 51.0215C33.6635 50.7464 33.6317 50.4396 33.9181 50.2598C33.9181 50.556 33.9499 50.8522 33.6211 51.0215Z" fill="white"/>
<path d="M55.1836 48.4936C55.2366 48.2609 55.1306 47.9647 55.4488 47.8271C55.47 48.0916 55.4488 48.3455 55.1836 48.4936Z" fill="white"/>
<path d="M54.9162 49.3188C54.8102 49.0755 54.895 48.8957 55.1284 48.7793C55.1496 48.9909 55.1708 49.213 54.9162 49.3188Z" fill="white"/>
</g>
<defs>
<clipPath id="clip0_1511_17514">
<rect width="72" height="72" rx="4" fill="white"/>
</clipPath>
</defs>
</svg>
