<svg width="32" height="32" viewBox="0 0 32 32" fill="none" xmlns="http://www.w3.org/2000/svg">
<g clip-path="url(#clip0_1532_7035)">
<path d="M12.2273 6.65744C12.2273 4.32874 14.1224 2.43394 16.4514 2.43394C18.7804 2.43394 20.6754 4.32874 20.6754 6.65744V9.75454H23.1111L23.1096 6.65744C23.1096 2.9818 20.1188 0 16.4513 0C12.7752 0 9.79297 2.99048 9.79297 6.65744V9.75454H12.2286L12.2273 6.65744Z" fill="white"/>
<path d="M29.9141 29.8993L27.9811 12.0412C27.8817 11.1515 27.1059 10.4883 26.1781 10.4883H6.74992C5.81335 10.4883 5.03751 11.1574 4.94692 12.0412L3.01241 29.8993C2.95104 30.4618 3.11907 31.0184 3.47704 31.4143C3.81894 31.7941 4.29089 32.0001 4.81687 32.0001H28.1111C28.6356 32.0001 29.1164 31.7941 29.4509 31.4143C29.8075 31.0184 29.9755 30.4706 29.9141 29.8993ZM13.408 28.7438H10.1439C9.23798 28.7438 8.50014 28.006 8.50014 27.1003V23.8366C8.50014 22.9308 9.23801 22.1931 10.1439 22.1931H13.408C14.3139 22.1931 15.0517 22.9309 15.0517 23.8366V27.1003C15.0517 28.0046 14.3138 28.7438 13.408 28.7438ZM13.408 20.2968H10.1439C9.70261 20.2968 9.29206 20.1288 8.97936 19.8176C8.66668 19.505 8.50014 19.0945 8.50014 18.6533V15.3896C8.50014 14.4838 9.23801 13.7461 10.1439 13.7461H13.408C14.3139 13.7461 15.0517 14.4839 15.0517 15.3896V18.6533C15.0517 19.559 14.3138 20.2968 13.408 20.2968ZM24.4277 27.1001C24.4277 28.0059 23.6898 28.7436 22.7839 28.7436H19.5198C18.6139 28.7436 17.8761 28.0058 17.8761 27.1001V23.8364C17.8761 22.9306 18.614 22.1929 19.5198 22.1929H22.7839C23.6898 22.1929 24.4277 22.9307 24.4277 23.8364V27.1001ZM24.4277 18.6531C24.4277 19.5589 23.6898 20.2966 22.7839 20.2966H19.5198C19.0786 20.2966 18.668 20.1286 18.3553 19.8174C18.0426 19.5048 17.8761 19.0943 17.8761 18.6531V15.3894C17.8761 14.4836 18.614 13.7459 19.5198 13.7459H22.7839C23.6898 13.7459 24.4277 14.4837 24.4277 15.3894V18.6531Z" fill="white"/>
<rect x="10" y="15.2998" width="3.5" height="3.5" rx="0.5" fill="white"/>
<rect x="10" y="23.7002" width="3.5" height="3.5" rx="0.5" fill="white"/>
<rect x="19.3984" y="15.2998" width="3.5" height="3.5" rx="0.5" fill="white"/>
<rect x="19.3984" y="23.7002" width="3.5" height="3.5" rx="0.5" fill="white"/>
</g>
<defs>
<clipPath id="clip0_1532_7035">
<rect width="32" height="32" fill="white"/>
</clipPath>
</defs>
</svg>
