<svg width="32" height="32" viewBox="0 0 32 32" fill="none" xmlns="http://www.w3.org/2000/svg">
<path d="M16.8577 27.4284L15.7148 31.9998L20.2863 30.857L25.7606 25.3827L22.332 21.9541L16.8577 27.4284Z" fill="white"/>
<path d="M27.0085 18.2861C26.6902 18.2859 26.375 18.3483 26.0808 18.4699C25.7867 18.5914 25.5194 18.7698 25.2942 18.9947L23.957 20.3318L27.3856 23.7604L28.7227 22.4233C29.062 22.0844 29.2931 21.6525 29.3868 21.1823C29.4804 20.712 29.4325 20.2245 29.2489 19.7815C29.0653 19.3385 28.7545 18.96 28.3556 18.6938C27.9568 18.4276 27.488 18.2857 27.0085 18.2861Z" fill="white"/>
<path d="M19.1429 6.85714H24.8571L18 0V5.71429C18 6.01739 18.1204 6.30808 18.3347 6.52241C18.5491 6.73674 18.8398 6.85714 19.1429 6.85714Z" fill="white"/>
<path d="M23.7143 17.3829C24.0532 17.0481 24.438 16.7634 24.8571 16.5371V9.14286H19.1429C18.2335 9.14286 17.3615 8.78163 16.7185 8.13865C16.0755 7.49567 15.7143 6.6236 15.7143 5.71429V0H4.28571C3.67951 0 3.09812 0.240816 2.66947 0.66947C2.24082 1.09812 2 1.67951 2 2.28571V29.7143C2 30.3205 2.24082 30.9019 2.66947 31.3305C3.09812 31.7592 3.67951 32 4.28571 32H13.36L14.7886 26.2857L23.7143 17.3829ZM7.71429 8H12.2857C12.5888 8 12.8795 8.12041 13.0938 8.33474C13.3082 8.54906 13.4286 8.83975 13.4286 9.14286C13.4286 9.44596 13.3082 9.73665 13.0938 9.95098C12.8795 10.1653 12.5888 10.2857 12.2857 10.2857H7.71429C7.41118 10.2857 7.12049 10.1653 6.90616 9.95098C6.69184 9.73665 6.57143 9.44596 6.57143 9.14286C6.57143 8.83975 6.69184 8.54906 6.90616 8.33474C7.12049 8.12041 7.41118 8 7.71429 8ZM13.4286 24H7.71429C7.41118 24 7.12049 23.8796 6.90616 23.6653C6.69184 23.4509 6.57143 23.1602 6.57143 22.8571C6.57143 22.554 6.69184 22.2633 6.90616 22.049C7.12049 21.8347 7.41118 21.7143 7.71429 21.7143H13.4286C13.7317 21.7143 14.0224 21.8347 14.2367 22.049C14.451 22.2633 14.5714 22.554 14.5714 22.8571C14.5714 23.1602 14.451 23.4509 14.2367 23.6653C14.0224 23.8796 13.7317 24 13.4286 24ZM18 19.4286H7.71429C7.41118 19.4286 7.12049 19.3082 6.90616 19.0938C6.69184 18.8795 6.57143 18.5888 6.57143 18.2857C6.57143 17.9826 6.69184 17.6919 6.90616 17.4776C7.12049 17.2633 7.41118 17.1429 7.71429 17.1429H18C18.3031 17.1429 18.5938 17.2633 18.8081 17.4776C19.0225 17.6919 19.1429 17.9826 19.1429 18.2857C19.1429 18.5888 19.0225 18.8795 18.8081 19.0938C18.5938 19.3082 18.3031 19.4286 18 19.4286ZM19.1429 14.8571H7.71429C7.41118 14.8571 7.12049 14.7367 6.90616 14.5224C6.69184 14.3081 6.57143 14.0174 6.57143 13.7143C6.57143 13.4112 6.69184 13.1205 6.90616 12.9062C7.12049 12.6918 7.41118 12.5714 7.71429 12.5714H19.1429C19.446 12.5714 19.7367 12.6918 19.951 12.9062C20.1653 13.1205 20.2857 13.4112 20.2857 13.7143C20.2857 14.0174 20.1653 14.3081 19.951 14.5224C19.7367 14.7367 19.446 14.8571 19.1429 14.8571Z" fill="white"/>
</svg>
