<svg width="32" height="32" viewBox="0 0 32 32" fill="none" xmlns="http://www.w3.org/2000/svg">
<path d="M28.0126 11.7687V24.6073C28.0125 24.7682 27.9725 24.9265 27.8963 25.068C27.8201 25.2095 27.71 25.3297 27.576 25.4178C27.4419 25.5058 27.2882 25.559 27.1286 25.5725C26.969 25.586 26.8085 25.5594 26.6617 25.495L24.6124 24.5841C22.9934 23.8693 21.2439 23.5009 19.4754 23.5026H17.8467C16.4423 23.5026 15.0954 22.9422 14.1024 21.9448C13.1093 20.9474 12.5515 19.5947 12.5515 18.1841C12.5515 16.7736 13.1093 15.4209 14.1024 14.4235C15.0954 13.4261 16.4423 12.8657 17.8467 12.8657H19.4638C21.2357 12.8714 22.9892 12.5057 24.6124 11.792L26.6733 10.8849C26.8201 10.8206 26.9806 10.7939 27.1402 10.8074C27.2998 10.8209 27.4535 10.8741 27.5876 10.9622C27.7216 11.0502 27.8317 11.1704 27.9079 11.3119C27.9841 11.4534 28.0241 11.6117 28.0241 11.7726L28.0126 11.7687ZM19.4638 25.4446H17.8467C17.3592 25.4452 16.873 25.3958 16.3955 25.2973V28.6504C16.4254 29.5489 16.8019 30.4006 17.4453 31.0256C18.0888 31.6506 18.9488 32 19.844 32C20.7391 32 21.5992 31.6506 22.2426 31.0256C22.8861 30.4006 23.2625 29.5489 23.2924 28.6504V26.1346C22.0684 25.6733 20.7711 25.4395 19.4638 25.4446ZM29.9423 14.1605V22.2117C30.579 21.7531 31.0977 21.1487 31.4555 20.4487C31.8134 19.7486 32 18.973 32 18.1861C32 17.3992 31.8134 16.6236 31.4555 15.9235C31.0977 15.2235 30.579 14.6191 29.9423 14.1605ZM14.4658 24.5841C13.0409 23.8255 11.9098 22.61 11.2523 21.1311C10.5948 19.6521 10.4489 17.9948 10.8377 16.4229C11.2265 14.851 12.1277 13.4549 13.3979 12.457C14.668 11.459 16.2341 10.9166 17.8467 10.9159H19.4638C20.9693 10.9235 22.4599 10.6159 23.8405 10.0127L24.1531 9.87317V5.20212C24.1531 4.9451 24.0514 4.69861 23.8705 4.51687C23.6895 4.33513 23.4441 4.23302 23.1882 4.23302H6.20645C6.0796 4.23251 5.9539 4.25723 5.83661 4.30575C5.71931 4.35427 5.61274 4.42563 5.52305 4.51572C5.43335 4.60581 5.36229 4.71285 5.31399 4.83066C5.26568 4.94847 5.24107 5.07471 5.24158 5.20212V26.7471C5.24107 26.8745 5.26568 27.0007 5.31399 27.1186C5.36229 27.2364 5.43335 27.3434 5.52305 27.4335C5.61274 27.5236 5.71931 27.5949 5.83661 27.6435C5.9539 27.692 6.0796 27.7167 6.20645 27.7162H14.4658V24.5841ZM3.31569 5.20212C3.31671 4.43137 3.62201 3.69249 4.16464 3.14749C4.70726 2.60249 5.44292 2.29586 6.21031 2.29483H19.9115V0.969105C19.912 0.841698 19.8874 0.71545 19.8391 0.597642C19.7908 0.479834 19.7197 0.372798 19.63 0.282707C19.5403 0.192615 19.4338 0.121252 19.3165 0.0727317C19.1992 0.0242116 19.0735 -0.000504895 18.9466 7.81604e-06H1.96487C1.70897 7.81604e-06 1.46355 0.102109 1.2826 0.28385C1.10166 0.465591 1 0.712084 1 0.969105V22.5024C1 22.7595 1.10166 23.006 1.2826 23.1877C1.46355 23.3694 1.70897 23.4715 1.96487 23.4715H3.30026L3.31569 5.20212Z" fill="white"/>
</svg>
