<svg width="32" height="32" viewBox="0 0 32 32" fill="none" xmlns="http://www.w3.org/2000/svg">
<path d="M11.4285 5.42854C11.4285 4.79997 11.9427 4.28569 12.5713 4.28569H31.9997C31.9997 3.02856 30.9711 2 29.714 2H2.28569C1.02856 2 0 3.02856 0 4.28569V27.1426C0 28.3997 1.02856 29.4283 2.28569 29.4283H16.1941C15.9427 28.7197 15.9198 27.9426 16.1713 27.1997L17.3141 23.7712C17.4741 23.2683 17.7598 22.8112 18.137 22.4341L25.6683 14.9027C26.6054 13.9656 27.9083 13.4285 29.234 13.4285C30.2511 13.4285 31.1997 13.737 31.9882 14.2627V6.57138H12.5713C11.9427 6.57138 11.4285 6.0571 11.4285 5.42854ZM8.01134 4.28569C8.63991 4.28569 9.15419 4.79997 9.15419 5.42854C9.15419 6.0571 8.63991 6.57138 8.01134 6.57138C7.38278 6.57138 6.8685 6.0571 6.8685 5.42854C6.8685 4.79997 7.37135 4.28569 8.01134 4.28569ZM2.29712 5.42854C2.29712 4.79997 2.79997 4.28569 3.43996 4.28569C4.06853 4.28569 4.58281 4.79997 4.58281 5.42854C4.58281 6.0571 4.06853 6.57138 3.43996 6.57138C2.8114 6.57138 2.29712 6.0571 2.29712 5.42854ZM13.7141 23.7141H4.57138C3.94282 23.7141 3.42854 23.1998 3.42854 22.5712C3.42854 21.9426 3.94282 21.4284 4.57138 21.4284H13.7141C14.3427 21.4284 14.857 21.9426 14.857 22.5712C14.857 23.1998 14.3427 23.7141 13.7141 23.7141ZM17.1427 19.1427H4.57138C3.94282 19.1427 3.42854 18.6284 3.42854 17.9998C3.42854 17.3713 3.94282 16.857 4.57138 16.857H17.1427C17.7712 16.857 18.2855 17.3713 18.2855 17.9998C18.2855 18.6284 17.7712 19.1427 17.1427 19.1427ZM22.8569 13.4285C22.8569 14.057 22.3426 14.5713 21.7141 14.5713H4.57138C3.94282 14.5713 3.42854 14.057 3.42854 13.4285C3.42854 12.7999 3.94282 12.2856 4.57138 12.2856H21.7141C22.3426 12.2856 22.8569 12.7999 22.8569 13.4285Z" fill="white"/>
<path d="M29.2436 15.7139C28.5122 15.7139 27.8036 16.011 27.2893 16.5253L26.855 16.9596L30.7521 20.8567L31.1864 20.4224C31.5731 20.0376 31.8368 19.5468 31.9443 19.012C32.0517 18.4772 31.998 17.9225 31.7899 17.4183C31.5819 16.914 31.2288 16.4829 30.7755 16.1795C30.3222 15.8761 29.7891 15.714 29.2436 15.7139ZM19.758 24.0452C19.6323 24.1709 19.5408 24.3195 19.4837 24.4909L18.3408 27.9195C18.2037 28.3309 18.3066 28.788 18.6151 29.0852C18.8323 29.3023 19.1294 29.4166 19.4266 29.4166C19.5523 29.4166 19.6666 29.3937 19.7923 29.3594L23.2208 28.2166C23.3922 28.1595 23.5408 28.068 23.6665 27.9423L29.1407 22.4681L25.2436 18.571L19.7694 24.0452H19.758Z" fill="white"/>
</svg>
