<svg width="32" height="32" viewBox="0 0 32 32" fill="none" xmlns="http://www.w3.org/2000/svg">
<g clip-path="url(#clip0_1532_7010)">
<path d="M23.2025 16.7975C23.1956 16.7836 23.1886 16.7767 23.1886 16.7627C22.159 13.3471 19.1259 11.1557 15.8146 11.0166C15.119 11.6427 14.9589 11.7471 14.7503 12.0322C14.7294 12.1018 13.9155 13.1383 14.632 14.3836C15.0041 15.0557 15.5565 15.2078 16.0164 15.4897C18.9172 15.9349 20.5451 20.248 17.2547 22.1471L9.81808 26.4046C8.10673 27.3854 5.9224 26.7872 4.94156 25.0828C3.96766 23.3714 4.55897 21.1872 6.27026 20.2062L8.82331 18.7453C8.1694 17.7853 7.39022 16.3453 7.11896 14.5714L4.05112 16.3244C2.11725 17.4305 0.823351 19.2114 0.280701 21.194C-0.25495 23.1766 -0.03929 25.3749 1.05981 27.3019C3.27201 31.1558 8.18333 32.4915 12.0373 30.2863L19.4739 26.0288C22.3955 24.3523 24.2669 20.8532 23.2025 16.7975Z" fill="white"/>
<path d="M27.9479 16.0251L24.8175 17.8129C24.612 16.2724 24.1701 15.011 23.1757 13.6042L25.7288 12.1433C27.44 11.1694 28.0314 8.97804 27.0505 7.27368C26.0766 5.56232 23.8922 4.97107 22.1809 5.94498L14.7443 10.2024C11.6959 11.9314 12.791 16.5954 16.226 16.8529L16.7965 17.3399C17.8979 18.2748 18.135 20.0068 16.5808 20.9295L15.913 21.3191C13.298 21.1204 10.9081 19.6597 9.54084 17.2982C7.33831 13.4677 8.6608 8.52498 12.5252 6.32077L19.9617 2.06321C23.8157 -0.142003 28.727 1.19363 30.9322 5.0476C33.1444 8.90851 31.8088 13.8199 27.9479 16.0251Z" fill="white"/>
</g>
<defs>
<clipPath id="clip0_1532_7010">
<rect width="32" height="32" fill="white"/>
</clipPath>
</defs>
</svg>
