<svg width="32" height="32" viewBox="0 0 32 32" fill="none" xmlns="http://www.w3.org/2000/svg">
<g clip-path="url(#clip0_1532_7012)">
<path d="M19.7331 0C12.9651 0 7.46614 5.49897 7.46614 12.2669C7.46614 19.0349 12.9651 24.5297 19.7331 24.5297C26.501 24.5297 32 19.0349 32 12.2669C32 5.49897 26.501 0 19.7331 0ZM19.7331 2.03949C25.3741 2.03949 29.9564 6.6259 29.9564 12.2669C29.9564 17.908 25.3741 22.4903 19.7331 22.4903C14.092 22.4903 9.50871 17.908 9.50871 12.2669C9.50871 6.6259 14.092 2.03949 19.7331 2.03949ZM9.20457 20.4383L8.48794 21.156L10.8409 23.512L11.5596 22.7923C10.6802 22.1086 9.88862 21.3174 9.20457 20.4383ZM6.92659 21.3289C6.78755 21.3311 6.65487 21.3875 6.55682 21.4861L0.816555 27.2264C-0.272184 28.3151 -0.272186 30.0905 0.816555 31.1793C1.90529 32.268 3.68486 32.268 4.7736 31.1793L10.5086 25.4432C10.5585 25.3936 10.598 25.3346 10.625 25.2697C10.652 25.2049 10.6658 25.1353 10.6658 25.065C10.6658 24.9948 10.652 24.9252 10.625 24.8603C10.598 24.7954 10.5585 24.7365 10.5086 24.6869L7.31198 21.4861C7.26156 21.4354 7.20146 21.3954 7.13525 21.3684C7.06905 21.3414 6.99808 21.3279 6.92659 21.3289Z" fill="white"/>
<path fill-rule="evenodd" clip-rule="evenodd" d="M20.1021 3.97266C16.7707 3.97266 14.0547 6.7579 14.0547 10.1757C14.0547 12.6122 15.5104 15.0067 16.9072 16.8378C18.304 18.669 19.7007 19.9412 19.7007 19.9412C19.8113 20.042 19.9542 20.0976 20.1021 20.0976C20.2501 20.0976 20.3929 20.042 20.5036 19.9412C20.5036 19.9412 21.9002 18.669 23.2971 16.8378C24.6939 15.0067 26.1484 12.6122 26.1484 10.1757C26.1484 6.7579 23.4336 3.97266 20.1021 3.97266ZM23.1223 9.55798C23.1223 7.85274 21.7643 6.45458 20.1021 6.45458C18.44 6.45458 17.0808 7.85274 17.0808 9.55798C17.0808 11.2632 18.44 12.6577 20.1021 12.6577C21.7643 12.6577 23.1223 11.2632 23.1223 9.55798Z" fill="white"/>
</g>
<defs>
<clipPath id="clip0_1532_7012">
<rect width="32" height="32" fill="white"/>
</clipPath>
</defs>
</svg>
