<svg width="32" height="32" viewBox="0 0 32 32" fill="none" xmlns="http://www.w3.org/2000/svg">
<g clip-path="url(#clip0_1532_7030)">
<path d="M31 28H1C0.447715 28 0 28.4477 0 29V31C0 31.5523 0.447715 32 1 32H31C31.5523 32 32 31.5523 32 31V29C32 28.4477 31.5523 28 31 28Z" fill="white"/>
<path d="M10 21V26H2V21C2 20.45 2.45 20 3 20H9C9.55 20 10 20.45 10 21Z" fill="white"/>
<path d="M20 17V26H12V17C12 16.45 12.45 16 13 16H19C19.55 16 20 16.45 20 17Z" fill="white"/>
<path d="M30 13V26H22V13C22 12.45 22.45 12 23 12H29C29.55 12 30 12.45 30 13Z" fill="white"/>
<path d="M31.1308 3.7256C30.9799 3.2627 30.5869 2.9326 30.1064 2.8633L28.0561 2.5654L27.1391 0.707C26.9238 0.271 26.4877 0 26.0014 0C25.5151 0 25.079 0.271 24.8632 0.7075L23.9467 2.5654L21.8974 2.8633C21.416 2.9326 21.0229 3.2627 20.872 3.7256C20.7211 4.1885 20.8442 4.6875 21.1928 5.0278L22.6767 6.4736L22.3261 8.5166C22.2441 8.9956 22.4374 9.4712 22.831 9.7568C23.2246 10.0429 23.7363 10.08 24.1674 9.854L26.0014 8.8896L27.8359 9.854C28.0234 9.9526 28.2255 10.001 28.4267 10.001C28.6889 10.001 28.9492 9.919 29.1718 9.7569C29.5654 9.4713 29.7587 8.9957 29.6767 8.5162L29.3261 6.4737L30.81 5.0274C31.1586 4.6876 31.2817 4.1885 31.1308 3.7256Z" fill="white"/>
</g>
<defs>
<clipPath id="clip0_1532_7030">
<rect width="32" height="32" fill="white"/>
</clipPath>
</defs>
</svg>
