<svg width="32" height="32" viewBox="0 0 32 32" fill="none" xmlns="http://www.w3.org/2000/svg">
<g clip-path="url(#clip0_1532_7006)">
<path d="M16.1541 19.7251H3.79157C3.39927 19.7251 3.07926 20.0452 3.07926 20.4375V27.9633C2.31532 29.0369 1.33975 29.9454 0.209306 30.6216C-0.090078 30.8023 -0.0642674 31.2462 0.260924 31.37C1.32427 31.7778 2.48051 31.9998 3.68835 31.9998C5.19044 31.9998 6.60994 31.6488 7.8746 31.0345H16.149C16.5413 31.0345 16.8613 30.7145 16.8613 30.3222V20.432C16.8613 20.0397 16.5413 19.7197 16.149 19.7197L16.1541 19.7251ZM13.7642 24.1539C13.728 24.3397 13.6506 24.4739 13.5319 24.5565C13.4132 24.6391 13.2222 24.6804 12.9641 24.6804H12.5924L12.3498 26.0638H12.9847C13.1706 26.0638 13.2996 26.1154 13.377 26.2238C13.4545 26.3322 13.4751 26.5128 13.4287 26.7709L13.3357 27.3335H12.1743L11.7666 29.6512H10.92C10.5484 29.6512 10.3367 29.2589 10.4038 28.9285L10.6877 27.3335H8.52495L8.23589 29.0163C8.16879 29.4189 7.81779 29.6512 7.4255 29.6512H6.6151L7.02805 27.3336H6.51187C6.32604 27.3336 6.197 27.2819 6.11957 27.1735C6.04214 27.0651 6.0215 26.8845 6.06795 26.6264L6.16087 26.0638H7.20353L7.44614 24.6804H6.27959L6.41896 23.9423C6.45509 23.7616 6.53252 23.6274 6.65124 23.5448C6.76996 23.4571 6.96094 23.4158 7.21905 23.4158H7.6165L7.92105 21.6969C7.98815 21.3304 8.32884 21.1085 8.68499 21.1085H9.51603L9.10824 23.4158H11.2762L11.684 21.1085H12.4944C12.8196 21.1085 13.1344 21.3563 13.0725 21.7073L12.7679 23.4158H13.9087L13.7693 24.154L13.7642 24.1539Z" fill="white"/>
<path d="M8.69531 26.0692H10.8633L11.1007 24.6807H8.93275L8.69531 26.0692Z" fill="white"/>
<path d="M32.0076 13.1645C32.0076 12.0754 31.1249 11.1876 30.0306 11.1876C30.5468 10.7591 30.872 10.0623 30.7378 9.28802C30.5726 8.32276 29.6641 7.6569 28.6834 7.6569H24.399C24.0015 7.6569 23.6608 7.25426 23.8312 6.89295C24.2183 6.08256 24.4919 5.21019 24.7345 4.3482C24.9823 3.46553 25.1681 2.53125 24.9874 1.61762C24.8222 0.791736 24.3061 0.0948867 23.4182 0.00714455C22.6027 -0.0702839 21.8491 0.492369 21.4671 1.17369L20.3057 3.24871C19.0411 5.51475 17.0796 7.25426 14.8188 8.52414C14.1426 8.90095 13.5542 9.40682 13.0535 9.98494H9.47642C8.82602 9.98494 8.30469 10.5115 8.30469 11.1567V17.9134H16.1506C17.5391 17.9134 18.6696 19.0439 18.6696 20.4324V22.1977H27.4444C28.4252 22.1977 29.3337 21.5318 29.4988 20.5666C29.633 19.7923 29.3079 19.0903 28.7607 18.667C29.8859 18.667 30.7686 17.7844 30.7686 16.6901C30.7686 16.0552 30.4641 15.4977 29.9995 15.1364C31.1248 15.1364 32.0075 14.2537 32.0075 13.1594L32.0076 13.1645Z" fill="white"/>
</g>
<defs>
<clipPath id="clip0_1532_7006">
<rect width="32" height="32" fill="white"/>
</clipPath>
</defs>
</svg>
