<svg width="32" height="32" viewBox="0 0 32 32" fill="none" xmlns="http://www.w3.org/2000/svg">
<g clip-path="url(#clip0_1532_6994)">
<path d="M30.9535 25.9109L25.4314 20.3887C24.2015 22.4666 22.4646 24.2035 20.3867 25.4333L25.9089 30.9555C26.5819 31.6296 27.4781 32.0001 28.4312 32.0001C29.3832 32.0001 30.2794 31.6296 30.9535 30.9555C32.3442 29.5638 32.3442 27.3004 30.9535 25.9109Z" fill="white"/>
<path d="M26.2857 13.1429C26.2857 5.89621 20.3895 0 13.1429 0C5.89621 0 0 5.89621 0 13.1429C0 20.3895 5.89621 26.2857 13.1429 26.2857C20.3895 26.2857 26.2857 20.3895 26.2857 13.1429ZM13.1429 24C7.15625 24 2.28571 19.1295 2.28571 13.1429C2.28571 7.15625 7.15625 2.28571 13.1429 2.28571C19.1295 2.28571 24 7.15625 24 13.1429C24 19.1295 19.1295 24 13.1429 24Z" fill="white"/>
<path d="M13.144 3.42871C7.77895 3.42871 3.42969 7.7779 3.42969 13.143C3.42969 18.508 7.77895 22.8573 13.144 22.8573C18.509 22.8573 22.8583 18.508 22.8583 13.143C22.8583 7.7779 18.509 3.42871 13.144 3.42871ZM8.00112 14.8572C6.67369 14.353 5.7154 13.014 5.7154 11.4287C5.7154 9.8434 6.67369 8.50439 8.00112 8.00007V14.8572ZM17.952 14.5225C16.7489 15.7261 16.0011 17.6062 16.0011 19.4287C16.0011 20.0599 15.49 20.5716 14.8583 20.5716C14.2266 20.5716 13.7154 20.0599 13.7154 19.4287C13.7154 18.0303 14.0458 16.6383 14.6283 15.3913L10.4487 15.9884C10.3951 15.9962 10.3404 16.0001 10.2868 16.0001C10.0134 16.0001 9.74665 15.9019 9.53795 15.7206C9.28795 15.5035 9.14397 15.1888 9.14397 14.8573V8.00014C9.14397 7.66867 9.28795 7.35393 9.53795 7.13686C9.78683 6.92034 10.1217 6.82157 10.4487 6.869L16.1864 7.68876C18.0357 7.95271 19.4297 9.56041 19.4297 11.4287C19.4297 13.0954 18.0262 14.4483 17.952 14.5225Z" fill="white"/>
</g>
<defs>
<clipPath id="clip0_1532_6994">
<rect width="32" height="32" fill="white"/>
</clipPath>
</defs>
</svg>
