<svg width="32" height="32" viewBox="0 0 32 32" fill="none" xmlns="http://www.w3.org/2000/svg">
<g clip-path="url(#clip0_1532_6992)">
<path d="M3.39002 19.9375L1.98751 18.6123L10.1283 10.0079C10.3003 9.82436 10.5374 9.71552 10.7887 9.70468C11.0401 9.69385 11.2856 9.78189 11.4728 9.94994L16.8202 14.7564L27.4414 3.65214L28.8362 4.98897L17.5697 16.7655C17.3966 16.9476 17.1594 17.0551 16.9084 17.0652C16.6574 17.0753 16.4123 16.9872 16.2252 16.8196L10.8817 12.017L3.39002 19.9375ZM8.7219 8.67879C9.24157 8.12942 9.95519 7.80463 10.7108 7.7736C11.4664 7.74257 12.2042 8.00774 12.7672 8.51265L16.7197 12.0672L23.1373 5.35602C21.3493 2.84424 18.7116 1.06544 15.7128 0.349012C12.714 -0.367418 9.55721 0.0270557 6.82692 1.45939C4.09663 2.89172 1.97783 5.26487 0.862875 8.13941C-0.252079 11.0139 -0.28766 14.1951 0.762723 17.0939L8.7219 8.67879ZM18.9684 18.1023C18.4481 18.6479 17.7355 18.9689 16.9821 18.997C16.2288 19.0251 15.4942 18.7582 14.9347 18.253L10.9937 14.7139L4.05844 22.0548C5.87822 23.7384 8.14933 24.8549 10.5938 25.2677C13.0383 25.6805 15.5501 25.3717 17.8218 24.3791C20.0935 23.3866 22.0266 21.7533 23.3845 19.6791C24.7423 17.605 25.466 15.18 25.4671 12.7009C25.4671 12.2566 25.4439 11.8122 25.4014 11.3756L18.9684 18.1023ZM28.1021 20.9344L25.9616 19.0528C24.5123 22.0611 22.0849 24.4885 19.0766 25.9378L20.962 28.0783L28.1021 20.9344ZM30.2078 22.7851L29.5549 22.2133L22.237 29.5349L22.8089 30.184C23.2831 30.7207 23.8617 31.1551 24.5094 31.4606C25.1571 31.7662 25.8602 31.9366 26.576 31.9613H26.7421C27.809 31.9643 28.8513 31.6418 29.7301 31.0369C30.6088 30.4319 31.2821 29.5732 31.66 28.5755C32.038 27.5779 32.1025 26.4886 31.8451 25.4533C31.5877 24.4179 31.0205 23.4858 30.2194 22.7812L30.2078 22.7851Z" fill="white"/>
</g>
<defs>
<clipPath id="clip0_1532_6992">
<rect width="32" height="32" fill="white"/>
</clipPath>
</defs>
</svg>
