<svg width="32" height="32" viewBox="0 0 32 32" fill="none" xmlns="http://www.w3.org/2000/svg">
<g clip-path="url(#clip0_1529_7241)">
<path d="M32 16C32 7.16333 24.8367 0 16 0C7.16333 0 0 7.16333 0 16C0 24.8367 7.16333 32 16 32H32V29.3333H24.8333C27.0358 27.8753 28.8429 25.8945 30.0935 23.5679C31.344 21.2414 31.999 18.6414 32 16ZM23.8372 26.7872C22.0502 28.0853 19.5482 27.6895 18.25 25.9017C16.9517 24.1147 17.3477 21.6133 19.1348 20.3145C20.9225 19.0162 23.4238 19.4122 24.722 21.1998C26.0208 22.987 25.6243 25.4882 23.8372 26.7872ZM23.6405 9.31183C25.7415 8.62883 27.998 9.7785 28.681 11.8795C29.3633 13.9812 28.2135 16.2377 26.1127 16.92C24.0117 17.6028 21.7552 16.4532 21.0723 14.3522C20.39 12.2513 21.5395 9.99417 23.6405 9.31183ZM16 2.66667C18.209 2.66667 20 4.45767 20 6.66667C20 8.87567 18.209 10.6667 16 10.6667C13.791 10.6667 12 8.87567 12 6.66667C12 4.45767 13.791 2.66667 16 2.66667ZM3.319 11.8795C4.002 9.77867 6.2585 8.62883 8.35933 9.31117C10.4603 9.99417 11.61 12.2507 10.9277 14.3515C10.2448 16.4525 7.98833 17.6022 5.88733 16.9198C3.78633 16.2375 2.63667 13.9812 3.319 11.8795ZM13.75 25.9017C12.4517 27.6895 9.95 28.0853 8.16283 26.7872C6.37567 25.4883 5.97917 22.987 7.278 21.1998C8.57617 19.4128 11.078 19.0163 12.8652 20.3152C14.6523 21.6133 15.0482 24.1143 13.75 25.9017ZM14.6667 16C14.6667 15.6464 14.8071 15.3072 15.0572 15.0572C15.3072 14.8071 15.6464 14.6667 16 14.6667C16.3536 14.6667 16.6928 14.8071 16.9428 15.0572C17.1929 15.3072 17.3333 15.6464 17.3333 16C17.3333 16.3536 17.1929 16.6928 16.9428 16.9428C16.6928 17.1929 16.3536 17.3333 16 17.3333C15.6464 17.3333 15.3072 17.1929 15.0572 16.9428C14.8071 16.6928 14.6667 16.3536 14.6667 16Z" fill="white"/>
</g>
<defs>
<clipPath id="clip0_1529_7241">
<rect width="32" height="32" fill="white"/>
</clipPath>
</defs>
</svg>
