<svg width="32" height="32" viewBox="0 0 32 32" fill="none" xmlns="http://www.w3.org/2000/svg">
<g clip-path="url(#clip0_1529_7213)">
<path fill-rule="evenodd" clip-rule="evenodd" d="M27.3494 25.9101C27.1868 25.9101 27.0242 25.9476 26.8742 26.0227C26.6991 26.0977 26.524 26.1727 26.3615 26.2353L26.1239 26.3353L25.8113 26.4603C22.3724 27.8484 18.771 28.6737 15.4322 28.7362C15.3072 28.7362 15.1821 28.7362 15.0696 28.7362C9.81752 28.7362 5.54085 26.2978 1.21416 23.9094C1.0641 23.8343 0.914038 23.7843 0.763979 23.7843C0.563901 23.7843 0.376328 23.8593 0.226269 23.9969C0.0762104 24.1344 -0.0113232 24.3345 0.00118166 24.5346C0.00118166 24.7972 0.138735 25.0348 0.338813 25.1974C4.3904 28.7237 8.84214 31.9875 14.8195 32C14.932 32 15.0571 32 15.1696 32C18.9711 31.9125 23.2728 30.6245 26.6116 28.5362L26.6366 28.5237C27.0743 28.2611 27.5119 27.9609 27.9246 27.6358C28.1747 27.4482 28.3623 27.1481 28.3623 26.8355C28.3122 26.2853 27.8496 25.9101 27.3494 25.9101Z" fill="white"/>
<path fill-rule="evenodd" clip-rule="evenodd" d="M31.9777 23.9718C31.9651 23.6342 31.8901 23.3841 31.7526 23.1715L31.7401 23.1465L31.7276 23.1215C31.59 22.9715 31.4524 22.9089 31.3024 22.8464C30.8647 22.6838 30.227 22.5838 29.4642 22.5838C28.914 22.5838 28.3012 22.6338 27.6885 22.7714V22.7339L27.0757 22.9339H27.0632L26.7131 23.0465V23.059C26.3004 23.2341 25.9378 23.4341 25.5877 23.6842C25.3751 23.8468 25.2 24.0594 25.1875 24.3845C25.1875 24.5596 25.275 24.7597 25.4251 24.8847C25.5752 25.0097 25.7502 25.0473 25.9003 25.0473C25.9378 25.0473 25.9753 25.0473 26.0003 25.0348H26.0253H26.0503C26.3505 24.9722 26.7881 24.9347 27.3008 24.8597C27.7385 24.8097 28.2137 24.7722 28.6138 24.7722C28.9015 24.7722 29.1641 24.7847 29.3391 24.8347C29.4267 24.8472 29.4892 24.8722 29.5267 24.8972C29.5392 24.8972 29.5517 24.9097 29.5517 24.9097C29.5642 24.9347 29.5642 24.9972 29.5642 25.0848C29.5642 25.4224 29.4267 26.0477 29.2266 26.6604C29.039 27.2731 28.8014 27.8859 28.6514 28.2985C28.6138 28.3986 28.5888 28.4986 28.5888 28.6112C28.5888 28.7737 28.6514 28.9738 28.7889 29.1114C28.9265 29.2489 29.114 29.2989 29.2641 29.2989H29.2766C29.5017 29.2989 29.7018 29.2114 29.8643 29.0738C31.4274 27.6733 31.9651 25.4224 31.9902 24.1594L31.9777 23.9718Z" fill="white"/>
<path fill-rule="evenodd" clip-rule="evenodd" d="M17.6844 8.90348C16.7715 8.97851 15.7086 9.04103 14.6457 9.17859C13.0201 9.39117 11.3944 9.67878 10.0564 10.3165C7.44288 11.3794 5.67969 13.6303 5.67969 16.9566C5.67969 21.1208 8.36824 23.2466 11.7571 23.2466C12.8825 23.2466 13.8079 23.109 14.6457 22.8964C15.9962 22.4713 17.1217 21.696 18.4597 20.2829C19.235 21.3458 19.4476 21.8335 20.7856 22.9715C21.1357 23.109 21.4984 23.109 21.7735 22.8964C22.6238 22.1837 24.1119 20.9207 24.8872 20.2079C25.2373 19.9203 25.1748 19.4951 24.9622 19.145C24.1869 18.1571 23.4116 17.3068 23.4116 15.3935V9.04103C23.4116 6.35248 23.6242 3.88902 21.6484 2.0508C20.0228 0.562719 17.4843 0 15.496 0H14.6457C11.0443 0.212583 7.23029 1.76319 6.37996 6.21493C6.24241 6.77765 6.66757 6.99023 6.94268 7.06526L10.8942 7.56546C11.3194 7.49043 11.532 7.14029 11.5945 6.79016C11.9446 5.23955 13.2201 4.45174 14.6332 4.31419H14.9208C15.7711 4.31419 16.684 4.66432 17.1842 5.3771C17.7469 6.22743 17.6844 7.35287 17.6844 8.34076V8.90348ZM16.9091 17.3068C16.4089 18.2946 15.5711 18.9324 14.6457 19.145C14.5081 19.145 14.2956 19.22 14.083 19.22C12.5324 19.22 11.607 18.0195 11.607 16.2564C11.607 13.993 12.945 12.9301 14.6457 12.4424C15.5585 12.2298 16.6215 12.1548 17.6844 12.1548V13.0051C17.6844 14.6307 17.7594 15.8937 16.9091 17.3068Z" fill="white"/>
</g>
<defs>
<clipPath id="clip0_1529_7213">
<rect width="32" height="32" fill="white"/>
</clipPath>
</defs>
</svg>
