<svg width="32" height="32" viewBox="0 0 32 32" fill="none" xmlns="http://www.w3.org/2000/svg">
<g clip-path="url(#clip0_1529_7207)">
<path d="M3.84766 21.7937L21.2458 4.39563L27.6014 10.7512L10.2033 28.1493L3.84766 21.7937Z" fill="white"/>
<path d="M30.1211 4.51702L27.4827 1.87853C26.4898 0.885706 24.757 0.885706 23.7656 1.87853L22.3242 3.31992L28.6798 9.67553L30.1212 8.23413C30.6169 7.73842 30.8912 7.07843 30.8912 6.37704C30.8912 5.67565 30.6184 5.0142 30.1212 4.51852L30.1211 4.51702Z" fill="white"/>
<path d="M3.0087 23.0978L1.14444 29.9292C1.07159 30.1935 1.1473 30.4749 1.34158 30.6677C1.48586 30.812 1.68014 30.8906 1.88016 30.8906C1.9473 30.8906 2.01444 30.882 2.08015 30.8634L8.91155 28.9992L3.00722 23.0948L3.0087 23.0978Z" fill="white"/>
<path d="M12.8325 10.6554C12.8125 10.6382 12.7854 10.6311 12.7668 10.6125C12.4682 10.314 12.4682 9.83255 12.7668 9.53542L13.3854 8.91686L13.9782 9.50971L15.0553 8.43259L6.84704 0.222854C6.70419 0.080002 6.51133 0 6.30846 0C6.10559 0 5.91277 0.0799983 5.76989 0.222854L0.222854 5.76989C0.080002 5.91274 0 6.10559 0 6.30846C0 6.51133 0.0799983 6.70416 0.222854 6.84704L8.43259 15.0553L12.8339 10.654L12.8325 10.6554ZM10.6126 7.37976L11.2311 6.7612L12.3082 7.83832L11.6897 8.45687C11.5411 8.60544 11.3454 8.67973 11.1511 8.67973C10.9554 8.67973 10.7611 8.60544 10.6125 8.45687C10.314 8.15831 10.314 7.67689 10.6126 7.37976ZM8.45834 5.22553L9.07689 4.60697L10.154 5.68409L9.53545 6.30264C9.38688 6.45121 9.19117 6.5255 8.99688 6.5255C8.80116 6.5255 8.60689 6.45122 8.4583 6.30264C8.15973 6.00551 8.15977 5.52267 8.45834 5.22553ZM7.37979 4.14699C7.23123 4.29556 7.03552 4.36984 6.84122 4.36984C6.64551 4.36984 6.45123 4.29556 6.30264 4.14699C6.00408 3.84842 6.00408 3.36701 6.30264 3.06987L6.9212 2.45132L7.99831 3.52843L7.37979 4.14699Z" fill="white"/>
<path d="M31.7753 25.1519L23.5655 16.9421L22.4884 18.0193L23.0812 18.6121L22.4627 19.2307C22.3141 19.3792 22.1184 19.4535 21.9241 19.4535C21.7284 19.4535 21.5341 19.3792 21.3855 19.2307C21.367 19.2121 21.3584 19.1864 21.3427 19.1649L16.9414 23.5662L25.1511 31.776C25.2997 31.9245 25.4954 31.9988 25.6897 31.9988C25.8854 31.9988 26.0797 31.9245 26.2283 31.776L31.7753 26.2289C32.0739 25.9304 32.0738 25.449 31.7753 25.1519ZM24.6184 21.3862C24.4698 21.5348 24.2741 21.6091 24.0798 21.6091C23.8841 21.6091 23.6898 21.5348 23.5412 21.3862C23.2427 21.0876 23.2427 20.6062 23.5412 20.3091L24.1598 19.6905L25.2369 20.7676L24.6184 21.3862ZM26.7726 23.5404C26.624 23.689 26.4283 23.7633 26.234 23.7633C26.0383 23.7633 25.844 23.689 25.6955 23.5404C25.3969 23.2419 25.3969 22.7605 25.6955 22.4633L26.314 21.8448L27.3911 22.9219L26.7726 23.5404ZM28.9283 25.6961C28.7797 25.8447 28.584 25.9189 28.3897 25.9189C28.194 25.9189 27.9997 25.8447 27.8511 25.6961C27.5525 25.3975 27.5525 24.9161 27.8511 24.619L28.4697 24.0004L29.5468 25.0775L28.9283 25.6961Z" fill="white"/>
</g>
<defs>
<clipPath id="clip0_1529_7207">
<rect width="32" height="32" fill="white"/>
</clipPath>
</defs>
</svg>
