<svg width="32" height="32" viewBox="0 0 32 32" fill="none" xmlns="http://www.w3.org/2000/svg">
<g clip-path="url(#clip0_1529_7211)">
<path fill-rule="evenodd" clip-rule="evenodd" d="M32 9.67442H0V27.907C0 28.992 0.431628 30.0339 1.19814 30.8019C1.96647 31.5687 3.00751 31.9995 4.09302 32H27.907C28.992 32 30.0339 31.5684 30.8019 30.8019C31.5687 30.0335 31.9995 28.9925 32 27.907V9.67442ZM5.5814 27.5349H26.4186C26.7147 27.5349 26.9986 27.4173 27.2079 27.2079C27.4173 26.9986 27.5349 26.7147 27.5349 26.4186C27.5349 26.1225 27.4173 25.8386 27.2079 25.6293C26.9986 25.4199 26.7147 25.3023 26.4186 25.3023H5.5814C5.28534 25.3023 5.00141 25.4199 4.79207 25.6293C4.58272 25.8386 4.46512 26.1225 4.46512 26.4186C4.46512 26.7147 4.58272 26.9986 4.79207 27.2079C5.00141 27.4173 5.28534 27.5349 5.5814 27.5349ZM12.6512 15.2558C12.6504 14.7626 12.4541 14.2899 12.1054 13.9411C11.7566 13.5924 11.2839 13.3961 10.7907 13.3953H6.32558C5.8324 13.3961 5.35964 13.5924 5.0109 13.9411C4.66217 14.2899 4.4659 14.7626 4.46512 15.2558V19.7209C4.4659 20.2141 4.66217 20.6869 5.0109 21.0356C5.35964 21.3843 5.8324 21.5806 6.32558 21.5814H10.7907C11.2839 21.5806 11.7566 21.3843 12.1054 21.0356C12.4541 20.6869 12.6504 20.2141 12.6512 19.7209V15.2558ZM16 21.5814H26.4186C26.7147 21.5814 26.9986 21.4638 27.2079 21.2544C27.4173 21.0451 27.5349 20.7612 27.5349 20.4651C27.5349 20.1691 27.4173 19.8851 27.2079 19.6758C26.9986 19.4664 26.7147 19.3488 26.4186 19.3488H16C15.7039 19.3488 15.42 19.4664 15.2107 19.6758C15.0013 19.8851 14.8837 20.1691 14.8837 20.4651C14.8837 20.7612 15.0013 21.0451 15.2107 21.2544C15.42 21.4638 15.7039 21.5814 16 21.5814ZM16 15.6279H17.4884C17.7844 15.6279 18.0684 15.5103 18.2777 15.301C18.487 15.0916 18.6047 14.8077 18.6047 14.5116C18.6047 14.2156 18.487 13.9316 18.2777 13.7223C18.0684 13.513 17.7844 13.3953 17.4884 13.3953H16C15.7039 13.3953 15.42 13.513 15.2107 13.7223C15.0013 13.9316 14.8837 14.2156 14.8837 14.5116C14.8837 14.8077 15.0013 15.0916 15.2107 15.301C15.42 15.5103 15.7039 15.6279 16 15.6279ZM21.9535 15.6279H26.4186C26.7147 15.6279 26.9986 15.5103 27.2079 15.301C27.4173 15.0916 27.5349 14.8077 27.5349 14.5116C27.5349 14.2156 27.4173 13.9316 27.2079 13.7223C26.9986 13.513 26.7147 13.3953 26.4186 13.3953H21.9535C21.6574 13.3953 21.3735 13.513 21.1642 13.7223C20.9548 13.9316 20.8372 14.2156 20.8372 14.5116C20.8372 14.8077 20.9548 15.0916 21.1642 15.301C21.3735 15.5103 21.6574 15.6279 21.9535 15.6279ZM0 7.44186H32V4.09302C32 3.008 31.5684 1.96614 30.8019 1.19814C30.0335 0.431324 28.9925 0.000455762 27.907 0H4.09302C3.008 0 1.96614 0.431628 1.19814 1.19814C0.431324 1.96647 0.000455762 3.00751 0 4.09302V7.44186ZM4.83721 5.2093H6.32558C6.62164 5.2093 6.90557 5.09169 7.11491 4.88235C7.32425 4.67301 7.44186 4.38908 7.44186 4.09302C7.44186 3.79697 7.32425 3.51304 7.11491 3.30369C6.90557 3.09435 6.62164 2.97674 6.32558 2.97674H4.83721C4.54115 2.97674 4.25722 3.09435 4.04788 3.30369C3.83854 3.51304 3.72093 3.79697 3.72093 4.09302C3.72093 4.38908 3.83854 4.67301 4.04788 4.88235C4.25722 5.09169 4.54115 5.2093 4.83721 5.2093ZM10.0465 5.2093H11.5349C11.8309 5.2093 12.1149 5.09169 12.3242 4.88235C12.5336 4.67301 12.6512 4.38908 12.6512 4.09302C12.6512 3.79697 12.5336 3.51304 12.3242 3.30369C12.1149 3.09435 11.8309 2.97674 11.5349 2.97674H10.0465C9.75046 2.97674 9.46653 3.09435 9.25718 3.30369C9.04784 3.51304 8.93023 3.79697 8.93023 4.09302C8.93023 4.38908 9.04784 4.67301 9.25718 4.88235C9.46653 5.09169 9.75046 5.2093 10.0465 5.2093ZM15.2558 5.2093H16.7442C17.0402 5.2093 17.3242 5.09169 17.5335 4.88235C17.7429 4.67301 17.8605 4.38908 17.8605 4.09302C17.8605 3.79697 17.7429 3.51304 17.5335 3.30369C17.3242 3.09435 17.0402 2.97674 16.7442 2.97674H15.2558C14.9598 2.97674 14.6758 3.09435 14.4665 3.30369C14.2571 3.51304 14.1395 3.79697 14.1395 4.09302C14.1395 4.38908 14.2571 4.67301 14.4665 4.88235C14.6758 5.09169 14.9598 5.2093 15.2558 5.2093Z" fill="white"/>
</g>
<defs>
<clipPath id="clip0_1529_7211">
<rect width="32" height="32" fill="white"/>
</clipPath>
</defs>
</svg>
