<svg width="32" height="32" viewBox="0 0 32 32" fill="none" xmlns="http://www.w3.org/2000/svg">
<g clip-path="url(#clip0_1529_7205)">
<path fill-rule="evenodd" clip-rule="evenodd" d="M0.000212052 6.83979V3.41989C0.000212052 2.51219 0.361638 1.64297 1.00449 1.00175C1.64734 0.360521 2.51876 0 3.42876 0H28.5715C29.4815 0 30.3529 0.360513 30.9957 1.00175C31.6386 1.64297 32 2.51219 32 3.41989V6.83979H0.000212052ZM10.2859 2.27993C9.65442 2.27993 9.14301 2.79005 9.14301 3.41989C9.14301 4.04974 9.65442 4.55986 10.2859 4.55986C10.9173 4.55986 11.4287 4.04974 11.4287 3.41989C11.4287 2.79005 10.9173 2.27993 10.2859 2.27993ZM5.71446 2.27993C5.08302 2.27993 4.57161 2.79005 4.57161 3.41989C4.57161 4.04974 5.08302 4.55986 5.71446 4.55986C6.3459 4.55986 6.85731 4.04974 6.85731 3.41989C6.85731 2.79005 6.3459 2.27993 5.71446 2.27993ZM32 9.11971V26.2192C32 27.1269 31.6386 27.9961 30.9957 28.6373C30.3529 29.2785 29.4815 29.6391 28.5715 29.6391H28.3715L27.0072 24.1942C26.7557 23.1925 26.2357 22.2777 25.5029 21.5467L15.4458 11.515C13.2144 9.28777 9.59588 9.28777 7.3643 11.5136L5.74716 13.1266C3.51716 15.3524 3.51716 18.9603 5.74716 21.1877L14.2214 29.6391H3.42855C2.51855 29.6391 1.64713 29.2786 1.00428 28.6374C0.361433 27.9962 0 27.1269 0 26.2192V9.11978L32 9.11971ZM8.17314 20.3811L7.36459 19.576C6.02601 18.2394 6.02601 16.0749 7.36459 14.7382L8.9803 13.1266C10.3189 11.7899 12.4903 11.7899 13.8304 13.1266L14.6375 13.9331L8.17314 20.3811ZM16.2546 15.5447L22.719 21.9927L16.2546 28.4422L9.78886 21.9927L16.2546 15.5447ZM24.293 23.6471C24.5216 23.9805 24.6901 24.3524 24.7887 24.7471L26.2516 30.5837C26.3487 30.9713 26.2344 31.3831 25.9516 31.6652C25.6673 31.9502 25.2544 32.0628 24.8658 31.9659L19.0144 30.5068C18.6202 30.4084 18.2459 30.2403 17.9116 30.0123L24.293 23.6471Z" fill="white"/>
</g>
<defs>
<clipPath id="clip0_1529_7205">
<rect width="32" height="32" fill="white"/>
</clipPath>
</defs>
</svg>
