<svg width="84" height="84" viewBox="0 0 84 84" fill="none" xmlns="http://www.w3.org/2000/svg">
<rect opacity="0.2" width="84" height="84" fill="url(#paint0_linear_447_4250)"/>
<path d="M22.7245 47.3643C22.402 47.0523 22.402 46.5443 22.7245 46.2323L38.4363 31.0322C38.7588 30.7202 39.2839 30.7202 39.6064 31.0322L44.8077 36.0681L57.6955 23.6H51.4231C50.9683 23.6 50.5962 23.24 50.5962 22.8C50.5962 22.36 50.9683 22 51.4231 22H59.6923C59.7461 22 59.7998 22.004 59.8536 22.016C59.8784 22.02 59.9032 22.028 59.9238 22.036C59.9528 22.044 59.9776 22.052 60.0065 22.06C60.0355 22.072 60.0603 22.088 60.0892 22.1C60.1099 22.112 60.1306 22.12 60.1512 22.132C60.2422 22.192 60.3208 22.268 60.3787 22.352C60.3911 22.372 60.3993 22.392 60.4117 22.412C60.4283 22.436 60.4407 22.464 60.4531 22.492C60.4655 22.52 60.4696 22.544 60.4779 22.572C60.4862 22.596 60.4944 22.616 60.4986 22.64C60.511 22.692 60.5151 22.744 60.5151 22.796V30.7959C60.5151 31.2359 60.143 31.5959 59.6882 31.5959C59.2334 31.5959 58.8613 31.2359 58.8613 30.7959V24.7319L45.3907 37.7637C45.0682 38.0757 44.5431 38.0757 44.2207 37.7637L39.0193 32.7318L23.8907 47.3636C23.7295 47.5196 23.5186 47.5996 23.3077 47.5996C23.0969 47.5996 22.886 47.5196 22.7247 47.3636L22.7245 47.3643ZM63 61.2C63 61.64 62.6279 62 62.1731 62H20.8269C20.3721 62 20 61.64 20 61.2C20 60.76 20.3721 60.4 20.8269 60.4H22.4808V51.5998C22.4808 51.1598 22.8529 50.7998 23.3077 50.7998H31.5769C32.0317 50.7998 32.4038 51.1598 32.4038 51.5998V60.4H36.5385V43.6004C36.5385 43.1604 36.9106 42.8004 37.3654 42.8004H45.6346C46.0894 42.8004 46.4615 43.1604 46.4615 43.6004V60.4H50.5962V38.0002C50.5962 37.5602 50.9683 37.2002 51.4231 37.2002H59.6923C60.1471 37.2002 60.5192 37.5602 60.5192 38.0002V60.4H62.1731C62.6279 60.4 63 60.76 63 61.2ZM30.7497 60.4V52.4001H24.1344V60.4H30.7497ZM44.8072 60.4V44.4001H38.1918V60.4H44.8072ZM58.8646 60.4V38.7999H52.2492V60.4H58.8646Z" fill="url(#paint1_linear_447_4250)"/>
<defs>
<linearGradient id="paint0_linear_447_4250" x1="0" y1="42" x2="84" y2="42" gradientUnits="userSpaceOnUse">
<stop stop-color="#52C98D"/>
<stop offset="1" stop-color="#00B59C"/>
</linearGradient>
<linearGradient id="paint1_linear_447_4250" x1="63" y1="42" x2="20" y2="42" gradientUnits="userSpaceOnUse">
<stop stop-color="#00B59C"/>
<stop offset="1" stop-color="#79D087"/>
</linearGradient>
</defs>
</svg>
