<svg width="32" height="32" viewBox="0 0 32 32" fill="none" xmlns="http://www.w3.org/2000/svg">
<g clip-path="url(#clip0_1530_6772)">
<path d="M12.0016 32C13.327 32 14.4016 30.9255 14.4016 29.6C14.4016 28.2745 13.327 27.2 12.0016 27.2C10.6761 27.2 9.60156 28.2745 9.60156 29.6C9.60156 30.9255 10.6761 32 12.0016 32Z" fill="white"/>
<path d="M23.2008 32C24.5263 32 25.6008 30.9255 25.6008 29.6C25.6008 28.2745 24.5263 27.2 23.2008 27.2C21.8753 27.2 20.8008 28.2745 20.8008 29.6C20.8008 30.9255 21.8753 32 23.2008 32Z" fill="white"/>
<path d="M28.352 4.8H7.088L6.624 2.56C6.47702 1.83989 6.08663 1.19232 5.51846 0.726128C4.95028 0.259933 4.23895 0.0035265 3.504 0H1.6C1.17565 0 0.768687 0.168571 0.468629 0.468629C0.168571 0.768687 0 1.17565 0 1.6C0 2.02435 0.168571 2.43131 0.468629 2.73137C0.768687 3.03143 1.17565 3.2 1.6 3.2H3.504L7.776 23.84C7.9256 24.5737 8.32776 25.2317 8.91246 25.6994C9.49715 26.1672 10.2274 26.4151 10.976 26.4H27.2C27.6243 26.4 28.0313 26.2314 28.3314 25.9314C28.6314 25.6313 28.8 25.2243 28.8 24.8C28.8 24.3757 28.6314 23.9687 28.3314 23.6686C28.0313 23.3686 27.6243 23.2 27.2 23.2H10.896L10.4 20.8H25.952C26.6667 20.7994 27.3606 20.5597 27.9231 20.1189C28.4857 19.6782 28.8845 19.0618 29.056 18.368L31.456 8.768C31.5725 8.2968 31.5803 7.80528 31.4787 7.33064C31.3772 6.85599 31.169 6.41067 30.87 6.02836C30.5709 5.64606 30.1888 5.33679 29.7526 5.12398C29.3163 4.91116 28.8374 4.80038 28.352 4.8Z" fill="white"/>
</g>
<defs>
<clipPath id="clip0_1530_6772">
<rect width="32" height="32" fill="white"/>
</clipPath>
</defs>
</svg>
