<svg width="32" height="32" viewBox="0 0 32 32" fill="none" xmlns="http://www.w3.org/2000/svg">
<g clip-path="url(#clip0_1530_6794)">
<path d="M26.4853 1.7654C26.4839 1.29672 26.2967 0.847712 25.9648 0.516801C25.6329 0.18589 25.1833 7.03887e-05 24.7146 7.25148e-05H1.78133C1.54816 -0.00204089 1.31688 0.0420606 1.10085 0.12983C0.884823 0.2176 0.688322 0.347298 0.522697 0.511435C0.357073 0.675571 0.225607 0.870895 0.135892 1.08612C0.0461767 1.30135 -9.57607e-06 1.53222 1.48925e-09 1.7654V5.29606H26.4853V1.7654ZM12.8 3.7334H1.76533V1.60007H12.8V3.7334ZM19.4186 3.7334H17.6533V1.60007H19.4186V3.7334ZM22.0853 3.7334H20.304V1.60007H22.0693L22.0853 3.7334ZM24.752 3.7334H22.9333V1.60007H24.6986L24.752 3.7334Z" fill="white"/>
<path d="M26.4853 9.93072V6.36273H0V22.0694C0 22.5376 0.18599 22.9866 0.517053 23.3176C0.848117 23.6487 1.29714 23.8347 1.76533 23.8347H18.336V12.4001C18.336 11.7461 18.5954 11.1188 19.0573 10.6559C19.5193 10.1929 20.146 9.93214 20.8 9.93072H26.4853Z" fill="white"/>
<path d="M30.6023 10.9974H20.7997C20.6157 10.9974 20.4336 11.0337 20.2637 11.1042C20.0938 11.1748 19.9396 11.2782 19.8097 11.4085C19.6799 11.5388 19.5771 11.6935 19.5072 11.8637C19.4373 12.0338 19.4017 12.2161 19.4024 12.4V30.6027C19.4024 30.9733 19.5496 31.3287 19.8116 31.5907C20.0737 31.8528 20.4291 32 20.7997 32H30.6023C30.9729 32 31.3283 31.8528 31.5904 31.5907C31.8524 31.3287 31.9997 30.9733 31.9997 30.6027V12.4C32.0004 12.2161 31.9647 12.0338 31.8948 11.8637C31.8249 11.6935 31.7221 11.5388 31.5923 11.4085C31.4625 11.2782 31.3082 11.1748 31.1383 11.1042C30.9684 11.0337 30.7863 10.9974 30.6023 10.9974ZM26.6663 30.4H24.533V28.2667H26.6663V30.4ZM28.501 13.3334H22.901V12.2667H28.501V13.3334Z" fill="white"/>
</g>
<defs>
<clipPath id="clip0_1530_6794">
<rect width="32" height="32" fill="white"/>
</clipPath>
</defs>
</svg>
