<svg width="32" height="32" viewBox="0 0 32 32" fill="none" xmlns="http://www.w3.org/2000/svg">
<g clip-path="url(#clip0_1530_6774)">
<mask id="mask0_1530_6774" style="mask-type:luminance" maskUnits="userSpaceOnUse" x="0" y="0" width="32" height="32">
<path d="M32 0H0V32H32V0Z" fill="white"/>
</mask>
<g mask="url(#mask0_1530_6774)">
<path d="M32 15.5851C32 13.4653 29.3453 11.4563 25.2752 10.2104C26.2144 6.06204 25.7969 2.76158 23.9576 1.70492C23.5336 1.45706 23.0379 1.33965 22.4965 1.33965V2.7942C22.7965 2.7942 23.0379 2.8529 23.2401 2.96378C24.1272 3.47256 24.512 5.40977 24.212 7.90141C24.1403 8.51454 24.0228 9.16028 23.8793 9.81906C22.6009 9.50598 21.2051 9.26464 19.7375 9.1081C18.8569 7.90141 17.9437 6.80561 17.024 5.84678C19.1504 3.87044 21.1464 2.78768 22.5031 2.78768V1.33313C20.7093 1.33313 18.3612 2.61157 15.9869 4.82926C13.6127 2.62461 11.2646 1.35922 9.47085 1.35922V2.81377C10.821 2.81377 12.8235 3.89 14.9499 5.8533C14.0367 6.81213 13.1235 7.90141 12.256 9.1081C10.7819 9.26464 9.38605 9.50598 8.10763 9.82558C7.9576 9.17333 7.84672 8.54064 7.76844 7.93402C7.46188 5.44238 7.8402 3.50517 8.72075 2.98988C8.91643 2.87246 9.17081 2.82029 9.47085 2.82029V1.36574C8.92295 1.36574 8.42723 1.48316 7.99673 1.73101C6.16388 2.78768 5.75296 6.0816 6.69873 10.2169C2.64167 11.4693 0 13.4718 0 15.5851C0 17.7049 2.65471 19.7139 6.72483 20.9597C5.78557 25.1081 6.20301 28.4086 8.0424 29.4653C8.46637 29.7131 8.96209 29.8305 9.50999 29.8305C11.3037 29.8305 13.6519 28.5521 16.0261 26.3343C18.4003 28.539 20.7485 29.8043 22.5421 29.8043C23.0901 29.8043 23.5859 29.687 24.0163 29.4391C25.8492 28.3825 26.2601 25.0886 25.3143 20.9531C29.3584 19.7074 32 17.6985 32 15.5851ZM23.5076 11.2345C23.2663 12.0759 22.9661 12.9434 22.6269 13.8109C22.3596 13.2891 22.0791 12.7673 21.7725 12.2455C21.4725 11.7237 21.1529 11.2149 20.8333 10.7192C21.7595 10.8562 22.6531 11.0258 23.5076 11.2345ZM20.5201 18.1811C20.0115 19.0617 19.4896 19.8965 18.9483 20.6727C17.9764 20.7575 16.9915 20.8031 16 20.8031C15.0151 20.8031 14.0301 20.7575 13.0648 20.6793C12.5234 19.903 11.9951 19.0747 11.4863 18.2006C10.9906 17.3462 10.5406 16.4787 10.1296 15.6046C10.534 14.7306 10.9906 13.8566 11.4798 13.0021C11.9886 12.1216 12.5104 11.2867 13.0518 10.5105C14.0236 10.4257 15.0085 10.38 16 10.38C16.9849 10.38 17.9699 10.4257 18.9352 10.5039C19.4765 11.2801 20.0049 12.1085 20.5136 12.9825C21.0093 13.837 21.4595 14.7045 21.8704 15.5786C21.4595 16.4526 21.0093 17.3266 20.5201 18.1811ZM22.6269 17.3331C22.9792 18.2071 23.2792 19.0811 23.5271 19.9291C22.6727 20.1378 21.7725 20.3139 20.8397 20.451C21.1593 19.9487 21.4791 19.4334 21.7791 18.9051C22.0791 18.3833 22.3596 17.855 22.6269 17.3331ZM16.0131 24.2927C15.4064 23.6666 14.7999 22.9687 14.1997 22.2055C14.7868 22.2317 15.3869 22.2511 15.9935 22.2511C16.6067 22.2511 17.2132 22.2382 17.8068 22.2055C17.2197 22.9687 16.6131 23.6666 16.0131 24.2927ZM11.1602 20.451C10.234 20.3139 9.3404 20.1443 8.48593 19.9357C8.72727 19.0942 9.02731 18.2267 9.36649 17.3593C9.63392 17.881 9.91439 18.4029 10.221 18.9246C10.5275 19.4465 10.8406 19.9553 11.1602 20.451ZM15.9804 6.87736C16.5871 7.50353 17.1936 8.20145 17.7937 8.9646C17.2067 8.93852 16.6067 8.91894 16 8.91894C15.3869 8.91894 14.7803 8.93198 14.1867 8.9646C14.7737 8.20145 15.3804 7.50353 15.9804 6.87736ZM11.1537 10.7192C10.8341 11.2214 10.5145 11.7367 10.2144 12.2651C9.91439 12.7869 9.63392 13.3087 9.36649 13.8305C9.01427 12.9565 8.71423 12.0824 8.46637 11.2345C9.32083 11.0323 10.221 10.8562 11.1537 10.7192ZM5.25072 18.8855C2.94171 17.9006 1.44803 16.6091 1.44803 15.5851C1.44803 14.561 2.94171 13.263 5.25072 12.2846C5.81167 12.0433 6.42479 11.828 7.05748 11.6258C7.42927 12.9043 7.91847 14.2349 8.52507 15.5981C7.92499 16.9549 7.44232 18.2789 7.07705 19.5509C6.43131 19.3486 5.81819 19.1269 5.25072 18.8855ZM8.75988 28.2063C7.87281 27.6975 7.48797 25.7603 7.78801 23.2687C7.85976 22.6555 7.97717 22.0098 8.12067 21.3511C9.39911 21.6642 10.7949 21.9055 12.2625 22.0621C13.1431 23.2687 14.0563 24.3645 14.976 25.3234C12.8496 27.2997 10.8537 28.3825 9.49695 28.3825C9.20343 28.3759 8.95556 28.3173 8.75988 28.2063ZM24.2316 23.2361C24.5381 25.7278 24.1599 27.665 23.2792 28.1802C23.0836 28.2977 22.8292 28.3498 22.5292 28.3498C21.1789 28.3498 19.1765 27.2737 17.0501 25.3103C17.9633 24.3515 18.8765 23.2622 19.744 22.0555C21.2181 21.899 22.614 21.6577 23.8924 21.3381C24.0424 21.9969 24.1599 22.6295 24.2316 23.2361ZM26.7428 18.8855C26.1819 19.1269 25.5687 19.3421 24.936 19.5443C24.5643 18.2659 24.0751 16.9353 23.4684 15.5721C24.0685 14.2153 24.5512 12.8912 24.9164 11.6193C25.5621 11.8215 26.1753 12.0433 26.7493 12.2846C29.0583 13.2695 30.552 14.561 30.552 15.5851C30.5455 16.6091 29.0517 17.9071 26.7428 18.8855Z" fill="white"/>
<path d="M15.9886 18.5656C17.6349 18.5656 18.9694 17.2311 18.9694 15.5848C18.9694 13.9384 17.6349 12.6039 15.9886 12.6039C14.3424 12.6039 13.0078 13.9384 13.0078 15.5848C13.0078 17.2311 14.3424 18.5656 15.9886 18.5656Z" fill="white"/>
</g>
</g>
<defs>
<clipPath id="clip0_1530_6774">
<rect width="32" height="32" fill="white"/>
</clipPath>
</defs>
</svg>
