<svg width="32" height="32" viewBox="0 0 32 32" fill="none" xmlns="http://www.w3.org/2000/svg">
<path d="M21.2216 3.77927C21.1951 3.77927 21.142 3.80701 21.1186 3.80701C21.0953 3.80701 20.7353 3.90731 20.1715 4.08656C19.6099 2.44233 18.6108 0.926144 16.8441 0.926144H16.6912C16.3132 0.392651 15.7133 0.0384115 15.0306 0H15.0253C10.9047 0 8.93523 5.16955 8.31837 7.79434C6.73426 8.28088 5.58122 8.64259 5.45275 8.69274C4.55665 8.97656 4.53223 9.00217 4.42818 9.85256C4.32838 10.4682 2 28.6038 2 28.6038L19.9921 32L21.2216 3.77927ZM17.2518 2.06035C18.1723 2.15851 18.7658 3.2159 19.148 4.40025C18.6851 4.55176 18.1723 4.70861 17.6117 4.88787V4.55176C17.6128 4.49948 17.6138 4.4376 17.6138 4.37571C17.6138 3.54666 17.4811 2.74962 17.2369 2.00273L17.2518 2.05608V2.06035ZM16.5362 5.03938V5.2197C15.536 5.52913 14.4361 5.86523 13.3595 6.20133C13.6398 4.48668 14.6728 3.06012 16.0987 2.25454L16.1263 2.24067C16.3897 2.9929 16.5415 3.86036 16.5415 4.7641C16.5415 4.86119 16.5394 4.95829 16.5362 5.05538V5.04151V5.03938ZM14.8979 1.10753C15.0997 1.10753 15.2876 1.17475 15.4373 1.28892L15.4352 1.28679C13.5782 2.40499 12.3062 4.33943 12.1098 6.58331L12.1077 6.60892C11.2371 6.89273 10.3919 7.14881 9.60094 7.37928C10.2889 4.99883 11.9537 1.11927 14.8969 1.11927L14.8979 1.10753ZM15.6146 15.0744C14.9266 14.733 14.1197 14.526 13.2671 14.5089H13.2618C11.3422 14.5089 11.2668 15.7167 11.2668 16.0304C11.2668 17.6736 15.5658 18.317 15.5658 22.2029C15.5806 22.3395 15.588 22.4985 15.588 22.6585C15.588 25.1756 13.558 27.2156 11.0534 27.2156C11.0513 27.2156 11.0481 27.2156 11.046 27.2156C10.9929 27.2178 10.9313 27.2178 10.8697 27.2178C9.09025 27.2178 7.48597 26.4677 6.35204 25.2652L6.34885 25.262L7.20567 22.4803C8.02745 23.2059 9.0584 23.7116 10.1966 23.8973L10.2316 23.9016C10.2444 23.9016 10.2582 23.9026 10.273 23.9026C10.9589 23.9026 11.5163 23.3478 11.5259 22.6596C11.5259 20.5011 8.0041 20.3997 8.0041 16.8467C8.0041 16.8253 8.0041 16.7997 8.0041 16.7741C8.0041 13.5454 10.6085 10.9291 13.8203 10.9291C14.0273 10.9291 14.2322 10.9398 14.4339 10.9612L14.4085 10.959C14.4902 10.9548 14.5858 10.9516 14.6824 10.9516C15.4851 10.9516 16.2474 11.1319 16.929 11.4541L16.8972 11.4402L15.6433 15.0605L15.6146 15.0744ZM20.4264 31.9733L30 29.8916C30 29.8916 26.5451 6.40726 26.5175 6.25148C26.4984 6.10957 26.3816 6.00073 26.2383 5.9954C26.1098 5.9954 23.6784 5.81401 23.6784 5.81401C23.6784 5.81401 21.9871 4.11537 21.7695 3.93291C21.7238 3.8913 21.6707 3.85822 21.6123 3.83582L21.6091 3.83475L20.3966 31.9733H20.4264Z" fill="white"/>
</svg>
