<svg width="32" height="32" viewBox="0 0 32 32" fill="none" xmlns="http://www.w3.org/2000/svg">
<path d="M30.2111 11.2033C27.8057 8.84525 23.909 8.84525 21.4546 11.2033L11.6498 20.8289C11.0507 21.4182 11.0507 22.4003 11.6498 22.9886C12.2539 23.5768 13.2541 23.5768 13.8542 22.9886L23.657 13.361C24.8562 12.1854 26.8045 12.1854 28.0067 13.361C29.21 14.5434 29.21 16.4556 28.0067 17.638L18.354 27.1164C19.5512 28.2939 21.5056 28.2939 22.7028 27.1164L30.1571 19.7967C32.6056 17.3925 32.6056 13.5623 30.2091 11.2043L30.2111 11.2033ZM26.9095 14.3951C26.3094 13.8068 25.3093 13.8068 24.7101 14.3951L14.9014 24.0738C13.7022 25.2494 11.7538 25.2494 10.5516 24.0738C9.95252 23.4806 8.95234 23.4806 8.35424 24.0738C7.74913 24.6621 7.74913 25.6442 8.35424 26.2315C10.7547 28.5895 14.6514 28.5895 17.1048 26.2315L26.9095 16.6059C27.5086 15.9655 27.5086 14.9834 26.9095 14.3951ZM23.658 4.76853C21.2565 2.41049 17.3558 2.41049 14.9014 4.76853L5.09666 14.3941C4.49755 14.9824 4.49755 15.9645 5.09666 16.5538C5.70076 17.147 6.70094 17.147 7.30105 16.5538L17.1618 6.92621C18.361 5.75063 20.3234 5.75063 21.5226 6.92621C22.1267 7.51941 23.1269 7.51941 23.72 6.92621C24.2831 6.29276 24.2831 5.36172 23.684 4.76853H23.658ZM20.3564 7.96037C19.7563 7.37209 18.7561 7.37209 18.157 7.96037L8.35424 17.639C7.15502 18.8146 5.20168 18.8146 3.99846 17.639C2.80125 16.4615 2.80125 14.5444 3.99846 13.362L13.6512 3.88365C12.454 2.7061 10.5056 2.7061 9.30241 3.88365L1.80107 11.2033C-0.600357 13.5613 -0.600357 17.3915 1.80107 19.7957C4.2015 22.1538 8.09819 22.1538 10.5516 19.7957L20.3564 10.1701C20.9555 9.52978 20.9555 8.54767 20.3564 7.95939V7.96037Z" fill="white"/>
</svg>
