<svg width="32" height="32" viewBox="0 0 32 32" fill="none" xmlns="http://www.w3.org/2000/svg">
<g clip-path="url(#clip0_1530_6770)">
<path fill-rule="evenodd" clip-rule="evenodd" d="M0 5.71428V3.42857C0 1.53571 1.53428 0 3.42857 0H28.5714C30.4657 0 32 1.53571 32 3.42857V5.71428H0ZM32 7.99856V28.5714C32 30.4643 30.4657 32 28.5714 32H3.42857C1.53428 32 0 30.4643 0 28.5714V7.99856H32ZM16.0216 12.3473L13.7359 23.7758C13.613 24.3944 14.0144 24.9972 14.633 25.1215C15.2516 25.2444 15.8544 24.843 15.9787 24.2244L18.2644 12.7959C18.3873 12.1773 17.9859 11.5744 17.3673 11.4516C16.7487 11.3273 16.1459 11.7287 16.0216 12.3473ZM9.39301 11.8573L5.96443 16.1431C4.963 17.3959 4.963 19.176 5.96443 20.4274L9.39301 24.7132C9.78728 25.2061 10.5073 25.2875 11.0001 24.8918C11.493 24.4989 11.573 23.7789 11.1787 23.2861L7.74871 19.0003C7.41443 18.5832 7.41443 17.9903 7.74871 17.5732L11.1787 13.2844C11.573 12.793 11.493 12.073 11.0001 11.6787C10.5073 11.2859 9.78728 11.3644 9.39301 11.8573ZM20.8216 13.2844L24.2516 17.5717C24.5859 17.9902 24.5859 18.5831 24.2516 19.0002L20.8216 23.286C20.4273 23.7789 20.5073 24.4989 21.0001 24.8917C21.493 25.2874 22.213 25.206 22.6073 24.7132L26.0359 20.4274C27.0373 19.1759 27.0373 17.3959 26.0359 16.143L22.6073 11.8572C22.213 11.3643 21.493 11.2858 21.0001 11.6786C20.5073 12.0729 20.4273 12.793 20.8216 13.2844Z" fill="white"/>
</g>
<defs>
<clipPath id="clip0_1530_6770">
<rect width="32" height="32" fill="white"/>
</clipPath>
</defs>
</svg>
