<svg width="32" height="32" viewBox="0 0 32 32" fill="none" xmlns="http://www.w3.org/2000/svg">
<path d="M19.669 10.0096C19.669 10.6375 19.773 11.5849 18.235 12.1218C17.759 12.288 17.4375 12.5873 17.4375 12.5873C17.4375 11.0934 17.6735 10.5527 18.3075 10.2327C18.795 9.9865 19.669 10.0096 19.669 10.0096ZM13.879 11.7223L12.167 18.1151L10.743 12.8832C10.3585 11.3416 9.7025 10.5445 8.3215 10.5445C6.953 10.5445 6.2885 11.3242 5.9 12.8832L4.476 18.1151L2.764 11.7223C2.4865 10.4347 1.193 9.87807 0 10.0226L3.2785 21.9702C3.2785 21.9702 4.36 22.0454 4.9015 21.7794C5.6125 21.43 5.9505 21.1607 6.381 19.5352C6.7645 18.0862 7.8365 13.8291 7.937 13.526C8.175 12.8061 8.4915 12.8605 8.707 13.526C8.8055 13.8296 9.8795 18.0862 10.263 19.5352C10.693 21.1607 11.0315 21.43 11.7425 21.7794C12.2835 22.0454 13.3655 21.9702 13.3655 21.9702L16.644 10.0226C15.423 9.8747 14.153 10.453 13.879 11.7223ZM19.668 11.9733C19.668 11.9733 19.463 12.2789 18.995 12.5309C18.6945 12.6928 18.406 12.8027 18.0965 12.9458C17.3395 13.2957 17.4375 13.6181 17.4375 14.6421V21.9702C17.4375 21.9702 18.265 22.071 18.806 21.8049C19.5025 21.4628 19.6625 21.1327 19.669 19.647V12.4056L19.668 12.4061V11.9733ZM27.84 16.0251L32 10.0622C32 10.0622 30.2445 9.77398 29.375 10.5368C28.71 11.1199 28.1545 11.9608 26.666 14.0291C26.6425 14.0643 26.3535 14.537 26.0125 14.0291C24.548 11.9941 23.9725 11.1238 23.3035 10.5368C22.434 9.77398 20.6785 10.0622 20.6785 10.0622L24.8385 16.0251L20.69 21.9698C20.69 21.9698 22.5185 22.1924 23.3875 21.4296C23.962 20.9255 24.2665 20.4479 26.013 18.0216C26.3535 17.5146 26.6415 17.9845 26.6665 18.0216C28.1365 20.0639 28.628 20.8195 29.3235 21.4296C30.193 22.1924 31.9895 21.9698 31.9895 21.9698L27.84 16.0251Z" fill="white"/>
</svg>
