<svg width="32" height="32" viewBox="0 0 32 32" fill="none" xmlns="http://www.w3.org/2000/svg">
<path d="M13.7993 27.0505C13.66 27.4746 13.5207 27.8987 13.3688 28.3228C13.1346 28.9811 12.8814 29.633 12.6662 30.2977C12.5713 30.5952 12.4447 30.7471 12.1155 30.7154C11.8434 30.6901 11.5648 30.6901 11.2927 30.7154C11.0395 30.7407 10.9192 30.6078 10.8432 30.4053C10.3685 29.095 9.90644 27.7784 9.4317 26.4681C8.98229 25.2148 8.52021 23.9679 8.06447 22.7209C7.71633 21.7651 7.37452 20.803 7.02638 19.8472C6.46303 18.309 5.89335 16.7772 5.33 15.2454C4.85527 13.9352 4.39319 12.6186 3.91846 11.3083C3.4184 9.91574 2.91202 8.52952 2.40564 7.1433C2.34234 6.96606 2.2284 6.90276 2.04484 6.90276C1.6334 6.90909 1.22197 6.90909 0.816861 6.85845C0.354786 6.80782 -0.0123418 6.43436 0.000317821 5.98494C0.0129774 5.54186 0.399095 5.14941 0.861169 5.14308C1.87394 5.13042 2.8867 5.12409 3.89947 5.13042C5.5642 5.13675 7.22261 5.02915 8.88734 4.94053C8.98229 4.9342 9.07091 4.90888 9.16585 4.89622C9.52032 4.8709 9.83048 5.1051 9.86846 5.43425C9.9191 5.85202 9.71021 6.15585 9.31144 6.20016C8.81771 6.25712 8.33032 6.2951 7.8366 6.33308C7.45048 6.3584 7.4125 6.39005 7.52644 6.73186C7.80495 7.59271 8.08979 8.44723 8.38096 9.30175C8.74176 10.3778 9.11521 11.4476 9.46968 12.5173C9.86846 13.701 10.2609 14.891 10.6534 16.0746C11.0015 17.119 11.356 18.1635 11.7041 19.2079C12.0649 20.2839 12.4257 21.3537 12.7865 22.4297C12.9321 22.8665 13.0777 23.2969 13.2296 23.7337C13.2612 23.8286 13.2739 23.9615 13.4068 23.9679C13.5461 23.9742 13.5524 23.8349 13.584 23.74C13.8942 22.8159 14.2044 21.898 14.5019 20.9739C14.7804 20.1194 15.0462 19.2585 15.3311 18.404C15.6729 17.3849 16.0337 16.3658 16.3818 15.3467C16.5844 14.758 16.7743 14.1567 16.9768 13.568C17.0971 13.2136 16.8502 12.9414 16.7553 12.6502C16.4831 11.821 16.1666 10.9981 15.8691 10.1753C15.521 9.2258 15.1728 8.27 14.8247 7.32053C14.7361 7.08633 14.6285 6.85845 14.5715 6.61159C14.5272 6.42803 14.4322 6.38372 14.2677 6.36473C13.7423 6.32042 13.2232 6.25712 12.6979 6.20016C12.3118 6.15585 12.1219 5.91532 12.1472 5.50388C12.1662 5.14941 12.394 4.91521 12.7612 4.9342C13.9512 4.98484 15.1348 5.06079 16.3248 5.11143C16.9452 5.13675 17.5655 5.14941 18.1921 5.09244C18.7555 5.04181 19.3252 5.07978 19.8948 5.01649C20.4392 4.95319 20.9899 4.94686 21.5343 4.9342C21.9647 4.92154 22.1989 5.14941 22.2115 5.54819C22.2242 5.90899 21.99 6.16851 21.5976 6.20649C21.0532 6.26345 20.5088 6.32675 19.9645 6.37106C19.7619 6.39005 19.7556 6.44069 19.8189 6.62425C20.1797 7.69399 20.5152 8.77638 20.876 9.85245C21.2178 10.8715 21.6102 11.8716 21.9267 12.8971C22.2432 13.9352 22.6103 14.9543 22.9458 15.986C23.4079 17.4102 23.9143 18.8218 24.389 20.246C24.7751 21.398 25.1422 22.5563 25.5094 23.7147C25.5347 23.7843 25.5284 23.8603 25.6296 23.8666C25.7436 23.8793 25.7626 23.797 25.7879 23.7147C25.9018 23.3539 26.0221 22.9994 26.136 22.6386C26.2563 22.2398 26.3639 21.8347 26.4842 21.436C26.5981 21.0688 26.7437 20.708 26.8386 20.3346C27.0792 19.3851 27.4083 18.4736 27.7248 17.5495C28.2122 16.1316 28.6173 14.6947 28.6046 13.1882C28.592 11.7767 28.2059 10.4601 27.5222 9.21947C27.0348 8.33963 26.4398 7.52308 26.0221 6.59893C25.4397 5.30133 25.4271 3.83915 26.5285 2.75675C27.0285 2.26936 27.6298 2.02883 28.3451 2.00351C29.3642 1.96553 30.2377 2.23138 30.9087 3.02893C31.4024 3.62393 31.7062 4.32021 31.8328 5.07978C32.0797 6.58627 32.0227 8.09909 31.8581 9.61191C31.6809 11.2133 31.1366 12.7072 30.5985 14.2137C30.1554 15.4543 29.7377 16.7076 29.3072 17.9546C28.8895 19.1509 28.4717 20.3472 28.0539 21.5436C28.0413 21.5752 28.0413 21.6069 28.035 21.6385C27.8197 21.7271 27.8197 21.9044 27.8514 22.0943C27.8451 22.1322 27.8451 22.1702 27.8387 22.2082C27.6298 22.3031 27.6298 22.4804 27.6615 22.6639C27.6552 22.7019 27.6488 22.7399 27.6488 22.7715C27.4273 22.8665 27.4716 23.069 27.4463 23.2463C27.4336 23.3032 27.421 23.3602 27.4146 23.4172C27.2311 23.4995 27.288 23.6767 27.2564 23.816C27.2437 23.8729 27.2311 23.9299 27.2247 23.9869C27.0855 24.0565 27.0348 24.1641 27.0981 24.3097C27.0918 24.3477 27.0918 24.3856 27.0855 24.4236C26.8196 24.4932 26.9209 24.7085 26.9019 24.8794C26.8956 24.9173 26.8956 24.9553 26.8893 24.987C26.6297 25.0629 26.7247 25.2781 26.712 25.449C26.693 25.4934 26.6804 25.5377 26.6614 25.582C26.4462 25.8352 26.3576 26.1327 26.3386 26.4555C26.0854 27.2467 25.8512 28.0506 25.56 28.8292C25.3511 29.3925 25.2055 29.9812 24.9017 30.5129C24.8258 30.6521 24.7498 30.6901 24.6105 30.6901C24.3067 30.6901 23.9965 30.6838 23.6927 30.6901C23.5028 30.6964 23.3889 30.6015 23.3256 30.4496C22.9775 29.6014 22.6103 28.7595 22.3192 27.886C22.0027 26.9365 21.6229 26.0061 21.2811 25.0693C21.1228 24.6515 20.9836 24.2211 20.8317 23.8033C20.8127 23.6007 20.8633 23.3729 20.6354 23.2399C20.5911 23.0627 20.6608 22.8475 20.4519 22.7336C20.0847 21.7461 19.705 20.765 19.3442 19.7776C18.8757 18.4863 18.42 17.1887 17.9579 15.8911C17.9263 15.8088 17.92 15.6948 17.787 15.7075C17.6668 15.7138 17.6731 15.8151 17.6478 15.8911C17.249 17.0811 16.8565 18.2711 16.4514 19.4547C16.1729 20.2649 15.8754 21.0625 15.5906 21.8727C15.4323 22.3285 15.2931 22.7842 15.1412 23.2399C14.8943 23.3855 14.9513 23.664 14.869 23.8729C14.7487 24.1831 14.5968 24.4869 14.5778 24.8224C14.5715 24.8414 14.5715 24.8604 14.5652 24.8794C14.3943 24.987 14.4132 25.1705 14.3879 25.3351C14.1601 25.468 14.2107 25.6959 14.198 25.8985C13.9765 26.0314 14.0208 26.2593 14.0081 26.4681C13.7676 26.6201 13.8182 26.8479 13.7993 27.0505Z" fill="white"/>
<path d="M14.5664 24.8412C14.5854 24.4994 14.7373 24.1955 14.8576 23.8917C14.9399 23.6765 14.8829 23.398 15.1298 23.2587C15.0158 23.8031 14.8829 24.3538 14.5664 24.8412Z" fill="white"/>
<path d="M26.3281 26.4746C26.3534 26.1518 26.4421 25.8479 26.6509 25.6011C26.6636 25.9366 26.5433 26.2214 26.3281 26.4746Z" fill="white"/>
<path d="M14.1875 25.9172C14.2002 25.7083 14.1559 25.4868 14.3774 25.3539C14.3647 25.5564 14.4027 25.778 14.1875 25.9172Z" fill="white"/>
<path d="M13.9883 26.481C14.0073 26.2784 13.9566 26.0506 14.1782 25.9113C14.1718 26.1265 14.2098 26.3481 13.9883 26.481Z" fill="white"/>
<path d="M20.6328 23.2587C20.8607 23.3917 20.81 23.6195 20.829 23.8221C20.6075 23.6892 20.6581 23.4613 20.6328 23.2587Z" fill="white"/>
<path d="M13.8008 27.0507C13.8198 26.8481 13.7755 26.6203 13.997 26.481C13.9717 26.6899 14.016 26.9114 13.8008 27.0507Z" fill="white"/>
<path d="M26.8971 24.8986C26.9098 24.7277 26.8148 24.5125 27.0807 24.4429C27.0364 24.6011 27.0807 24.7973 26.8971 24.8986Z" fill="white"/>
<path d="M26.7022 25.4681C26.7149 25.2972 26.6199 25.0819 26.8794 25.006C26.8478 25.1706 26.8921 25.3668 26.7022 25.4681Z" fill="white"/>
<path d="M27.8471 22.1132C27.8155 21.9233 27.8155 21.7461 28.0307 21.6575C27.9864 21.8157 28.0307 22.0119 27.8471 22.1132Z" fill="white"/>
<path d="M20.4453 22.7465C20.6606 22.8604 20.5846 23.0819 20.6289 23.2528C20.439 23.1326 20.4453 22.9427 20.4453 22.7465Z" fill="white"/>
<path d="M27.6559 22.6829C27.6242 22.493 27.6242 22.3221 27.8331 22.2272C27.8205 22.3981 27.7951 22.5627 27.6559 22.6829Z" fill="white"/>
<path d="M27.4414 23.265C27.4667 23.0878 27.4224 22.8852 27.644 22.7903C27.6313 22.9738 27.606 23.1511 27.4414 23.265Z" fill="white"/>
<path d="M14.375 25.3478C14.4003 25.1832 14.3813 24.9996 14.5522 24.892C14.5522 25.0693 14.5712 25.2465 14.375 25.3478Z" fill="white"/>
<path d="M27.2461 23.835C27.2777 23.6957 27.2144 23.5185 27.4043 23.4362C27.417 23.5945 27.4043 23.7464 27.2461 23.835Z" fill="white"/>
<path d="M27.0855 24.3287C27.0222 24.1832 27.0729 24.0755 27.2121 24.0059C27.2248 24.1325 27.2375 24.2654 27.0855 24.3287Z" fill="white"/>
</svg>
