<svg width="31" height="30" viewBox="0 0 31 30" fill="none" xmlns="http://www.w3.org/2000/svg">
<path d="M30.0472 1.17505C29.9666 0.813737 29.6857 0.530569 29.3217 0.449946C20.3112 -1.44944 13.6137 2.90107 9.8569 9.05597C7.15543 8.86799 5.01085 9.44414 3.44761 10.7552C1.71585 12.2175 0.721694 14.6052 0.501903 17.8544C0.477477 18.2425 0.68998 18.6038 1.03927 18.7674C1.17117 18.8309 1.30307 18.8553 1.43985 18.8553C1.67678 18.8553 1.90882 18.7674 2.08959 18.5989C4.02163 16.7606 5.57756 16.2797 7.43638 16.9877L13.5403 23.0886C14.2292 24.944 13.7528 26.5015 11.9283 28.4131C11.6596 28.6939 11.5961 29.1138 11.7597 29.4629C11.916 29.7949 12.2482 30 12.6097 30H12.6733C15.9194 29.7803 18.3082 28.7867 19.7716 27.0508C21.0857 25.4884 21.6548 23.3327 21.4594 20.6204C27.6073 16.8559 31.9525 10.1761 30.0472 1.17505ZM18.4498 9.05797C18.4498 8.25474 18.7649 7.49795 19.339 6.92421C19.9203 6.3505 20.6775 6.05998 21.4445 6.05998C22.209 6.05998 22.9832 6.3505 23.5719 6.92421C24.7273 8.10337 24.7273 10.0003 23.5719 11.155C22.9979 11.7288 22.2236 12.0656 21.4371 12.0437C20.6408 12.0364 19.8983 11.7288 19.3316 11.1477C18.7698 10.596 18.4572 9.85389 18.4498 9.05797ZM10.3942 24.2944C10.3942 26.6015 8.50607 28.4765 6.19291 28.4765H2.94675C2.42893 28.4765 2.0088 28.0565 2.0088 27.539V24.2944C2.0088 21.9825 3.88469 20.1002 6.19291 20.1002C8.50357 20.1002 10.3942 21.9825 10.3942 24.2944Z" fill="#212529"/>
</svg>
