<svg width="31" height="30" viewBox="0 0 31 30" fill="none" xmlns="http://www.w3.org/2000/svg">
<path d="M29.9959 14.4528L26.3033 10.7939C28.0505 9.92032 29.1114 8.0906 29.0011 6.13942C28.8896 3.43188 26.6057 1.32745 23.8995 1.43902C22.101 1.51309 20.4877 2.56666 19.6967 4.18404L16.0996 0.489219C15.4332 -0.163073 14.3679 -0.163073 13.7015 0.489219L9.97259 4.19604C9.73608 4.42787 9.73218 4.80755 9.96389 5.04417C10.0388 5.12065 10.133 5.17583 10.2364 5.20372C11.0757 5.42385 11.8104 5.93399 12.3107 6.64326C13.2435 7.99193 13.1902 9.79106 12.1788 11.0819C10.9183 12.686 8.59671 12.9641 6.99332 11.703C6.36143 11.2057 5.9088 10.5159 5.70407 9.73828C5.61804 9.41858 5.28921 9.22874 4.96937 9.31481C4.86595 9.3427 4.77183 9.39759 4.69689 9.47436L1.0039 13.1932C0.341744 13.8425 0.330653 14.9056 0.979623 15.5681C0.987717 15.5762 0.99581 15.5843 1.0039 15.5924L4.69689 19.1913C2.28985 20.4338 1.34532 23.3929 2.58721 25.8012C3.8291 28.2094 6.78679 29.1544 9.19382 27.9119C10.0991 27.4443 10.8365 26.7069 11.3035 25.8012L14.9006 29.4957C15.5495 30.1585 16.6122 30.1693 17.2743 29.5203C17.2824 29.5122 17.2905 29.5038 17.2986 29.4957L21.0033 25.7892C21.2398 25.5573 21.244 25.1777 21.012 24.941C20.937 24.8643 20.8432 24.8094 20.7398 24.7818C19.9002 24.5617 19.1655 24.0512 18.6655 23.342C17.7327 21.9936 17.786 20.1942 18.7971 18.9034C20.0576 17.2992 22.3795 17.0212 23.9829 18.2823C24.6147 18.7795 25.0674 19.469 25.2718 20.2469C25.3282 20.4515 25.4873 20.611 25.6915 20.6668C25.8977 20.7208 26.1165 20.6614 26.267 20.5109L29.9959 16.792C30.6584 16.143 30.6692 15.0796 30.0205 14.4171C30.0124 14.409 30.004 14.4009 29.9959 14.3928V14.4528Z" fill="#212529"/>
</svg>
