<svg width="70" height="70" viewBox="0 0 70 70" fill="none" xmlns="http://www.w3.org/2000/svg">
<path fill-rule="evenodd" clip-rule="evenodd" d="M1.52446 46.5701V35.3251H7.96757L1.52446 46.5701ZM13.0898 34.1701L5.60116 47.2458L20.5823 38.5298L13.0898 34.1701ZM25.202 40.3339L12.8327 47.5307C16.143 48.4118 19.1135 50.569 20.9593 53.7896C22.8051 57.0063 23.1712 60.6788 22.2766 64.002L34.642 56.809L25.202 40.3339ZM37.9858 54.8641L49.411 48.2179L39.971 31.7432L28.5458 38.3894L37.9858 54.8641ZM37.6385 28.6057L21.6197 19.2896L15.0219 30.801L24.443 36.2851L37.6385 28.6057ZM23.5483 15.9169L39.8958 25.4305L46.9654 13.0879L30.618 3.57817L23.5483 15.9169ZM43.3154 29.7938L52.7554 46.2685L65 39.1476L55.56 22.6729L43.3154 29.7938ZM20.0417 14.2495L20.4154 13.5963C20.4041 13.5089 20.4003 13.4216 20.4003 13.3304V0H1.52418V14.2492L20.0417 14.2495ZM1.52409 18.1385V31.4349H10.1942L17.8149 18.1385H1.52409ZM14.161 68.7254C18.6716 66.0973 20.2191 60.279 17.6109 55.7294C15.0027 51.1796 9.23147 49.6225 4.72081 52.2506C0.206481 54.8749 -1.341 60.6932 1.26716 65.2427C3.87155 69.7925 9.64281 71.3496 14.1572 68.7253L14.161 68.7254ZM11.047 59.5498C10.5337 58.6535 9.39757 58.3459 8.51053 58.8624C7.62352 59.3789 7.314 60.5258 7.83113 61.4259C8.34446 62.3222 9.48055 62.6261 10.3676 62.1095C11.2546 61.593 11.5604 60.4461 11.047 59.5498ZM6.57422 55.4975C9.31447 53.9024 12.8134 54.8481 14.395 57.6053C15.9728 60.3625 15.0367 63.8869 12.3002 65.4783C9.56367 67.0695 6.06094 66.1239 4.48321 63.3667C2.90171 60.6133 3.83767 57.0889 6.57422 55.4975Z" fill="#00B59C"/>
</svg>
