<svg width="472" height="482" viewBox="0 0 472 482" fill="none" xmlns="http://www.w3.org/2000/svg">
<path d="M471.289 85.4588V106.82H0.0078125V85.4588C0.0078125 38.2494 38.2497 0 85.4666 0H385.83C433.039 0 471.289 38.2494 471.289 85.4588Z" fill="#33527D"/>
<path d="M471.32 106.858V345.216C471.32 392.486 433.025 430.713 385.831 430.713H85.4524C38.2505 430.713 0.03125 392.486 0.03125 345.216V106.85L471.32 106.858Z" fill="#E5E8EF"/>
<path d="M471.288 345.239V370.447C471.288 417.657 433.039 455.899 385.83 455.899H85.4588C38.2494 455.899 0 417.657 0 370.44V345.239C0 392.448 38.2494 430.698 85.4588 430.698H385.83C433.039 430.698 471.288 392.448 471.288 345.239Z" fill="#CDD4DF"/>
<path d="M86.0022 53.4138C86.0022 62.4491 78.8493 69.7978 69.814 69.7978C60.7787 69.7978 53.4375 62.4491 53.4375 53.4138C53.4375 44.3785 60.7711 37.0298 69.814 37.0298C78.8568 37.0298 86.0022 44.3785 86.0022 53.4138Z" fill="#4CC66E"/>
<path d="M136.931 53.4138C136.931 62.4491 129.583 69.7978 120.736 69.7978C111.7 69.7978 104.352 62.4491 104.352 53.4138C104.352 44.3785 111.7 37.0298 120.736 37.0298C129.583 37.0298 136.931 44.3785 136.931 53.4138Z" fill="#FFA300"/>
<path d="M187.853 53.4138C187.853 62.4491 180.504 69.7978 171.665 69.7978C162.615 69.7978 155.273 62.4491 155.273 53.4138C155.273 44.3785 162.615 37.0298 171.657 37.0298C180.505 37.0298 187.853 44.3785 187.853 53.4138Z" fill="#B244F1"/>
<path d="M132.586 165.331V219.407C132.586 226.334 126.984 231.944 120.05 231.944H65.9734C59.0464 231.944 53.4369 226.334 53.4369 219.407V165.331C53.4469 162.009 54.7709 158.826 57.1198 156.477C59.4687 154.128 62.6516 152.804 65.9734 152.794H120.05C126.977 152.794 132.586 158.457 132.586 165.331ZM422.491 172.808V259.117C422.493 261.746 421.977 264.349 420.972 266.778C419.967 269.207 418.493 271.414 416.634 273.273C414.775 275.132 412.568 276.606 410.139 277.611C407.71 278.616 405.107 279.132 402.478 279.13H191.579C188.95 279.133 186.346 278.618 183.916 277.613C181.486 276.609 179.278 275.135 177.418 273.276C175.559 271.417 174.084 269.21 173.078 266.78C172.073 264.351 171.556 261.747 171.558 259.117V172.808C171.57 167.502 173.684 162.418 177.436 158.667C181.188 154.916 186.274 152.804 191.579 152.794H402.478C407.782 152.806 412.866 154.919 416.616 158.669C420.367 162.42 422.479 167.503 422.491 172.808ZM132.586 318.208V372.277C132.586 379.204 126.984 384.821 120.05 384.821H65.9734C59.0464 384.821 53.4369 379.211 53.4369 372.277V318.208C53.4449 314.885 54.768 311.7 57.1171 309.35C59.4662 306.999 62.6503 305.674 65.9734 305.664H120.05C126.977 305.664 132.586 311.334 132.586 318.208ZM132.601 268.77V268.83C132.601 274.522 127.993 279.13 122.301 279.13H63.7221C62.3692 279.131 61.0293 278.866 59.7792 278.348C58.5291 277.831 57.3932 277.072 56.4365 276.116C55.4799 275.159 54.7212 274.023 54.2039 272.773C53.6866 271.523 53.4209 270.183 53.4219 268.83V268.77C53.4219 263.078 58.0299 258.409 63.7221 258.409H122.301C127.993 258.409 132.601 263.078 132.601 268.77ZM250.738 326.385V326.445C250.738 332.145 246.13 336.753 240.437 336.753H181.859C180.505 336.754 179.165 336.488 177.914 335.97C176.663 335.453 175.527 334.693 174.57 333.736C173.614 332.778 172.855 331.641 172.338 330.39C171.821 329.139 171.556 327.799 171.558 326.445V326.385C171.558 320.693 176.166 316.025 181.866 316.025H240.437C246.13 316.025 250.738 320.693 250.738 326.385ZM351.617 326.385V326.445C351.617 332.145 347.024 336.753 341.324 336.753H282.745C281.392 336.754 280.051 336.488 278.801 335.97C277.55 335.453 276.414 334.693 275.457 333.736C274.5 332.778 273.742 331.641 273.225 330.39C272.708 329.139 272.443 327.799 272.445 326.445V326.385C272.445 320.693 277.053 316.025 282.745 316.025H341.324C347.016 316.025 351.617 320.693 351.617 326.385ZM422.491 326.385V326.445C422.491 332.145 417.891 336.753 412.191 336.753H383.632C382.278 336.754 380.938 336.488 379.687 335.97C378.437 335.453 377.3 334.693 376.344 333.736C375.387 332.778 374.628 331.641 374.111 330.39C373.595 329.139 373.33 327.799 373.332 326.445V326.385C373.332 320.693 377.94 316.025 383.632 316.025H412.191C417.891 316.025 422.491 320.693 422.491 326.385ZM220.718 374.453V374.513C220.718 380.213 216.117 384.821 210.418 384.821H181.866C180.512 384.823 179.171 384.557 177.919 384.04C176.668 383.523 175.531 382.764 174.573 381.806C173.615 380.849 172.856 379.711 172.339 378.46C171.822 377.208 171.556 375.867 171.558 374.513V374.46C171.558 368.761 176.166 364.092 181.866 364.092H210.418C216.117 364.092 220.718 368.753 220.718 374.453ZM291.284 374.453V374.513C291.284 380.213 286.676 384.821 280.983 384.821H252.424C251.071 384.822 249.73 384.556 248.48 384.038C247.229 383.52 246.093 382.761 245.136 381.803C244.179 380.846 243.421 379.709 242.904 378.458C242.387 377.207 242.122 375.867 242.124 374.513V374.46C242.124 368.761 246.732 364.092 252.424 364.092H280.983C286.676 364.092 291.284 368.753 291.284 374.453ZM361.849 374.453V374.513C361.849 380.213 357.241 384.821 351.549 384.821H322.99C321.636 384.822 320.296 384.556 319.045 384.038C317.795 383.52 316.658 382.761 315.702 381.803C314.745 380.846 313.986 379.709 313.47 378.458C312.953 377.207 312.688 375.867 312.69 374.513V374.46C312.69 368.761 317.298 364.092 322.99 364.092H351.549C357.241 364.092 361.849 368.753 361.849 374.453Z" fill="#ADB9CA"/>
<path d="M284.221 333.643L283.784 333.862L284.213 333.636L284.221 333.643ZM284.213 333.636L240.242 289.664C295.432 183.033 371.931 125.101 429.441 120.388C432.668 120.118 435.915 120.555 438.955 121.669C441.996 122.783 444.757 124.546 447.047 126.836C449.336 129.126 451.099 131.888 452.211 134.929C453.324 137.97 453.76 141.217 453.49 144.444C448.784 201.947 390.845 278.453 284.213 333.636Z" fill="#079CFF"/>
<path d="M284.221 333.643C270.028 340.983 255.525 347.708 240.753 353.8L224.219 337.258C238.991 331.166 253.493 324.441 267.686 317.101C374.303 261.911 432.241 185.427 436.947 127.902C437.151 125.47 436.947 123.144 436.428 120.938C441.618 122.158 446.197 125.203 449.329 129.518C452.461 133.834 453.938 139.131 453.489 144.444C448.776 201.969 390.837 278.453 284.221 333.643Z" fill="#005EEE"/>
<path d="M178.049 472.185C162.936 478.421 146.773 481.72 130.426 481.905H61.7196C60.0136 481.929 58.327 481.541 56.8034 480.773C55.2797 480.005 53.964 478.881 52.9682 477.495C51.9724 476.11 51.3259 474.505 51.0838 472.816C50.8417 471.127 51.011 469.404 51.5775 467.795C53.1135 463.338 57.5784 460.612 62.2919 460.612H69.9267C82.2749 460.612 92.6354 450.748 92.5601 438.37C92.5184 430.786 93.4034 423.226 95.1954 415.857C119.711 315.964 220.078 333.124 220.078 333.124L240.754 353.8C240.754 353.8 255.685 440.17 178.049 472.185Z" fill="#FFD80C"/>
<path d="M178.049 472.185C162.936 478.421 146.773 481.72 130.426 481.905H61.7196C60.0136 481.929 58.327 481.541 56.8034 480.773C55.2797 480.005 53.964 478.881 52.9682 477.495C51.9724 476.11 51.3259 474.505 51.0838 472.816C50.8417 471.127 51.011 469.404 51.5775 467.795C53.1135 463.338 57.5784 460.612 62.2919 460.612H69.9267C75.7243 460.612 81.0551 458.451 85.0759 454.89L103.771 454.739C120.088 454.588 136.321 451.727 151.402 445.538C217.375 418.334 216.487 351.842 214.747 332.499C216.533 332.629 218.311 332.838 220.078 333.124L240.754 353.8C240.754 353.8 255.685 440.17 178.049 472.185Z" fill="#FFBE00"/>
<path d="M284.221 333.643C270.028 340.983 255.526 347.708 240.754 353.8L220.078 333.116C226.17 318.344 232.895 303.842 240.234 289.649L284.221 333.643Z" fill="#435E88"/>
<path d="M284.221 333.643C270.028 340.983 255.525 347.708 240.753 353.799L224.219 337.257C238.991 331.166 253.493 324.441 267.686 317.101L284.221 333.643Z" fill="#33527D"/>
</svg>
