<svg width="32" height="32" viewBox="0 0 32 32" fill="none" xmlns="http://www.w3.org/2000/svg">
<path d="M12.8343 3.07196H7.57463C5.83075 3.07196 4.15751 3.76392 2.92469 4.99829C1.69196 6.23103 1 7.90258 1 9.64655V13.1524C1 14.8963 1.69196 16.5695 2.92469 17.8024C4.15742 19.0351 5.83062 19.727 7.57463 19.727H12.8343C13.5558 19.7188 14.1393 19.1354 14.1492 18.4121V4.387C14.1393 3.66546 13.5558 3.08181 12.8343 3.07196Z" fill="white"/>
<path d="M30.3637 0.476671C29.5484 0.00166295 28.5754 -0.124905 27.6648 0.126578L16.7773 3.22976V19.5527L27.4363 22.5852C27.8127 22.7217 28.2105 22.7923 28.6115 22.7956C29.1868 22.7989 29.7555 22.6543 30.2585 22.3749C31.1 21.9524 31.6441 21.106 31.6786 20.1658V2.63311C31.6408 1.73733 31.1444 0.9221 30.3637 0.476671Z" fill="white"/>
<path d="M7.13763 21.4807H4.50781V28.9313C4.51767 30.6226 5.88516 31.9901 7.5765 32H11.0824C12.7737 31.9901 14.1412 30.6226 14.151 28.9313V21.4807H7.13763Z" fill="white"/>
</svg>
