<svg width="351" height="350" viewBox="0 0 351 350" fill="none" xmlns="http://www.w3.org/2000/svg">
<path d="M350.488 312.789C350.488 318.401 345.97 322.911 340.366 322.911H10.3178C8.98814 322.914 7.67097 322.654 6.44202 322.146C5.21307 321.638 4.09657 320.893 3.15666 319.952C2.21675 319.012 1.47198 317.895 0.96512 316.665C0.458263 315.436 0.199318 314.119 0.203167 312.789C0.203167 307.243 4.71318 302.674 10.3178 302.674H340.366C345.97 302.674 350.488 307.243 350.488 312.789Z" fill="#C7754F"/>
<path d="M86.1615 322.911H10.3379C7.65721 322.911 5.08635 321.846 3.19085 319.951C1.29535 318.055 0.230469 315.484 0.230469 312.804C0.230469 310.123 1.29535 307.552 3.19085 305.657C5.08635 303.761 7.65721 302.696 10.3379 302.696H86.1615C80.5422 302.696 76.0906 307.221 76.0906 312.767C76.0906 318.386 80.5422 322.911 86.1615 322.911Z" fill="#AB604B"/>
<path d="M208.842 225.625V302.667H11V225.625C11.0089 214.985 14.6054 204.66 21.208 196.317C27.8107 187.974 37.0338 182.102 47.3866 179.649L74.2569 173.285L109.943 164.82L133.493 170.424L172.572 179.656C182.901 182.135 192.096 188.018 198.675 196.358C205.254 204.698 208.835 215.002 208.842 225.625Z" fill="#5B5E8B"/>
<path d="M107.43 268.805H112.414V302.674H107.43V268.805ZM117.588 166.615L89.4771 173.256L62.6214 179.663C52.2663 182.111 43.0391 187.979 36.4312 196.319C29.8233 204.659 26.2207 214.984 26.2056 225.624V302.667H11.0117V225.624C11.0117 203.738 26.0743 184.757 47.3691 179.663L74.2248 173.256L109.933 164.834L117.581 166.615H117.588Z" fill="#312E4B"/>
<path d="M145.59 173.227L130.454 220.545L109.948 206.001L89.4483 220.545L74.2617 173.285L109.656 164.878H110.305L133.498 170.424L145.59 173.227Z" fill="#DEDDFF"/>
<path d="M134.4 159.667V178.277C134.4 184.443 131.95 190.357 127.59 194.717C123.229 199.078 117.316 201.527 111.149 201.527C104.983 201.527 99.0687 199.078 94.7084 194.717C90.3481 190.357 87.8984 184.443 87.8984 178.277V159.675L134.4 159.667Z" fill="#FFAF93"/>
<path d="M101.961 194.594L102.107 194.74C105.544 198.231 110.025 200.506 114.871 201.22C102.078 203.775 87.8984 193.528 87.8984 178.283V167.008C96.606 172.681 107.084 174.982 117.367 173.482C106.398 171.898 96.6484 165.863 90.927 158.704H134.4V174.394C126.153 178.772 116.812 180.604 108.821 180.108C101.1 179.721 96.539 189.128 101.961 194.594Z" fill="#EE8778"/>
<path d="M153.752 81.0996V131.323C153.826 136.964 152.778 142.564 150.67 147.797C148.563 153.03 145.437 157.793 141.473 161.808C137.51 165.824 132.789 169.012 127.584 171.188C122.379 173.364 116.793 174.485 111.151 174.485C105.509 174.485 99.9237 173.364 94.7185 171.188C89.5132 169.012 84.792 165.824 80.8289 161.808C76.8657 157.793 73.7395 153.03 71.6318 147.797C69.524 142.564 68.4767 136.964 68.5505 131.323V81.0996H153.752Z" fill="#FFAF93"/>
<path d="M153.738 81.0781V131.301C153.738 132.651 153.687 133.994 153.549 135.286C153.403 137.161 153.067 138.978 152.636 140.803C150.513 150.211 145.25 158.615 137.713 164.633C130.176 170.651 120.815 173.924 111.171 173.913C105.575 173.914 100.034 172.812 94.8639 170.671C89.694 168.53 84.9966 165.391 81.0402 161.434C77.0837 157.477 73.9457 152.779 71.8054 147.609C69.6651 142.438 68.5645 136.897 68.5664 131.301V81.0781H153.738Z" fill="#FFAF93"/>
<path d="M162.842 68.6719V122.259H153.763V81.078H68.5692V122.252H59.25V68.6719H162.842Z" fill="#8B4F4F"/>
<path d="M168.743 120.369C168.75 122.348 168.366 124.309 167.612 126.14C166.859 127.97 165.75 129.632 164.35 131.032C162.951 132.431 161.288 133.54 159.458 134.294C157.628 135.048 155.667 135.432 153.688 135.424V105.401C162.043 105.401 168.743 112.101 168.743 120.369Z" fill="#FFAF93"/>
<path d="M157.711 106.007C156.406 105.627 155.056 105.426 153.697 105.409V135.424C155.099 135.424 156.427 135.169 157.711 134.818V106.007ZM80.9462 76.6846V131.301C80.9484 141.53 84.6274 151.418 91.3122 159.161C97.997 166.905 107.242 171.987 117.362 173.482C107.081 174.981 96.6065 172.679 87.901 167.009C81.9563 163.141 77.073 157.848 73.6955 151.612C70.3179 145.375 68.5532 138.393 68.5619 131.301V135.431C65.4366 135.438 62.3869 134.471 59.837 132.664C57.287 130.857 55.3637 128.3 54.3346 125.349C53.3054 122.398 53.2215 119.199 54.0947 116.198C54.9678 113.197 56.7545 110.543 59.2062 108.605C61.7969 106.591 65.0152 105.394 68.5693 105.394V76.6846H80.9462ZM114.523 125.587V131.673C114.523 132.664 114.13 133.614 113.429 134.315C112.728 135.016 111.778 135.41 110.787 135.41C109.796 135.41 108.845 135.016 108.145 134.315C107.444 133.614 107.05 132.664 107.05 131.673V125.587C107.05 124.596 107.444 123.645 108.145 122.945C108.845 122.244 109.796 121.85 110.787 121.85C111.778 121.85 112.728 122.244 113.429 122.945C114.13 123.645 114.523 124.596 114.523 125.587Z" fill="#EE8778"/>
<path d="M97.8086 143.109C98.4753 146.144 100.159 148.86 102.58 150.807C105.002 152.755 108.016 153.816 111.123 153.816C114.231 153.816 117.245 152.755 119.666 150.807C122.088 148.86 123.771 146.144 124.438 143.109H97.8086Z" fill="#EE8778"/>
<path d="M99.093 110.619C98.6633 108.661 97.5774 106.908 96.0152 105.652C94.453 104.395 92.5084 103.71 90.5035 103.71C88.4987 103.71 86.554 104.395 84.9918 105.652C83.4297 106.908 82.3437 108.661 81.9141 110.619H99.093ZM140.384 110.619C139.951 108.664 138.864 106.916 137.303 105.663C135.742 104.41 133.8 103.727 131.798 103.727C129.796 103.727 127.854 104.41 126.293 105.663C124.732 106.916 123.645 108.664 123.212 110.619H140.384Z" fill="#312E4B"/>
<path d="M162.842 77.0858C139.657 118.807 59.25 77.0858 59.25 77.0858V69.2772C59.25 61.5927 62.0961 54.0833 67.6643 48.8143C96.6656 21.1413 132.446 45.7858 132.446 45.7858C132.446 45.7858 151.034 37.9772 159.755 53.4119C164.104 61.06 162.491 68.8904 162.842 77.0858Z" fill="#AB604B"/>
<path d="M81.2454 39.6562C76.2278 41.9059 71.6359 45.0042 67.6716 48.8149C62.0961 54.0839 59.25 61.586 59.25 69.2778V77.0864C59.25 77.0864 68.3284 81.7934 81.2454 86.4567V39.6562Z" fill="#8B4F4F"/>
<path d="M145.586 173.227L161.889 211.802H145.586L155.562 228.113L109.922 284.576L145.586 173.227Z" fill="#312E4B"/>
<path d="M74.268 173.227L57.9648 211.802H74.268L64.292 228.113L109.925 284.576L74.268 173.227Z" fill="#312E4B"/>
<path d="M130.459 220.545L109.952 284.569L89.4453 220.545L109.952 206.001L130.459 220.545Z" fill="#C6C6F7"/>
<path d="M114.74 222.071L117.951 259.508L109.953 284.569L101.947 259.508L105.158 222.071L100.371 212.773L109.953 206.001L119.477 212.773L114.74 222.071Z" fill="#E83D62"/>
<path d="M196.243 253.977V262.931C196.248 263.192 196.201 263.452 196.106 263.695C196.01 263.938 195.867 264.16 195.685 264.348C195.504 264.536 195.287 264.686 195.047 264.789C194.807 264.893 194.549 264.949 194.288 264.952H153.187C152.925 264.949 152.667 264.893 152.427 264.789C152.188 264.686 151.971 264.536 151.789 264.348C151.607 264.16 151.464 263.938 151.369 263.695C151.273 263.452 151.226 263.192 151.231 262.931V253.977C151.231 252.853 152.121 251.962 153.187 251.962H194.288C195.353 251.962 196.243 252.853 196.243 253.977Z" fill="#312E4B"/>
<path d="M285.9 10.3774V59.6372C285.9 65.4608 281.142 70.2189 275.318 70.2189H220.293L207.479 81.8078C205.355 83.7344 201.961 81.9099 202.414 79.0273L203.786 70.2189H194.569C193.202 70.2151 191.85 69.9421 190.589 69.4156C189.328 68.8891 188.182 68.1193 187.219 67.1503C186.255 66.1812 185.492 65.0319 184.972 63.7678C184.453 62.5038 184.188 61.1498 184.191 59.7832V10.5817C184.191 4.75813 188.95 0 194.773 0H275.523C281.244 0 285.9 4.65596 285.9 10.3774Z" fill="#E83D62"/>
<path d="M207.026 70.2117H194.546C188.854 70.2117 184.184 65.5411 184.184 59.7759V10.5891C184.184 4.75086 188.927 0.00732422 194.765 0.00732422H207.244C201.406 0.00732422 196.663 4.75086 196.663 10.5891V59.7759C196.663 65.5411 201.333 70.2117 207.026 70.2117ZM267.538 20.6381C267.537 21.0133 267.46 21.3844 267.313 21.7297C267.166 22.075 266.952 22.3876 266.683 22.6492C266.414 22.9108 266.095 23.1161 265.746 23.2532C265.397 23.3903 265.024 23.4564 264.649 23.4477H257.862C257.493 23.4477 257.128 23.375 256.788 23.2337C256.447 23.0924 256.138 22.8853 255.878 22.6243C255.617 22.3633 255.411 22.0535 255.271 21.7127C255.13 21.3719 255.058 21.0067 255.059 20.6381C255.059 19.0472 256.315 17.7919 257.862 17.7919H264.649C266.283 17.7919 267.538 19.0472 267.538 20.6381Z" fill="#CE2955"/>
<path d="M266.451 49.6248C266.455 49.9945 266.385 50.3613 266.245 50.7035C266.105 51.0457 265.898 51.3566 265.637 51.6177C265.375 51.8788 265.063 52.0849 264.721 52.2239C264.378 52.3629 264.011 52.432 263.642 52.4271H209.127C208.379 52.4272 207.66 52.1323 207.128 51.6064C206.595 51.0806 206.291 50.366 206.281 49.6175C206.281 48.8626 206.581 48.1387 207.115 47.605C207.649 47.0712 208.373 46.7713 209.127 46.7713H263.642C265.232 46.7713 266.451 48.0339 266.451 49.6248ZM206.281 20.6381C206.281 19.0472 207.544 17.792 209.091 17.792H247.433C248.988 17.792 250.243 19.0472 250.243 20.6381C250.244 21.0073 250.172 21.3731 250.031 21.7145C249.89 22.0558 249.683 22.3659 249.422 22.627C249.161 22.8881 248.851 23.095 248.51 23.2358C248.168 23.3767 247.803 23.4487 247.433 23.4477H209.091C208.722 23.4487 208.356 23.3767 208.015 23.2358C207.673 23.095 207.363 22.8881 207.102 22.627C206.841 22.3659 206.634 22.0558 206.493 21.7145C206.352 21.3731 206.28 21.0073 206.281 20.6381ZM266.451 35.1314C266.455 35.5012 266.385 35.8679 266.245 36.2102C266.105 36.5524 265.898 36.8632 265.637 37.1243C265.375 37.3854 265.063 37.5916 264.721 37.7306C264.378 37.8696 264.011 37.9387 263.642 37.9338H209.127C208.38 37.9339 207.663 37.64 207.13 37.1157C206.598 36.5914 206.293 35.8787 206.281 35.1314C206.281 34.3766 206.581 33.6527 207.115 33.1189C207.649 32.5852 208.373 32.2853 209.127 32.2853H263.642C265.232 32.2853 266.451 33.5405 266.451 35.1314Z" fill="#CE2955"/>
<path d="M350.488 312.789C350.488 318.401 345.97 322.911 340.366 322.911H10.3178C8.98814 322.914 7.67097 322.654 6.44202 322.146C5.21307 321.638 4.09657 320.893 3.15666 319.952C2.21675 319.012 1.47198 317.895 0.96512 316.665C0.458263 315.436 0.199318 314.119 0.203167 312.789C0.203167 307.243 4.71318 302.674 10.3178 302.674H340.366C345.97 302.674 350.488 307.243 350.488 312.789Z" fill="#C7754F"/>
<path d="M86.1615 322.911H10.3379C7.65721 322.911 5.08635 321.846 3.19085 319.951C1.29535 318.055 0.230469 315.484 0.230469 312.804C0.230469 310.123 1.29535 307.552 3.19085 305.657C5.08635 303.761 7.65721 302.696 10.3379 302.696H86.1615C80.5422 302.696 76.0906 307.221 76.0906 312.767C76.0906 318.386 80.5422 322.911 86.1615 322.911Z" fill="#AB604B"/>
<path d="M238.17 163.331C238.219 165.727 237.788 168.107 236.905 170.334C236.022 172.561 234.703 174.59 233.026 176.301C231.349 178.012 229.348 179.371 227.139 180.299C224.931 181.227 222.559 181.705 220.163 181.705C217.767 181.705 215.396 181.227 213.187 180.299C210.978 179.371 208.977 178.012 207.3 176.301C205.623 174.59 204.304 172.561 203.421 170.334C202.538 168.107 202.108 165.727 202.156 163.331C202.251 158.618 204.19 154.13 207.556 150.831C210.923 147.531 215.449 145.683 220.163 145.683C224.877 145.683 229.403 147.531 232.77 150.831C236.137 154.13 238.076 158.618 238.17 163.331ZM314.257 163.331C314.305 165.727 313.875 168.107 312.992 170.334C312.108 172.561 310.79 174.59 309.113 176.301C307.436 178.012 305.434 179.371 303.226 180.299C301.017 181.227 298.645 181.705 296.25 181.705C293.854 181.705 291.482 181.227 289.273 180.299C287.065 179.371 285.063 178.012 283.386 176.301C281.71 174.59 280.391 172.561 279.508 170.334C278.624 168.107 278.194 165.727 278.242 163.331C278.337 158.618 280.276 154.13 283.643 150.831C287.009 147.531 291.536 145.683 296.25 145.683C300.964 145.683 305.49 147.531 308.856 150.831C312.223 154.13 314.162 158.618 314.257 163.331ZM230.004 211.606L235.259 237.557H279.716L284.956 211.606H230.004Z" fill="#FFAF93"/>
<path d="M350.486 291.407V350H163.883V291.399C163.882 285.931 164.958 280.516 167.051 275.464C169.143 270.412 172.21 265.821 176.077 261.955C179.944 258.089 184.535 255.022 189.588 252.931C194.64 250.839 200.055 249.764 205.524 249.766H308.874C314.34 249.766 319.752 250.843 324.801 252.936C329.851 255.028 334.438 258.096 338.301 261.962C342.164 265.829 345.227 270.419 347.316 275.47C349.404 280.521 350.476 285.934 350.472 291.399L350.486 291.407Z" fill="white"/>
<path d="M233.307 249.773C227.84 249.77 222.427 250.845 217.375 252.935C212.324 255.025 207.735 258.091 203.869 261.956C200.003 265.821 196.937 270.41 194.845 275.461C192.754 280.512 191.679 285.925 191.68 291.392V350H163.891V291.399C163.888 285.932 164.962 280.518 167.053 275.466C169.144 270.415 172.21 265.825 176.076 261.959C179.942 258.093 184.532 255.027 189.584 252.936C194.636 250.845 200.05 249.77 205.517 249.773H233.307Z" fill="#E0E0E0"/>
<path d="M296.126 243.38V249.758H216.559V243.387C216.559 236.367 222.251 230.674 229.271 230.674H283.421C290.441 230.674 296.126 236.359 296.126 243.38Z" fill="#DEDDFF"/>
<path d="M241.7 230.66C234.695 230.66 229.01 236.352 229.01 243.387V249.772H216.574V243.387C216.574 236.345 222.266 230.66 229.265 230.66H241.7Z" fill="#C6C6F7"/>
<path d="M292.707 207.052C283.03 219.976 269.851 226.296 253.445 224.18C218.343 219.662 205.959 173.876 206.419 138.417C206.601 124.887 215.468 111.298 226.83 108.554C232.479 107.197 236.938 104.183 241.791 101.541C248.293 97.9871 255.956 95.6008 263.757 98.1185L261.13 99.1767C280.483 100.417 300.684 106.868 305.179 125.77C315.199 167.892 300.552 196.58 292.707 207.052Z" fill="#5B5E8B"/>
<path d="M264.608 224.311C261.09 224.72 257.369 224.676 253.442 224.187C218.399 219.633 205.934 174.008 206.416 138.409C206.62 124.908 215.465 111.276 226.835 108.539C238.84 105.664 247.341 94.1775 262.156 97.6147C252.056 99.6727 246.539 106.255 236.986 108.539C225.653 111.276 216.771 124.908 216.567 138.409C216.151 174.11 228.659 219.648 263.586 224.187L264.608 224.311Z" fill="#312E4B"/>
</svg>
