<svg width="32" height="32" viewBox="0 0 32 32" fill="none" xmlns="http://www.w3.org/2000/svg">
<path d="M31.9999 26.319C32.0046 27.024 31.7138 27.699 31.1953 28.191L30.1445 29.2155H30.1461C29.6399 29.718 28.9476 30 28.2261 30C27.503 30 26.8123 29.718 26.3061 29.2155L23.0246 26.0161L21.2015 27.6795C20.8723 28.0155 20.3692 28.128 19.9215 27.9675C19.483 27.8115 19.1707 27.4276 19.1184 26.9746L18.0523 17.7272H18.0507C18.0184 17.3657 18.1507 17.0087 18.4123 16.7507C18.6753 16.4942 19.043 16.3653 19.4138 16.3998L28.8984 17.4392C29.363 17.4917 29.7569 17.7947 29.9153 18.2237C30.0815 18.6587 29.9645 19.1492 29.6199 19.4717L27.8646 21.1997L31.1461 24.3991C31.6953 24.8941 32.0046 25.5901 31.9999 26.319ZM19.6261 14.0148L25.4353 14.6387V14.3987C25.4353 11.1108 24.0953 7.9565 21.7107 5.63142C19.3261 3.30634 16.0906 2 12.7185 2C9.34461 2 6.11091 3.30646 3.7246 5.63142C1.33998 7.95638 0 11.111 0 14.3987C0 17.6882 1.33998 20.841 3.7246 23.1676C6.11075 25.4926 9.34477 26.799 12.7185 26.799C14.0215 26.8035 15.3169 26.6085 16.5584 26.223L15.8031 19.8227C15.2985 20.0881 14.7354 20.2306 14.1615 20.2396V20.7991C14.1615 21.4621 13.6107 21.9991 12.9307 21.9991C12.2523 21.9991 11.7 21.4621 11.7 20.7991V20.1751H9.1738C8.49379 20.1751 7.94304 19.6381 7.94304 18.9751C7.94304 18.3121 8.49379 17.7752 9.1738 17.7752H14.0969C14.3923 17.7767 14.6769 17.6612 14.8846 17.4557C15.103 17.2562 15.2276 16.9787 15.2292 16.6877C15.2338 16.4027 15.1138 16.1297 14.8999 15.9347C14.6907 15.7217 14.4 15.6002 14.0969 15.5987H11.323C10.3784 15.5987 9.47071 15.2372 8.7953 14.5907C8.13837 13.9262 7.77839 13.0353 7.79529 12.1113C7.76298 11.1753 8.12452 10.2678 8.7953 9.59883C9.46452 8.94335 10.3738 8.57433 11.323 8.57583H11.6507V7.99984C11.6507 7.33684 12.203 6.79986 12.8815 6.79986C13.5615 6.79986 14.1122 7.33684 14.1122 7.99984V8.62383H16.263C16.9415 8.62383 17.4937 9.1608 17.4937 9.82381C17.4937 10.4853 16.9415 11.0238 16.263 11.0238H11.3399C11.043 11.0223 10.7599 11.1378 10.5522 11.3433C10.3338 11.5413 10.2076 11.8203 10.2076 12.1113C10.203 12.3963 10.3215 12.6692 10.5353 12.8627C10.7445 13.0772 11.0353 13.1987 11.3399 13.1987H14.1291C15.0737 13.2002 15.9814 13.5617 16.6568 14.2067C16.8168 14.3627 16.9599 14.5337 17.083 14.7197C17.8107 14.1827 18.7184 13.9307 19.6261 14.0148Z" fill="white"/>
</svg>
