<svg width="28" height="30" viewBox="0 0 28 30" fill="none" xmlns="http://www.w3.org/2000/svg">
<path d="M13.2325 30L0 12.028H6.86643L13.2325 30ZM20.3359 12.028L14 29.917L7.66783 12.028H20.3359ZM10.6665 6.8926L6.95673 11.2733H0.229508L6.11771 6.8926H10.6665ZM20.0575 11.2733H7.94625L11.6522 6.8926H16.3478L20.0575 11.2733ZM27.7705 11.2733H21.0395L17.3335 6.8926H21.8823L27.7705 11.2733ZM28 12.028L14.7675 30L21.1298 12.028H28ZM21.6404 3.53252H24.0705V4.28717H21.6404V3.53252ZM25.4363 3.53252H27.8668V4.28717H25.4363V3.53252ZM24.3772 4.59469H25.1296V7.03183H24.3772V4.59469ZM24.3772 0.787101H25.1296V3.22424H24.3772V0.787101ZM15.3334 1.62854H16.8944V2.38319H15.3334V1.62854ZM17.7722 1.62854H19.3332V2.38319H17.7722V1.62854ZM16.9573 2.44582H17.7098V4.01172H16.9573V2.44582ZM16.9573 0H17.7098V1.56552H16.9573V0Z" fill="#212529"/>
</svg>
