<svg width="350" height="350" viewBox="0 0 350 350" fill="none" xmlns="http://www.w3.org/2000/svg">
<path d="M313.981 50.4064V63.0058H36.0039V50.4064C36.0039 22.5608 58.5602 0 86.4103 0H263.574C291.42 0 313.981 22.5608 313.981 50.4064Z" fill="#33527D"/>
<path d="M314.001 63.0284V203.62C314.001 231.501 291.414 254.049 263.577 254.049H86.4038C58.5625 254.049 36.0195 231.501 36.0195 203.62V63.0239L314.001 63.0284Z" fill="#E5E8EF"/>
<path d="M313.981 203.633V218.502C313.981 246.347 291.421 268.904 263.575 268.904H86.4064C58.5608 268.904 36 246.347 36 218.497V203.633C36 231.478 58.5608 254.039 86.4064 254.039H263.575C291.421 254.039 313.981 231.478 313.981 203.633Z" fill="#CDD4DF"/>
<path d="M86.7234 31.5051C86.7234 36.8344 82.5043 41.169 77.175 41.169C71.8457 41.169 67.5156 36.8344 67.5156 31.5051C67.5156 26.1758 71.8412 21.8413 77.175 21.8413C82.5088 21.8413 86.7234 26.1758 86.7234 31.5051Z" fill="#4CC66E"/>
<path d="M116.763 31.5051C116.763 36.8344 112.429 41.169 107.211 41.169C101.881 41.169 97.5469 36.8344 97.5469 31.5051C97.5469 26.1758 101.881 21.8413 107.211 21.8413C112.429 21.8413 116.763 26.1758 116.763 31.5051Z" fill="#FFA300"/>
<path d="M146.803 31.5051C146.803 36.8344 142.468 41.169 137.254 41.169C131.916 41.169 127.586 36.8344 127.586 31.5051C127.586 26.1758 131.916 21.8413 137.25 21.8413C142.468 21.8413 146.803 26.1758 146.803 31.5051Z" fill="#B244F1"/>
<path d="M114.201 97.5175V129.413C114.201 133.499 110.897 136.808 106.807 136.808H74.9111C70.8253 136.808 67.5167 133.499 67.5167 129.413V97.5175C67.5226 95.5581 68.3035 93.6808 69.6889 92.2953C71.0744 90.9098 72.9518 90.1289 74.9111 90.123H106.807C110.893 90.123 114.201 93.4627 114.201 97.5175ZM285.197 101.927V152.836C285.198 154.386 284.894 155.922 284.301 157.355C283.708 158.787 282.839 160.089 281.742 161.185C280.646 162.282 279.344 163.151 277.911 163.744C276.479 164.337 274.943 164.641 273.393 164.64H148.997C147.447 164.642 145.911 164.338 144.477 163.745C143.044 163.153 141.742 162.283 140.645 161.187C139.548 160.09 138.678 158.789 138.085 157.356C137.492 155.923 137.187 154.387 137.189 152.836V101.927C137.196 98.7981 138.442 95.7991 140.655 93.5867C142.869 91.3743 145.868 90.1289 148.997 90.123H273.393C276.521 90.1301 279.52 91.376 281.732 93.5883C283.944 95.8005 285.19 98.7989 285.197 101.927ZM114.201 187.689V219.581C114.201 223.667 110.897 226.98 106.807 226.98H74.9111C70.8253 226.98 67.5167 223.671 67.5167 219.581V187.689C67.5214 185.729 68.3018 183.851 69.6874 182.464C71.073 181.078 72.951 180.296 74.9111 180.291H106.807C110.893 180.291 114.201 183.635 114.201 187.689ZM114.21 158.529V158.565C114.21 161.922 111.492 164.64 108.135 164.64H73.5832C72.7852 164.641 71.9949 164.484 71.2576 164.179C70.5202 163.874 69.8502 163.426 69.286 162.862C68.7217 162.298 68.2742 161.628 67.9691 160.89C67.664 160.153 67.5072 159.363 67.5078 158.565V158.529C67.5078 155.172 70.2258 152.418 73.5832 152.418H108.135C111.492 152.418 114.21 155.172 114.21 158.529ZM183.891 192.513V192.548C183.891 195.91 181.173 198.628 177.816 198.628H143.264C142.466 198.628 141.675 198.472 140.937 198.166C140.2 197.861 139.529 197.413 138.965 196.848C138.401 196.283 137.953 195.613 137.649 194.875C137.344 194.137 137.187 193.346 137.189 192.548V192.513C137.189 189.155 139.907 186.402 143.268 186.402H177.816C181.173 186.402 183.891 189.155 183.891 192.513ZM243.393 192.513V192.548C243.393 195.91 240.684 198.628 237.322 198.628H202.77C201.972 198.628 201.181 198.472 200.444 198.166C199.706 197.861 199.036 197.413 198.471 196.848C197.907 196.283 197.46 195.613 197.155 194.875C196.85 194.137 196.694 193.346 196.695 192.548V192.513C196.695 189.155 199.413 186.402 202.77 186.402H237.322C240.679 186.402 243.393 189.155 243.393 192.513ZM285.197 192.513V192.548C285.197 195.91 282.483 198.628 279.122 198.628H262.276C261.478 198.628 260.687 198.472 259.95 198.166C259.212 197.861 258.542 197.413 257.978 196.848C257.413 196.283 256.966 195.613 256.661 194.875C256.356 194.137 256.2 193.346 256.201 192.548V192.513C256.201 189.155 258.919 186.402 262.276 186.402H279.122C282.483 186.402 285.197 189.155 285.197 192.513ZM166.184 220.864V220.9C166.184 224.262 163.471 226.98 160.109 226.98H143.268C142.47 226.981 141.679 226.825 140.94 226.519C140.202 226.214 139.532 225.766 138.967 225.202C138.402 224.637 137.954 223.966 137.649 223.228C137.344 222.49 137.187 221.699 137.189 220.9V220.869C137.189 217.507 139.907 214.754 143.268 214.754H160.109C163.471 214.754 166.184 217.503 166.184 220.864ZM207.806 220.864V220.9C207.806 224.262 205.088 226.98 201.731 226.98H184.886C184.088 226.98 183.297 226.824 182.559 226.518C181.822 226.213 181.151 225.765 180.587 225.2C180.023 224.635 179.575 223.965 179.271 223.227C178.966 222.489 178.809 221.698 178.811 220.9V220.869C178.811 217.507 181.528 214.754 184.886 214.754H201.731C205.088 214.754 207.806 217.503 207.806 220.864ZM249.428 220.864V220.9C249.428 224.262 246.71 226.98 243.353 226.98H226.508C225.71 226.98 224.919 226.824 224.181 226.518C223.444 226.213 222.773 225.765 222.209 225.2C221.645 224.635 221.197 223.965 220.892 223.227C220.588 222.489 220.431 221.698 220.432 220.9V220.869C220.432 217.507 223.15 214.754 226.508 214.754H243.353C246.71 214.754 249.428 217.503 249.428 220.864Z" fill="#ADB9CA"/>
<path d="M203.644 196.794L203.386 196.922L203.64 196.789L203.644 196.794ZM203.64 196.789L177.704 170.853C210.257 107.958 255.378 73.7887 289.299 71.0085C291.203 70.8495 293.118 71.1074 294.911 71.7642C296.705 72.4211 298.334 73.4612 299.684 74.812C301.034 76.1628 302.074 77.7918 302.73 79.5855C303.387 81.3792 303.644 83.2945 303.484 85.1978C300.709 119.114 266.534 164.24 203.64 196.789Z" fill="#079CFF"/>
<path d="M203.641 196.794C195.27 201.123 186.716 205.09 178.003 208.683L168.25 198.926C176.963 195.333 185.517 191.366 193.888 187.037C256.774 154.484 290.949 109.371 293.724 75.441C293.844 74.0066 293.724 72.6342 293.418 71.333C296.479 72.0527 299.18 73.8491 301.028 76.3943C302.875 78.9396 303.746 82.0642 303.481 85.1981C300.701 119.128 266.527 164.241 203.641 196.794Z" fill="#005EEE"/>
<path d="M141.018 278.51C132.104 282.188 122.571 284.134 112.928 284.244H72.403C71.3968 284.258 70.402 284.029 69.5033 283.576C68.6045 283.123 67.8285 282.46 67.2411 281.643C66.6538 280.825 66.2725 279.878 66.1296 278.882C65.9868 277.886 66.0867 276.87 66.4209 275.921C67.3268 273.292 69.9604 271.684 72.7405 271.684H77.2438C84.5272 271.684 90.6382 265.866 90.5937 258.565C90.5691 254.092 91.0911 249.633 92.1481 245.286C106.608 186.366 165.808 196.487 165.808 196.487L178.003 208.683C178.003 208.683 186.81 259.627 141.018 278.51Z" fill="#FFD80C"/>
<path d="M141.018 278.51C132.104 282.188 122.571 284.134 112.928 284.243H72.403C71.3968 284.257 70.402 284.028 69.5033 283.576C68.6045 283.123 67.8285 282.46 67.2411 281.642C66.6538 280.825 66.2725 279.878 66.1296 278.882C65.9868 277.886 66.0867 276.87 66.4209 275.921C67.3268 273.292 69.9604 271.684 72.7405 271.684H77.2438C80.6634 271.684 83.8077 270.409 86.1793 268.309L97.2065 268.22C106.83 268.131 116.405 266.443 125.301 262.793C164.214 246.747 163.69 207.528 162.664 196.119C163.717 196.195 164.766 196.318 165.808 196.487L178.003 208.683C178.003 208.683 186.81 259.626 141.018 278.51Z" fill="#FFBE00"/>
<path d="M203.642 196.794C195.271 201.123 186.717 205.089 178.004 208.682L165.809 196.483C169.402 187.77 173.368 179.216 177.697 170.844L203.642 196.794Z" fill="#435E88"/>
<path d="M203.641 196.794C195.27 201.123 186.716 205.09 178.003 208.683L168.25 198.925C176.963 195.333 185.517 191.366 193.888 187.037L203.641 196.794Z" fill="#33527D"/>
</svg>
