<svg width="350" height="350" viewBox="0 0 350 350" fill="none" xmlns="http://www.w3.org/2000/svg">
<path d="M325.244 268.104C325.244 272.915 321.372 276.78 316.568 276.78H33.6698C32.53 276.783 31.401 276.56 30.3476 276.125C29.2942 275.69 28.3372 275.05 27.5316 274.244C26.726 273.438 26.0876 272.481 25.6531 271.427C25.2187 270.373 24.9967 269.244 25 268.104C25 263.35 28.8658 259.435 33.6698 259.435H316.568C321.372 259.435 325.244 263.35 325.244 268.104Z" fill="#C7754F"/>
<path d="M98.6747 276.781H33.683C31.3853 276.781 29.1817 275.868 27.557 274.243C25.9323 272.618 25.0195 270.415 25.0195 268.117C25.0195 265.819 25.9323 263.616 27.557 261.991C29.1817 260.366 31.3853 259.454 33.683 259.454H98.6747C93.8581 259.454 90.0425 263.332 90.0425 268.086C90.0425 272.902 93.8581 276.781 98.6747 276.781Z" fill="#AB604B"/>
<path d="M203.829 193.392V259.428H34.25V193.392C34.2576 184.273 37.3403 175.422 42.9997 168.271C48.6592 161.121 56.5647 156.087 65.4385 153.985L88.4702 148.53L119.058 141.274L139.244 146.078L172.74 153.991C181.594 156.116 189.475 161.158 195.114 168.307C200.754 175.455 203.823 184.287 203.829 193.392Z" fill="#5B5E8B"/>
<path d="M116.906 230.404H121.178V259.434H116.906V230.404ZM125.613 142.812L101.518 148.505L78.4986 153.997C69.6228 156.095 61.7138 161.125 56.0498 168.273C50.3859 175.422 47.298 184.272 47.2851 193.392V259.428H34.2617V193.392C34.2617 174.633 47.1725 158.363 65.4252 153.997L88.4444 148.505L119.051 141.286L125.607 142.812H125.613Z" fill="#312E4B"/>
<path d="M149.611 148.48L136.638 189.038L119.061 176.572L101.49 189.038L88.4727 148.53L118.81 141.324H119.367L139.246 146.078L149.611 148.48Z" fill="#DEDDFF"/>
<path d="M140.026 136.858V152.809C140.026 158.094 137.927 163.163 134.189 166.901C130.452 170.638 125.383 172.738 120.097 172.738C114.812 172.738 109.743 170.638 106.005 166.901C102.268 163.163 100.168 158.094 100.168 152.809V136.864L140.026 136.858Z" fill="#FFAF93"/>
<path d="M112.222 166.794L112.347 166.919C115.293 169.912 119.133 171.862 123.287 172.474C112.322 174.663 100.168 165.881 100.168 152.814V143.15C107.632 148.012 116.612 149.984 125.427 148.698C116.025 147.341 107.668 142.168 102.764 136.031H140.026V149.48C132.958 153.233 124.951 154.803 118.102 154.378C111.484 154.046 107.574 162.109 112.222 166.794Z" fill="#EE8778"/>
<path d="M156.607 69.5137V112.562C156.67 117.397 155.773 122.197 153.966 126.683C152.159 131.169 149.48 135.251 146.083 138.692C142.686 142.134 138.639 144.867 134.177 146.732C129.716 148.597 124.928 149.558 120.092 149.558C115.256 149.558 110.469 148.597 106.007 146.732C101.545 144.867 97.4986 142.134 94.1017 138.692C90.7047 135.251 88.0251 131.169 86.2184 126.683C84.4118 122.197 83.5141 117.397 83.5773 112.562V69.5137H156.607Z" fill="#FFAF93"/>
<path d="M156.598 69.4951V112.543C156.598 113.701 156.555 114.852 156.436 115.959C156.311 117.566 156.023 119.124 155.654 120.688C153.834 128.752 149.322 135.956 142.862 141.114C136.402 146.272 128.378 149.077 120.112 149.068C115.315 149.068 110.566 148.124 106.134 146.289C101.703 144.454 97.6768 141.763 94.2856 138.371C90.8943 134.98 88.2046 130.953 86.37 126.521C84.5355 122.089 83.5921 117.34 83.5938 112.543V69.4951H156.598Z" fill="#FFAF93"/>
<path d="M164.402 58.8613V104.793H156.621V69.4952H83.5973V104.787H75.6094V58.8613H164.402Z" fill="#8B4F4F"/>
<path d="M169.459 103.174C169.466 104.87 169.137 106.551 168.49 108.12C167.844 109.688 166.894 111.114 165.694 112.313C164.495 113.513 163.069 114.463 161.501 115.109C159.932 115.756 158.251 116.085 156.555 116.078V90.3442C163.717 90.3442 169.459 96.0865 169.459 103.174Z" fill="#FFAF93"/>
<path d="M160.003 90.8629C158.885 90.5374 157.727 90.3649 156.563 90.35V116.078C157.764 116.078 158.902 115.859 160.003 115.558V90.8629ZM94.2045 65.7295V112.543C94.2064 121.312 97.3598 129.787 103.09 136.424C108.819 143.061 116.744 147.417 125.418 148.699C116.606 149.983 107.628 148.011 100.166 143.15C95.0702 139.835 90.8846 135.298 87.9895 129.953C85.0945 124.607 83.5819 118.623 83.5894 112.543V116.084C80.9105 116.09 78.2965 115.26 76.1108 113.711C73.9252 112.163 72.2766 109.971 71.3945 107.441C70.5123 104.912 70.4405 102.17 71.1889 99.5983C71.9372 97.0261 73.4687 94.7511 75.5702 93.0898C77.7908 91.3633 80.5493 90.3375 83.5956 90.3375V65.7295H94.2045ZM122.985 107.646V112.862C122.985 113.712 122.647 114.526 122.047 115.127C121.446 115.728 120.631 116.065 119.782 116.065C118.933 116.065 118.118 115.728 117.517 115.127C116.917 114.526 116.579 113.712 116.579 112.862V107.646C116.579 106.796 116.917 105.982 117.517 105.381C118.118 104.78 118.933 104.443 119.782 104.443C120.631 104.443 121.446 104.78 122.047 105.381C122.647 105.982 122.985 106.796 122.985 107.646Z" fill="#EE8778"/>
<path d="M108.66 122.665C109.232 125.266 110.675 127.594 112.75 129.263C114.826 130.932 117.409 131.842 120.073 131.842C122.736 131.842 125.32 130.932 127.395 129.263C129.471 127.594 130.914 125.266 131.485 122.665H108.66Z" fill="#EE8778"/>
<path d="M109.76 94.8161C109.392 93.1376 108.461 91.6354 107.122 90.5583C105.783 89.4812 104.116 88.894 102.398 88.894C100.679 88.894 99.0123 89.4812 97.6732 90.5583C96.3342 91.6354 95.4035 93.1376 95.0352 94.8161H109.76ZM145.152 94.8161C144.781 93.1408 143.849 91.6421 142.511 90.5679C141.173 89.4937 139.509 88.9082 137.793 88.9082C136.077 88.9082 134.412 89.4937 133.074 90.5679C131.736 91.6421 130.804 93.1408 130.433 94.8161H145.152Z" fill="#312E4B"/>
<path d="M164.402 66.0736C144.529 101.835 75.6094 66.0736 75.6094 66.0736V59.3806C75.6094 52.7938 78.0489 46.3572 82.8216 41.841C107.68 18.1212 138.349 39.2451 138.349 39.2451C138.349 39.2451 154.281 32.552 161.756 45.7818C165.484 52.3372 164.102 59.0491 164.402 66.0736Z" fill="#AB604B"/>
<path d="M94.4626 33.9912C90.1618 35.9195 86.2259 38.5752 82.8279 41.8415C78.0489 46.3577 75.6094 52.7881 75.6094 59.3811V66.0742C75.6094 66.0742 83.3909 70.1088 94.4626 74.1058V33.9912Z" fill="#8B4F4F"/>
<path d="M149.612 148.479L163.586 181.545H149.612L158.163 195.525L119.043 243.921L149.612 148.479Z" fill="#312E4B"/>
<path d="M88.482 148.479L74.5078 181.545H88.482L79.9311 195.525L119.045 243.921L88.482 148.479Z" fill="#312E4B"/>
<path d="M136.646 189.039L119.069 243.916L101.492 189.039L119.069 176.572L136.646 189.039Z" fill="#C6C6F7"/>
<path d="M123.172 190.346L125.924 222.435L119.069 243.916L112.207 222.435L114.959 190.346L110.855 182.377L119.069 176.572L127.232 182.377L123.172 190.346Z" fill="#E83D62"/>
<path d="M193.032 217.694V225.369C193.036 225.593 192.996 225.815 192.914 226.024C192.832 226.232 192.709 226.422 192.553 226.583C192.398 226.744 192.212 226.873 192.006 226.962C191.8 227.051 191.579 227.098 191.355 227.102H156.126C155.902 227.098 155.681 227.051 155.475 226.962C155.27 226.873 155.084 226.744 154.928 226.583C154.772 226.422 154.65 226.232 154.568 226.024C154.485 225.815 154.445 225.593 154.45 225.369V217.694C154.45 216.73 155.213 215.967 156.126 215.967H191.355C192.269 215.967 193.032 216.73 193.032 217.694Z" fill="#312E4B"/>
<path d="M269.878 8.8949V51.1176C269.878 56.1092 265.8 60.1876 260.808 60.1876H213.644L202.66 70.1209C200.839 71.7722 197.931 70.2084 198.319 67.7376L199.495 60.1876H191.594C190.423 60.1843 189.264 59.9503 188.183 59.499C187.102 59.0477 186.12 58.3879 185.294 57.5573C184.468 56.7267 183.814 55.7415 183.369 54.6581C182.923 53.5746 182.696 52.414 182.699 51.2426V9.07005C182.699 4.0784 186.778 0 191.769 0H260.983C265.887 0 269.878 3.99082 269.878 8.8949Z" fill="#E83D62"/>
<path d="M202.274 60.1814H191.578C186.699 60.1814 182.695 56.1781 182.695 51.2365V9.0764C182.695 4.07223 186.761 0.00634766 191.765 0.00634766H202.462C197.458 0.00634766 193.392 4.07223 193.392 9.0764V51.2365C193.392 56.1781 197.395 60.1814 202.274 60.1814ZM254.142 17.6898C254.141 18.0115 254.075 18.3296 253.949 18.6255C253.823 18.9215 253.64 19.1894 253.409 19.4136C253.178 19.6378 252.905 19.8139 252.606 19.9314C252.307 20.0489 251.987 20.1056 251.665 20.0981H245.848C245.532 20.0981 245.219 20.0357 244.927 19.9146C244.635 19.7935 244.37 19.616 244.147 19.3923C243.924 19.1686 243.747 18.9031 243.627 18.6109C243.507 18.3188 243.445 18.0058 243.446 17.6898C243.446 16.3262 244.522 15.2503 245.848 15.2503H251.665C253.066 15.2503 254.142 16.3262 254.142 17.6898Z" fill="#CE2955"/>
<path d="M253.207 42.5352C253.21 42.8521 253.15 43.1665 253.03 43.4598C252.911 43.7532 252.733 44.0196 252.509 44.2434C252.284 44.4672 252.018 44.6439 251.724 44.763C251.43 44.8822 251.116 44.9414 250.799 44.9372H204.072C203.431 44.9373 202.815 44.6845 202.358 44.2338C201.902 43.783 201.641 43.1705 201.633 42.529C201.633 41.8819 201.89 41.2614 202.347 40.8039C202.805 40.3464 203.425 40.0894 204.072 40.0894H250.799C252.162 40.0894 253.207 41.1716 253.207 42.5352ZM201.633 17.6895C201.633 16.3259 202.715 15.25 204.041 15.25H236.906C238.238 15.25 239.314 16.3259 239.314 17.6895C239.315 18.006 239.253 18.3195 239.133 18.6121C239.012 18.9047 238.834 19.1705 238.611 19.3943C238.387 19.6181 238.121 19.7954 237.829 19.9161C237.536 20.0369 237.222 20.0986 236.906 20.0978H204.041C203.725 20.0986 203.411 20.0369 203.119 19.9161C202.826 19.7954 202.56 19.6181 202.336 19.3943C202.113 19.1705 201.935 18.9047 201.814 18.6121C201.694 18.3195 201.632 18.006 201.633 17.6895ZM253.207 30.1124C253.21 30.4293 253.15 30.7436 253.03 31.037C252.911 31.3303 252.733 31.5968 252.509 31.8206C252.284 32.0444 252.018 32.221 251.724 32.3402C251.43 32.4593 251.116 32.5186 250.799 32.5144H204.072C203.432 32.5144 202.817 32.2626 202.36 31.8132C201.904 31.3638 201.643 30.7528 201.633 30.1124C201.633 29.4654 201.89 28.8449 202.347 28.3874C202.805 27.9299 203.425 27.6728 204.072 27.6728H250.799C252.162 27.6728 253.207 28.7487 253.207 30.1124Z" fill="#CE2955"/>
<path d="M325.244 268.104C325.244 272.915 321.372 276.78 316.568 276.78H33.6698C32.53 276.783 31.401 276.56 30.3476 276.125C29.2942 275.69 28.3372 275.05 27.5316 274.244C26.726 273.438 26.0876 272.481 25.6531 271.427C25.2187 270.373 24.9967 269.244 25 268.104C25 263.35 28.8658 259.435 33.6698 259.435H316.568C321.372 259.435 325.244 263.35 325.244 268.104Z" fill="#C7754F"/>
<path d="M98.6747 276.781H33.683C31.3853 276.781 29.1817 275.868 27.557 274.243C25.9323 272.618 25.0195 270.415 25.0195 268.117C25.0195 265.819 25.9323 263.616 27.557 261.991C29.1817 260.366 31.3853 259.454 33.683 259.454H98.6747C93.8581 259.454 90.0425 263.332 90.0425 268.086C90.0425 272.902 93.8581 276.781 98.6747 276.781Z" fill="#AB604B"/>
<path d="M228.97 139.998C229.012 142.051 228.643 144.092 227.886 146.001C227.129 147.91 225.998 149.648 224.561 151.115C223.124 152.581 221.408 153.746 219.515 154.542C217.622 155.337 215.589 155.747 213.536 155.747C211.482 155.747 209.449 155.337 207.556 154.542C205.663 153.746 203.947 152.581 202.51 151.115C201.073 149.648 199.942 147.91 199.185 146.001C198.428 144.092 198.059 142.051 198.101 139.998C198.182 135.958 199.844 132.112 202.73 129.283C205.615 126.455 209.495 124.871 213.536 124.871C217.576 124.871 221.456 126.455 224.341 129.283C227.227 132.112 228.889 135.958 228.97 139.998ZM294.187 139.998C294.228 142.051 293.86 144.092 293.103 146.001C292.346 147.91 291.215 149.648 289.778 151.115C288.341 152.581 286.625 153.746 284.732 154.542C282.839 155.337 280.806 155.747 278.752 155.747C276.699 155.747 274.666 155.337 272.773 154.542C270.88 153.746 269.164 152.581 267.727 151.115C266.29 149.648 265.159 147.91 264.402 146.001C263.645 144.092 263.276 142.051 263.318 139.998C263.399 135.958 265.061 132.112 267.947 129.283C270.832 126.455 274.712 124.871 278.752 124.871C282.793 124.871 286.672 126.455 289.558 129.283C292.444 132.112 294.106 135.958 294.187 139.998ZM221.971 181.376L226.474 203.62H264.581L269.072 181.376H221.971Z" fill="#FFAF93"/>
<path d="M325.239 249.777V300H165.293V249.77C165.292 245.083 166.215 240.442 168.008 236.112C169.802 231.781 172.431 227.847 175.746 224.533C179.06 221.219 182.995 218.59 187.326 216.797C191.657 215.005 196.298 214.083 200.985 214.084H289.572C294.256 214.084 298.895 215.008 303.223 216.802C307.551 218.595 311.483 221.224 314.794 224.539C318.106 227.853 320.731 231.787 322.521 236.116C324.311 240.446 325.23 245.086 325.226 249.77L325.239 249.777Z" fill="white"/>
<path d="M224.8 214.091C220.115 214.088 215.474 215.009 211.145 216.801C206.815 218.593 202.881 221.22 199.568 224.533C196.254 227.846 193.626 231.78 191.833 236.109C190.041 240.438 189.119 245.079 189.121 249.764V300H165.301V249.771C165.298 245.084 166.22 240.444 168.012 236.114C169.804 231.784 172.432 227.849 175.746 224.536C179.059 221.222 182.994 218.594 187.324 216.802C191.654 215.01 196.294 214.088 200.981 214.091H224.8Z" fill="#E0E0E0"/>
<path d="M278.646 208.611V214.078H210.445V208.617C210.445 202.6 215.324 197.721 221.342 197.721H267.756C273.773 197.721 278.646 202.593 278.646 208.611Z" fill="#DEDDFF"/>
<path d="M231.994 197.708C225.989 197.708 221.116 202.587 221.116 208.617V214.09H210.457V208.617C210.457 202.581 215.336 197.708 221.335 197.708H231.994Z" fill="#C6C6F7"/>
<path d="M275.714 177.473C267.42 188.551 256.123 193.968 242.061 192.154C211.974 188.282 201.359 149.036 201.753 118.642C201.909 107.045 209.509 95.3981 219.249 93.0461C224.09 91.8826 227.912 89.2992 232.072 87.0348C237.645 83.9886 244.213 81.9431 250.9 84.1011L248.648 85.0082C265.237 86.0715 282.551 91.6011 286.404 107.802C294.993 143.907 282.439 168.496 275.714 177.473Z" fill="#5B5E8B"/>
<path d="M251.629 192.266C248.614 192.616 245.424 192.579 242.058 192.16C212.021 188.256 201.337 149.149 201.75 118.636C201.925 107.064 209.506 95.3792 219.252 93.0335C229.542 90.5689 236.829 80.7232 249.527 83.6694C240.87 85.4334 236.141 91.0756 227.953 93.0335C218.238 95.3792 210.626 107.064 210.451 118.636C210.094 149.236 220.816 188.269 250.753 192.16L251.629 192.266Z" fill="#312E4B"/>
</svg>
