<svg width="70" height="70" viewBox="0 0 70 70" fill="none" xmlns="http://www.w3.org/2000/svg">
<path d="M47.5 23C45.5109 23 43.6032 23.7902 42.1967 25.1967C40.7902 26.6032 40 28.5109 40 30.5V50.5H32.5V58H37.5C38.163 58 38.7989 58.2634 39.2678 58.7322C39.7366 59.2011 40 59.837 40 60.5C40 61.163 39.7366 61.7989 39.2678 62.2678C38.7989 62.7366 38.163 63 37.5 63H22.5C21.837 63 21.2011 62.7366 20.7322 62.2678C20.2634 61.7989 20 61.163 20 60.5C20 59.837 20.2634 59.2011 20.7322 58.7322C21.2011 58.2634 21.837 58 22.5 58H27.5V50.5H2.5C1.83696 50.5 1.20107 50.2366 0.732233 49.7678C0.263392 49.2989 0 48.663 0 48V10.5C0 9.83696 0.263392 9.20107 0.732233 8.73223C1.20107 8.26339 1.83696 8 2.5 8H55C55.663 8 56.2989 8.26339 56.7678 8.73223C57.2366 9.20107 57.5 9.83696 57.5 10.5V23H47.5ZM70 30.5V60.5C70 61.163 69.7366 61.7989 69.2678 62.2678C68.7989 62.7366 68.163 63 67.5 63H47.5C46.837 63 46.2011 62.7366 45.7322 62.2678C45.2634 61.7989 45 61.163 45 60.5V30.5C45 29.837 45.2634 29.2011 45.7322 28.7322C46.2011 28.2634 46.837 28 47.5 28H67.5C68.163 28 68.7989 28.2634 69.2678 28.7322C69.7366 29.2011 70 29.837 70 30.5ZM60 55.5C60 55.0055 59.8534 54.5222 59.5787 54.1111C59.304 53.7 58.9135 53.3795 58.4567 53.1903C57.9999 53.0011 57.4972 52.9516 57.0123 53.048C56.5273 53.1445 56.0819 53.3826 55.7322 53.7322C55.3826 54.0819 55.1445 54.5273 55.048 55.0123C54.9516 55.4972 55.0011 55.9999 55.1903 56.4567C55.3795 56.9135 55.7 57.304 56.1111 57.5787C56.5222 57.8534 57.0055 58 57.5 58C58.163 58 58.7989 57.7366 59.2678 57.2678C59.7366 56.7989 60 56.163 60 55.5Z" fill="#00B59C"/>
</svg>
