<svg width="48" height="48" viewBox="0 0 48 48" fill="none" xmlns="http://www.w3.org/2000/svg">
<path d="M14.5122 16.7904L4.29779 31.1301L3.34012 32.4561C2.9856 32.9304 2.43307 33.2112 1.84144 33.2181C1.45469 33.2089 1.08172 33.0892 0.761772 32.8751C0.0159072 32.2812 -0.163664 31.2245 0.342789 30.4188L2.13614 27.9624L12.6222 13.229C12.9192 12.833 13.3589 12.5683 13.8492 12.4923C14.335 12.4163 14.8322 12.5406 15.2236 12.8376L23.5479 19.074L32.8047 6.08323L34.72 3.40587L34.7223 3.40817C35.3185 2.57945 36.4719 2.39292 37.3007 2.98919C38.1271 3.58772 38.3136 4.74111 37.7173 5.56754L35.261 9.1289L25.4379 22.7573H25.4402C25.1432 23.1533 24.7012 23.418 24.2109 23.494C23.7252 23.5654 23.2325 23.441 22.8366 23.151L14.5122 16.7904ZM9.60183 10.9707C10.472 9.75974 11.7911 8.9494 13.2644 8.72381C14.7378 8.49821 16.2411 8.87345 17.4335 9.76664L22.7376 13.7447L30.1043 3.55326V3.55556C26.2874 0.822981 21.5937 -0.40172 16.9273 0.116248C12.2609 0.636521 7.95168 2.86032 4.82761 6.3644C1.70365 9.86819 -0.0160351 14.4035 0.000112697 19.0994C0.0047166 20.6372 0.186585 22.1704 0.541106 23.6667L9.60183 10.9707ZM47.3424 44.8092L33.7646 31.1808C36.5663 27.7806 38.0857 23.5035 38.0604 19.0994C38.0696 16.9561 37.7059 14.829 36.9807 12.8123L28.4353 24.7718C27.5651 25.9735 26.2507 26.7792 24.7819 27.0048C23.3155 27.2304 21.8191 26.8598 20.6266 25.9735L15.3226 21.9954L6.92453 33.8329C10.3432 36.6184 14.6207 38.1378 19.0313 38.1286C23.4352 38.1539 27.7122 36.6345 31.1127 33.8329L44.7411 47.4613C45.4594 48.1796 46.6242 48.1796 47.3425 47.4613C47.7039 47.1137 47.9065 46.6349 47.9065 46.1353C47.9065 45.6334 47.7038 45.1545 47.3424 44.8092Z" fill="url(#paint0_linear_1013_2772)"/>
<defs>
<linearGradient id="paint0_linear_1013_2772" x1="23.9533" y1="0" x2="23.9533" y2="48" gradientUnits="userSpaceOnUse">
<stop stop-color="#00B59C"/>
<stop offset="1" stop-color="#00B59C"/>
</linearGradient>
</defs>
</svg>
