<svg width="348" height="348" viewBox="0 0 348 348" fill="none" xmlns="http://www.w3.org/2000/svg">
<g clip-path="url(#clip0_1016_6610)">
<rect x="2" y="2" width="344" height="344" rx="12" fill="white" fill-opacity="0.5"/>
<rect x="2" y="2" width="344" height="344" rx="12" fill="url(#paint0_linear_1016_6610)" fill-opacity="0.2"/>
<path d="M2 227C2 227 133 253.5 176.5 224C220 194.5 366 213.5 366 213.5V346H2V227Z" fill="url(#paint1_linear_1016_6610)" fill-opacity="0.5"/>
<path d="M2 250.522C2 250.522 133 277.022 176.5 247.522C220 218.022 366 237.022 366 237.022V369.522H2V250.522Z" fill="url(#paint2_linear_1016_6610)" fill-opacity="0.5"/>
</g>
<rect x="1" y="1" width="346" height="346" rx="13" stroke="#00B59C" stroke-width="2"/>
<defs>
<linearGradient id="paint0_linear_1016_6610" x1="174" y1="2" x2="174" y2="346" gradientUnits="userSpaceOnUse">
<stop stop-color="#00B59C"/>
<stop offset="1" stop-color="#9CFFAC"/>
</linearGradient>
<linearGradient id="paint1_linear_1016_6610" x1="184" y1="197.466" x2="184" y2="346" gradientUnits="userSpaceOnUse">
<stop stop-color="#00B59C" stop-opacity="0"/>
<stop offset="1" stop-color="#00B59C"/>
</linearGradient>
<linearGradient id="paint2_linear_1016_6610" x1="184" y1="220.988" x2="184" y2="369.522" gradientUnits="userSpaceOnUse">
<stop stop-color="#9CFFAC" stop-opacity="0"/>
<stop offset="1" stop-color="#9CFFAC"/>
</linearGradient>
<clipPath id="clip0_1016_6610">
<rect x="2" y="2" width="344" height="344" rx="12" fill="white"/>
</clipPath>
</defs>
</svg>
