<svg width="32" height="32" viewBox="0 0 32 32" fill="none" xmlns="http://www.w3.org/2000/svg">
<path d="M6.23427 13.5547H0.890684C0.391696 13.5547 0 13.9464 0 14.4454V28.6948C0 29.1938 0.391696 29.5855 0.890684 29.5855H6.23427C6.73326 29.5855 7.12445 29.1938 7.12445 28.6948V14.4454C7.12496 13.9464 6.73326 13.5547 6.23427 13.5547Z" fill="white"/>
<path d="M32.0006 15.2427C32.0006 13.7914 31.0042 12.3227 29.1011 12.3227H20.4731C21.7056 10.1178 22.0681 7.01654 21.2113 4.74748C20.5819 3.07854 19.3791 2.10469 17.8226 2.00561L17.7974 2.00356C16.7846 1.94144 15.9077 2.70019 15.8235 3.71151C15.6018 5.9621 14.6156 9.94271 13.2023 11.356C12.0123 12.546 10.9938 13.0444 9.30538 13.8699C9.06102 13.9895 8.79407 14.1199 8.51172 14.2606C8.51685 14.3217 8.51993 14.3828 8.51993 14.4454V28.5495C8.72374 28.6194 8.92497 28.6887 9.12262 28.7564C11.9092 29.7169 14.3173 30.546 17.9981 30.546H24.9737C26.8773 30.546 27.8732 29.0768 27.8732 27.626C27.8732 27.1953 27.7859 26.7635 27.6129 26.3683C28.2469 26.2543 28.8019 25.9494 29.2131 25.4827C29.6797 24.9524 29.9369 24.2476 29.9369 23.498C29.9369 23.0689 29.8496 22.6371 29.6771 22.2429C31.2054 21.979 32.0011 20.6674 32.0011 19.3706C32.0011 18.6185 31.7332 17.8613 31.2106 17.3069C31.7321 16.7519 32.0006 15.9947 32.0006 15.2427Z" fill="white"/>
</svg>
