<svg width="70" height="70" viewBox="0 0 70 70" fill="none" xmlns="http://www.w3.org/2000/svg">
<g clip-path="url(#clip0_1082_6620)">
<path d="M32.224 35.7682C42.1069 35.7682 50.1468 27.7161 50.1468 17.8321C49.1625 -5.95322 15.2722 -5.93482 14.2852 17.8321C14.2852 27.7153 22.3371 35.7682 32.2208 35.7682H32.224Z" fill="#00B59C"/>
<path d="M68.3182 63.894L63.828 59.4037L65.7185 57.5132C66.909 56.4071 66.2715 54.2604 64.6936 53.9635C64.6811 53.8979 61.1658 53.7104 61.0347 53.6823L54.3979 53.2198C53.1511 53.1167 52.0481 54.2166 52.1512 55.4665C52.3512 58.3414 52.6574 62.5909 52.8574 65.4473C52.923 67.1878 55.2571 68.0658 56.4445 66.791L58.335 64.9005L62.8251 69.3908C63.2407 69.7939 63.7781 70.0001 64.3125 70.0001C64.8624 70.0001 65.3999 69.7939 65.8123 69.3908L68.3152 66.8785C69.1463 66.0599 69.1463 64.7193 68.3152 63.9006L68.3182 63.894Z" fill="#00B59C"/>
<path d="M54.5877 49.5542C56.8343 49.7104 62.4306 50.1041 64.6306 50.2635C64.6556 50.2635 64.6681 50.2635 64.6931 50.276V48.1293C64.74 43.5921 61.8559 39.3172 57.6783 37.6613C55.3723 36.7083 53.0037 35.8802 50.6634 35.2209C50.0666 35.0615 49.4323 35.1959 48.9667 35.599C44.3048 39.6268 38.3647 41.8453 32.2246 41.8453C26.0752 41.8453 20.1443 39.6486 15.5448 35.6583C15.0698 35.2552 14.4355 35.1209 13.8481 35.2802C6.9582 37.2019 0.174381 39.6674 0 48.1288V59.4031C0 61.6467 1.84356 63.4903 4.09955 63.4903H49.0506L48.5007 55.7191C48.182 52.3475 51.2098 49.3133 54.5907 49.5571L54.5877 49.5542ZM42.0827 51.9477H45.023C46.0354 51.9477 46.8541 52.7664 46.8541 53.7789C46.8541 54.7913 46.0354 55.61 45.023 55.61H42.0827C39.6798 55.5662 39.6798 51.9947 42.0827 51.9509V51.9477ZM54.5501 46.0764C54.5126 48.4824 50.9287 48.4824 50.8911 46.0764V43.1484C50.8911 42.136 51.7098 41.3173 52.7222 41.3173C53.7346 41.3173 54.5533 42.136 54.5533 43.1484V46.0764H54.5501ZM48.6945 49.7636C47.979 50.476 46.8229 50.476 46.1073 49.7636L44.0324 47.6762C43.3138 46.97 43.3138 45.8108 44.0324 45.0889C44.7386 44.3796 45.8978 44.3796 46.6197 45.0889L48.6945 47.1638C49.4132 47.8825 49.4132 49.0418 48.6945 49.7636Z" fill="#00B59C"/>
</g>
<defs>
<clipPath id="clip0_1082_6620">
<rect width="70" height="70" fill="white"/>
</clipPath>
</defs>
</svg>
