<svg width="70" height="70" viewBox="0 0 70 70" fill="none" xmlns="http://www.w3.org/2000/svg">
<path d="M28.0368 16.662L22.2496 14.8122L24.0884 20.6452L28.0368 16.662Z" fill="#00B59C"/>
<path d="M24.7277 42.6721C24.8067 42.7515 24.9308 42.7515 25.0098 42.6721L25.7656 41.9118L25.1113 41.2536C24.6826 40.8223 24.6826 40.1301 25.1113 39.6989C25.54 39.2676 26.2281 39.2676 26.6568 39.6989L27.3111 40.3571L28.992 38.6662L27.4127 37.0774C26.984 36.6462 26.984 35.9539 27.4127 35.5227C27.8413 35.0915 28.5295 35.0915 28.9582 35.5227L30.5376 37.1115L33.4481 34.1723L28.4957 29.2017L20.0573 37.7016C19.9896 37.7697 19.9896 37.9285 20.0573 37.9966L24.7277 42.6721Z" fill="#00B59C"/>
<path d="M41.1666 38.7911C41.3922 39.0181 41.6855 39.1429 42.0014 39.1429C42.3173 39.1429 42.6106 39.0181 42.8362 38.7911L46.1078 35.5001C46.5703 35.0349 46.5703 34.2745 46.1078 33.8092L30.0884 17.7061L25.136 22.688L41.1666 38.7911ZM29.8966 22.2227C30.3253 21.7914 31.0135 21.7914 31.4422 22.2227L40.9748 31.812C41.4035 32.2432 41.4035 32.9354 40.9748 33.3667C40.7605 33.5823 40.4784 33.6844 40.1964 33.6844C39.9144 33.6844 39.6323 33.5823 39.418 33.3667L29.8854 23.7774C29.468 23.3462 29.468 22.6539 29.8966 22.2227Z" fill="#00B59C"/>
<path d="M28.5073 58.9227L25.5855 64.4039H44.944L42.0222 58.9227H28.5073Z" fill="#00B59C"/>
<path d="M44.4149 23.1305L43.7605 22.4723C43.3319 22.0411 43.3319 21.3489 43.7605 20.9176C44.1892 20.4864 44.8774 20.4864 45.3061 20.9176L45.9604 21.5758L47.6413 19.8849L46.0619 18.2962C45.6332 17.865 45.6332 17.1727 46.0619 16.7415C46.4906 16.3102 47.1788 16.3102 47.6074 16.7415L49.1868 18.3302L49.9314 17.5699C49.9991 17.5018 49.9991 17.3429 49.9314 17.2748L45.2722 12.588C45.1933 12.5086 45.0692 12.5086 44.9789 12.588L36.5406 21.0992L41.493 26.0697L44.4149 23.1305Z" fill="#00B59C"/>
<path d="M50.8667 66.6055H19.6628V69H50.8667V66.6055Z" fill="#00B59C"/>
<path d="M65.4085 2H4.59146C2.05318 2 0 4.07673 0 6.63009V52.0685C0 54.6218 2.06446 56.6986 4.59146 56.6986H65.4085C67.9468 56.6986 70 54.6332 70 52.0912V6.64143C70.0112 4.08808 67.9468 2 65.4085 2ZM35.2651 53.8048C34.6333 53.8048 34.1257 53.2941 34.1257 52.6586C34.1257 52.0231 34.6333 51.5124 35.2651 51.5124C35.8968 51.5124 36.4045 52.0231 36.4045 52.6586C36.4045 53.2941 35.8968 53.8048 35.2651 53.8048ZM65.3634 47.4838C65.3634 48.0966 64.8783 48.5846 64.2691 48.5846H5.74214C5.13295 48.5846 4.64786 48.0966 4.64786 47.4838V7.78761C4.64786 7.1748 5.13295 6.68683 5.74214 6.68683H64.2578C64.867 6.68683 65.3521 7.1748 65.3521 7.78761V47.4838H65.3634Z" fill="#00B59C"/>
<path d="M6.83924 46.3831H63.1664V8.88847H6.83924V46.3831ZM18.5266 36.147L26.9649 27.6471L22.8247 23.4823C22.8134 23.471 22.8134 23.4596 22.8022 23.4483C22.7232 23.3688 22.6668 23.2667 22.6104 23.1646C22.5991 23.1419 22.5878 23.1192 22.5765 23.0851C22.5653 23.0624 22.554 23.0511 22.554 23.0397L19.9819 14.8917C19.7675 14.2221 19.948 13.4959 20.4444 12.9965C20.9408 12.4972 21.6628 12.3156 22.3284 12.5313L30.4283 15.1073C30.4508 15.1187 30.4621 15.13 30.4847 15.13C30.5072 15.1414 30.5411 15.1527 30.5636 15.164C30.6652 15.2094 30.7554 15.2775 30.8457 15.3456C30.857 15.357 30.8682 15.357 30.8795 15.3683L35.0084 19.5445L43.4581 11.0333C44.3944 10.0914 45.9061 10.0914 46.8424 11.0333L51.5016 15.7201C51.9528 16.174 52.201 16.7755 52.201 17.4224C52.201 18.0692 51.9528 18.6707 51.5016 19.1246L46.7635 23.8909C46.7522 23.9022 46.7522 23.9022 46.7522 23.9136C46.7409 23.9136 46.7409 23.9249 46.7296 23.9249L43.052 27.6244L47.666 32.2545C48.9859 33.5823 48.9859 35.7271 47.666 37.0548L44.3944 40.3458C43.7627 40.9927 42.9053 41.3445 42.0141 41.3445C41.1116 41.3445 40.2655 40.9927 39.6337 40.3458L35.0084 35.7271L31.342 39.4266C31.3308 39.438 31.3308 39.4493 31.3308 39.4493C31.3195 39.4607 31.3082 39.4607 31.3082 39.4607L28.1156 42.6722C28.1043 42.6836 28.1043 42.6836 28.1043 42.6949C28.1043 42.7063 28.0931 42.7063 28.0818 42.7063L26.5701 44.2269C26.1076 44.6922 25.4871 44.9305 24.8779 44.9305C24.2687 44.9305 23.6483 44.6922 23.1857 44.2269L18.5266 39.5401C18.0753 39.0862 17.8271 38.4847 17.8271 37.8379C17.8159 37.2024 18.0753 36.6009 18.5266 36.147Z" fill="#00B59C"/>
</svg>
