<svg width="72" height="72" viewBox="0 0 72 72" fill="none" xmlns="http://www.w3.org/2000/svg">
<path d="M65.0909 15.4118H68V13.9412C68 12.3174 66.697 11 65.0909 11H6.90909C5.30304 11 4 12.3174 4 13.9412V15.4118H6.90909C7.71216 15.4118 8.36364 16.0705 8.36364 16.8824V18.3529C8.36364 19.1649 7.71212 19.8235 6.90909 19.8235H4V52.1765H6.90909C7.71216 52.1765 8.36364 52.8352 8.36364 53.6471V55.1176C8.36364 55.9296 7.71212 56.5882 6.90909 56.5882H4V58.0588C4 59.6826 5.30304 61 6.90909 61H65.0909C66.697 61 68 59.6826 68 58.0588V56.5882H65.0909C64.2878 56.5882 63.6364 55.9295 63.6364 55.1176V53.6471C63.6364 52.8351 64.2879 52.1765 65.0909 52.1765H68V19.8235H65.0909C64.2878 19.8235 63.6364 19.1648 63.6364 18.3529V16.8824C63.6364 16.0704 64.2879 15.4118 65.0909 15.4118ZM43.2727 16.8824C43.2727 16.0704 43.9242 15.4118 44.7273 15.4118H47.6364C48.4394 15.4118 49.0909 16.0705 49.0909 16.8824V18.3529C49.0909 19.1649 48.4394 19.8235 47.6364 19.8235H44.7273C43.9242 19.8235 43.2727 19.1648 43.2727 18.3529V16.8824ZM33.0909 16.8824C33.0909 16.0704 33.7424 15.4118 34.5455 15.4118H37.4545C38.2576 15.4118 38.9091 16.0705 38.9091 16.8824V18.3529C38.9091 19.1649 38.2576 19.8235 37.4545 19.8235H34.5455C33.7424 19.8235 33.0909 19.1648 33.0909 18.3529V16.8824ZM22.9091 16.8824C22.9091 16.0704 23.5606 15.4118 24.3636 15.4118H27.2727C28.0758 15.4118 28.7273 16.0705 28.7273 16.8824V18.3529C28.7273 19.1649 28.0758 19.8235 27.2727 19.8235H24.3636C23.5606 19.8235 22.9091 19.1648 22.9091 18.3529V16.8824ZM12.7273 16.8824C12.7273 16.0704 13.3788 15.4118 14.1818 15.4118H17.0909C17.894 15.4118 18.5455 16.0705 18.5455 16.8824V18.3529C18.5455 19.1649 17.8939 19.8235 17.0909 19.8235H14.1818C13.3788 19.8235 12.7273 19.1648 12.7273 18.3529V16.8824ZM18.5455 55.1176C18.5455 55.9296 17.8939 56.5882 17.0909 56.5882H14.1818C13.3788 56.5882 12.7273 55.9295 12.7273 55.1176V53.6471C12.7273 52.8351 13.3788 52.1765 14.1818 52.1765H17.0909C17.894 52.1765 18.5455 52.8352 18.5455 53.6471V55.1176ZM12.7273 36C12.7273 31.9375 15.9818 28.6471 20 28.6471C21.0546 28.6471 22.0485 28.886 22.9546 29.2935C21.4182 31.095 20.4848 33.4356 20.4848 36C20.4848 38.5644 21.4182 40.905 22.9546 42.7065C22.0515 43.114 21.0546 43.353 20 43.353C15.9818 43.353 12.7273 40.0625 12.7273 36ZM28.7273 55.1176C28.7273 55.9296 28.0758 56.5882 27.2727 56.5882H24.3636C23.5606 56.5882 22.9091 55.9295 22.9091 55.1176V53.6471C22.9091 52.8351 23.5606 52.1765 24.3636 52.1765H27.2727C28.0758 52.1765 28.7273 52.8352 28.7273 53.6471V55.1176ZM23.3939 36C23.3939 31.9375 26.6485 28.6471 30.6667 28.6471C31.7212 28.6471 32.7151 28.886 33.6212 29.2935C32.0848 31.095 31.1515 33.4356 31.1515 36C31.1515 38.5644 32.0848 40.905 33.6212 42.7065C32.7182 43.114 31.7212 43.353 30.6667 43.353C26.6485 43.353 23.3939 40.0625 23.3939 36ZM38.9091 55.1176C38.9091 55.9296 38.2576 56.5882 37.4545 56.5882H34.5455C33.7424 56.5882 33.0909 55.9295 33.0909 55.1176V53.6471C33.0909 52.8351 33.7424 52.1765 34.5455 52.1765H37.4545C38.2576 52.1765 38.9091 52.8352 38.9091 53.6471V55.1176ZM34.0606 36C34.0606 31.9375 37.3151 28.6471 41.3333 28.6471C42.3879 28.6471 43.3818 28.886 44.2879 29.2935C42.7515 31.095 41.8182 33.4356 41.8182 36C41.8182 38.5644 42.7515 40.905 44.2879 42.7065C43.3848 43.114 42.3879 43.353 41.3333 43.353C37.3151 43.353 34.0606 40.0625 34.0606 36ZM49.0909 55.1176C49.0909 55.9296 48.4394 56.5882 47.6364 56.5882H44.7273C43.9242 56.5882 43.2727 55.9295 43.2727 55.1176V53.6471C43.2727 52.8351 43.9242 52.1765 44.7273 52.1765H47.6364C48.4394 52.1765 49.0909 52.8352 49.0909 53.6471V55.1176ZM59.2727 55.1176C59.2727 55.9296 58.6212 56.5882 57.8182 56.5882H54.9091C54.106 56.5882 53.4545 55.9295 53.4545 55.1176V53.6471C53.4545 52.8351 54.1061 52.1765 54.9091 52.1765H57.8182C58.6212 52.1765 59.2727 52.8352 59.2727 53.6471V55.1176ZM52 43.3529C47.9818 43.3529 44.7273 40.0625 44.7273 36C44.7273 31.9375 47.9818 28.6471 52 28.6471C56.0182 28.6471 59.2727 31.9375 59.2727 36C59.2727 40.0625 56.0182 43.3529 52 43.3529ZM59.2727 18.3529C59.2727 19.1649 58.6212 19.8235 57.8182 19.8235H54.9091C54.106 19.8235 53.4545 19.1648 53.4545 18.3529V16.8824C53.4545 16.0704 54.1061 15.4118 54.9091 15.4118H57.8182C58.6212 15.4118 59.2727 16.0705 59.2727 16.8824V18.3529Z" fill="white"/>
</svg>
