<svg width="72" height="72" viewBox="0 0 72 72" fill="none" xmlns="http://www.w3.org/2000/svg">
<g clip-path="url(#clip0_1511_17247)">
<path fill-rule="evenodd" clip-rule="evenodd" d="M53.1119 50.8682C52.8719 50.8662 52.626 50.923 52.3971 51.0297C52.1372 51.1334 51.8742 51.2521 51.6273 51.3568L51.2604 51.5084L50.7836 51.6968V51.7028C45.6172 53.7929 40.1909 55.0174 35.1694 55.1251C34.9855 55.1311 34.8005 55.1311 34.6186 55.1311C26.723 55.1351 20.28 51.4815 13.777 47.8817C13.5491 47.763 13.3202 47.7002 13.0913 47.7002C12.7973 47.7002 12.4984 47.8089 12.2805 48.0133C12.0616 48.2177 11.9316 48.5159 11.9336 48.818C11.9326 49.2119 12.1456 49.5719 12.4405 49.8052C18.5426 55.0892 25.2295 59.9992 34.2217 60.0032C34.3977 60.0032 34.5756 59.9992 34.7565 59.9953C40.4758 59.8666 46.9478 57.9401 51.9682 54.793L51.9972 54.7731C52.655 54.3812 53.3128 53.9355 53.9326 53.4409C54.3195 53.1547 54.5844 52.711 54.5804 52.2473C54.5684 51.4256 53.8676 50.8682 53.1119 50.8682Z" fill="white"/>
<path fill-rule="evenodd" clip-rule="evenodd" d="M60.0854 47.949V47.947C60.0655 47.4445 59.9585 47.0645 59.7496 46.7474L59.7286 46.7185L59.7036 46.6876C59.4906 46.4563 59.2877 46.3685 59.0648 46.2708C58.407 46.0175 57.4483 45.8829 56.2926 45.8789C55.4629 45.8789 54.5452 45.9567 53.6275 46.1571L53.6255 46.0963L52.6977 46.4044L52.6817 46.4124L52.1589 46.5819V46.6048C51.5461 46.8581 50.9873 47.1752 50.4684 47.5492C50.1485 47.7905 49.8786 48.1086 49.8636 48.5972C49.8556 48.8624 49.9906 49.1676 50.2175 49.349C50.4404 49.5305 50.7014 49.5904 50.9303 49.5904C50.9853 49.5904 51.0353 49.5884 51.0802 49.5804L51.1252 49.5764L51.1602 49.5704C51.6131 49.4747 52.2729 49.4109 53.0446 49.3012C53.7064 49.2294 54.4092 49.1745 55.019 49.1745C55.4509 49.1725 55.8368 49.2015 56.1027 49.2603C56.2356 49.2872 56.3346 49.3221 56.3916 49.35C56.4096 49.358 56.4226 49.366 56.4306 49.371C56.4426 49.4079 56.4596 49.5016 56.4576 49.6362C56.4636 50.1448 56.2446 51.0871 55.9497 52.0065C55.6608 52.9279 55.3089 53.8513 55.075 54.4645C55.02 54.6071 54.985 54.7607 54.985 54.9302C54.981 55.1775 55.081 55.4756 55.2959 55.6741C55.5049 55.8725 55.7748 55.9503 56.0027 55.9503H56.0127C56.3546 55.9463 56.6435 55.8117 56.8934 55.6172C59.2447 53.5082 60.0605 50.1448 60.0934 48.2492L60.0854 47.949Z" fill="white"/>
<path fill-rule="evenodd" clip-rule="evenodd" d="M38.5986 25.3551C37.216 25.4588 35.6225 25.5635 34.028 25.7739C31.5857 26.0949 29.1405 26.5158 27.1231 27.472C23.1923 29.0615 20.5352 32.4529 20.5352 37.4327C20.5352 43.688 24.5719 46.8669 29.6733 46.8669C31.3718 46.8669 32.7564 46.6525 34.027 46.3374C36.0473 45.7002 37.7468 44.5356 39.7672 42.4126C40.9348 44.0041 41.2547 44.748 43.2721 46.4421C43.8029 46.6525 44.3338 46.6525 44.7576 46.3374C46.0343 45.2764 48.2666 43.3669 49.4342 42.3099C49.967 41.8851 49.8601 41.2489 49.5392 40.7224C48.3735 39.2366 47.2019 37.9642 47.2019 35.1014V25.5635C47.2019 21.5359 47.5218 17.8254 44.5467 15.0733C42.1045 12.8496 38.2787 12 35.3036 12H34.027C28.6107 12.3131 22.8714 14.6465 21.5968 21.3255C21.3839 22.1751 22.0227 22.4902 22.4486 22.5949L28.3967 23.3368C29.0375 23.2321 29.3534 22.6996 29.4604 22.1741C29.9912 19.8407 31.9026 18.674 34.027 18.4616H34.4548C35.7294 18.4616 37.11 18.9931 37.8538 20.0531C38.7035 21.3245 38.5976 23.0217 38.5976 24.5055L38.5986 25.3551ZM37.4309 37.9642C36.6872 39.444 35.4105 40.3983 34.028 40.7224C33.817 40.7224 33.4991 40.8271 33.1782 40.8271C30.843 40.8271 29.4604 39.0232 29.4604 36.3747C29.4604 32.9824 31.4798 31.3929 34.027 30.651C35.4095 30.3339 37.0031 30.2262 38.5976 30.2262V31.4996C38.5986 33.9367 38.7035 35.8433 37.4309 37.9642Z" fill="white"/>
</g>
<defs>
<clipPath id="clip0_1511_17247">
<rect width="72" height="72" rx="4" fill="white"/>
</clipPath>
</defs>
</svg>
