<svg width="72" height="72" viewBox="0 0 72 72" fill="none" xmlns="http://www.w3.org/2000/svg">
<path d="M69.7839 29.8879C65.9399 27.3619 51.1826 41.3523 47.6836 45.2277C48.5286 46.1556 51.3393 49.3026 52.1843 50.2305C57.5434 46.3529 71.8369 33.5682 69.7839 29.8879Z" fill="white"/>
<path d="M41.1313 52.4271C38.3341 53.8997 38.612 57.2102 34.7031 57.3223C35.25 58.3712 36.1914 59.7519 37.581 60.245C40.7324 61.3501 46.06 56.7171 43.9284 53.5655C43.3546 52.6152 42.1893 51.9071 41.1313 52.4271Z" fill="white"/>
<path d="M45.4631 52.642C45.741 53.0835 45.9427 53.5811 46.0548 54.0944C47.3458 53.5027 48.9327 52.5433 50.7258 51.2882C49.8965 50.3535 47.3167 47.507 46.4851 46.5723C45.1134 48.1681 44.0376 49.5847 43.3203 50.7592C44.2236 51.1268 44.9252 51.7634 45.4631 52.642Z" fill="white"/>
<path d="M31.1953 34.6571L37.3458 31.9046C37.6417 31.7612 38.0003 31.806 38.2603 32.0122L40.0982 33.4467L43.541 31.9046C43.8369 31.7612 44.1955 31.806 44.4555 32.0122L46.1859 33.3571V28.0674H31.1955L31.1953 34.6571Z" fill="white"/>
<path d="M41.7029 34.6931L42.5278 35.3387C43.4579 36.0649 42.3574 37.4612 41.425 36.7462C39.4526 35.2131 39.4167 35.1862 39.3808 35.1594C41.425 36.7462 39.4884 35.24 39.4884 35.24C39.3808 35.1594 37.5788 33.7607 37.5788 33.7607L31.1953 36.6297V40.2249H46.1857V35.6256L43.7829 33.7607L41.7029 34.6931Z" fill="white"/>
<path d="M51.5671 52.8929C49.4602 54.3452 47.5954 55.4211 46.134 56.0129C45.8829 57.6625 44.816 59.4108 42.6105 60.8632C37.1236 64.6243 33.4143 59.7537 32.4349 56.5597C32.2309 55.9367 32.8181 55.2709 33.4569 55.4122C35.8327 55.8515 36.3707 55.0894 37.339 53.6997C38.0495 52.6104 39.5871 50.7165 41.3914 50.499C43.8815 46.1216 49.1554 40.9173 53.3602 37.2123V20.94C53.3602 18.2145 51.1457 16 48.4291 16H28.9557C26.2301 16 24.0156 18.2145 24.0156 20.94V63.06C24.0156 65.7855 26.2301 68 28.9557 68H48.4291C51.1457 68 53.3602 65.7855 53.3602 63.06V51.6019C52.7685 52.0345 52.1588 52.4737 51.5671 52.8929ZM47.9809 41.1209C47.9809 41.614 47.5774 42.0174 47.0843 42.0174H30.3009C29.8077 42.0174 29.4043 41.614 29.4043 41.1209V27.1708C29.4043 26.6777 29.8077 26.2742 30.3009 26.2742H47.0843C47.5774 26.2742 47.9809 26.6777 47.9809 27.1708V41.1209ZM42.8795 19.4957C42.8795 19.9888 42.4761 20.3923 41.983 20.3923H35.4021C34.9 20.3923 34.5056 19.9888 34.5056 19.4957C34.5056 19.0026 34.9 18.5992 35.4021 18.5992H41.983C42.4761 18.5992 42.8795 19.0026 42.8795 19.4957Z" fill="white"/>
</svg>
