<svg width="72" height="72" viewBox="0 0 72 72" fill="none" xmlns="http://www.w3.org/2000/svg">
<g clip-path="url(#clip0_1511_17253)">
<path d="M55.5276 57.898C55.761 58.3552 56.1575 58.6954 56.6481 58.855C57.6558 59.1837 58.7456 58.63 59.074 57.6202L66.959 35.1788C66.1649 35.3013 65.356 35.2503 64.5728 34.9955C63.6685 34.7006 62.9015 34.1629 62.2856 33.463L55.4196 56.4135C55.2531 56.9176 55.2942 57.4407 55.5276 57.898Z" fill="white"/>
<path d="M62.8164 31.6611C63.3165 32.5715 64.0686 33.2632 65.0277 33.5746C65.8525 33.8412 66.7165 33.7904 67.542 33.4929C67.8697 33.3747 68.1905 33.2171 68.4982 33.021C68.8944 32.7719 69.2684 32.462 69.6128 32.1009C70.3018 31.3787 70.8706 30.4515 71.2203 29.3736C71.5718 28.2934 71.5056 27.2348 71.4341 26.1155L71.399 25.5178C71.2366 22.3438 72.6624 20.3758 74.459 19.0386C70.3591 19.3164 67.2178 20.4719 64.9106 22.5371C64.1453 23.2222 62.9907 24.9901 62.4887 26.5322C62.2447 27.2824 62.1278 28.036 62.1233 28.759C62.1183 29.3912 62.2031 29.9977 62.3647 30.5588C62.4786 30.9546 62.6292 31.3228 62.8164 31.6611Z" fill="white"/>
<path d="M53.6061 16H18.9394C17.8947 16.0004 16.893 16.4156 16.1543 17.1543C15.4156 17.893 15.0004 18.8947 15 19.9394V64.0606C15.0004 65.1053 15.4156 66.107 16.1543 66.8457C16.893 67.5844 17.8947 67.9996 18.9394 68H53.6061C54.6507 67.9996 55.6525 67.5844 56.3912 66.8457C57.1299 66.107 57.545 65.1053 57.5455 64.0606V19.9394C57.545 18.8947 57.1299 17.893 56.3912 17.1543C55.6525 16.4156 54.6507 16.0004 53.6061 16ZM21.303 29.3939H24.4545C24.6635 29.3939 24.8639 29.4769 25.0117 29.6247C25.1594 29.7725 25.2424 29.9729 25.2424 30.1818C25.2424 30.3908 25.1594 30.5912 25.0117 30.7389C24.8639 30.8867 24.6635 30.9697 24.4545 30.9697H21.303C20.6797 30.9697 20.0704 30.7849 19.5521 30.4386C19.0339 30.0923 18.6299 29.6001 18.3914 29.0242C18.1529 28.4483 18.0905 27.8147 18.2121 27.2034C18.3337 26.592 18.6338 26.0305 19.0746 25.5897C19.5153 25.149 20.0769 24.8488 20.6882 24.7272C21.2995 24.6056 21.9332 24.668 22.5091 24.9066C23.0849 25.1451 23.5771 25.549 23.9234 26.0673C24.2697 26.5856 24.4545 27.1949 24.4545 27.8182C24.4545 28.0271 24.3715 28.2275 24.2238 28.3753C24.076 28.5231 23.8756 28.6061 23.6667 28.6061C23.4577 28.6061 23.2573 28.5231 23.1096 28.3753C22.9618 28.2275 22.8788 28.0271 22.8788 27.8182C22.8788 27.5065 22.7864 27.2019 22.6132 26.9427C22.4401 26.6836 22.194 26.4816 21.906 26.3624C21.6181 26.2431 21.3013 26.2119 20.9956 26.2727C20.6899 26.3335 20.4092 26.4836 20.1888 26.704C19.9684 26.9243 19.8184 27.2051 19.7576 27.5108C19.6967 27.8164 19.728 28.1333 19.8472 28.4212C19.9665 28.7091 20.1685 28.9552 20.4276 29.1284C20.6867 29.3015 20.9914 29.3939 21.303 29.3939ZM29.4339 28.0309C29.5829 27.891 29.7804 27.8144 29.9847 27.8174C30.189 27.8203 30.3842 27.9025 30.5291 28.0467L41.5594 39.077C41.6329 39.1504 41.6911 39.2376 41.7309 39.3336C41.7706 39.4296 41.7911 39.5325 41.7911 39.6364C41.7911 39.7403 41.7706 39.8431 41.7309 39.9391C41.6911 40.0351 41.6329 40.1223 41.5594 40.1958C41.4859 40.2692 41.3987 40.3275 41.3027 40.3672C41.2068 40.407 41.1039 40.4275 41 40.4275C40.8961 40.4275 40.7932 40.407 40.6973 40.3672C40.6013 40.3275 40.5141 40.2692 40.4406 40.1958L29.9539 29.7012L18.6873 40.2115C18.5337 40.3472 18.3332 40.4175 18.1285 40.4075C17.9238 40.3975 17.7311 40.308 17.5915 40.1581C17.4518 40.0081 17.3762 39.8096 17.3807 39.6047C17.3852 39.3998 17.4696 39.2048 17.6158 39.0612L29.4339 28.0309ZM54.1103 38.2418C54.2696 38.3766 54.3696 38.5685 54.3888 38.7763C54.4079 38.9841 54.3447 39.1911 54.2127 39.3527C54.139 39.4421 54.0463 39.5139 53.9414 39.563C53.8364 39.612 53.7219 39.6371 53.6061 39.6364C53.4223 39.6351 53.2444 39.5712 53.1018 39.4552L44.1515 31.9939L39.9285 35.5158C39.8488 35.582 39.7569 35.6319 39.6579 35.6625C39.559 35.6932 39.455 35.7041 39.3518 35.6946C39.2487 35.6851 39.1484 35.6554 39.0567 35.6071C38.9651 35.5588 38.8838 35.493 38.8176 35.4133C38.7514 35.3337 38.7015 35.2417 38.6708 35.1428C38.6401 35.0438 38.6292 34.9398 38.6387 34.8367C38.6482 34.7335 38.678 34.6332 38.7262 34.5416C38.7745 34.4499 38.8403 34.3686 38.92 34.3024L43.6473 30.363C43.7886 30.2447 43.9671 30.1798 44.1515 30.1798C44.3359 30.1798 44.5144 30.2447 44.6558 30.363L54.1103 38.2418ZM46.5152 27.8182C46.5152 27.3507 46.6538 26.8937 46.9135 26.505C47.1732 26.1163 47.5424 25.8134 47.9743 25.6345C48.4062 25.4556 48.8814 25.4088 49.3399 25.5C49.7984 25.5912 50.2196 25.8163 50.5501 26.1468C50.8807 26.4774 51.1058 26.8986 51.197 27.3571C51.2882 27.8156 51.2414 28.2908 51.0625 28.7227C50.8836 29.1546 50.5807 29.5238 50.192 29.7835C49.8033 30.0432 49.3463 30.1818 48.8788 30.1818C48.2525 30.1799 47.6524 29.9303 47.2095 29.4875C46.7666 29.0446 46.517 28.4445 46.5152 27.8182ZM31.5455 53.0303C32.1718 53.0322 32.7719 53.2818 33.2147 53.7247C33.6576 54.1675 33.9072 54.7676 33.9091 55.3939V61.697C33.9072 62.3233 33.6576 62.9234 33.2147 63.3662C32.7719 63.8091 32.1718 64.0587 31.5455 64.0606H22.0909C21.4646 64.0587 20.8645 63.8091 20.4216 63.3662C19.9788 62.9234 19.7291 62.3233 19.7273 61.697V55.3939C19.7291 54.7676 19.9788 54.1675 20.4216 53.7247C20.8645 53.2818 21.4646 53.0322 22.0909 53.0303H31.5455ZM25.2424 47.5152C25.2424 46.8918 25.4273 46.2825 25.7736 45.7643C26.1198 45.246 26.612 44.8421 27.1879 44.6035C27.7638 44.365 28.3974 44.3026 29.0088 44.4242C29.6201 44.5458 30.1816 44.8459 30.6224 45.2867C31.0631 45.7274 31.3633 46.289 31.4849 46.9003C31.6065 47.5117 31.5441 48.1453 31.3056 48.7212C31.067 49.2971 30.6631 49.7892 30.1448 50.1355C29.6266 50.4818 29.0172 50.6667 28.3939 50.6667C27.98 50.6668 27.5702 50.5853 27.1878 50.427C26.8054 50.2686 26.4579 50.0365 26.1653 49.7438C25.8726 49.4512 25.6404 49.1037 25.4821 48.7213C25.3238 48.3389 25.2423 47.929 25.2424 47.5152ZM48.0909 53.0303C48.2999 53.0303 48.5003 53.1133 48.648 53.2611C48.7958 53.4088 48.8788 53.6092 48.8788 53.8182C48.8788 54.0271 48.7958 54.2275 48.648 54.3753C48.5003 54.5231 48.2999 54.6061 48.0909 54.6061H38.6364C38.4274 54.6061 38.227 54.5231 38.0792 54.3753C37.9315 54.2275 37.8485 54.0271 37.8485 53.8182C37.8485 53.6092 37.9315 53.4088 38.0792 53.2611C38.227 53.1133 38.4274 53.0303 38.6364 53.0303H48.0909ZM41 47.5152C41 46.8918 41.1848 46.2825 41.5311 45.7643C41.8774 45.246 42.3696 44.8421 42.9455 44.6035C43.5213 44.365 44.155 44.3026 44.7663 44.4242C45.3777 44.5458 45.9392 44.8459 46.38 45.2867C46.8207 45.7274 47.1209 46.289 47.2425 46.9003C47.3641 47.5117 47.3017 48.1453 47.0631 48.7212C46.8246 49.2971 46.4207 49.7892 45.9024 50.1355C45.3841 50.4818 44.7748 50.6667 44.1515 50.6667C43.7376 50.6668 43.3278 50.5853 42.9454 50.427C42.563 50.2686 42.2155 50.0365 41.9228 49.7438C41.6302 49.4512 41.398 49.1037 41.2397 48.7213C41.0813 48.3389 40.9999 47.929 41 47.5152ZM52.0303 60.9091H38.6364C38.4274 60.9091 38.227 60.8261 38.0792 60.6783C37.9315 60.5306 37.8485 60.3302 37.8485 60.1212C37.8485 59.9123 37.9315 59.7119 38.0792 59.5641C38.227 59.4163 38.4274 59.3333 38.6364 59.3333H52.0303C52.2393 59.3333 52.4397 59.4163 52.5874 59.5641C52.7352 59.7119 52.8182 59.9123 52.8182 60.1212C52.8182 60.3302 52.7352 60.5306 52.5874 60.6783C52.4397 60.8261 52.2393 60.9091 52.0303 60.9091ZM52.8182 63.2727C52.8176 63.4815 52.7343 63.6815 52.5867 63.8292C52.4391 63.9768 52.2391 64.06 52.0303 64.0606H38.6364C38.4274 64.0606 38.227 63.9776 38.0792 63.8298C37.9315 63.6821 37.8485 63.4817 37.8485 63.2727C37.8485 63.0638 37.9315 62.8634 38.0792 62.7156C38.227 62.5679 38.4274 62.4848 38.6364 62.4848H52.0303C52.2391 62.4855 52.4391 62.5687 52.5867 62.7163C52.7343 62.8639 52.8176 63.064 52.8182 63.2727ZM52.0303 57.7576H38.6364C38.4274 57.7576 38.227 57.6746 38.0792 57.5268C37.9315 57.3791 37.8485 57.1787 37.8485 56.9697C37.8485 56.7607 37.9315 56.5603 38.0792 56.4126C38.227 56.2648 38.4274 56.1818 38.6364 56.1818H52.0303C52.2393 56.1818 52.4397 56.2648 52.5874 56.4126C52.7352 56.5603 52.8182 56.7607 52.8182 56.9697C52.8182 57.1787 52.7352 57.3791 52.5874 57.5268C52.4397 57.6746 52.2393 57.7576 52.0303 57.7576ZM36.2727 50.6667C35.6494 50.6667 35.0401 50.4818 34.5218 50.1355C34.0036 49.7892 33.5996 49.2971 33.3611 48.7212C33.1226 48.1453 33.0602 47.5117 33.1818 46.9003C33.3034 46.289 33.6035 45.7274 34.0443 45.2867C34.485 44.8459 35.0466 44.5458 35.6579 44.4242C36.2692 44.3026 36.9029 44.365 37.4788 44.6035C38.0546 44.8421 38.5468 45.246 38.8931 45.7643C39.2394 46.2825 39.4242 46.8918 39.4242 47.5152C39.4243 47.929 39.3429 48.3389 39.1846 48.7213C39.0262 49.1037 38.7941 49.4512 38.5014 49.7438C38.2087 50.0365 37.8613 50.2686 37.4789 50.427C37.0965 50.5853 36.6866 50.6668 36.2727 50.6667ZM21.303 49.8788C20.8355 49.8788 20.3786 49.7402 19.9899 49.4804C19.6012 49.2207 19.2982 48.8516 19.1193 48.4197C18.9404 47.9878 18.8936 47.5125 18.9848 47.054C19.076 46.5955 19.3011 46.1744 19.6317 45.8438C19.9622 45.5133 20.3834 45.2881 20.8419 45.1969C21.3004 45.1057 21.7757 45.1525 22.2076 45.3314C22.6395 45.5103 23.0086 45.8133 23.2683 46.202C23.528 46.5907 23.6667 47.0477 23.6667 47.5152C23.6648 48.1415 23.4152 48.7416 22.9723 49.1844C22.5294 49.6273 21.9293 49.8769 21.303 49.8788ZM51.2424 49.8788C50.7749 49.8788 50.318 49.7402 49.9293 49.4804C49.5406 49.2207 49.2376 48.8516 49.0587 48.4197C48.8798 47.9878 48.833 47.5125 48.9242 47.054C49.0154 46.5955 49.2405 46.1744 49.5711 45.8438C49.9016 45.5133 50.3228 45.2881 50.7813 45.1969C51.2398 45.1057 51.715 45.1525 52.1469 45.3314C52.5788 45.5103 52.948 45.8133 53.2077 46.202C53.4674 46.5907 53.6061 47.0477 53.6061 47.5152C53.6042 48.1415 53.3546 48.7416 52.9117 49.1844C52.4688 49.6273 51.8687 49.8769 51.2424 49.8788ZM55.9697 21.5152H16.5758V19.9394C16.5776 19.3131 16.8273 18.713 17.2701 18.2701C17.713 17.8273 18.3131 17.5776 18.9394 17.5758H53.6061C54.2324 17.5776 54.8325 17.8273 55.2753 18.2701C55.7182 18.713 55.9678 19.3131 55.9697 19.9394V21.5152Z" fill="white"/>
<path d="M20.5133 19.1514H19.7254C19.5164 19.1514 19.316 19.2344 19.1683 19.3821C19.0205 19.5299 18.9375 19.7303 18.9375 19.9392C18.9375 20.1482 19.0205 20.3486 19.1683 20.4964C19.316 20.6441 19.5164 20.7271 19.7254 20.7271H20.5133C20.7222 20.7271 20.9226 20.6441 21.0704 20.4964C21.2181 20.3486 21.3011 20.1482 21.3011 19.9392C21.3011 19.7303 21.2181 19.5299 21.0704 19.3821C20.9226 19.2344 20.7222 19.1514 20.5133 19.1514ZM24.4527 19.1514H23.6648C23.4558 19.1514 23.2554 19.2344 23.1077 19.3821C22.9599 19.5299 22.8769 19.7303 22.8769 19.9392C22.8769 20.1482 22.9599 20.3486 23.1077 20.4964C23.2554 20.6441 23.4558 20.7271 23.6648 20.7271H24.4527C24.6616 20.7271 24.862 20.6441 25.0098 20.4964C25.1575 20.3486 25.2405 20.1482 25.2405 19.9392C25.2405 19.7303 25.1575 19.5299 25.0098 19.3821C24.862 19.2344 24.6616 19.1514 24.4527 19.1514ZM28.392 19.1514H27.6042C27.3952 19.1514 27.1948 19.2344 27.0471 19.3821C26.8993 19.5299 26.8163 19.7303 26.8163 19.9392C26.8163 20.1482 26.8993 20.3486 27.0471 20.4964C27.1948 20.6441 27.3952 20.7271 27.6042 20.7271H28.392C28.601 20.7271 28.8014 20.6441 28.9492 20.4964C29.0969 20.3486 29.1799 20.1482 29.1799 19.9392C29.1799 19.7303 29.0969 19.5299 28.9492 19.3821C28.8014 19.2344 28.601 19.1514 28.392 19.1514Z" fill="white"/>
</g>
<defs>
<clipPath id="clip0_1511_17253">
<rect width="72" height="72" rx="4" fill="white"/>
</clipPath>
</defs>
</svg>
