<svg width="72" height="72" viewBox="0 0 72 72" fill="none" xmlns="http://www.w3.org/2000/svg">
<path d="M51.7735 21.3018C51.7589 21.1978 51.7086 21.1022 51.6315 21.0316C51.5544 20.9609 51.4552 20.9196 51.3511 20.9148C51.1591 20.9148 47.7769 20.8373 47.7769 20.8373C47.7769 20.8373 45.7022 18.8226 44.9332 18.0475V59.9226L57 56.9034C57 56.9034 51.8119 21.5341 51.7735 21.3018ZM42.2048 18.0475C42.0205 17.4614 41.789 16.8914 41.5126 16.3434C40.5103 14.407 39.0145 13.357 37.2461 13.357C37.117 13.3525 36.9878 13.3655 36.8621 13.3958C36.8237 13.3183 36.7469 13.2796 36.7085 13.2022C35.9405 12.3535 34.942 11.9665 33.7497 12.0023C31.4456 12.0797 29.1414 13.7441 27.2934 16.7275C25.9867 18.8197 24.9893 21.4538 24.7185 23.5072C22.0669 24.3201 20.2226 24.9017 20.1842 24.9404C18.8402 25.3662 18.8008 25.4049 18.6482 26.6822C18.533 27.6499 15 54.9215 15 54.9215L44.049 60V17.583C43.9076 17.5883 43.7666 17.6013 43.6266 17.6217C43.6266 17.6217 43.089 17.7765 42.2048 18.0475ZM36.9015 19.7138C35.3654 20.1783 33.6729 20.7202 32.0206 21.2244C32.4814 19.4032 33.404 17.583 34.4803 16.3859C34.9027 15.9601 35.4797 15.456 36.1325 15.1463C36.7863 16.5369 36.9399 18.4355 36.9015 19.7138ZM33.7497 13.5932C34.2337 13.5778 34.7127 13.697 35.134 13.9377C34.5196 14.2473 33.9042 14.7515 33.3282 15.3321C31.868 16.9211 30.7534 19.3964 30.2925 21.7625C28.9082 22.1892 27.5247 22.615 26.2604 23.0021C27.1014 19.2871 30.2138 13.6706 33.7497 13.5932ZM29.2922 34.8989C29.4458 37.3772 35.9405 37.9201 36.3245 43.7688C36.5933 48.3789 33.9033 51.5162 30.0218 51.7494C25.3339 52.0591 22.7591 49.2702 22.7591 49.2702L23.7575 45.0123C23.7575 45.0123 26.3324 46.9884 28.408 46.8335C29.752 46.7561 30.2532 45.6326 30.2138 44.8575C30.0218 41.6041 24.7185 41.7976 24.3729 36.4521C24.0657 31.9581 26.9861 27.4264 33.4424 26.9996C35.9386 26.8448 37.2087 27.4651 37.2087 27.4651L35.7485 33.039C35.7485 33.039 34.0962 32.2649 32.1358 32.4197C29.2922 32.6142 29.2538 34.4335 29.2922 34.8989ZM38.4385 19.2484C38.4385 18.0871 38.2849 16.4208 37.7463 15.0263C39.5147 15.3747 40.3596 17.3488 40.7445 18.5516C40.0527 18.7452 39.284 18.9774 38.4385 19.2484Z" fill="white"/>
</svg>
