<svg width="72" height="72" viewBox="0 0 72 72" fill="none" xmlns="http://www.w3.org/2000/svg">
<path d="M45.2114 45.8059C41.155 41.5312 37.1818 36.9963 37.0155 32.6904C37.0155 32.68 37.0155 32.6696 37.0051 32.6592L36.9739 46.4716C37.4419 46.7836 37.754 47.3141 37.754 47.9173C37.754 48.895 36.9635 49.6751 36.0065 49.6751C35.0289 49.6751 34.2488 48.895 34.2488 47.9173C34.2488 47.3765 34.4985 46.8876 34.8937 46.5756L34.9249 32.8048C34.7064 37.1211 30.7957 41.5936 26.7914 45.8059C26.4169 46.2012 26.4065 46.8148 26.7705 47.2205C28.4035 49.051 29.3604 51.0584 29.6204 53.2218C29.662 53.2114 29.714 53.2114 29.7556 53.2114H42.2471C42.2887 53.2114 42.3407 53.2114 42.3823 53.2218C42.6423 51.0584 43.5993 49.051 45.2321 47.2205C45.5962 46.8148 45.5858 46.2012 45.2114 45.8059Z" fill="white"/>
<path d="M44.1719 57.2048V60.0858C44.1719 61.1467 43.3086 61.9996 42.2477 61.9996H29.7562C28.6953 61.9996 27.832 61.1467 27.832 60.0858V57.2048C27.832 56.1543 28.6953 55.291 29.7562 55.291H42.2477C43.3086 55.291 44.1719 56.1543 44.1719 57.2048Z" fill="white"/>
<path d="M55.3245 10H16.676C14.1367 10 12.0781 12.0585 12.0781 14.5978V17.7504H59.9223V14.5978C59.9223 12.0585 57.8637 10 55.3245 10ZM18.8329 14.9155C18.2585 14.9155 17.7872 14.4498 17.7872 13.8754C17.7872 13.301 18.2473 12.8353 18.8217 12.8353H18.8329C19.4073 12.8353 19.873 13.301 19.873 13.8754C19.873 14.4498 19.4073 14.9155 18.8329 14.9155ZM23.4422 14.9155C22.8678 14.9155 22.3965 14.4498 22.3965 13.8754C22.3965 13.301 22.8566 12.8353 23.431 12.8353H23.4422C24.0166 12.8353 24.4823 13.301 24.4823 13.8754C24.4823 14.4498 24.0166 14.9155 23.4422 14.9155ZM28.0515 14.9155C27.4771 14.9155 27.0058 14.4498 27.0058 13.8754C27.0058 13.301 27.4664 12.8353 28.0408 12.8353H28.0515C28.6259 12.8353 29.0916 13.301 29.0916 13.8754C29.0916 14.4498 28.6259 14.9155 28.0515 14.9155ZM53.1787 14.9155H36.1924C35.6181 14.9155 35.1524 14.4498 35.1524 13.8754C35.1524 13.301 35.6181 12.8353 36.1924 12.8353H53.1787C53.7531 12.8353 54.2188 13.301 54.2188 13.8754C54.2188 14.4498 53.7531 14.9155 53.1787 14.9155Z" fill="white"/>
<path d="M12.0742 19.835V44.2251C12.0742 46.7525 14.144 48.8223 16.6714 48.8223H25.4081C25.3457 48.7495 25.2833 48.6767 25.2209 48.6039C24.1288 47.387 24.1497 45.5669 25.2833 44.3811C28.8821 40.5848 32.7304 36.2372 32.8552 32.6177C32.9176 30.9328 34.2905 29.6118 35.9755 29.6118C37.6604 29.6118 39.0334 30.9328 39.0958 32.6177C39.231 36.1956 43.1001 40.564 46.7196 44.3707C47.8325 45.546 47.8637 47.4078 46.7821 48.6143C46.7197 48.6871 46.6572 48.7495 46.6052 48.8223H55.3316C57.859 48.8223 59.9184 46.7525 59.9184 44.2251V19.835H12.0742ZM23.4424 41.9057C23.4424 42.4778 22.9848 42.9458 22.4023 42.9458H18.4187C17.8467 42.9458 17.3787 42.4778 17.3787 41.9057V37.9222C17.3787 37.3397 17.8467 36.8821 18.4187 36.8821H19.6773C19.9269 36.4764 20.4261 36.2684 20.8942 36.4348C21.1334 36.5181 21.331 36.674 21.4558 36.8821H22.4023C22.9848 36.8821 23.4424 37.3397 23.4424 37.9222V41.9057ZM23.5152 33.8346C23.3488 34.0738 23.1928 34.3235 23.0368 34.5731C22.8391 34.8955 22.4959 35.0619 22.1527 35.0619C21.9654 35.0619 21.7782 35.0203 21.6014 34.9163C21.1126 34.6147 20.967 33.9698 21.2686 33.4809C21.435 33.2002 21.6222 32.9193 21.8095 32.6489C22.1423 32.1808 22.7871 32.0664 23.2552 32.3889C23.7336 32.7217 23.848 33.3666 23.5152 33.8346ZM26.5003 30.6519C26.2714 30.8287 26.053 31.0264 25.8346 31.2136C25.637 31.4008 25.3874 31.484 25.1378 31.484C24.8569 31.484 24.5761 31.3696 24.368 31.1407C23.9832 30.7143 24.0144 30.0591 24.4409 29.6742C24.6905 29.4455 24.9505 29.2374 25.2105 29.0294C25.6578 28.6654 26.3131 28.7381 26.6667 29.1854C27.0307 29.6431 26.9475 30.2879 26.5003 30.6519ZM43.9218 28.2909C43.7449 28.6654 43.3705 28.8838 42.9857 28.8838C42.8297 28.8838 42.6841 28.8526 42.5385 28.7798C42.268 28.655 42.008 28.5405 41.7272 28.4261C41.2799 28.2493 41.0303 27.7813 41.0927 27.3236H39.0958C39.0749 27.3445 39.0542 27.3549 39.0334 27.3653V28.2701C39.0334 28.8422 38.5653 29.3102 37.9933 29.3102H34.0097C33.4377 29.3102 32.9696 28.8422 32.9696 28.2701V27.3756C32.9384 27.3653 32.9176 27.3549 32.8968 27.3236H30.9103C30.9727 27.8021 30.723 28.2597 30.2654 28.4469C29.995 28.5509 29.7349 28.6757 29.4645 28.8005C29.3293 28.863 29.1733 28.8942 29.0277 28.8942C28.6325 28.8942 28.258 28.6757 28.0812 28.3013C27.9356 27.9789 27.9564 27.6045 28.1436 27.3236H23.2655C22.8391 28.4781 21.7158 29.2998 20.4053 29.2998C18.7412 29.2998 17.3787 27.9477 17.3787 26.2835C17.3787 24.6194 18.7412 23.2569 20.4053 23.2569C21.7158 23.2569 22.8391 24.089 23.2655 25.2434H32.9696V24.2866C32.9696 23.7145 33.4377 23.2465 34.0097 23.2465H37.9933C38.5653 23.2465 39.0334 23.7145 39.0334 24.2866V25.2434H48.7582C49.1847 24.089 50.2871 23.2569 51.5977 23.2569C53.2722 23.2569 54.6347 24.6194 54.6347 26.2835C54.6347 27.9477 53.2722 29.2998 51.5977 29.2998C50.2871 29.2998 49.1847 28.4781 48.7582 27.3236H43.8802C44.0466 27.6045 44.0778 27.9685 43.9218 28.2909ZM47.6453 31.12C47.4373 31.3592 47.1565 31.4736 46.8756 31.4736C46.626 31.4736 46.3764 31.38 46.1788 31.2032C45.9603 31.0159 45.742 30.8183 45.5131 30.6415C45.0555 30.2775 44.9827 29.6223 45.3467 29.175C45.7003 28.7278 46.3556 28.655 46.8028 29.0086C47.0628 29.2166 47.3229 29.435 47.5621 29.6534C47.9989 30.0383 48.0301 30.6935 47.6453 31.12ZM48.7582 32.3785C49.2366 32.0457 49.8815 32.1705 50.2039 32.6385C50.4016 32.9089 50.5783 33.1898 50.7552 33.4706C51.0568 33.9594 50.9112 34.6043 50.4224 34.8955C50.2455 35.0099 50.0583 35.0515 49.8711 35.0515C49.5278 35.0515 49.1847 34.8851 48.987 34.5627C48.831 34.3131 48.675 34.0635 48.5086 33.8242C48.1757 33.3561 48.2901 32.7113 48.7582 32.3785ZM54.6555 41.9057C54.6555 42.4778 54.1875 42.9458 53.6155 42.9458H49.6319C49.0494 42.9458 48.5918 42.4778 48.5918 41.9057V37.9222C48.5918 37.3397 49.0494 36.8821 49.6319 36.8821H50.5679C50.6927 36.674 50.8904 36.5181 51.1296 36.4348C51.608 36.2684 52.1073 36.4764 52.3569 36.8821H53.6155C54.1875 36.8821 54.6555 37.3397 54.6555 37.9222V41.9057Z" fill="white"/>
</svg>
