<svg width="353" height="100" viewBox="0 0 353 100" fill="none" xmlns="http://www.w3.org/2000/svg">
<path d="M260.175 77.0386C266.562 77.0386 271.74 71.8607 271.74 65.4734C271.74 59.0861 266.562 53.9082 260.175 53.9082C253.787 53.9082 248.609 59.0861 248.609 65.4734C248.609 71.8607 253.787 77.0386 260.175 77.0386Z" fill="#E62415"/>
<path d="M91.8261 0H107.13V98.6956H91.8261V0ZM162.87 68.2609C162.87 83.5652 150.348 84.7826 146.522 84.7826C136.957 84.7826 135.565 75.8261 135.565 70.4348V32.2609H120.174V70.3478C120.087 79.8261 122.783 87.6522 128 92.8696C132.738 97.0934 138.775 99.5761 145.114 99.9081C151.453 100.24 157.716 98.4015 162.87 94.6957V98.6956H178.261V32.2609H162.87V68.2609ZM211.478 9.91304H196.087V32.2609H185.391V46.7826H196.087V98.6956H211.478V46.7826H224.087V32.2609H211.478V9.91304ZM273.913 79.8261C270.435 82.9565 265.826 84.6957 260.783 84.6957C258.22 84.7682 255.671 84.3156 253.29 83.3657C250.909 82.4157 248.748 80.9885 246.94 79.172C245.131 77.3555 243.714 75.188 242.775 72.8031C241.835 70.4181 241.394 67.8662 241.478 65.3043C241.478 54.087 249.391 46.2609 260.783 46.2609C265.739 46.2609 270.435 47.913 274 51.0435L276.435 53.1304L287.217 42.3478L284.522 39.913C277.992 34.089 269.532 30.8972 260.783 30.9565C240.783 30.9565 226.261 45.3913 226.261 65.2174C226.155 69.788 226.974 74.333 228.669 78.579C230.364 82.825 232.9 86.6845 236.124 89.9254C239.349 93.1664 243.196 95.7218 247.433 97.4382C251.671 99.1545 256.212 99.9963 260.783 99.913C269.913 99.913 278.435 96.6956 284.696 90.8696L287.304 88.4348L276.348 77.6522L273.913 79.8261ZM344.957 38.087C340.218 33.8631 334.182 31.3804 327.843 31.0484C321.504 30.7165 315.241 32.555 310.087 36.2609V0H294.696V98.6956H310.087V62.7826C310.087 47.4783 322.609 46.2609 326.435 46.2609C336 46.2609 337.391 55.2174 337.391 60.6087V98.7826H352.783V60.6087C353.247 52.363 350.434 44.2679 344.957 38.087ZM69.1304 75.0435C66.1361 78.1195 62.5519 80.5597 58.5925 82.2182C54.633 83.8767 50.3797 84.7193 46.087 84.6957C28.2609 84.6957 15.3044 70.6957 15.3044 51.4783C15.3044 32.1739 28.2609 18.1739 46.087 18.1739C54.6957 18.1739 62.8696 21.5652 69.0435 27.7391L71.4783 30.1739L82.1739 19.4783L79.8261 17.0435C75.4139 12.556 70.1477 8.99754 64.3381 6.57812C58.5285 4.1587 52.2932 2.92729 46 2.95652C19.8261 2.95652 0 23.8261 0 51.5652C0 79.1304 19.8261 100 46 100C58.9565 100 70.9565 94.9565 79.8261 85.8261L82.1739 83.3913L71.5652 72.5217L69.1304 75.0435Z" fill="#17313B"/>
</svg>
