<svg width="225" height="100" viewBox="0 0 225 100" fill="none" xmlns="http://www.w3.org/2000/svg">
<path d="M52.881 70.5493V86.8198H47.7305V46.6719H61.4125C64.899 46.6719 67.8308 47.8341 70.2608 50.1584C72.7173 52.4828 73.9587 55.309 73.9587 58.637C73.9587 62.0443 72.7173 64.8705 70.2608 67.1684C67.8573 69.44 64.9254 70.6021 61.4125 70.6021H52.881V70.5493ZM52.881 51.6111V65.6365H61.5181C63.5783 65.6365 65.2688 64.9497 66.6158 63.5498C67.9893 62.1764 68.7025 60.5123 68.7025 58.6106C68.7025 56.7353 68.0157 55.1241 66.6158 53.7242C65.2688 52.2979 63.5783 51.5847 61.5181 51.5847H52.881V51.6111Z" fill="#777677"/>
<path d="M87.7484 58.4551C91.5519 58.4551 94.563 59.4852 96.7817 61.519C98.974 63.5528 100.083 66.3526 100.083 69.892V86.8227H95.1441V83.0193H94.9328C92.7933 86.1624 89.9671 87.7208 86.4014 87.7208C83.3639 87.7208 80.8282 86.8227 78.7944 85.0267C76.7606 83.2306 75.7305 80.9855 75.7305 78.2913C75.7305 75.4387 76.8134 73.1936 78.9529 71.5032C81.0923 69.8127 83.9714 68.9675 87.5635 68.9675C90.6275 68.9675 93.1631 69.5222 95.1441 70.6579V69.4693C95.1441 67.6733 94.4309 66.1413 93.0046 64.8999C91.5783 63.6585 89.9143 63.0245 88.0126 63.0245C85.1335 63.0245 82.862 64.2395 81.1716 66.6696L76.6285 63.8169C79.1642 60.2248 82.862 58.4551 87.7484 58.4551ZM81.0923 78.397C81.0923 79.744 81.6734 80.8534 82.8092 81.7514C83.9449 82.6495 85.292 83.0985 86.824 83.0985C88.9898 83.0985 90.918 82.3061 92.6349 80.6949C94.3253 79.0837 95.1969 77.2084 95.1969 75.0425C93.5857 73.7747 91.3406 73.1408 88.4616 73.1408C86.375 73.1408 84.6317 73.6426 83.2054 74.6463C81.7791 75.65 81.0923 76.9178 81.0923 78.397Z" fill="#777677"/>
<path d="M105.922 59.3477H110.861V63.8379H111.072C112.604 60.3249 115.774 58.5553 120.555 58.5553L121.611 58.6609V64.0492L119.313 63.8379C116.91 63.8379 114.955 64.5774 113.397 66.0566C111.838 67.5357 111.072 69.411 111.072 71.6826V86.8173H105.922V59.3477ZM138.119 87.2663C135.874 87.2663 134.025 86.5796 132.546 85.1797C131.067 83.8062 130.301 81.878 130.275 79.3952V64.0228H125.441V59.3212H130.275V50.9219H135.425V59.3212H142.161V64.0228H135.425V77.7048C135.425 79.5273 135.769 80.7687 136.482 81.429C137.195 82.0893 137.987 82.4063 138.885 82.4063C139.308 82.4063 139.704 82.3535 140.1 82.2742C140.497 82.1686 140.866 82.0629 141.183 81.9044L142.821 86.5003C141.474 87.0286 139.916 87.2663 138.119 87.2663Z" fill="#777677"/>
<path d="M147.355 59.3531H152.295V63.1566H152.506C153.298 61.8095 154.487 60.7002 156.125 59.8021C157.762 58.9041 159.453 58.4551 161.196 58.4551C164.55 58.4551 167.139 59.406 168.961 61.3341C170.784 63.2623 171.682 66.0092 171.682 69.5486V86.8227H166.531V69.892C166.426 65.4017 164.154 63.1566 159.743 63.1566C157.683 63.1566 155.966 64.0018 154.593 65.6394C153.219 67.3035 152.506 69.2845 152.506 71.6088V86.7963H147.355V59.3531Z" fill="#777677"/>
<path d="M190.092 87.7208C186.05 87.7208 182.722 86.3473 180.107 83.5739C177.493 80.8006 176.172 77.314 176.172 73.0879C176.172 68.8883 177.44 65.4281 179.975 62.6283C182.511 59.855 185.76 58.4551 189.722 58.4551C193.789 58.4551 197.038 59.7757 199.442 62.417C201.845 65.0584 203.06 68.7562 203.06 73.4841L203.008 74.0388H181.454C181.534 76.7329 182.432 78.8988 184.149 80.5364C185.865 82.174 187.926 82.9929 190.329 82.9929C193.631 82.9929 196.193 81.3552 198.068 78.0536L202.664 80.2987C201.423 82.6231 199.732 84.4192 197.54 85.7398C195.321 87.0605 192.865 87.7208 190.092 87.7208ZM181.851 69.7599H197.619C197.461 67.8581 196.695 66.2734 195.295 65.0319C193.895 63.7905 192.02 63.1566 189.669 63.1566C187.714 63.1566 186.05 63.7641 184.65 64.9527C183.224 66.1413 182.3 67.7525 181.851 69.7599Z" fill="#777677"/>
<path d="M212.967 86.8196H207.816V59.35H212.756V63.8402H212.967C213.495 62.3875 214.578 61.1461 216.189 60.1159C217.827 59.0858 219.412 58.584 220.997 58.584C222.502 58.584 223.77 58.7953 224.8 59.2443L223.242 64.2364C222.608 63.9723 221.604 63.8402 220.204 63.8402C218.25 63.8402 216.559 64.6326 215.133 66.191C213.68 67.7493 212.967 69.5982 212.967 71.6849V86.8196Z" fill="#777677"/>
<path d="M59.4054 23.1883V26.7012H67.7784C67.5142 28.9199 66.5898 30.6368 65.0314 31.8518C63.4994 33.0668 61.6241 33.6743 59.4054 33.6743C56.8169 33.6743 54.651 32.7762 52.8814 30.9537C51.1117 29.1576 50.2136 26.9653 50.2136 24.3504C50.2136 21.7355 51.1117 19.5433 52.8814 17.7472C54.651 15.9247 56.8433 15.0266 59.4054 15.0266C61.8354 15.0266 63.922 15.8718 65.7181 17.5359L68.201 15.053C65.7181 12.7023 62.7863 11.5137 59.4054 11.5137C57.1075 11.5137 54.9416 12.0948 52.9078 13.2569C50.874 14.3927 49.2892 15.9775 48.127 17.9849C46.9912 19.9395 46.4102 22.0525 46.4102 24.324C46.4102 26.622 46.9912 28.735 48.127 30.716C49.2628 32.697 50.874 34.2553 52.9078 35.4175C54.9416 36.5797 57.1075 37.1608 59.4054 37.1608C62.8655 37.1608 65.7445 36.0779 68.0161 33.912C70.2612 31.7725 71.397 28.9199 71.397 25.3805C71.397 24.5353 71.3441 23.8222 71.2121 23.1883H59.4054Z" fill="#487CBF"/>
<path d="M80.8992 20.6562C78.5484 20.6562 76.5674 21.4486 74.9826 23.0334C73.3979 24.5918 72.6055 26.5464 72.6055 28.9235C72.6055 31.2479 73.3979 33.2025 75.0091 34.8137C76.5938 36.3985 78.5484 37.1908 80.8992 37.1908C83.2235 37.1908 85.2045 36.3985 86.7893 34.8137C88.4005 33.2025 89.1929 31.2479 89.1929 28.9235C89.1929 26.5728 88.4005 24.6182 86.7893 23.0334C85.2045 21.4486 83.2499 20.6562 80.8992 20.6562ZM84.2008 32.4893C83.3028 33.4402 82.2198 33.9156 80.9256 33.9156C79.6049 33.9156 78.4956 33.4402 77.5975 32.4893C76.6995 31.5384 76.2505 30.3499 76.2505 28.9235C76.2505 27.4708 76.6995 26.2822 77.5975 25.3578C78.4956 24.4069 79.6049 23.9315 80.9256 23.9315C82.2462 23.9315 83.3556 24.4069 84.2536 25.3578C85.1517 26.2822 85.6007 27.4708 85.6007 28.9235C85.5743 30.3234 85.0989 31.512 84.2008 32.4893Z" fill="#EF372C"/>
<path d="M130.72 12.4121H127.102V36.6858H130.72V12.4121Z" fill="#00AC4E"/>
<path d="M98.9968 20.6562C96.6461 20.6562 94.6651 21.4486 93.0803 23.0334C91.4955 24.5918 90.7031 26.5464 90.7031 28.9235C90.7031 31.2479 91.4955 33.2025 93.1067 34.8137C94.6915 36.3985 96.6461 37.1908 98.9968 37.1908C101.321 37.1908 103.302 36.3985 104.887 34.8137C106.498 33.2025 107.291 31.2479 107.291 28.9235C107.291 26.5728 106.498 24.6182 104.887 23.0334C103.276 21.4486 101.321 20.6562 98.9968 20.6562ZM102.272 32.4893C101.374 33.4402 100.291 33.9156 98.9968 33.9156C97.6762 33.9156 96.5668 33.4402 95.6688 32.4893C94.7707 31.5384 94.3217 30.3499 94.3217 28.9235C94.3217 27.4708 94.7707 26.2822 95.6688 25.3578C96.5668 24.4069 97.6762 23.9315 98.9968 23.9315C100.317 23.9315 101.427 24.4069 102.325 25.3578C103.223 26.2822 103.672 27.4708 103.672 28.9235C103.646 30.3234 103.197 31.512 102.272 32.4893Z" fill="#FDB614"/>
<path d="M140.671 33.9166C138.849 33.9166 137.528 33.0714 136.657 31.4074L147.697 26.8379L147.328 25.8871C147.037 25.1211 146.667 24.4079 146.192 23.7476C145.716 23.1137 145.188 22.5326 144.581 22.0836C143.973 21.6081 143.313 21.2648 142.573 21.0006C141.834 20.7629 141.068 20.6309 140.249 20.6309C138.03 20.6309 136.181 21.4233 134.676 22.9816C133.197 24.5664 132.457 26.5474 132.457 28.8982C132.457 31.2225 133.249 33.2035 134.808 34.7883C136.366 36.3731 138.321 37.1655 140.645 37.1655C143.577 37.1655 145.848 35.9505 147.512 33.494L144.686 31.6187C143.709 33.1771 142.362 33.9166 140.671 33.9166ZM137.343 25.2267C138.268 24.3023 139.272 23.8533 140.407 23.8533C141.121 23.8533 141.754 24.0117 142.309 24.3287C142.864 24.6457 143.26 25.0683 143.471 25.5965L136.102 28.6604C136.049 27.287 136.445 26.1248 137.343 25.2267Z" fill="#EF372C"/>
<path d="M121.16 22.5052H121.028C119.998 21.2638 118.545 20.6562 116.67 20.6562C114.531 20.6562 112.682 21.4751 111.097 23.0863C109.538 24.7239 108.746 26.652 108.746 28.9235C108.746 31.1687 109.538 33.1232 111.097 34.7344C112.708 36.3456 114.557 37.138 116.67 37.138C118.519 37.138 119.972 36.5041 121.028 35.2627H121.16V36.1079C121.16 39.568 119.681 41.3113 116.749 41.3113C115.798 41.3113 114.98 41.0472 114.24 40.4925C113.5 39.9378 112.946 39.2511 112.576 38.353L109.406 39.6737C109.723 40.4132 110.12 41.0736 110.595 41.6547C111.07 42.2622 111.625 42.764 112.259 43.1866C112.893 43.6092 113.58 43.9526 114.346 44.1903C115.085 44.428 115.878 44.5601 116.723 44.5601C119.179 44.5601 121.107 43.8205 122.481 42.315C123.854 40.8359 124.568 38.6964 124.568 35.9494V21.1581H121.134V22.5052H121.16ZM120.13 32.5157C119.285 33.4666 118.228 33.9156 117.013 33.9156C115.719 33.9156 114.636 33.4402 113.738 32.4893C112.867 31.5384 112.418 30.3499 112.418 28.95C112.418 27.5237 112.867 26.3351 113.765 25.3842C114.689 24.4069 115.772 23.9051 117.013 23.9051C118.255 23.9051 119.311 24.3805 120.13 25.3314C120.975 26.3087 121.424 27.5237 121.424 28.9235C121.424 30.3499 121.002 31.5384 120.13 32.5157Z" fill="#487CBF"/>
<path d="M26.3074 0H0V100H26.3074V0Z" fill="#487CBF"/>
</svg>
