<svg width="252" height="100" viewBox="0 0 252 100" fill="none" xmlns="http://www.w3.org/2000/svg">
<path d="M23.8129 33.8422L34.1602 31.2604L38.4834 44.3787L23.8129 33.8422ZM47.6259 16.8862H29.4118L23.8129 0L18.2141 16.8862H0L14.7414 27.3529L9.14246 44.2391L23.8838 33.7724L32.9554 27.3529L47.6259 16.8862Z" fill="#219653"/>
<path d="M69.0256 9.26906V40.0797H62.5662V9.26906H69.0256ZM78.7039 9.26906V14.2419H53.0391V9.26906H78.7039Z" fill="black"/>
<path d="M86.7188 22.1774V40.0797H80.497V17.1833H86.3515L86.7188 22.1774ZM93.7615 17.0352L93.6535 22.6852C93.3511 22.6429 92.9838 22.6076 92.5517 22.5794C92.1341 22.5371 91.7524 22.5159 91.4067 22.5159C90.5282 22.5159 89.7649 22.6288 89.1168 22.8545C88.4831 23.0661 87.9502 23.3835 87.5181 23.8068C87.1005 24.23 86.7836 24.7449 86.5676 25.3515C86.3659 25.9581 86.2507 26.6494 86.2219 27.4253L84.9689 27.0444C84.9689 25.5631 85.1201 24.2018 85.4226 22.9603C85.725 21.7048 86.1643 20.6114 86.7404 19.6803C87.3309 18.7493 88.051 18.0298 88.9007 17.5219C89.7505 17.014 90.7226 16.7601 91.8172 16.7601C92.1629 16.7601 92.5157 16.7883 92.8758 16.8448C93.2358 16.8871 93.5311 16.9506 93.7615 17.0352Z" fill="black"/>
<path d="M110.526 34.5989V17.1833H116.748V40.0797H110.893L110.526 34.5989ZM111.217 29.9012L113.053 29.8589C113.053 31.3825 112.873 32.8002 112.513 34.1122C112.153 35.4101 111.613 36.5387 110.893 37.498C110.173 38.4432 109.266 39.1839 108.171 39.7199C107.076 40.2419 105.787 40.5029 104.304 40.5029C103.166 40.5029 102.115 40.3477 101.15 40.0374C100.199 39.7129 99.3784 39.2121 98.6871 38.5349C98.0102 37.8437 97.4773 36.9619 97.0884 35.8898C96.714 34.8035 96.5268 33.4986 96.5268 31.975V17.1833H102.749V32.0173C102.749 32.6944 102.828 33.2658 102.986 33.7313C103.159 34.1969 103.397 34.5778 103.699 34.874C104.002 35.1703 104.354 35.3819 104.758 35.5089C105.175 35.6358 105.636 35.6993 106.14 35.6993C107.422 35.6993 108.43 35.4454 109.165 34.9375C109.914 34.4297 110.439 33.7384 110.742 32.8637C111.059 31.975 111.217 30.9874 111.217 29.9012Z" fill="black"/>
<path d="M134.138 33.7525C134.138 33.3152 134.009 32.9202 133.749 32.5675C133.49 32.2148 133.008 31.8903 132.302 31.5941C131.611 31.2837 130.61 31.0016 129.299 30.7476C128.118 30.4937 127.016 30.1763 125.994 29.7954C124.986 29.4004 124.107 28.9278 123.358 28.3776C122.624 27.8274 122.048 27.1784 121.63 26.4307C121.212 25.6689 121.003 24.8013 121.003 23.8279C121.003 22.8686 121.212 21.9657 121.63 21.1193C122.062 20.2729 122.674 19.5252 123.466 18.8762C124.273 18.2132 125.252 17.6983 126.404 17.3315C127.571 16.9506 128.881 16.7601 130.336 16.7601C132.367 16.7601 134.11 17.0775 135.564 17.7124C137.033 18.3472 138.157 19.2219 138.934 20.3363C139.726 21.4367 140.122 22.6923 140.122 24.103H133.901C133.901 23.5105 133.771 22.9815 133.512 22.5159C133.267 22.0363 132.878 21.6624 132.345 21.3944C131.827 21.1122 131.15 20.9712 130.315 20.9712C129.623 20.9712 129.026 21.0911 128.521 21.3309C128.017 21.5566 127.628 21.867 127.355 22.262C127.096 22.6429 126.966 23.0661 126.966 23.5317C126.966 23.8844 127.038 24.2018 127.182 24.4839C127.34 24.752 127.592 24.9988 127.938 25.2246C128.284 25.4503 128.73 25.6619 129.278 25.8594C129.839 26.0428 130.531 26.2121 131.351 26.3673C133.037 26.7058 134.542 27.1502 135.867 27.7004C137.192 28.2365 138.243 28.9701 139.021 29.9012C139.798 30.8182 140.187 32.0243 140.187 33.5197C140.187 34.5355 139.957 35.4666 139.496 36.313C139.035 37.1594 138.373 37.9001 137.508 38.5349C136.644 39.1556 135.607 39.6424 134.398 39.995C133.202 40.3336 131.856 40.5029 130.358 40.5029C128.183 40.5029 126.339 40.122 124.827 39.3602C123.329 38.5984 122.192 37.632 121.414 36.4611C120.651 35.2761 120.269 34.0629 120.269 32.8214H126.167C126.195 33.6537 126.411 34.3239 126.815 34.8317C127.232 35.3396 127.758 35.7064 128.392 35.9321C129.04 36.1578 129.738 36.2707 130.487 36.2707C131.294 36.2707 131.964 36.1649 132.496 35.9533C133.029 35.7275 133.433 35.4313 133.706 35.0645C133.994 34.6836 134.138 34.2463 134.138 33.7525Z" fill="black"/>
<path d="M155.677 17.1833V21.5002H142.067V17.1833H155.677ZM145.437 11.5333H151.659V33.1812C151.659 33.8442 151.745 34.3521 151.918 34.7048C152.105 35.0574 152.379 35.3043 152.739 35.4454C153.099 35.5724 153.553 35.6358 154.1 35.6358C154.489 35.6358 154.834 35.6217 155.137 35.5935C155.454 35.5512 155.72 35.5089 155.936 35.4666L155.958 39.9527C155.425 40.122 154.849 40.256 154.23 40.3548C153.61 40.4535 152.926 40.5029 152.177 40.5029C150.809 40.5029 149.614 40.2842 148.591 39.8469C147.583 39.3955 146.805 38.676 146.258 37.6885C145.711 36.701 145.437 35.4031 145.437 33.7948V11.5333Z" fill="black"/>
<path d="M165.442 21.5848V48.8827H159.22V17.1833H164.988L165.442 21.5848ZM180.24 28.3776V28.822C180.24 30.4866 180.038 32.0314 179.635 33.4562C179.246 34.8811 178.67 36.1225 177.907 37.1806C177.144 38.2246 176.193 39.0428 175.055 39.6353C173.932 40.2137 172.636 40.5029 171.167 40.5029C169.741 40.5029 168.502 40.2208 167.451 39.6565C166.399 39.0922 165.514 38.3021 164.794 37.2864C164.088 36.2566 163.519 35.0645 163.087 33.7102C162.655 32.3559 162.324 30.9028 162.093 29.351V28.1871C162.324 26.5224 162.655 24.9988 163.087 23.6163C163.519 22.2197 164.088 21.0135 164.794 19.9978C165.514 18.9679 166.392 18.1708 167.429 17.6066C168.481 17.0423 169.712 16.7601 171.123 16.7601C172.607 16.7601 173.91 17.0352 175.034 17.5854C176.171 18.1356 177.122 18.9256 177.885 19.9554C178.663 20.9853 179.246 22.2126 179.635 23.6375C180.038 25.0623 180.24 26.6424 180.24 28.3776ZM173.997 28.822V28.3776C173.997 27.4042 173.91 26.5083 173.737 25.6901C173.579 24.8578 173.32 24.1312 172.96 23.5105C172.614 22.8898 172.153 22.4101 171.577 22.0716C171.015 21.7189 170.331 21.5425 169.525 21.5425C168.675 21.5425 167.948 21.6765 167.343 21.9446C166.752 22.2126 166.27 22.6006 165.895 23.1084C165.521 23.6163 165.24 24.2229 165.053 24.9283C164.866 25.6337 164.75 26.4307 164.707 27.3195V30.2609C164.779 31.3049 164.981 32.243 165.312 33.0753C165.643 33.8936 166.155 34.5425 166.846 35.0222C167.537 35.5018 168.445 35.7416 169.568 35.7416C170.389 35.7416 171.08 35.5653 171.642 35.2126C172.204 34.8458 172.657 34.345 173.003 33.7102C173.363 33.0753 173.615 32.3418 173.759 31.5094C173.917 30.6771 173.997 29.7813 173.997 28.822Z" fill="black"/>
<path d="M190.674 17.1833V40.0797H184.431V17.1833H190.674ZM184.042 11.2159C184.042 10.3271 184.359 9.59353 184.993 9.01513C185.626 8.43672 186.476 8.14752 187.542 8.14752C188.593 8.14752 189.436 8.43672 190.07 9.01513C190.718 9.59353 191.042 10.3271 191.042 11.2159C191.042 12.1047 190.718 12.8382 190.07 13.4166C189.436 13.9951 188.593 14.2843 187.542 14.2843C186.476 14.2843 185.626 13.9951 184.993 13.4166C184.359 12.8382 184.042 12.1047 184.042 11.2159Z" fill="black"/>
<path d="M202.384 7.57617V40.0797H196.14V7.57617H202.384Z" fill="black"/>
<path d="M206.531 28.8643V28.4199C206.531 26.7411 206.776 25.1963 207.266 23.7856C207.756 22.3608 208.468 21.1264 209.405 20.0824C210.341 19.0385 211.493 18.2273 212.861 17.6489C214.229 17.0564 215.799 16.7601 217.571 16.7601C219.342 16.7601 220.919 17.0564 222.302 17.6489C223.685 18.2273 224.844 19.0385 225.78 20.0824C226.731 21.1264 227.451 22.3608 227.94 23.7856C228.43 25.1963 228.675 26.7411 228.675 28.4199V28.8643C228.675 30.529 228.43 32.0737 227.94 33.4986C227.451 34.9093 226.731 36.1437 225.78 37.2018C224.844 38.2457 223.692 39.0569 222.323 39.6353C220.955 40.2137 219.385 40.5029 217.614 40.5029C215.842 40.5029 214.265 40.2137 212.883 39.6353C211.515 39.0569 210.355 38.2457 209.405 37.2018C208.468 36.1437 207.756 34.9093 207.266 33.4986C206.776 32.0737 206.531 30.529 206.531 28.8643ZM212.753 28.4199V28.8643C212.753 29.8236 212.84 30.7194 213.012 31.5517C213.185 32.3841 213.459 33.1177 213.833 33.7525C214.222 34.3732 214.726 34.8599 215.346 35.2126C215.965 35.5653 216.721 35.7416 217.614 35.7416C218.478 35.7416 219.22 35.5653 219.839 35.2126C220.458 34.8599 220.955 34.3732 221.33 33.7525C221.704 33.1177 221.978 32.3841 222.151 31.5517C222.338 30.7194 222.432 29.8236 222.432 28.8643V28.4199C222.432 27.4888 222.338 26.6141 222.151 25.7959C221.978 24.9636 221.697 24.23 221.308 23.5952C220.934 22.9462 220.437 22.4383 219.817 22.0716C219.198 21.7048 218.449 21.5214 217.571 21.5214C216.692 21.5214 215.943 21.7048 215.324 22.0716C214.719 22.4383 214.222 22.9462 213.833 23.5952C213.459 24.23 213.185 24.9636 213.012 25.7959C212.84 26.6141 212.753 27.4888 212.753 28.4199Z" fill="black"/>
<path d="M243.949 17.1833V21.5002H230.338V17.1833H243.949ZM233.708 11.5333H239.93V33.1812C239.93 33.8442 240.017 34.3521 240.19 34.7048C240.377 35.0574 240.65 35.3043 241.01 35.4454C241.371 35.5724 241.824 35.6358 242.371 35.6358C242.76 35.6358 243.106 35.6217 243.408 35.5935C243.725 35.5512 243.992 35.5089 244.208 35.4666L244.229 39.9527C243.696 40.122 243.12 40.256 242.501 40.3548C241.882 40.4535 241.198 40.5029 240.449 40.5029C239.081 40.5029 237.885 40.2842 236.863 39.8469C235.854 39.3955 235.077 38.676 234.529 37.6885C233.982 36.701 233.708 35.4031 233.708 33.7948V11.5333Z" fill="black"/>
<rect width="43.2963" height="43.2963" transform="translate(0 56.7031)" fill="#219653"/>
<path d="M21.6484 85.7038L27.7318 84.0748L30.2734 92.3516L21.6484 85.7038ZM35.6484 75.0057H24.9401L21.6484 64.3516L18.3568 75.0057H7.64844L16.3151 81.6094L13.0234 92.2635L21.6901 85.6597L27.0234 81.6094L35.6484 75.0057Z" fill="white"/>
<rect width="43.2963" height="43.2963" transform="translate(51.957 56.7031)" fill="#219653"/>
<path d="M73.6055 85.7038L79.6888 84.0748L82.2305 92.3516L73.6055 85.7038ZM87.6055 75.0057H76.8971L73.6055 64.3516L70.3138 75.0057H59.6055L68.2721 81.6094L64.9805 92.2635L73.6471 85.6597L78.9805 81.6094L87.6055 75.0057Z" fill="white"/>
<rect width="43.2963" height="43.2963" transform="translate(103.91 56.7031)" fill="#219653"/>
<path d="M125.559 85.7038L131.642 84.0748L134.184 92.3516L125.559 85.7038ZM139.559 75.0057H128.85L125.559 64.3516L122.267 75.0057H111.559L120.225 81.6094L116.934 92.2635L125.6 85.6597L130.934 81.6094L139.559 75.0057Z" fill="white"/>
<rect width="43.2963" height="43.2963" transform="translate(155.867 56.7031)" fill="#219653"/>
<path d="M177.516 85.7038L183.599 84.0748L186.141 92.3516L177.516 85.7038ZM191.516 75.0057H180.807L177.516 64.3516L174.224 75.0057H163.516L172.182 81.6094L168.891 92.2635L177.557 85.6597L182.891 81.6094L191.516 75.0057Z" fill="white"/>
<rect width="43.2963" height="43.2963" transform="translate(207.82 56.7031)" fill="#219653"/>
<path d="M229.469 85.7038L235.552 84.0748L238.094 92.3516L229.469 85.7038ZM243.469 75.0057H232.76L229.469 64.3516L226.177 75.0057H215.469L224.135 81.6094L220.844 92.2635L229.51 85.6597L234.844 81.6094L243.469 75.0057Z" fill="white"/>
</svg>
