<svg width="636" height="100" viewBox="0 0 636 100" fill="none" xmlns="http://www.w3.org/2000/svg">
<path fill-rule="evenodd" clip-rule="evenodd" d="M0 16.8225C10.4013 17.2719 21.3633 16.8867 31.578 16.8867C39.8615 16.8867 55.6817 13.8057 55.9309 24.6535C56.1179 35.7581 40.4842 32.7412 32.1384 32.7412C21.7368 32.7412 10.2768 32.2278 0 32.8053V49.1737C10.5259 49.4947 21.4879 49.1737 32.1384 49.1737C42.4775 49.1737 55.8063 45.8998 55.9309 58.2885C56.0556 73.4367 53.0034 88.2002 66.768 97.0581C67.9516 97.8284 70.941 99.1764 72.3738 99.4974C75.5501 100.075 79.4114 100.203 82.0278 99.6257C90.1243 98.5984 97.5986 89.8692 99.218 81.9099C100.837 73.7578 98.8441 56.4267 99.5914 46.7984H154.837L155.024 30.2382H99.5914C98.6576 14.1908 105.633 16.7584 120.706 16.7584C132.166 16.7584 143.689 16.8225 155.087 16.7584L155.024 0.326107C147.861 0.197727 107.128 -0.187413 102.955 0.454487C95.9166 1.54569 90.3736 5.58955 86.8857 10.9172C82.0901 18.2347 82.7751 24.0116 82.7751 33.8968V74.0784C82.8374 78.5719 82.7751 82.7444 78.4776 83.2578C67.8893 84.5411 75.6743 62.0753 71.626 49.6871C69.8825 44.3595 67.827 42.947 67.0792 40.9574C68.325 37.9405 80.2834 23.7548 66.2076 7.96451C63.8405 5.33279 61.5362 3.47135 57.3633 1.86662C49.889 -0.957648 38.3664 0.261894 29.4602 0.261894C19.8685 0.261894 9.59169 -0.0590325 0.0622703 0.326107L0 16.8225Z" fill="#9C46FF"/>
<path d="M206.041 49.5786H189.866V78.2864H180.738V7.32109H203.534C211.29 7.32109 217.249 9.14072 221.411 12.78C225.604 16.4192 227.701 21.7155 227.701 28.6694C227.701 33.0884 226.535 36.9384 224.201 40.2209C221.9 43.5024 218.684 45.9557 214.554 47.5805L230.728 77.7017V78.2864H220.985L206.041 49.5786ZM189.866 41.9264H203.818C208.327 41.9264 211.905 40.7244 214.554 38.3198C217.233 35.9152 218.574 32.6982 218.574 28.6694C218.574 24.2825 217.297 20.9196 214.743 18.5801C212.22 16.2405 208.563 15.0545 203.77 15.022H189.866V41.9264ZM248.605 78.2864H239.856V25.5499H248.605V78.2864ZM239.146 11.5615C239.146 10.0993 239.572 8.8645 240.423 7.85724C241.306 6.84989 242.599 6.3463 244.301 6.3463C246.004 6.3463 247.297 6.84989 248.179 7.85724C249.062 8.8645 249.504 10.0993 249.504 11.5615C249.504 13.0236 249.062 14.2421 248.179 15.2169C247.297 16.1918 246.004 16.6792 244.301 16.6792C242.599 16.6792 241.306 16.1918 240.423 15.2169C239.572 14.2421 239.146 13.0236 239.146 11.5615ZM260.57 51.4797C260.57 43.259 262.415 36.7276 266.103 31.8863C269.792 27.0121 274.68 24.575 280.764 24.575C287.007 24.575 291.879 26.8496 295.378 31.3986L295.804 25.5499H303.797V77.0193C303.797 83.8429 301.826 89.2206 297.885 93.1524C293.975 97.0837 288.71 99.0499 282.089 99.0499C278.4 99.0499 274.79 98.2375 271.259 96.6128C267.727 94.988 265.031 92.7623 263.171 89.9355L267.712 84.5253C271.464 89.3015 276.051 91.6902 281.474 91.6902C285.73 91.6902 289.041 90.4552 291.406 87.9856C293.802 85.5165 295 82.0394 295 77.5558V73.0225C291.5 77.1819 286.724 79.2614 280.67 79.2614C274.68 79.2614 269.824 76.7755 266.103 71.8042C262.415 66.8325 260.57 60.0577 260.57 51.4797ZM269.367 52.503C269.367 58.4496 270.549 63.1283 272.914 66.5403C275.279 69.9198 278.589 71.6092 282.845 71.6092C288.363 71.6092 292.415 69.0262 295 63.8598V39.7819C292.32 34.7456 288.3 32.2273 282.94 32.2273C278.684 32.2273 275.357 33.9333 272.961 37.3448C270.565 40.7569 269.367 45.8094 269.367 52.503ZM325.789 31.9346C329.667 27.0284 334.71 24.575 340.921 24.575C351.737 24.575 357.19 30.8626 357.287 43.4374V78.2864H348.538V43.3886C348.506 39.5869 347.653 36.7763 345.984 34.9565C344.344 33.1372 341.774 32.2273 338.274 32.2273C335.436 32.2273 332.944 33.0071 330.8 34.5668C328.656 36.1265 326.987 38.1735 325.789 40.7081V78.2864H317.04V3.42188H325.789V31.9346ZM382.257 12.78V25.5499H391.81V32.5194H382.257V65.224C382.257 67.3364 382.683 68.9287 383.533 70.0011C384.385 71.0406 385.834 71.5604 387.884 71.5604C388.895 71.5604 390.28 71.3653 392.046 70.9756V78.2864C389.744 78.9362 387.507 79.2614 385.331 79.2614C381.421 79.2614 378.473 78.043 376.488 75.606C374.502 73.1689 373.507 69.7085 373.507 65.224V32.5194H364.19V25.5499H373.507V12.78H382.257ZM441.42 46.9469H412.525V78.2864H403.443V7.32109H446.103V15.022H412.525V39.2943H441.42V46.9469ZM465.114 78.2864H456.367V25.5499H465.114V78.2864ZM455.653 11.5615C455.653 10.0993 456.082 8.8645 456.936 7.85724C457.816 6.84989 459.112 6.3463 460.81 6.3463C462.513 6.3463 463.809 6.84989 464.689 7.85724C465.574 8.8645 466.012 10.0993 466.012 11.5615C466.012 13.0236 465.574 14.2421 464.689 15.2169C463.809 16.1918 462.513 16.6792 460.81 16.6792C459.112 16.6792 457.816 16.1918 456.936 15.2169C456.082 14.2421 455.653 13.0236 455.653 11.5615ZM503.899 33.6407C502.575 33.4135 501.135 33.2997 499.595 33.2997C493.851 33.2997 489.959 35.8177 487.913 40.8544V78.2864H479.162V25.5499H487.674L487.814 31.642C490.686 26.9309 494.754 24.575 500.02 24.575C501.722 24.575 503.013 24.8026 503.899 25.2574V33.6407ZM520.209 25.5499L520.448 31.3986C524.201 26.8496 529.263 24.575 535.63 24.575C542.787 24.575 547.655 27.4018 550.243 33.0559C551.95 30.5212 554.153 28.4743 556.867 26.9146C559.608 25.3549 562.841 24.575 566.562 24.575C577.784 24.575 583.491 30.7001 583.681 42.9501V78.2864H574.934V43.4861C574.934 39.7169 574.094 36.9064 572.424 35.0541C570.753 33.1697 567.949 32.2273 564.006 32.2273C560.76 32.2273 558.064 33.2347 555.919 35.2491C553.774 37.231 552.528 39.912 552.184 43.291V78.2864H543.388V43.73C543.388 36.0615 539.744 32.2273 532.46 32.2273C526.725 32.2273 522.797 34.7456 520.688 39.7819V78.2864H511.936V25.5499H520.209ZM626.72 64.2983C626.72 61.8612 625.817 59.9768 624.024 58.6443C622.258 57.2796 619.151 56.1101 614.704 55.1351C610.292 54.1602 606.774 52.9907 604.16 51.6256C601.577 50.261 599.648 48.6367 598.389 46.7518C597.156 44.8675 596.546 42.625 596.546 40.0258C596.546 35.7039 598.312 32.0484 601.843 29.0591C605.406 26.0696 609.944 24.575 615.462 24.575C621.26 24.575 625.961 26.1185 629.556 29.2054C633.182 32.2923 634.992 36.2403 634.992 41.049H626.2C626.2 38.5799 625.171 36.4516 623.121 34.6639C621.102 32.8771 618.551 31.9834 615.462 31.9834C612.279 31.9834 609.786 32.6982 607.989 34.1279C606.192 35.558 605.293 37.4261 605.293 39.7332C605.293 41.9102 606.128 43.5512 607.799 44.6561C609.47 45.7607 612.482 46.8169 616.835 47.8239C621.215 48.8313 624.764 50.0338 627.474 51.431C630.188 52.8281 632.188 54.5174 633.48 56.4998C634.807 58.4496 635.467 60.838 635.467 63.6648C635.467 68.3759 633.638 72.1619 629.98 75.0212C626.327 77.848 621.581 79.2614 615.747 79.2614C611.646 79.2614 608.02 78.514 604.868 77.0193C601.717 75.5247 599.242 73.4452 597.44 70.7805C595.675 68.0838 594.794 65.1757 594.794 62.0563H603.545C603.703 65.0782 604.868 67.4823 607.045 69.2696C609.253 71.0244 612.152 71.9018 615.747 71.9018C619.057 71.9018 621.703 71.2194 623.69 69.8544C625.708 68.4572 626.72 66.6054 626.72 64.2983Z" fill="#9C46FF"/>
</svg>
