<svg width="446" height="100" viewBox="0 0 446 100" fill="none" xmlns="http://www.w3.org/2000/svg">
<path d="M78.1055 41.2441H93.069C105.113 41.2441 113.507 49.4558 113.507 60.0398V60.2222C113.507 70.8062 105.295 79.0179 93.069 79.0179H78.1055V41.2441ZM93.069 71.3536C100.003 71.3536 104.565 66.7916 104.565 60.2222V60.0398C104.565 53.4704 100.003 48.7259 93.069 48.7259H86.6821V71.3536H93.069Z" fill="white"/>
<path d="M120.801 41.2441H149.815V48.5434H129.377V56.2076H147.443V63.5069H129.377V71.3536H150.18V78.6529H120.983L120.801 41.2441Z" fill="white"/>
<path d="M154.93 73.3595L160.039 67.5201C163.506 70.2574 167.156 72.0822 171.536 72.0822C175.003 72.0822 177.01 70.6223 177.01 68.615V68.4325C177.01 66.2428 175.55 65.1479 169.346 63.688C161.682 61.6807 156.572 59.6734 156.572 52.1917V52.0092C156.572 45.2574 162.046 40.6953 170.076 40.6953C175.55 40.6953 180.477 42.3376 184.309 45.4398L179.93 51.8267C176.645 49.4544 173.178 48.1771 169.893 48.1771C166.609 48.1771 164.966 49.6369 164.966 51.4617V51.2793C164.966 53.6515 166.609 54.5639 173.178 56.2063C181.025 58.2136 185.222 60.9508 185.222 67.3376V67.5201C185.222 75.0019 179.382 79.199 171.171 79.199C165.331 79.199 159.492 77.1917 154.93 73.3595Z" fill="white"/>
<path d="M192.883 41.2441H201.277V78.8354H192.883V41.2441Z" fill="white"/>
<path d="M209.305 60.0392C209.305 49.2728 217.699 40.5137 229.378 40.5137C236.312 40.5137 240.327 42.3385 244.341 45.8056L239.049 52.1925C236.13 49.8202 233.575 48.3604 229.013 48.3604C222.808 48.3604 218.064 53.6524 218.064 60.0392V60.2217C218.064 67.156 222.808 72.2655 229.743 72.2655C232.845 72.2655 235.582 71.5356 237.772 69.8932V64.6013H229.195V57.4845H245.801V73.7254C241.786 77.01 236.494 79.7472 229.378 79.7472C217.334 79.1998 209.305 71.1706 209.305 60.0392Z" fill="white"/>
<path d="M253.836 41.2441H261.683L279.566 64.2368V41.2441H287.778V78.8354H280.661L262.048 54.9303V78.8354H253.836V41.2441Z" fill="white"/>
<path d="M297.084 41.2441H314.602C319.529 41.2441 323.179 42.704 325.733 45.0763C327.923 47.266 329.018 50.1857 329.018 53.6529V53.8354C329.018 59.8573 325.733 63.6894 320.806 65.5142L330.113 78.8354H320.259L312.047 66.7916H311.865H305.295V78.8354H296.719V41.2441H297.084ZM314.055 59.3098C318.252 59.3098 320.441 57.1201 320.441 54.0179V53.8354C320.441 50.3682 318.069 48.5434 313.872 48.5434H305.478V59.3098H314.055Z" fill="url(#paint0_linear_1564_4868)"/>
<path d="M336.137 62.5923V41.0594H344.531V62.2273C344.531 68.4317 347.633 71.3514 352.743 71.3514C357.852 71.3514 360.954 68.2492 360.954 62.2273V40.877H369.348V62.0448C369.348 73.3587 362.779 79.0156 352.56 79.0156C342.341 79.0156 336.137 73.5412 336.137 62.5923Z" fill="url(#paint1_linear_1564_4868)"/>
<path d="M375.371 73.3595L380.481 67.5201C383.948 70.2574 387.597 72.0822 391.977 72.0822C395.444 72.0822 397.451 70.6223 397.451 68.615V68.4325C397.451 66.2428 395.992 65.1479 389.787 63.688C382.123 61.6807 377.013 59.6734 377.013 52.1917V52.0092C377.013 45.2574 382.488 40.6953 390.517 40.6953C395.992 40.6953 400.919 42.3376 404.751 45.4398L400.371 51.8267C397.086 49.4544 393.619 48.1771 390.335 48.1771C387.05 48.1771 385.408 49.6369 385.408 51.4617V51.2793C385.408 53.6515 387.05 54.5639 393.619 56.2063C401.466 58.2136 405.663 60.9508 405.663 67.3376V67.5201C405.663 75.0019 399.824 79.199 391.612 79.199C385.955 79.199 379.933 77.1917 375.371 73.3595Z" fill="url(#paint2_linear_1564_4868)"/>
<path d="M412.957 41.2441H421.351V56.2076H436.862V41.2441H445.256V78.8354H436.862V63.8719H421.351V78.8354H412.957V41.2441Z" fill="url(#paint3_linear_1564_4868)"/>
<path d="M29.927 62.4081C29.7445 62.4081 29.7445 62.2256 29.927 62.4081L29.0146 61.8607L28.8321 61.6782L7.29927 46.3497C7.29927 46.3497 7.11679 46.3497 7.11679 46.1672L6.75182 45.8023L6.56934 45.6198H6.20438L0 41.2402L12.2263 43.0651C12.7737 43.0651 12.9562 43.2475 13.5036 43.43C13.6861 43.43 14.0511 43.6125 14.0511 43.6125C14.5985 43.795 14.781 43.9775 15.146 44.1599C15.5109 44.3424 15.6934 44.5249 16.0584 44.7074C16.2409 44.8899 16.6058 45.0723 16.6058 45.2548C16.7883 45.4373 16.9708 45.4373 17.1533 45.6198C17.5182 45.8023 17.7007 45.9848 17.7007 46.1672C18.2482 46.7147 18.6131 47.2621 19.1606 47.6271L28.8321 61.3132L29.0146 61.4957L29.927 62.4081Z" fill="#2AD2FF"/>
<path d="M29.9281 83.576L29.0157 82.1161L28.8332 81.9337L0.183594 41.2402L6.38797 45.6198L7.48286 46.3497L29.0157 61.6782H29.1982L29.9281 62.2256C29.9281 62.2256 30.1106 62.2256 30.1106 62.4081L31.023 61.6782L60.0376 41.2402L30.8405 82.1161L30.658 82.2986L29.9281 83.576Z" fill="url(#paint4_linear_1564_4868)"/>
<path d="M29.9226 55.4738L29.0102 54.0139L28.8277 53.8314L21.7109 43.9774L28.8277 45.4373H29.0102L29.9226 45.6197L30.835 45.4373L37.7693 43.7949L30.835 54.0139V54.1964L29.9226 55.4738Z" fill="#2AD2FF"/>
<path d="M60.2178 41.0586L51.0937 42.336L47.6265 42.8834C44.8893 43.2484 42.3345 44.7082 40.6922 47.0805L31.0207 60.9491L30.8382 61.1316L29.9258 62.409L31.0207 61.3141L31.2032 61.1316L29.9258 62.409L54.5608 44.8907L60.2178 41.0586Z" fill="#2AD2FF"/>
<path d="M34.4926 12.2263C34.4926 20.2555 20.624 24.4526 20.624 33.0292C20.4415 35.0365 20.9889 37.0438 21.9013 38.8686C21.9013 38.8686 16.6094 33.7591 16.6094 28.2847C16.6094 22.8102 21.7189 14.5985 21.7189 14.5985C21.7189 18.2482 23.1787 19.3431 24.6386 19.5255H24.8211C26.4634 19.5255 27.3758 18.2482 27.3758 16.4234C27.3758 14.5985 25.3685 12.7737 25.3685 9.12409C25.3685 5.65693 29.7481 0 29.7481 0C32.8502 3.64963 34.4926 7.84672 34.4926 12.2263Z" fill="#2AF4FF"/>
<path d="M30.6603 41.4245C26.2808 41.4245 22.9961 37.9574 22.9961 33.7603V33.5778C22.9961 24.2712 35.9523 23.3588 35.9523 10.7676C36.3173 11.315 39.7844 16.0595 39.7844 21.169C39.7844 27.5559 33.7625 29.1982 33.7625 32.3004C33.7625 33.5778 34.31 34.4902 36.1348 34.4902C36.3173 34.4902 36.4997 34.4902 36.6822 34.3077C40.1494 32.8479 42.5216 29.5632 42.7041 25.7311C42.7041 25.9136 44.5289 41.4245 30.6603 41.4245Z" fill="#2AF4FF"/>
<path d="M36.3144 34.4902C36.4968 34.4902 36.6793 34.4902 36.8618 34.3077C35.037 34.8552 28.2852 36.4975 28.2852 31.753C28.2852 25.9136 38.3217 24.6362 38.3217 19.7092C38.3217 16.607 37.5917 13.5048 35.9494 10.7676C36.3144 11.315 39.7815 16.0595 39.7815 21.169C39.7815 27.5559 33.7596 29.1982 33.7596 32.3004C33.9421 33.5778 34.672 34.4902 36.3144 34.4902Z" fill="#2AD2FF"/>
<path d="M30.8411 15.5109C30.8411 20.073 25.0017 19.708 24.6367 19.5255H25.1842C26.8265 19.5255 27.7389 18.2482 27.7389 16.4234C27.7389 14.5985 25.7316 12.7737 25.7316 9.12409C25.7316 5.65693 30.1112 0 30.1112 0C28.6513 2.37226 27.9214 4.92701 27.7389 7.48175C27.7389 11.6788 30.8411 12.0438 30.8411 15.5109Z" fill="#2AD2FF"/>
<path d="M27.1865 95.256L23.1719 92.5188H28.0989L29.7412 87.5918L31.2011 92.5188H36.1281L32.1135 95.256L33.5733 100.001L29.5587 97.0808L25.3617 100.001L27.1865 95.256Z" fill="#2AD2FF"/>
<path d="M48.1748 95.256L44.1602 92.5188H49.0872L50.7295 87.5918L52.1894 92.5188H57.1164L53.1018 95.256L54.5616 100.001L50.547 97.0808L46.3499 100.001L48.1748 95.256Z" fill="#2AD2FF"/>
<path d="M6.3896 95.256L2.375 92.5188H7.30201L8.94434 87.5918L10.4042 92.5188H15.3312L11.3166 95.256L12.7765 100.001L8.76186 97.0808L4.74726 100.001L6.3896 95.256Z" fill="#2AD2FF"/>
<defs>
<linearGradient id="paint0_linear_1564_4868" x1="293.179" y1="-0.179215" x2="446.828" y2="-0.179215" gradientUnits="userSpaceOnUse">
<stop offset="0.73" stop-color="#2AF4FF"/>
<stop offset="0.884" stop-color="#2AF4FF"/>
</linearGradient>
<linearGradient id="paint1_linear_1564_4868" x1="293.181" y1="-0.181445" x2="446.83" y2="-0.181445" gradientUnits="userSpaceOnUse">
<stop offset="0.73" stop-color="#2AF4FF"/>
<stop offset="0.884" stop-color="#2AF4FF"/>
</linearGradient>
<linearGradient id="paint2_linear_1564_4868" x1="293.181" y1="-0.180596" x2="446.831" y2="-0.180596" gradientUnits="userSpaceOnUse">
<stop offset="0.73" stop-color="#2AF4FF"/>
<stop offset="0.884" stop-color="#2AF4FF"/>
</linearGradient>
<linearGradient id="paint3_linear_1564_4868" x1="293.176" y1="-0.179215" x2="446.826" y2="-0.179215" gradientUnits="userSpaceOnUse">
<stop offset="0.73" stop-color="#2AF4FF"/>
<stop offset="0.884" stop-color="#2AF4FF"/>
</linearGradient>
<linearGradient id="paint4_linear_1564_4868" x1="0.00111208" y1="83.6526" x2="0.00111208" y2="61.2548" gradientUnits="userSpaceOnUse">
<stop offset="0.73" stop-color="#2AF4FF"/>
<stop offset="0.884" stop-color="#2AF4FF"/>
</linearGradient>
</defs>
</svg>
