<svg width="671" height="100" viewBox="0 0 671 100" fill="none" xmlns="http://www.w3.org/2000/svg">
<path d="M40.9525 35.2364C40.9525 35.2364 35.2385 34.7591 35.2385 39.5227V61.4273H71.9044V68.0955C71.9044 68.0955 71.9044 71.4273 68.5724 71.4273H35.2385V100H75.241C75.241 100 99.5288 96.1909 99.5288 71.4273V35.2364H40.9525ZM99.056 0H26.6653C0.477302 6.19091 0 27.6182 0 27.6182V100H27.6199V34.2864C27.6199 28.5727 33.3339 27.6182 33.3339 27.6182H99.0515L99.056 0ZM194.298 79.05C192.394 80.4773 190.966 81.4318 190.012 81.9091C186.68 84.2909 182.87 85.7182 180.011 87.1455C175.247 89.05 171.442 90.0045 167.628 90.0045C155.246 90.0045 144.768 86.1955 136.199 78.5773C127.631 70.9591 123.817 60.9591 123.817 49.5318C123.817 38.1045 127.626 28.5773 135.245 20.0091C142.863 11.9136 151.914 7.62727 162.864 7.62727C167.151 7.62727 171.915 8.58182 177.152 10.0091C183.82 11.9136 189.057 15.2455 192.866 19.0591L185.725 27.1545C182.866 24.2955 178.584 21.9182 173.82 20.4864C170.083 19.544 166.245 19.0646 162.392 19.0591C154.773 19.0591 148.582 21.9182 143.345 28.1045C138.108 34.2909 135.722 41.4273 135.722 50C135.722 58.5727 138.581 65.2364 144.295 70.95C150.009 76.6636 157.632 79.0455 166.201 79.0455C170.252 79.0576 174.22 77.9007 177.629 75.7136C180.966 73.3318 182.393 71.9045 182.393 71.9045V54.2864H158.105L161.914 43.8091H194.294V79.0455L194.298 79.05ZM267.162 58.0955C267.253 62.1743 266.495 66.2275 264.937 69.9981C263.379 73.7688 261.055 77.1747 258.111 80C251.924 86.1909 244.779 89.0455 236.205 89.0455C228.109 89.0455 220.968 86.1864 214.777 80C211.833 77.1747 209.509 73.7688 207.951 69.9981C206.393 66.2275 205.635 62.1743 205.726 58.0955C205.726 49.5227 208.581 42.3818 214.299 36.1909C220.018 30 227.155 26.6682 235.728 26.6682C244.779 26.6682 252.397 29.5273 258.584 35.7136C264.302 41.4273 267.162 49.0455 267.162 58.0955ZM255.734 58.0955C255.734 52.3818 253.829 47.6182 250.02 43.8091C246.21 40 241.447 38.0955 235.733 38.0955C230.496 38.0955 225.732 40 222.395 44.2864C218.586 48.5727 216.681 52.8591 216.681 58.0955C216.681 63.8091 218.586 68.0955 222.395 72.3818C226.205 76.1909 230.969 78.0955 236.205 78.0955C241.442 78.0955 245.729 76.1909 249.543 72.3818C253.825 68.0955 256.211 63.8091 255.734 58.0955ZM339.553 58.0955C339.643 62.1743 338.886 66.2275 337.328 69.9981C335.77 73.7688 333.445 77.1747 330.502 80C324.311 86.1909 317.165 89.0455 308.596 89.0455C300.5 89.0455 293.354 86.1864 287.168 80C284.224 77.1747 281.9 73.7688 280.342 69.9981C278.784 66.2275 278.026 62.1743 278.117 58.0955C277.98 49.951 281.058 42.0807 286.686 36.1909C292.404 30 299.546 26.6682 308.114 26.6682C317.165 26.6682 324.783 29.5273 330.975 35.7136C336.211 41.4273 339.553 49.0455 339.553 58.0955ZM328.125 58.0955C328.125 52.3818 326.22 47.6182 322.406 43.8091C318.592 40 313.837 38.0955 308.119 38.0955C302.882 38.0955 298.118 40 294.786 44.2864C290.977 48.5727 289.068 52.8591 289.068 58.0955C289.068 63.8091 290.972 68.0955 294.786 72.3818C298.595 76.1909 303.355 78.0955 308.596 78.0955C313.837 78.0955 318.119 76.1909 321.929 72.3818C326.215 68.0955 328.125 63.8091 328.125 58.0955ZM406.225 87.6182L395.751 89.0455V79.0455L393.365 81.4273C391.465 83.3318 389.083 84.7591 386.701 86.1909C383.079 87.7088 379.2 88.5174 375.273 88.5727C367.177 88.5727 360.031 85.7136 354.794 79.5273C349.08 73.3364 346.226 66.1955 346.226 58.1C346.226 49.5273 349.08 41.9091 354.794 36.1955C360.508 30.4818 367.177 27.15 375.273 27.15C379.364 27.1073 383.419 27.9185 387.178 29.5318C389.56 30.4864 391.465 31.9136 393.365 33.8182C393.842 34.7727 394.32 35.2455 395.27 36.2V9.52273L406.225 8.09545V87.6182ZM396.224 59.0455C396.224 53.3318 394.32 48.0955 390.033 43.8091C385.746 39.5227 381.46 37.6182 376.223 37.6182C370.509 37.6182 365.75 39.5227 362.413 43.3318C359.076 47.1409 357.176 51.9045 357.176 57.1409C357.176 63.3318 359.081 68.0909 362.413 71.9045C365.745 75.7182 370.509 77.6182 375.75 77.6182C380.991 77.6182 385.751 75.7136 390.037 72.3818C394.324 68.5727 396.229 64.2864 396.229 59.05L396.224 59.0455ZM464.801 20.4727H433.849V41.4227H458.137V52.3773H433.849V87.1409L421.944 89.0455V9.52273H462.896L464.801 20.4727ZM489.562 14.2818L481.943 23.8045L474.802 14.2818L482.42 4.75909L489.562 14.2818ZM487.18 87.6136L476.229 89.0409V30L487.18 28.0955V87.6136ZM537.66 27.6136L532.419 39.5182H530.519C529.564 39.5182 528.137 39.5182 527.182 39.9955C526.232 39.9955 524.8 40.4727 523.85 40.95C521.468 41.9045 519.564 44.2818 517.659 47.6182C515.754 51.4273 514.804 55.7136 514.804 59.5227V87.1409L503.849 89.0455V30L514.327 28.0955V40.4773C515.754 38.5727 517.182 36.1909 518.613 33.8091C520.514 31.4273 522.896 30 525.278 29.0455C526.709 28.5682 529.087 28.0909 532.419 27.6182H537.66V27.6136ZM620.042 87.6136L609.092 89.0409V48.5636C609.092 44.7545 608.137 41.8955 606.71 40.4682C605.278 38.5636 602.423 38.0864 599.568 38.0864C595.759 38.0864 592.9 39.5136 590.518 42.85C589.086 45.2318 588.613 47.6136 588.613 49.9909V87.6091L577.663 89.5136V49.0364C577.663 45.7045 576.708 42.8455 575.281 40.9409C573.853 39.0364 571.471 38.0818 568.612 38.0818H567.657C563.848 38.0818 560.989 39.5091 559.089 42.8455C557.657 45.2273 557.184 48.5591 557.184 52.3682V87.6045L545.756 89.5091V30L556.229 28.0955V35.7136C557.184 33.8091 558.611 32.3818 559.566 31.4273C560.944 30.0596 562.579 28.9771 564.376 28.2416C566.173 27.5061 568.098 27.1321 570.039 27.1409C574.326 27.1409 577.663 27.6182 580.044 29.0455C581.945 30 583.854 32.3773 585.758 36.1864C589.568 29.9955 594.809 27.1409 601.95 27.1409C608.619 27.1409 613.856 29.0455 617.188 33.8091C620.042 37.1409 621.474 42.8545 621.474 49.5227V87.6182L620.042 87.6136ZM671 69.5182C671 74.7545 669.095 79.5182 665.286 82.85C661.477 86.1818 656.713 88.0864 650.999 88.0864C646.712 88.0864 642.903 87.1318 639.094 85.2273C635.757 83.3227 632.902 80.9409 630.998 78.0864L638.616 70.9455C639.094 71.9 639.571 72.3727 640.048 72.85C642.903 75.7091 646.239 77.1364 650.522 77.1364C653.381 77.1364 655.763 76.1818 657.19 74.7545C658.617 73.3273 659.572 71.4227 659.572 68.5636C659.572 65.7045 657.667 63.3273 653.858 62.3727L641.476 58.5636C638.139 56.6591 635.284 54.7545 633.852 52.85C631.948 50.4682 630.998 47.1364 630.998 42.85C630.998 37.6136 632.902 33.3273 636.712 29.9909C640.521 26.6545 644.808 24.7545 650.049 24.7545C653.858 24.7545 657.667 25.7091 661.004 27.6136C664.341 29.5182 666.718 31.4227 668.145 33.3273L661.954 41.9C660.948 40.8317 659.831 39.8733 658.622 39.0409C655.767 37.1364 653.385 36.1818 651.003 36.1818C648.621 36.1818 646.717 36.6591 645.285 37.6091C644.376 38.2532 643.64 39.1116 643.142 40.1083C642.644 41.1049 642.399 42.209 642.43 43.3227C642.43 45.7045 643.38 47.6091 644.812 48.5591C646.244 49.5091 649.576 50.4636 654.335 51.4182C659.095 52.3727 662.909 54.75 665.763 57.6091C669.573 60.9409 671 64.7545 671 69.5182Z" fill="#3A7AF3"/>
</svg>
