<svg width="72" height="72" viewBox="0 0 72 72" fill="none" xmlns="http://www.w3.org/2000/svg">
<path d="M44.5 62.0537H14.5V57.0996H44.5V62.0537ZM25.7949 58.8564C25.4009 58.8564 25.0813 59.1763 25.0811 59.5703C25.0811 59.9645 25.4007 60.2842 25.7949 60.2842H33.1934C33.5874 60.284 33.9072 59.9644 33.9072 59.5703C33.907 59.1764 33.5873 58.8566 33.1934 58.8564H25.7949ZM22.4287 11.2275C22.4288 12.0627 22.7696 12.8203 23.3184 13.3691C23.8672 13.9179 24.6248 14.2588 25.46 14.2588H33.5273C34.3626 14.2588 35.1211 13.918 35.6699 13.3691C36.2186 12.8203 36.5585 12.0626 36.5586 11.2275V9.94629H44.5V20.5H31.9336C30.8658 20.5 30 21.3658 30 22.4336V47.5664C30 48.6342 30.8658 49.5 31.9336 49.5H44.5V55.6719H14.5V9.94629H22.4287V11.2275ZM35.1318 11.2275C35.1318 11.6686 34.9517 12.0697 34.6611 12.3604C34.3706 12.651 33.9693 12.831 33.5283 12.8311H25.46C25.0192 12.8309 24.6187 12.6507 24.3281 12.3604C24.0376 12.0697 23.8565 11.6686 23.8564 11.2275V9.94629H35.1318V11.2275Z" fill="white"/>
<path fill-rule="evenodd" clip-rule="evenodd" d="M37.3691 22H33.1806C32.252 22 31.5 22.752 31.5 23.6806V27.9298V27.9288C31.5021 28.8552 32.2541 29.6052 33.1806 29.6062H37.3691C38.2966 29.6052 39.0476 28.8542 39.0487 27.9267V23.6807C39.0487 22.7532 38.2966 22.0011 37.3691 22ZM55.8194 22H51.6309C50.7023 22 49.9503 22.752 49.9503 23.6806V27.9298V27.9288C49.9523 28.8552 50.7044 29.6052 51.6309 29.6062H55.8194C56.7469 29.6052 57.4979 28.8531 57.4989 27.9267V23.6807C57.4989 22.7532 56.7469 22.0011 55.8194 22ZM46.5942 22H42.4047C41.4772 22.0021 40.7272 22.7531 40.7272 23.6806V27.9298V27.9288C40.7272 28.8563 41.4793 29.6073 42.4057 29.6083H46.5953C47.5228 29.6073 48.2738 28.8563 48.2748 27.9288V23.6807C48.2738 22.7531 47.5228 22.0021 46.5953 22.0011L46.5942 22ZM37.3691 40.3949H33.1806C32.2531 40.3949 31.5021 41.1469 31.5011 42.0734V46.3194C31.5011 47.2469 32.2531 47.9989 33.1806 48H37.3691C38.2977 48 39.0497 47.248 39.0497 46.3194V42.0702V42.0712C39.0476 41.1448 38.2956 40.3949 37.3691 40.3949ZM55.8194 40.3949H51.6309C50.7034 40.3949 49.9524 41.1469 49.9503 42.0734V46.3194C49.9513 47.248 50.7023 48 51.6309 48H55.8194C56.7479 48 57.5 47.248 57.5 46.3194V42.0702V42.0712C57.4979 41.1448 56.7459 40.3949 55.8194 40.3949ZM46.5942 40.3949H42.4047C41.4782 40.397 40.7283 41.1469 40.7272 42.0734V46.3194C40.7272 47.2469 41.4782 47.9979 42.4057 47.9989H46.5953C47.5228 47.9979 48.2738 47.2469 48.2748 46.3194V42.0702V42.0712C48.2738 41.1437 47.5228 40.3927 46.5953 40.3917L46.5942 40.3949ZM37.3691 31.197H33.1806C32.2531 31.1981 31.5021 31.9491 31.5011 32.8766V37.1258C31.5032 38.0522 32.2542 38.8022 33.1806 38.8032H37.3691C38.2966 38.8022 39.0476 38.0512 39.0487 37.1237V32.8745V32.8756C39.0476 31.9491 38.2966 31.1981 37.3691 31.197ZM55.8194 31.197H51.6309C50.7034 31.1981 49.9524 31.9491 49.9503 32.8766V37.1258C49.9523 38.0522 50.7034 38.8022 51.6309 38.8032H55.8194C56.7469 38.8022 57.4979 38.0512 57.4989 37.1237V32.8745V32.8756C57.4979 31.9491 56.7469 31.1981 55.8194 31.197ZM46.5942 31.197H42.4047C41.4782 31.1991 40.7283 31.9501 40.7272 32.8766V37.1258V37.1247C40.7283 38.0512 41.4782 38.8012 42.4047 38.8032H46.5953C47.5228 38.8022 48.2738 38.0512 48.2749 37.1237V32.8745V32.8756C48.2728 31.9491 47.5228 31.1981 46.5953 31.197H46.5942Z" fill="white"/>
</svg>
