<svg width="72" height="72" viewBox="0 0 72 72" fill="none" xmlns="http://www.w3.org/2000/svg">
<path fill-rule="evenodd" clip-rule="evenodd" d="M66.9998 29.0302C66.9976 29.0999 66.9767 29.2315 66.8629 29.3386L50.6093 44.648L47.6131 41.4799L63.866 26.1712C63.9798 26.0634 64.1145 26.0504 64.1822 26.0526C64.2514 26.0555 64.3839 26.0749 64.4919 26.1891L66.881 28.714C66.989 28.8275 67.002 28.9605 66.9998 29.0302ZM45.6338 46.2277L48.5177 45.5449L46.5341 43.4477L46.0444 44.855L45.6338 46.2277ZM21.814 41.3074L19.77 42.6564L20.8698 43.5527C21.3279 43.9242 21.3956 44.5969 21.0232 45.0533C20.8115 45.3121 20.5046 45.4458 20.1942 45.4458C19.9572 45.4458 19.7174 45.3667 19.5193 45.2057L15.6877 42.0879L11.3302 45.0792V45.9898L25.9129 46.0243L25.9165 44.5883C25.9115 44.584 25.905 44.5833 25.9 44.579L21.814 41.3074ZM15.1345 39.8757L11.3288 42.4875L11.3295 31.4724C11.3295 31.4566 11.3468 31.4379 11.3633 31.4379L25.9461 31.4717L25.9223 41.8615L22.5436 39.1562C22.1814 38.8666 21.6721 38.8429 21.2847 39.098L18.0335 41.2434L16.4158 39.9274C16.0478 39.6284 15.527 39.6076 15.1345 39.8757ZM14.9545 35.457C14.9509 36.3015 15.2778 37.0964 15.8735 37.6965C16.4691 38.2952 17.2628 38.628 18.1091 38.6316C18.1141 38.6316 18.1185 38.6316 18.1235 38.6316C18.9648 38.6316 19.7563 38.306 20.3534 37.7145C20.9541 37.1201 21.2875 36.3274 21.2897 35.4836C21.2933 34.6391 20.9663 33.8442 20.3707 33.2448C19.775 32.6454 18.9806 32.3126 18.1343 32.3105C18.1293 32.3105 18.125 32.3105 18.1214 32.3105C17.2801 32.3105 16.4886 32.6353 15.8915 33.2268C15.2901 33.8198 14.9573 34.6125 14.9545 35.457ZM51.3129 46.9163L57.1109 41.4554V59.5032C57.1109 60.8802 55.988 62 54.6088 62H7.50284C6.12286 62 5 60.8795 5 59.5032V24.7747H57.1109V29.5995L47.6419 38.518C47.5987 38.513 47.5569 38.5051 47.513 38.5051H33.1031C32.5125 38.5051 32.0342 38.983 32.0342 39.5717C32.0342 40.1603 32.5125 40.6382 33.1031 40.6382H45.3918L45.3839 40.6462C45.3155 40.708 45.255 40.7791 45.2039 40.8582C45.1534 40.9365 45.1138 41.0199 45.0857 41.1061L44.0119 44.1995L43.4551 46.0574C43.3737 46.0373 43.2887 46.0236 43.2016 46.0236H33.1038C32.5132 46.0236 32.035 46.5008 32.035 47.0902C32.035 47.6795 32.5132 48.1568 33.1038 48.1568H43.1245C43.1713 48.2523 43.2282 48.3436 43.3031 48.4234C43.5077 48.6397 43.79 48.7583 44.0803 48.7583C44.1624 48.7583 44.2452 48.749 44.3273 48.7296L50.8102 47.1944C50.8167 47.193 50.8246 47.1908 50.8311 47.1894C51.0191 47.1391 51.1826 47.0435 51.3129 46.9163ZM32.0342 32.0539C32.0342 32.6432 32.5125 33.1205 33.1031 33.1205H48.481C49.0708 33.1205 49.5498 32.6432 49.5498 32.0539C49.5498 31.4652 49.0716 30.9873 48.481 30.9873H33.1031C32.5118 30.9873 32.0342 31.4652 32.0342 32.0539ZM9.1918 45.9905C9.19108 47.1858 10.1656 48.1575 11.3633 48.1575H25.9115C27.1092 48.1575 28.083 47.1851 28.083 45.9898V31.4724C28.083 30.2772 27.1085 29.3041 25.9115 29.3041H11.3641C10.1663 29.3041 9.19252 30.2765 9.19252 31.4724L9.1918 45.9905ZM51.2863 53.5428H10.2606C9.67076 53.5428 9.1918 54.0201 9.1918 54.6094C9.1918 55.198 9.67004 55.676 10.2606 55.676H51.2863C51.8762 55.676 52.3551 55.1988 52.3551 54.6094C52.3551 54.0201 51.8762 53.5428 51.2863 53.5428ZM18.1199 36.497C18.1206 36.497 18.1221 36.497 18.1235 36.497C18.3979 36.497 18.6551 36.3913 18.8488 36.1987C19.044 36.0061 19.1527 35.7481 19.1535 35.4735C19.1549 35.1997 19.0483 34.941 18.8546 34.7462C18.6615 34.5514 18.4037 34.4429 18.1278 34.4422C18.1278 34.4429 18.1242 34.4422 18.1228 34.4422C17.8491 34.4422 17.5927 34.5485 17.3975 34.7404C17.2016 34.9338 17.0936 35.1918 17.0936 35.4656C17.0928 35.7395 17.1987 35.9982 17.3925 36.1937C17.5862 36.3877 17.8441 36.4956 18.1199 36.497ZM57.1102 22.6408H5.00072V12.4975C5.00072 11.1205 6.12358 10 7.50284 10H54.608C55.988 10 57.1102 11.1205 57.1102 12.4975V22.6408ZM11.1789 16.8285C11.1789 16.2399 10.7021 15.762 10.1108 15.762H10.1072C9.51807 15.762 9.03983 16.2392 9.03983 16.8285C9.03983 17.4172 9.51807 17.8951 10.1087 17.8951C10.6985 17.8944 11.1789 17.4172 11.1789 16.8285ZM15.2483 16.8285C15.2483 16.2399 14.7715 15.762 14.1802 15.762H14.1773C13.5882 15.762 13.1092 16.2392 13.1092 16.8285C13.1092 17.4172 13.5874 17.8951 14.178 17.8951C14.7679 17.8944 15.2483 17.4172 15.2483 16.8285ZM19.317 16.8285C19.317 16.2399 18.8402 15.762 18.2488 15.762H18.246C17.6561 15.762 17.1771 16.2392 17.1771 16.8285C17.1771 17.4172 17.6554 17.8951 18.246 17.8951C18.8366 17.8944 19.317 17.4172 19.317 16.8285ZM53.0703 16.8285C53.0703 16.2399 52.5921 15.762 52.0015 15.762H22.9808C22.3895 15.762 21.9113 16.2392 21.9113 16.8285C21.9113 17.4172 22.3895 17.8951 22.9801 17.8951H52.0022C52.5921 17.8944 53.0703 17.4172 53.0703 16.8285Z" fill="white"/>
</svg>
