<svg width="72" height="72" viewBox="0 0 72 72" fill="none" xmlns="http://www.w3.org/2000/svg">
<path d="M54.7907 29.1242V49.9869C54.7906 50.2483 54.7254 50.5056 54.601 50.7355C54.4766 50.9654 54.2969 51.1607 54.0782 51.3039C53.8594 51.447 53.6085 51.5334 53.348 51.5553C53.0875 51.5772 52.8256 51.534 52.586 51.4294L49.2412 49.9491C46.5988 48.7875 43.7435 48.189 40.8571 48.1916H38.1988C35.9067 48.1916 33.7085 47.2811 32.0877 45.6603C30.467 44.0396 29.5564 41.8413 29.5564 39.5492C29.5564 37.2571 30.467 35.0589 32.0877 33.4381C33.7085 31.8174 35.9067 30.9068 38.1988 30.9068H40.8382C43.7301 30.9161 46.5921 30.3218 49.2412 29.162L52.6049 27.688C52.8445 27.5834 53.1064 27.5401 53.3669 27.562C53.6274 27.584 53.8783 27.6704 54.0971 27.8135C54.3158 27.9566 54.4955 28.152 54.6199 28.3819C54.7443 28.6118 54.8095 28.8691 54.8096 29.1305L54.7907 29.1242ZM40.8382 51.3475H38.1988C37.4033 51.3484 36.6097 51.2682 35.8304 51.1081V56.5569C35.8792 58.017 36.4936 59.401 37.5438 60.4166C38.5939 61.4323 39.9977 62 41.4586 62C42.9196 62 44.3233 61.4323 45.3735 60.4166C46.4237 59.401 47.0381 58.017 47.0869 56.5569V52.4688C45.0892 51.7192 42.9718 51.3393 40.8382 51.3475ZM57.9403 33.0107V46.094C58.9794 45.3488 59.826 44.3667 60.41 43.2291C60.9941 42.0915 61.2987 40.8311 61.2987 39.5524C61.2987 38.2736 60.9941 37.0133 60.41 35.8757C59.826 34.7381 58.9794 33.756 57.9403 33.0107ZM32.6808 49.9491C30.3553 48.7164 28.5091 46.7412 27.436 44.338C26.363 41.9347 26.1248 39.2415 26.7594 36.6872C27.394 34.1329 28.8649 31.8643 30.9379 30.2426C33.0109 28.6209 35.5669 27.7394 38.1988 27.7384H40.8382C43.2953 27.7506 45.7281 27.2508 47.9814 26.2707L48.4916 26.0439V18.4534C48.4916 18.0358 48.3257 17.6352 48.0304 17.3399C47.735 17.0446 47.3345 16.8787 46.9168 16.8787H19.2007C18.9936 16.8778 18.7885 16.918 18.597 16.9968C18.4056 17.0757 18.2317 17.1917 18.0853 17.338C17.9389 17.4844 17.8229 17.6584 17.744 17.8498C17.6652 18.0413 17.625 18.2464 17.6259 18.4534V53.464C17.625 53.6711 17.6652 53.8762 17.744 54.0676C17.8229 54.2591 17.9389 54.433 18.0853 54.5794C18.2317 54.7258 18.4056 54.8418 18.597 54.9206C18.7885 54.9995 18.9936 55.0396 19.2007 55.0388H32.6808V49.9491ZM14.4826 18.4534C14.4843 17.201 14.9825 16.0003 15.8682 15.1147C16.7538 14.229 17.9545 13.7308 19.207 13.7291H41.5689V11.5748C41.5697 11.3678 41.5295 11.1626 41.4507 10.9712C41.3718 10.7797 41.2559 10.6058 41.1095 10.4594C40.9631 10.313 40.7892 10.197 40.5977 10.1182C40.4063 10.0393 40.2011 9.99918 39.9941 10H12.2779C11.8602 10 11.4597 10.1659 11.1644 10.4613C10.869 10.7566 10.7031 11.1571 10.7031 11.5748V46.5665C10.7031 46.9841 10.869 47.3847 11.1644 47.68C11.4597 47.9753 11.8602 48.1413 12.2779 48.1413H14.4574L14.4826 18.4534Z" fill="white"/>
</svg>
