<svg width="72" height="72" viewBox="0 0 72 72" fill="none" xmlns="http://www.w3.org/2000/svg">
<path d="M7.10938 24.4434V54.7769C7.10938 58.7582 10.3486 62.0001 14.3325 62.0001H57.6658C61.6471 62.0001 64.889 58.7609 64.889 54.7769V24.4434H7.10938ZM24.4427 53.3334H15.776C14.9798 53.3334 14.3325 52.6888 14.3325 51.8899C14.3325 51.0909 14.9798 50.4463 15.776 50.4463H24.4427C25.2389 50.4463 25.8862 51.0909 25.8862 51.8899C25.8862 52.6888 25.2389 53.3334 24.4427 53.3334ZM33.1094 47.5565H15.776C14.9798 47.5565 14.3325 46.9119 14.3325 46.113C14.3325 45.314 14.9798 44.6694 15.776 44.6694H33.1094C33.9056 44.6694 34.5529 45.314 34.5529 46.113C34.5529 46.9119 33.9056 47.5565 33.1094 47.5565ZM33.1094 41.7769H15.776C14.9798 41.7769 14.3325 41.1323 14.3325 40.3334C14.3325 39.5344 14.9798 38.8898 15.776 38.8898H33.1094C33.9056 38.8898 34.5529 39.5344 34.5529 40.3334C34.5529 41.1323 33.9056 41.7769 33.1094 41.7769ZM33.1094 36H15.776C14.9798 36 14.3325 35.3554 14.3325 34.5565C14.3325 33.7575 14.9798 33.1129 15.776 33.1129H33.1094C33.9056 33.1129 34.5529 33.7575 34.5529 34.5565C34.5529 35.3554 33.9056 36 33.1094 36ZM57.9771 37.3704L47.0759 52.662C46.8538 52.9762 46.5152 53.1847 46.1388 53.2497L42.1115 53.9268C42.0329 53.9404 41.9517 53.9458 41.8704 53.9458C41.5725 53.9458 41.2773 53.8537 41.0309 53.6777C40.7194 53.4556 40.5081 53.117 40.4431 52.7405L39.7661 48.7105C39.7038 48.3313 39.7932 47.9467 40.0152 47.6353L50.9165 32.3437C52.3005 30.3964 55.0088 29.9441 56.9588 31.3308C58.9034 32.7202 59.3583 35.4313 57.9717 37.3759L57.9771 37.3704Z" fill="white"/>
<path d="M50.7584 37.5459L42.7227 48.8182L43.0585 50.8359L45.0735 50.4974L53.112 39.2196L50.7584 37.5459Z" fill="white"/>
<path d="M54.7871 36.8696L55.624 35.6942C56.0871 35.0469 55.9354 34.1423 55.2854 33.6764C54.6381 33.216 53.7335 33.3649 53.2732 34.0122L52.4336 35.1904L54.7871 36.8668L54.7871 36.8696Z" fill="white"/>
<path d="M64.889 21.5566V17.2232C64.889 13.2419 61.6498 10 57.6658 10H14.3325C10.3513 10 7.10938 13.2392 7.10938 17.2232V21.5566H64.889ZM57.6658 14.3334C58.4621 14.3334 59.1094 14.9807 59.1094 15.7769C59.1094 16.5731 58.4621 17.2204 57.6658 17.2204C56.8696 17.2204 56.2223 16.5731 56.2223 15.7769C56.2223 14.9807 56.8696 14.3334 57.6658 14.3334ZM51.889 14.3334C52.6852 14.3334 53.3325 14.9807 53.3325 15.7769C53.3325 16.5731 52.6852 17.2204 51.889 17.2204C51.0928 17.2204 50.4455 16.5731 50.4455 15.7769C50.4455 14.9807 51.0928 14.3334 51.889 14.3334ZM46.1094 14.3334C46.9057 14.3334 47.5529 14.9807 47.5529 15.7769C47.5529 16.5731 46.9057 17.2204 46.1094 17.2204C45.3132 17.2204 44.6659 16.5731 44.6659 15.7769C44.6659 14.9807 45.3132 14.3334 46.1094 14.3334ZM14.3326 14.3334H34.5557C35.3519 14.3334 35.9992 14.9807 35.9992 15.7769C35.9992 16.5731 35.352 17.2204 34.5557 17.2204H14.3326C13.5364 17.2204 12.8891 16.5731 12.8891 15.7769C12.8891 14.9807 13.5364 14.3334 14.3326 14.3334Z" fill="white"/>
</svg>
