<svg width="72" height="72" viewBox="0 0 72 72" fill="none" xmlns="http://www.w3.org/2000/svg">
<path d="M48.3404 37.067C48.3285 37.0431 48.3165 37.0312 48.3165 37.0074C46.5525 31.1551 41.3558 27.4005 35.6823 27.1621C34.4904 28.2348 34.2161 28.4136 33.8586 28.9023C33.8229 29.0215 32.4283 30.7975 33.656 32.931C34.2935 34.0826 35.24 34.3431 36.0279 34.8262C40.9981 35.589 43.7873 42.9789 38.1496 46.2328L25.408 53.5274C22.4758 55.2079 18.7332 54.1829 17.0527 51.2627C15.384 48.3305 16.3972 44.588 19.3292 42.9074L23.7036 40.4043C22.5832 38.7594 21.2481 36.2922 20.7834 33.2528L15.527 36.2563C12.2136 38.1515 9.99664 41.2028 9.06688 44.5998C8.14911 47.9968 8.51862 51.7632 10.4018 55.0649C14.1921 61.6681 22.607 63.9567 29.2103 60.1782L41.9519 52.8836C46.9578 50.0112 50.1641 44.0158 48.3404 37.067Z" fill="white"/>
<path d="M56.471 35.7435L51.1074 38.8067C50.7554 36.1673 49.9983 34.006 48.2945 31.5957L52.6688 29.0926C55.6009 27.4239 56.614 23.6693 54.9334 20.7491C53.2647 17.817 49.5221 16.8039 46.5899 18.4726L33.8483 25.7671C28.6253 28.7296 30.5016 36.7207 36.3871 37.1619L37.3645 37.9963C39.2517 39.5982 39.6578 42.5657 36.995 44.1467L35.8507 44.8142C31.3703 44.4737 27.2756 41.971 24.9329 37.9249C21.1591 31.3618 23.425 22.8931 30.0461 19.1165L42.7877 11.8217C49.391 8.04332 57.8059 10.3318 61.5842 16.935C65.3746 23.5502 63.0861 31.9652 56.471 35.7435Z" fill="white"/>
</svg>
