<svg width="72" height="72" viewBox="0 0 72 72" fill="none" xmlns="http://www.w3.org/2000/svg">
<path d="M56.5409 41.8359C55.6345 42.9696 54.7889 43.9033 54.086 44.6163C54.3944 44.8719 54.5703 45.1168 54.5703 45.2845C54.5703 45.8232 52.9435 47.1417 49.9275 47.1417C46.9114 47.1417 45.2846 45.8232 45.2846 45.2845C45.2846 45.1168 45.4605 44.8719 45.7689 44.6163C45.0661 43.9033 44.2205 42.9696 43.314 41.8359C42.2292 42.774 41.5703 43.9527 41.5703 45.2845C41.5703 48.4611 45.1631 50.856 49.9275 50.856C54.6918 50.856 58.2846 48.4611 58.2846 45.2845C58.2846 43.9527 57.6257 42.774 56.5409 41.8359Z" fill="white"/>
<path d="M49.9269 10C43.2709 10 37.8555 15.4155 37.8555 22.0714C37.8555 35.8676 48.311 44.5095 48.7571 44.8704C49.0981 45.147 49.5116 45.2857 49.9269 45.2857C50.3422 45.2857 50.7557 45.147 51.0967 44.8704C51.5428 44.5095 61.9983 35.8676 61.9983 22.0714C61.9983 15.4155 56.5829 10 49.9269 10ZM49.9269 28.5714C46.3432 28.5714 43.4269 25.6551 43.4269 22.0714C43.4269 18.4877 46.3432 15.5714 49.9269 15.5714C53.5106 15.5714 56.4269 18.4877 56.4269 22.0714C56.4269 25.6551 53.5106 28.5714 49.9269 28.5714Z" fill="white"/>
<path d="M45.989 55.275L40.2583 49.5443C39.5329 48.8189 38.3571 48.8189 37.6318 49.5443L37.088 50.0881L36.247 49.2473C38.4091 46.6668 39.7143 43.3444 39.7143 39.7146C39.7143 31.5092 33.0625 24.8574 24.8572 24.8574C16.6518 24.8574 10 31.5092 10 39.7146C10 47.9199 16.6518 54.5717 24.8572 54.5717C28.487 54.5717 31.8094 53.2665 34.3899 51.1044L35.2308 51.9453L34.6868 52.4892C33.9615 53.2146 33.9615 54.3904 34.6868 55.1157L40.4175 60.8464C41.956 62.3849 44.4505 62.3849 45.989 60.8464C47.5275 59.3079 47.5275 56.8135 45.989 55.275ZM24.8572 52.7146C17.6886 52.7146 11.8571 46.8832 11.8571 39.7146C11.8571 32.5459 17.6886 26.7146 24.8572 26.7146C32.0258 26.7146 37.8572 32.5459 37.8572 39.7146C37.8572 46.8832 32.0258 52.7146 24.8572 52.7146Z" fill="white"/>
<path d="M24.8577 28.5713C18.714 28.5713 13.7148 33.5703 13.7148 39.7142C13.7148 40.9888 13.9406 42.2091 14.3366 43.3508L19.5583 38.1291C19.921 37.7663 20.5087 37.7663 20.8714 38.1291L23.9291 41.1868L29.1161 35.9999H27.6434C27.1302 35.9999 26.7149 35.5845 26.7149 35.0713C26.7149 34.558 27.1302 34.1427 27.6434 34.1427H31.3577C31.871 34.1427 32.2863 34.558 32.2863 35.0713V38.7856C32.2863 39.2988 31.871 39.7142 31.3577 39.7142C30.8445 39.7142 30.4291 39.2988 30.4291 38.7856V37.3129L24.5857 43.1564C24.2229 43.5191 23.6353 43.5191 23.2726 43.1564L20.2148 40.0986L15.1491 45.1644C17.0615 48.557 20.6939 50.857 24.8577 50.857C31.0016 50.857 36.0006 45.858 36.0006 39.7142C36.0006 33.5703 31.0016 28.5713 24.8577 28.5713Z" fill="white"/>
<path d="M49.928 26.7144C52.4922 26.7144 54.5709 24.6358 54.5709 22.0716C54.5709 19.5074 52.4922 17.4287 49.928 17.4287C47.3638 17.4287 45.2852 19.5074 45.2852 22.0716C45.2852 24.6358 47.3638 26.7144 49.928 26.7144Z" fill="white"/>
</svg>
