<svg width="72" height="72" viewBox="0 0 72 72" fill="none" xmlns="http://www.w3.org/2000/svg">
<path fill-rule="evenodd" clip-rule="evenodd" d="M11.2635 43.4228C11.2637 43.3069 11.3098 43.1959 11.3917 43.114C11.4736 43.0321 11.5847 42.986 11.7005 42.9857H15.5441C15.66 42.9859 15.771 43.0321 15.8529 43.114C15.9348 43.1959 15.9809 43.3069 15.9812 43.4228V49.2807H18.8957V40.0493C18.8959 39.9335 18.942 39.8225 19.0239 39.7406C19.1058 39.6586 19.2169 39.6125 19.3327 39.6123H23.1763C23.2922 39.6125 23.4032 39.6586 23.4851 39.7406C23.5671 39.8225 23.6132 39.9335 23.6134 40.0493V49.2807H26.528V36.6758C26.5283 36.56 26.5744 36.449 26.6563 36.367C26.7382 36.2851 26.8492 36.239 26.9651 36.2388H30.8086C30.9244 36.239 31.0355 36.2851 31.1174 36.367C31.1993 36.4489 31.2454 36.56 31.2456 36.6758V49.2807H34.1603V33.3024C34.1605 33.1865 34.2066 33.0755 34.2885 32.9936C34.3704 32.9117 34.4815 32.8656 34.5973 32.8654H38.4409C38.5568 32.8656 38.6678 32.9117 38.7497 32.9936C38.8316 33.0755 38.8778 33.1865 38.878 33.3024V49.2807H45.3377H66.4294V36.0036V13.1771C66.4294 11.4296 64.9997 10 63.2523 10H8.74746C7 10 5.57031 11.4296 5.57031 13.1771V49.2807H11.2635V43.4228ZM51.7815 13.0664L49.7382 17.9272L44.4837 18.3685L48.4752 21.814L47.2713 26.9476L51.7815 24.2161L56.2917 26.9476L55.0878 21.814L59.0793 18.3685L53.8249 17.9272L51.7815 13.0664ZM36.8523 15.0533L35.5746 18.0926L32.2894 18.3685L34.785 20.5228L34.0322 23.7326L36.8523 22.0247L39.6724 23.7326L38.9195 20.5228L41.4153 18.3685L38.1299 18.0926L36.8523 15.0533ZM31.1783 32.3648L32.335 28.9672C32.5752 28.351 32.2023 27.6616 31.5474 27.5337L27.9781 26.827C27.8409 26.8002 27.6997 26.8007 27.5626 26.8284C27.4256 26.8562 27.2954 26.9107 27.1794 26.9888C27.0634 27.0669 26.9639 27.1671 26.8866 27.2836C26.8093 27.4001 26.7558 27.5308 26.729 27.668C26.7022 27.8052 26.7027 27.9464 26.7304 28.0835C26.7582 28.2205 26.8127 28.3508 26.8908 28.4667C26.9689 28.5827 27.0691 28.6822 27.1856 28.7595C27.3021 28.8368 27.4328 28.8903 27.57 28.9171L28.3627 29.0741L13.1951 37.8311C12.9545 37.9731 12.7795 38.2042 12.7082 38.4744C12.6369 38.7445 12.675 39.0318 12.8142 39.2741C12.9533 39.5163 13.1824 39.6939 13.4517 39.7683C13.721 39.8428 14.0088 39.808 14.2526 39.6716L29.4251 30.9119L29.163 31.6819C29.1172 31.8145 29.098 31.9548 29.1066 32.0948C29.1153 32.2348 29.1515 32.3717 29.2132 32.4977C29.2749 32.6236 29.3609 32.7362 29.4663 32.8287C29.5717 32.9213 29.6943 32.9922 29.8271 33.0372C29.96 33.0822 30.1004 33.1005 30.2404 33.091C30.3803 33.0816 30.517 33.0445 30.6426 32.982C30.7682 32.9195 30.8802 32.8328 30.9721 32.7269C31.064 32.621 31.1341 32.4979 31.1783 32.3648ZM25.2449 15.0533L23.9673 18.0926L20.6819 18.3685L23.1777 20.5228L22.4249 23.7326L25.2449 22.0247L28.065 23.7326L27.3122 20.5228L29.8079 18.3685L26.5226 18.0926L25.2449 15.0533ZM12.36 18.0926L9.0747 18.3685L11.5702 20.5228L10.8174 23.7326L13.6376 22.0247L16.4576 23.7326L15.7048 20.5228L18.2006 18.3685L14.9152 18.0926L13.6377 15.0533L12.36 18.0926Z" fill="white"/>
<path fill-rule="evenodd" clip-rule="evenodd" d="M50.92 62C51.274 62 51.553 61.6117 51.3466 61.2576L48.7097 56.7324H23.29L20.6529 61.2576C20.4465 61.6117 20.7255 62 21.0795 62H50.92ZM51.4176 54.6006C50.9108 54.1587 50.3879 53.731 49.8654 53.3035C49.5052 53.0088 49.1451 52.7142 48.7906 52.4153C48.3996 52.0857 48.0126 51.7514 47.6296 51.4126H5.57031V51.4234C5.57031 53.171 7 54.6006 8.74746 54.6006H51.4176Z" fill="white"/>
<path d="M63.0728 54.6001H20.4027C20.9095 54.1582 21.4324 53.7305 21.9549 53.303L21.9553 53.3027C22.3154 53.0081 22.6753 52.7136 23.0297 52.4148C23.4207 52.0852 23.8078 51.7509 24.1908 51.4121H66.25V51.4229C66.25 53.1705 64.8203 54.6001 63.0728 54.6001Z" fill="white"/>
</svg>
