<svg width="72" height="72" viewBox="0 0 72 72" fill="none" xmlns="http://www.w3.org/2000/svg">
<path d="M54.5705 32.2859C54.5705 19.9967 44.574 10 32.2852 10C19.9964 10 10 19.9967 10 32.2859C10 44.5751 19.9964 54.5718 32.2852 54.5718C44.574 54.5718 54.5705 44.5751 54.5705 32.2859ZM32.2852 50.8575C22.0458 50.8575 13.7142 42.5257 13.7142 32.2859C13.7142 22.0461 22.0458 13.7143 32.2852 13.7143C42.5247 13.7143 50.8563 22.0461 50.8563 32.2859C50.8563 42.5257 42.5247 50.8575 32.2852 50.8575Z" fill="white"/>
<path d="M60.3019 52.1047L52.9317 44.7344C50.9021 48.0876 48.0875 50.9023 44.7344 52.932L52.1045 60.3024C53.1981 61.3978 54.6544 61.9999 56.2032 61.9999C57.7502 61.9999 59.2065 61.3978 60.3019 60.3024C62.5616 58.0408 62.5616 54.3627 60.3019 52.1047Z" fill="white"/>
<path d="M48.5414 35.4705L46.4848 34.2716C46.5791 33.5943 46.6281 32.9287 46.6281 32.2857C46.6281 31.6428 46.5791 30.9772 46.4848 30.2998L48.5414 29.101C48.9821 28.8444 49.1327 28.2794 48.8788 27.8369L44.4083 20.0256C44.2868 19.8107 44.0819 19.6538 43.8425 19.5903C43.6031 19.525 43.3492 19.5595 43.1352 19.6846L41.0804 20.8825C40.0448 20.07 38.9077 19.408 37.6872 18.9066V16.4999C37.6872 15.9866 37.2719 15.5713 36.7586 15.5713H27.8177C27.3045 15.5713 26.8891 15.9866 26.8891 16.4999V18.9066C25.6686 19.408 24.5315 20.07 23.4959 20.8825L21.4412 19.6846C21.229 19.5613 20.9714 19.5277 20.7339 19.5903C20.4945 19.6538 20.2895 19.8107 20.168 20.0256L15.6976 27.8369C15.4437 28.2794 15.5942 28.8444 16.0349 29.101L18.0915 30.2998C17.9972 30.9772 17.9482 31.6428 17.9482 32.2857C17.9482 32.765 18.0021 33.2661 18.055 33.766L27.1944 28.6884C27.5009 28.5188 27.8709 28.5342 28.161 28.7274L33.0994 32.0191L40.2612 24.8571H38.788C38.2748 24.8571 37.8595 24.4418 37.8595 23.9285C37.8595 23.4152 38.2748 22.9999 38.788 22.9999H42.5022C43.0155 22.9999 43.4308 23.4152 43.4308 23.9285V27.6428C43.4308 28.1561 43.0155 28.5714 42.5022 28.5714C41.989 28.5714 41.5737 28.1561 41.5737 27.6428V26.1707L33.8738 33.8708C33.56 34.1837 33.0722 34.2327 32.7022 33.9869L27.6024 30.5863L15.8999 37.0881L20.168 44.5459C20.2895 44.7608 20.4945 44.9177 20.7339 44.9811C20.9696 45.0428 21.2272 45.0102 21.4412 44.8868L23.0026 43.9765V40.6429C23.0026 40.1297 23.418 39.7144 23.9312 39.7144H25.7883C26.3015 39.7144 26.7169 40.1297 26.7169 40.6429V48.0716C26.7169 48.5848 27.3045 49.0002 27.8177 49.0002H28.574V42.5001C28.574 41.9868 28.9893 41.5715 29.5025 41.5715H31.3596C31.8729 41.5715 32.2882 41.9868 32.2882 42.5001V49.0002H34.1453V38.7858C34.1453 38.2725 34.5606 37.8572 35.0738 37.8572H36.9309C37.4442 37.8572 37.8595 38.2725 37.8595 38.7858V45.5799C38.5045 45.3048 39.1219 44.979 39.7166 44.6147V33.2143C39.7166 32.701 40.1319 32.2857 40.6451 32.2857H42.5022C43.0155 32.2857 43.4308 32.701 43.4308 33.2143V44.9877C43.5677 45.0139 43.7076 45.018 43.8425 44.9811C44.0819 44.9177 44.2868 44.7608 44.4083 44.5459L48.8788 36.7346C49.1327 36.292 48.9821 35.7271 48.5414 35.4705Z" fill="white"/>
</svg>
