<svg width="72" height="72" viewBox="0 0 72 72" fill="none" xmlns="http://www.w3.org/2000/svg">
<path d="M22.6635 19.5333H26.0603L25.0698 23H21.673L22.6635 19.5333ZM30.8 22.1333V32.5333H24.7333V35.6411C24.7333 36.0549 24.6106 36.4594 24.3807 36.8035C24.1508 37.1475 23.8241 37.4157 23.4418 37.5741C23.0595 37.7324 22.6388 37.7738 22.233 37.6931C21.8271 37.6124 21.4543 37.4131 21.1617 37.1205L16.5745 32.5333H14.3333C13.1845 32.532 12.0831 32.075 11.2707 31.2626C10.4583 30.4503 10.0013 29.3489 10 28.2V14.3333C10.0013 13.1845 10.4583 12.0831 11.2707 11.2707C12.0831 10.4583 13.1845 10.0013 14.3333 10H35.1333C36.2822 10.0013 37.3836 10.4583 38.196 11.2707C39.0083 12.0831 39.4653 13.1845 39.4667 14.3333V16.0667H36.8667C35.2583 16.0686 33.7163 16.7084 32.579 17.8457C31.4417 18.983 30.8019 20.525 30.8 22.1333ZM31.6667 18.6667C31.6667 18.5528 31.6444 18.4401 31.6008 18.3349C31.5573 18.2298 31.4935 18.1342 31.413 18.0537C31.3325 17.9732 31.2369 17.9094 31.1317 17.8658C31.0266 17.8223 30.9138 17.7999 30.8 17.8H28.3587L29.0337 15.4378C29.096 15.217 29.0682 14.9804 28.9564 14.78C28.8445 14.5796 28.6578 14.4317 28.4371 14.3688C28.2165 14.3058 27.9798 14.3329 27.7791 14.4442C27.5784 14.5554 27.4299 14.7417 27.3663 14.9622L26.5555 17.8H23.1587L23.8337 15.4378C23.896 15.217 23.8682 14.9804 23.7564 14.78C23.6445 14.5796 23.4578 14.4317 23.2371 14.3688C23.0165 14.3058 22.7798 14.3329 22.5791 14.4442C22.3784 14.5554 22.2299 14.7417 22.1663 14.9622L21.3555 17.8H18.6667C18.4368 17.8 18.2164 17.8913 18.0538 18.0538C17.8913 18.2164 17.8 18.4368 17.8 18.6667C17.8 18.8965 17.8913 19.117 18.0538 19.2795C18.2164 19.442 18.4368 19.5333 18.6667 19.5333H20.8603L19.8698 23H16.9333C16.7035 23 16.483 23.0913 16.3205 23.2538C16.158 23.4164 16.0667 23.6368 16.0667 23.8667C16.0667 24.0965 16.158 24.317 16.3205 24.4795C16.483 24.642 16.7035 24.7333 16.9333 24.7333H19.3746L18.6997 27.0955C18.6368 27.3166 18.6643 27.5536 18.776 27.7545C18.8877 27.9554 19.0745 28.1037 19.2955 28.167C19.3732 28.1887 19.4535 28.1998 19.5342 28.2C19.7224 28.1997 19.9055 28.1382 20.0557 28.0248C20.2059 27.9114 20.3152 27.7521 20.367 27.5712L21.1778 24.7333H24.5746L23.8997 27.0955C23.8368 27.3166 23.8643 27.5536 23.976 27.7545C24.0877 27.9554 24.2745 28.1037 24.4955 28.167C24.5732 28.1887 24.6535 28.1998 24.7342 28.2C24.9224 28.1997 25.1055 28.1382 25.2557 28.0248C25.4059 27.9114 25.5152 27.7521 25.567 27.5712L26.3778 24.7333H29.0667C29.2965 24.7333 29.517 24.642 29.6795 24.4795C29.842 24.317 29.9333 24.0965 29.9333 23.8667C29.9333 23.6368 29.842 23.4164 29.6795 23.2538C29.517 23.0913 29.2965 23 29.0667 23H26.873L27.8635 19.5333H30.8C30.9138 19.5334 31.0266 19.511 31.1317 19.4675C31.2369 19.424 31.3325 19.3601 31.413 19.2796C31.4935 19.1991 31.5573 19.1036 31.6008 18.9984C31.6444 18.8932 31.6667 18.7805 31.6667 18.6667ZM41.2 27.3333V35.1333H42.9351L42.9333 27.3333H41.2ZM52.4667 28.2H49.8667C49.7201 28.2 49.576 28.1629 49.4477 28.0921C49.3194 28.0212 49.2112 27.919 49.1331 27.795C49.0551 27.6709 49.0098 27.5291 49.0014 27.3828C48.9931 27.2365 49.022 27.0905 49.0855 26.9584C49.8624 25.3385 49.793 23.9496 49.3783 23.292C49.3098 23.1828 49.1693 23 49 23C48.8777 22.9891 48.7544 23.0034 48.6378 23.042C48.5212 23.0806 48.4138 23.1426 48.3221 23.2243C48.2526 23.3058 48.1999 23.4003 48.1672 23.5022C48.1345 23.6042 48.1224 23.7117 48.1316 23.8184C48.0964 25.2799 47.4982 26.6713 46.4618 27.7023C45.9714 28.2481 45.3552 28.6658 44.6667 28.9194V33.8706C45.6527 34.6599 46.8707 35.1035 48.1333 35.1333H52.4667C52.6965 35.1332 52.9168 35.0418 53.0793 34.8793C53.2418 34.7168 53.3332 34.4965 53.3333 34.2667V29.0667C53.3332 28.8369 53.2418 28.6165 53.0793 28.454C52.9168 28.2915 52.6965 28.2002 52.4667 28.2ZM62 22.1333V36C61.9987 37.1489 61.5417 38.2503 60.7293 39.0626C59.9169 39.875 58.8155 40.332 57.6667 40.3333H50.2255L45.6383 44.9206C45.3456 45.2132 44.9729 45.4124 44.567 45.4931C44.1612 45.5739 43.7405 45.5324 43.3582 45.3741C42.9759 45.2157 42.6492 44.9476 42.4193 44.6035C42.1894 44.2594 42.0667 43.8549 42.0667 43.4412V40.3333H36.8667C35.7178 40.332 34.6164 39.875 33.804 39.0626C32.9917 38.2503 32.5347 37.1489 32.5333 36V22.1333C32.5347 20.9845 32.9917 19.8831 33.804 19.0707C34.6164 18.2583 35.7178 17.8013 36.8667 17.8H57.6667C58.8155 17.8013 59.9169 18.2583 60.7293 19.0707C61.5417 19.8831 61.9987 20.9845 62 22.1333ZM55.0667 29.0667C55.0659 28.3773 54.7917 27.7165 54.3043 27.229C53.8169 26.7416 53.156 26.4674 52.4667 26.4667H51.1285C51.3691 25.8015 51.4683 25.0935 51.4196 24.3878C51.3709 23.6822 51.1755 22.9944 50.8459 22.3686C50.6588 22.0418 50.3906 21.7688 50.0673 21.5758C49.744 21.3827 49.3764 21.2763 49 21.2667C48.6415 21.2516 48.2837 21.312 47.95 21.444C47.6163 21.5759 47.314 21.7764 47.0627 22.0326C46.8309 22.2853 46.6528 22.5824 46.5391 22.906C46.4255 23.2295 46.3788 23.5728 46.4017 23.9149C46.3278 24.8967 45.9019 25.8187 45.2024 26.5115C45.0301 26.6931 44.8391 26.8562 44.6328 26.9979C44.5547 26.6044 44.3427 26.2501 44.0329 25.9952C43.7231 25.7404 43.3345 25.6007 42.9333 25.6H41.2C40.7405 25.6006 40.2999 25.7834 39.975 26.1083C39.6501 26.4333 39.4673 26.8738 39.4667 27.3333V35.1333C39.4673 35.5929 39.6501 36.0334 39.975 36.3583C40.2999 36.6833 40.7405 36.8661 41.2 36.8667H42.9333C43.2656 36.8659 43.5906 36.7695 43.8696 36.5892C44.1487 36.4089 44.37 36.1521 44.5072 35.8496C45.6042 36.5045 46.8558 36.8556 48.1333 36.8667H52.4667C53.156 36.8659 53.8169 36.5917 54.3043 36.1043C54.7917 35.6169 55.0659 34.956 55.0667 34.2667V29.0667ZM16.0667 55.9333C15.4837 55.9323 14.9026 55.8683 14.3333 55.7427V58.9667C14.3333 59.7712 14.6529 60.5427 15.2218 61.1116C15.7906 61.6804 16.5622 62 17.3667 62C18.1712 62 18.9427 61.6804 19.5116 61.1116C20.0804 60.5427 20.4 59.7712 20.4 58.9667V55.9593C20.1227 55.942 19.828 55.9333 19.5333 55.9333H16.0667ZM32.5333 45.1347V51.132C33.0602 50.8285 33.4979 50.3916 33.8022 49.8651C34.1065 49.3387 34.2667 48.7414 34.2667 48.1333C34.2667 47.5253 34.1065 46.928 33.8022 46.4015C33.4979 45.8751 33.0602 45.4381 32.5333 45.1347ZM39.4667 47.2667H36.8667C36.6368 47.2667 36.4164 47.358 36.2538 47.5205C36.0913 47.683 36 47.9035 36 48.1333C36 48.3632 36.0913 48.5836 36.2538 48.7462C36.4164 48.9087 36.6368 49 36.8667 49H39.4667C39.6965 49 39.917 48.9087 40.0795 48.7462C40.242 48.5836 40.3333 48.3632 40.3333 48.1333C40.3333 47.9035 40.242 47.683 40.0795 47.5205C39.917 47.358 39.6965 47.2667 39.4667 47.2667ZM39.7409 51.6449L37.1409 50.7782C37.0329 50.7419 36.9188 50.7272 36.8051 50.735C36.6914 50.7429 36.5804 50.7731 36.4784 50.8239C36.3764 50.8747 36.2855 50.9451 36.2107 51.0311C36.136 51.1171 36.079 51.217 36.0429 51.3251C36.0068 51.4332 35.9924 51.5473 36.0005 51.661C36.0086 51.7747 36.0391 51.8856 36.0902 51.9875C36.1412 52.0893 36.2118 52.1801 36.298 52.2547C36.3842 52.3292 36.4843 52.386 36.5924 52.4218L39.1924 53.2885C39.4102 53.3606 39.6477 53.3433 39.8528 53.2406C40.0579 53.1378 40.2139 52.9578 40.2865 52.7402C40.3591 52.5226 40.3425 52.2851 40.2402 52.0797C40.1379 51.8744 39.9583 51.718 39.7409 51.6449ZM36.8667 45.5333C36.9599 45.5333 37.0525 45.5181 37.1409 45.4885L39.7409 44.6218C39.8491 44.586 39.9491 44.5292 40.0353 44.4547C40.1215 44.3801 40.1921 44.2893 40.2432 44.1875C40.2942 44.0856 40.3247 43.9747 40.3328 43.861C40.3409 43.7473 40.3265 43.6332 40.2904 43.5251C40.2544 43.417 40.1973 43.3171 40.1226 43.2311C40.0479 43.1451 39.9569 43.0747 39.8549 43.0239C39.7529 42.9731 39.6419 42.9429 39.5282 42.935C39.4145 42.9272 39.3004 42.9419 39.1924 42.9782L36.5924 43.8449C36.3973 43.91 36.2318 44.0424 36.1253 44.2185C36.0189 44.3945 35.9786 44.6027 36.0116 44.8057C36.0445 45.0087 36.1487 45.1934 36.3053 45.3267C36.462 45.46 36.661 45.5333 36.8667 45.5333ZM18.6667 54.2V42.0667H16.0667C14.4577 42.0667 12.9146 42.7058 11.7769 43.8436C10.6392 44.9813 10 46.5244 10 48.1333C10 49.7423 10.6392 51.2854 11.7769 52.4231C12.9146 53.5608 14.4577 54.2 16.0667 54.2H18.6667ZM30.1686 37.7689C29.9867 37.7183 29.7934 37.7281 29.6175 37.7966C29.4416 37.8651 29.2926 37.9887 29.1927 38.1489C29.0987 38.3021 26.8764 41.7476 20.4 42.0382V54.2285C26.8764 54.519 29.0986 57.9643 29.1902 58.1127C29.2878 58.2752 29.4359 58.4013 29.6119 58.4715C29.7879 58.5418 29.9821 58.5525 30.1647 58.5019C30.3474 58.4513 30.5084 58.3422 30.6231 58.1913C30.7379 58.0405 30.8 57.8562 30.8 57.6667V38.6C30.7996 38.4116 30.7377 38.2285 30.6238 38.0785C30.5098 37.9285 30.35 37.8198 30.1686 37.7689Z" fill="white"/>
</svg>
